<svg xmlns="http://www.w3.org/2000/svg" width="109.683" height="109.683" viewBox="0 0 109.683 109.683">
  <g id="_83oj6T" data-name="83oj6T" transform="translate(-2875.463 2112.042)">
    <g id="Grupo_142435" data-name="Grupo 142435" transform="translate(2875.463 -2112.042)">
      <path id="Trazado_173878" data-name="Trazado 173878" d="M2875.463-2065.455c2.928-7.215,5.532-8.95,13.432-8.951,5.115,0,10.232.008,15.347,0,1.588,0,3.072.224,3.071,2.23,0,1.953-1.442,2.316-3.039,2.319-5.765,0-11.531-.012-17.3.007-4.336.015-7,2.582-7.009,6.952q-.051,33.984,0,67.969c.008,4.353,2.839,7.325,7.114,7.337,20.869.061,41.739.026,62.609.019a11.335,11.335,0,0,0,1.27-.183v-2.6c0-5.278-.042-10.557.013-15.835a11.144,11.144,0,0,1,10.995-11.053c2.192-.038,4.386.036,6.577-.021,1.625-.042,2.859.545,2.811,2.247-.046,1.651-1.289,2.273-2.9,2.242q-3.044-.058-6.091,0a6.73,6.73,0,0,0-6.927,6.927c-.054,4.782-.012,9.565-.012,14.693a16.585,16.585,0,0,0,1.454-1.128c7.472-7.457,14.965-14.894,22.353-22.433a5.3,5.3,0,0,0,1.355-3.359c.089-14.616.033-29.234.115-43.85.006-1.04.562-2.6,1.319-2.964.73-.347,2.052.548,3.114.9v49.723l-31.2,31.2h-68.735a12.394,12.394,0,0,1-9.75-9.749Z" transform="translate(-2875.463 2092.755)" fill="#12263f"/>
      <path id="Trazado_173879" data-name="Trazado 173879" d="M2983.576-2112.042c2.627,1.179,3.542,3.234,3.437,6.055-.141,3.8-.01,7.616-.044,11.424-.031,3.592-1.786,5.39-5.379,5.406q-12.883.056-25.768,0c-3.59-.016-5.346-1.818-5.376-5.41-.032-3.808.1-7.622-.044-11.424-.107-2.825.811-4.875,3.438-6.051Zm-28.55,18.19H2982.3V-2107.4h-27.279Z" transform="translate(-2913.866 2112.042)" fill="#12263f"/>
      <path id="Trazado_173880" data-name="Trazado 173880" d="M2968.714-2032.954c-4.3,0-8.6.021-12.9-.006-3.661-.023-5.317-1.695-5.342-5.387-.028-4.056-.035-8.112,0-12.168.032-3.5,1.738-5.209,5.264-5.223q13.02-.048,26.04,0c3.5.014,5.187,1.746,5.218,5.271.035,4.137.043,8.274,0,12.411-.038,3.357-1.764,5.061-5.14,5.091C2977.475-2032.925,2973.094-2032.955,2968.714-2032.954Zm13.7-4.615v-13.5h-27.353v13.5Z" transform="translate(-2913.896 2083.198)" fill="#12263f"/>
      <path id="Trazado_173881" data-name="Trazado 173881" d="M2968.583-1976.671c-4.379,0-8.758.032-13.137-.01-3.247-.032-4.93-1.705-4.971-4.969q-.079-6.324,0-12.65c.035-3.316,1.661-5,4.9-5.012q13.378-.054,26.76,0c3.112.013,4.8,1.7,4.847,4.819q.093,6.445,0,12.893c-.043,3.227-1.76,4.891-5.022,4.919C2977.5-1976.641,2973.043-1976.671,2968.583-1976.671Zm-13.507-18.063v13.392h27.262v-13.392Z" transform="translate(-2913.889 2054.279)" fill="#12263f"/>
      <path id="Trazado_173882" data-name="Trazado 173882" d="M3042.615-2060.458a26.026,26.026,0,0,1,2.714,1.919c1.117,1.011,1.439,2.463.135,3.316a3.368,3.368,0,0,1-3.159-.157,86.517,86.517,0,0,1-6.584-6.483,2.258,2.258,0,0,1,.066-3.456c2.168-2.193,4.259-4.481,6.606-6.465.652-.551,2.09-.172,3.168-.22-.008,1.089.318,2.342-.115,3.222-.456.928-1.636,1.5-2.5,2.229l.3.679c2.7,0,5.405.146,8.078-.1a2.854,2.854,0,0,0,1.8-2.1c.149-6.083.109-12.171.076-18.257-.01-1.888-1.229-2.438-2.933-2.425-4.138.031-8.277-.007-12.416.016-1.716.009-3.068-.608-2.736-2.464a3.074,3.074,0,0,1,2.243-1.9q7.172-.258,14.359-.03a6.135,6.135,0,0,1,5.9,6.018q.173,9.857,0,19.718a6.19,6.19,0,0,1-6.163,6c-2.675.086-5.352.065-8.029.1-.045,0-.089.121-.133.186Z" transform="translate(-2957.202 2102.405)" fill="#12263f"/>
      <path id="Trazado_173883" data-name="Trazado 173883" d="M2908.81-2005.137c-2.318,0-4.637.013-6.955,0-5.047-.032-7.5-2.44-7.517-7.421q-.031-8.642,0-17.285c.025-4.476,2.64-7.125,7.09-7.174,4.138-.046,8.277,0,12.416-.018,1.6-.008,3.094.27,3.133,2.2.043,2.141-1.552,2.292-3.237,2.272-3.895-.045-7.791.028-11.685-.03-2.2-.032-3.319.779-3.292,3.128q.1,8.4,0,16.8c-.025,2.174.871,3.128,3.048,3.058,2.263-.073,4.532-.016,7.422-.016-1.1-1.139-1.851-1.9-2.584-2.687-1.018-1.089-1.431-2.486-.133-3.352a3.36,3.36,0,0,1,3.16.122,85.507,85.507,0,0,1,6.6,6.47c1.15,1.2.972,2.506-.164,3.66-2.048,2.082-4.1,4.156-6.19,6.2-1.125,1.1-2.449,1.476-3.621.194-1.085-1.188-.656-2.441.457-3.409.791-.688,1.7-1.24,2.556-1.853Z" transform="translate(-2885.127 2073.602)" fill="#12263f"/>
      <path id="Trazado_173884" data-name="Trazado 173884" d="M2917.27-1938.5c4.295,0,8.59-.034,12.885.011,3.761.04,5.219,1.572,5.249,5.359.06,7.707-.462,8.228-8.237,8.228-7.455,0-14.91.012-22.366,0-4.35-.01-5.763-1.46-5.792-5.86,0-.729-.008-1.458,0-2.188.053-4.033,1.53-5.513,5.617-5.54C2908.842-1938.523,2913.056-1938.5,2917.27-1938.5Zm-13.583,8.864h27.1v-4.217h-27.1Z" transform="translate(-2887.529 2023.104)" fill="#12263f"/>
      <path id="Trazado_173885" data-name="Trazado 173885" d="M2991.246-1933.986c-1.7,0-3.405.016-5.107-.006-1.458-.019-2.616-.575-2.672-2.187-.056-1.632,1.053-2.271,2.537-2.283q5.35-.041,10.7-.007c1.495.007,2.561.62,2.52,2.28s-1.157,2.19-2.627,2.2C2994.813-1933.975,2993.029-1933.986,2991.246-1933.986Z" transform="translate(-2930.816 2023.089)" fill="#12263f"/>
      <path id="Trazado_173886" data-name="Trazado 173886" d="M2987.128-1915.392c-1.886.009-3.609-.062-3.62-2.2-.009-2.058,1.606-2.337,3.276-2.357s3.3.271,3.352,2.292C2990.193-1915.538,2988.507-1915.357,2987.128-1915.392Z" transform="translate(-2930.839 2013.593)" fill="#12263f"/>
      <path id="Trazado_173887" data-name="Trazado 173887" d="M3005.524-1915.378c-1.635-.007-3.265-.162-3.176-2.341.087-2.124,1.748-2.212,3.354-2.216,1.663,0,3.237.28,3.181,2.389C3008.825-1915.368,3007.109-1915.393,3005.524-1915.378Z" transform="translate(-2940.492 2013.583)" fill="#12263f"/>
    </g>
  </g>
</svg>
