<svg xmlns="http://www.w3.org/2000/svg" xmlns:xlink="http://www.w3.org/1999/xlink" width="327.321" height="65.972" viewBox="0 0 327.321 65.972">
  <defs>
    <linearGradient id="linear-gradient" x1="0.5" x2="0.5" y2="1" gradientUnits="objectBoundingBox">
      <stop offset="0" stop-color="#4090de"/>
      <stop offset="1" stop-color="#3c6d9d"/>
    </linearGradient>
  </defs>
  <g id="Grupo_142478" data-name="Grupo 142478" transform="translate(-618.289 -1910.543)">
    <rect id="Rect치ngulo_37320" data-name="Rect치ngulo 37320" width="326.053" height="65.972" rx="10" transform="translate(619.557 1910.543)" fill="url(#linear-gradient)"/>
    <g id="Rect치ngulo_37321" data-name="Rect치ngulo 37321" transform="translate(618.289 1910.543)" fill="#fff" stroke="#3c6d9d" stroke-width="1">
      <rect width="62.166" height="65.972" rx="10" stroke="none"/>
      <rect x="0.5" y="0.5" width="61.166" height="64.972" rx="9.5" fill="none"/>
    </g>
    <path id="Trazado_186763" data-name="Trazado 186763" d="M11.5-4.286A4.97,4.97,0,0,1,9.922-.979,5.184,5.184,0,0,1,6.383.186,4.76,4.76,0,0,1,2.547-1.531,6.905,6.905,0,0,1,1.1-6.123v-1.3a7.7,7.7,0,0,1,.673-3.312,5.024,5.024,0,0,1,1.906-2.194,5.308,5.308,0,0,1,2.857-.765,4.881,4.881,0,0,1,3.451,1.2A5.029,5.029,0,0,1,11.5-9.166H9.713a3.881,3.881,0,0,0-1.007-2.345,3.046,3.046,0,0,0-2.166-.726,3.187,3.187,0,0,0-2.677,1.263,5.8,5.8,0,0,0-.969,3.593v1.309a5.959,5.959,0,0,0,.918,3.5,2.968,2.968,0,0,0,2.57,1.3A3.428,3.428,0,0,0,8.66-1.944,3.733,3.733,0,0,0,9.713-4.286ZM15.53,0H13.814V-14.25H15.53Zm8.943,0a3.605,3.605,0,0,1-.241-1.058A3.829,3.829,0,0,1,21.375.186a3.543,3.543,0,0,1-2.435-.84,2.716,2.716,0,0,1-.951-2.129,2.838,2.838,0,0,1,1.192-2.435,5.621,5.621,0,0,1,3.354-.867H24.2v-.789a1.928,1.928,0,0,0-.538-1.433,2.163,2.163,0,0,0-1.586-.533,2.5,2.5,0,0,0-1.54.464,1.367,1.367,0,0,0-.622,1.123H18.193a2.369,2.369,0,0,1,.533-1.452,3.641,3.641,0,0,1,1.447-1.109,4.869,4.869,0,0,1,2.009-.408,3.968,3.968,0,0,1,2.718.867,3.129,3.129,0,0,1,1.021,2.389v4.62a5.649,5.649,0,0,0,.353,2.2V0ZM21.625-1.308a3.016,3.016,0,0,0,1.531-.417A2.525,2.525,0,0,0,24.2-2.811v-2.06H22.859q-3.154,0-3.154,1.846a1.562,1.562,0,0,0,.538,1.262A2.068,2.068,0,0,0,21.625-1.308ZM34.456-2.663a1.264,1.264,0,0,0-.524-1.081A5.045,5.045,0,0,0,32.1-4.407a8.641,8.641,0,0,1-2.069-.668A2.943,2.943,0,0,1,28.9-6a2.219,2.219,0,0,1-.366-1.28A2.6,2.6,0,0,1,29.581-9.37a4.076,4.076,0,0,1,2.667-.854,4.194,4.194,0,0,1,2.769.881A2.8,2.8,0,0,1,36.08-7.088H34.354a1.549,1.549,0,0,0-.6-1.215,2.242,2.242,0,0,0-1.508-.51,2.346,2.346,0,0,0-1.466.408,1.285,1.285,0,0,0-.529,1.067,1.041,1.041,0,0,0,.492.937,6.05,6.05,0,0,0,1.777.6,9.257,9.257,0,0,1,2.083.687,3.038,3.038,0,0,1,1.183.96,2.361,2.361,0,0,1,.385,1.368A2.569,2.569,0,0,1,35.1-.626,4.514,4.514,0,0,1,32.3.186,5.055,5.055,0,0,1,30.17-.241a3.47,3.47,0,0,1-1.452-1.192,2.873,2.873,0,0,1-.524-1.656H29.91A1.777,1.777,0,0,0,30.6-1.721a2.681,2.681,0,0,0,1.7.506,2.768,2.768,0,0,0,1.563-.394A1.212,1.212,0,0,0,34.456-2.663ZM40.273,0H38.557V-10.038h1.716ZM38.417-12.7a1.024,1.024,0,0,1,.255-.705.958.958,0,0,1,.756-.288.973.973,0,0,1,.761.288,1.014,1.014,0,0,1,.26.705.98.98,0,0,1-.26.7.99.99,0,0,1-.761.278A.975.975,0,0,1,38.673-12,.991.991,0,0,1,38.417-12.7ZM43.594,0V-8.711H42.008v-1.327h1.586v-.854a3.487,3.487,0,0,1,.96-2.616,3.724,3.724,0,0,1,2.714-.937,8.171,8.171,0,0,1,2.625.566l-.288,1.447A5.947,5.947,0,0,0,47.4-12.9a2.16,2.16,0,0,0-1.591.5,2.046,2.046,0,0,0-.487,1.489v.872h2.05v1.327H45.32V0Zm7.153,0H49.021V-10.038h1.726Zm6.819-1.215a2.472,2.472,0,0,0,1.6-.557,1.958,1.958,0,0,0,.761-1.392h1.624a3.112,3.112,0,0,1-.594,1.642A3.911,3.911,0,0,1,59.5-.278a4.216,4.216,0,0,1-1.934.464A4.135,4.135,0,0,1,54.3-1.183a5.45,5.45,0,0,1-1.211-3.743v-.288a6.043,6.043,0,0,1,.538-2.607,4.1,4.1,0,0,1,1.545-1.772,4.388,4.388,0,0,1,2.38-.631,4.026,4.026,0,0,1,2.806,1.011,3.614,3.614,0,0,1,1.192,2.625H59.932a2.365,2.365,0,0,0-.738-1.6,2.294,2.294,0,0,0-1.637-.626,2.4,2.4,0,0,0-2.027.942,4.422,4.422,0,0,0-.719,2.723v.325a4.334,4.334,0,0,0,.714,2.672A2.414,2.414,0,0,0,57.566-1.215ZM69.682,0a3.605,3.605,0,0,1-.241-1.058A3.829,3.829,0,0,1,66.583.186a3.543,3.543,0,0,1-2.435-.84A2.716,2.716,0,0,1,63.2-2.783a2.838,2.838,0,0,1,1.192-2.435,5.621,5.621,0,0,1,3.354-.867h1.67v-.789a1.928,1.928,0,0,0-.538-1.433,2.163,2.163,0,0,0-1.586-.533,2.5,2.5,0,0,0-1.54.464,1.367,1.367,0,0,0-.622,1.123H63.4a2.369,2.369,0,0,1,.533-1.452,3.641,3.641,0,0,1,1.447-1.109,4.869,4.869,0,0,1,2.009-.408,3.968,3.968,0,0,1,2.718.867,3.129,3.129,0,0,1,1.021,2.389v4.62a5.649,5.649,0,0,0,.353,2.2V0ZM66.834-1.308a3.016,3.016,0,0,0,1.531-.417,2.525,2.525,0,0,0,1.048-1.085v-2.06H68.068q-3.154,0-3.154,1.846a1.562,1.562,0,0,0,.538,1.262A2.068,2.068,0,0,0,66.834-1.308Zm11.012.093a2.472,2.472,0,0,0,1.6-.557,1.958,1.958,0,0,0,.761-1.392h1.624a3.112,3.112,0,0,1-.594,1.642A3.911,3.911,0,0,1,79.781-.278a4.216,4.216,0,0,1-1.934.464,4.135,4.135,0,0,1-3.261-1.368,5.45,5.45,0,0,1-1.211-3.743v-.288a6.043,6.043,0,0,1,.538-2.607,4.1,4.1,0,0,1,1.545-1.772,4.388,4.388,0,0,1,2.38-.631,4.026,4.026,0,0,1,2.806,1.011,3.614,3.614,0,0,1,1.192,2.625H80.212a2.365,2.365,0,0,0-.738-1.6,2.294,2.294,0,0,0-1.637-.626,2.4,2.4,0,0,0-2.027.942,4.422,4.422,0,0,0-.719,2.723v.325a4.334,4.334,0,0,0,.714,2.672A2.414,2.414,0,0,0,77.846-1.215ZM85.63,0H83.914V-10.038H85.63ZM83.774-12.7a1.025,1.025,0,0,1,.255-.705.958.958,0,0,1,.756-.288.973.973,0,0,1,.761.288,1.014,1.014,0,0,1,.26.705.98.98,0,0,1-.26.7.99.99,0,0,1-.761.278A.975.975,0,0,1,84.03-12,.991.991,0,0,1,83.774-12.7Zm4.147,7.589a5.929,5.929,0,0,1,.58-2.653,4.326,4.326,0,0,1,1.614-1.818,4.394,4.394,0,0,1,2.361-.64A4.233,4.233,0,0,1,95.793-8.8,5.461,5.461,0,0,1,97.06-5.028v.121a5.981,5.981,0,0,1-.561,2.63,4.262,4.262,0,0,1-1.6,1.814,4.445,4.445,0,0,1-2.4.649,4.223,4.223,0,0,1-3.307-1.419,5.433,5.433,0,0,1-1.266-3.757Zm1.726.2a4.294,4.294,0,0,0,.775,2.681A2.479,2.479,0,0,0,92.5-1.215,2.464,2.464,0,0,0,94.573-2.24a4.7,4.7,0,0,0,.77-2.871,4.287,4.287,0,0,0-.784-2.677,2.492,2.492,0,0,0-2.083-1.025A2.465,2.465,0,0,0,90.426-7.8,4.661,4.661,0,0,0,89.647-4.908Zm3.609-9.324h2.078L92.848-11.5l-1.382,0Zm7.58,4.193.056,1.262a3.658,3.658,0,0,1,3.006-1.447q3.182,0,3.21,3.59V0h-1.716V-6.643a2.311,2.311,0,0,0-.5-1.6,1.989,1.989,0,0,0-1.517-.52,2.477,2.477,0,0,0-1.466.445,3.024,3.024,0,0,0-.983,1.169V0H99.212V-10.038Z" transform="translate(753.947 1950.11)" fill="#fff"/>
    <g id="jS21yb.tif" transform="translate(632.476 1925.309)">
      <g id="Grupo_142300" data-name="Grupo 142300" transform="translate(0)">
        <path id="Trazado_118083" data-name="Trazado 118083" d="M-104.812,2637.918c1.267-1.5,2.368-2.818,3.476-4.125a2.233,2.233,0,0,1,3.57-.32c2.2,1.82,2.265,2.523.424,4.715-2.357,2.806-4.723,5.6-7.057,8.43a1.881,1.881,0,0,0-.4,1.1c-.027,4.315-.016,8.63-.018,12.945,0,1.593-.681,2.271-2.279,2.271q-11.462,0-22.925,0c-1.549,0-2.241-.688-2.241-2.23q0-16.494,0-32.988a1.92,1.92,0,0,1,2.182-2.211c6.264,0,12.528,0,18.792-.01a2.448,2.448,0,0,1,1.878.763q1.906,1.953,3.859,3.861a2.351,2.351,0,0,1,.742,1.809C-104.826,2633.846-104.812,2635.761-104.812,2637.918Zm-1.247-6.175c-1.372,0-2.663,0-3.955,0-.908,0-1.031-.128-1.034-1.043,0-1.291,0-2.582,0-3.892a3.412,3.412,0,0,0-.378-.05q-9.354,0-18.707-.01c-.769,0-.883.419-.883,1.052q.012,16.41.007,32.82c0,.958.115,1.071,1.085,1.071q11.38,0,22.761,0c1.007,0,1.1-.1,1.105-1.129q0-5.535,0-11.07v-.9c-1.133,1.343-2.109,2.507-3.1,3.661a2.251,2.251,0,0,1-.671.633q-2.3,1.048-4.641,2.019a.614.614,0,0,1-.885-.744c.368-1.647.767-3.287,1.186-4.922a2.023,2.023,0,0,1,.459-.707c2.145-2.576,4.249-5.187,6.468-7.7a4.322,4.322,0,0,0,1.206-3.343C-106.138,2635.607-106.059,2633.713-106.059,2631.744Zm4.017,4.811-10.645,12.694,2.605,2.186,10.647-12.69Z" transform="translate(132.259 -2625.498)" fill="#12263f"/>
        <path id="Trazado_118084" data-name="Trazado 118084" d="M-101.892,2754.037h-1.71a.675.675,0,0,1-.765-.764c0-1.166,0-2.332,0-3.5a.647.647,0,0,1,.721-.723c1.166,0,2.332,0,3.5,0a.675.675,0,0,1,.765.763c0,1.166,0,2.332,0,3.5a.649.649,0,0,1-.722.724C-100.7,2754.041-101.3,2754.037-101.892,2754.037Zm1.248-3.689h-2.418v2.377h2.418Z" transform="translate(108.735 -2729.701)" fill="#12263f"/>
        <path id="Trazado_118085" data-name="Trazado 118085" d="M-101.867,2796.821c.544,0,1.088.007,1.632,0s.828.225.826.783q0,1.711,0,3.421c0,.556-.28.793-.821.789q-1.671-.012-3.342,0c-.6.005-.836-.285-.829-.863.013-1.088.016-2.177,0-3.265-.01-.637.288-.89.9-.868C-102.956,2796.836-102.412,2796.821-101.867,2796.821Zm1.161,3.726v-2.422h-2.381v2.422Z" transform="translate(108.765 -2769.986)" fill="#12263f"/>
        <path id="Trazado_118086" data-name="Trazado 118086" d="M-58.175,2713.177c1.764,0,3.528,0,5.292,0,.481,0,.947.061.923.663-.022.546-.472.59-.919.589q-5.292-.007-10.583,0c-.481,0-.946-.06-.922-.663.022-.548.472-.591.918-.589C-61.7,2713.18-59.939,2713.177-58.175,2713.177Z" transform="translate(75.015 -2699.443)" fill="#12263f"/>
        <path id="Trazado_118087" data-name="Trazado 118087" d="M-56.33,2666.613c-1.062,0-2.128.043-3.185-.029a1.049,1.049,0,0,1-.787-.595c-.091-.467.325-.625.769-.624,2.151,0,4.3-.021,6.452.029.28.007.551.383.826.588-.27.21-.529.583-.812.6C-54.151,2666.655-55.242,2666.613-56.33,2666.613Z" transform="translate(71.582 -2659.119)" fill="#12263f"/>
        <path id="Trazado_118088" data-name="Trazado 118088" d="M-101.009,2656.662c.51-1.009.956-1.878,1.388-2.754.209-.424.454-.842.99-.565s.327.727.117,1.141c-.538,1.062-1.06,2.131-1.6,3.19-.377.733-.722.794-1.305.234a17.322,17.322,0,0,1-1.572-1.608c-.164-.206-.068-.62-.091-.938.319.028.716-.055.939.106A8.764,8.764,0,0,1-101.009,2656.662Z" transform="translate(107.66 -2648.907)" fill="#12263f"/>
        <path id="Trazado_118089" data-name="Trazado 118089" d="M-102.033,2704.45c.5-1,.933-1.847,1.356-2.7.2-.411.425-.86.977-.6s.371.706.157,1.126c-.55,1.084-1.082,2.177-1.64,3.258-.353.683-.706.74-1.26.212-.525-.5-1.028-1.023-1.543-1.532-.3-.3-.51-.636-.156-1.008.39-.409.746-.187,1.062.142S-102.441,2704.019-102.033,2704.45Z" transform="translate(108.703 -2689.235)" fill="#12263f"/>
        <path id="Trazado_118090" data-name="Trazado 118090" d="M-60.935,2762.216c-.881,0-1.761,0-2.642,0-.451,0-.839-.187-.742-.654a.981.981,0,0,1,.74-.566c1.76-.05,3.522-.025,5.283-.027.451,0,.838.187.743.653a1,1,0,0,1-.742.566C-59.17,2762.262-60.054,2762.216-60.935,2762.216Z" transform="translate(74.971 -2739.75)" fill="#12263f"/>
        <path id="Trazado_118091" data-name="Trazado 118091" d="M-62.022,2809.943a10.356,10.356,0,0,1-1.7-.027c-.275-.046-.5-.383-.749-.588.244-.209.478-.585.733-.6a31.391,31.391,0,0,1,3.489,0c.259.014.5.382.746.587-.244.209-.466.557-.736.6A11.443,11.443,0,0,1-62.022,2809.943Z" transform="translate(75.09 -2779.992)" fill="#12263f"/>
      </g>
    </g>
  </g>
</svg>
