<svg xmlns="http://www.w3.org/2000/svg" width="89.039" height="121.546" viewBox="0 0 89.039 121.546">
  <g id="Grupo_142441" data-name="Grupo 142441" transform="translate(-19.305 5.549)">
    <g id="mRGiiG.tif" transform="translate(19.305 -5.549)">
      <g id="Grupo_142436" data-name="Grupo 142436">
        <path id="Trazado_173888" data-name="Trazado 173888" d="M3472.152-2076.355a6.811,6.811,0,0,1-4.031-2.846c-1.6-2.737-1.155-5.3.846-7.737a6.033,6.033,0,0,1-.854-5.916,4.914,4.914,0,0,1,1.229-1.893,1.583,1.583,0,0,0,.566-1.91,50.014,50.014,0,0,0-3.139-7.512c-2.758-4.618-6.042-8.923-8.784-13.55a86.039,86.039,0,0,1-11.687-33.168,39.782,39.782,0,0,1,4.657-25.144,40.836,40.836,0,0,1,14.744-15.107,47.681,47.681,0,0,1,24.317-6.762c1.685-.03,2.429.779,2.429,2.682q.006,15.023,0,30.046v1.546h8.142v-2.212c0-2.414-.024-4.827.016-7.24a1.324,1.324,0,0,0-.834-1.382,5.924,5.924,0,0,1-3.039-6.821,6.1,6.1,0,0,1,5.949-4.565,6.1,6.1,0,0,1,5.816,4.727,6.128,6.128,0,0,1-2.99,6.674c-.357.208-.826.638-.833.973-.063,3.252-.038,6.506-.038,9.951,1.159,0,2.228,0,3.3,0,2.132.011,2.775.666,2.786,2.835.005,1.034,0,2.069,0,3.163h6.049c0-2.034.03-4.068-.038-6.1-.009-.252-.514-.538-.839-.72a6.048,6.048,0,0,1-2.969-6.769,6.1,6.1,0,0,1,5.8-4.6,6.057,6.057,0,0,1,5.9,4.449,5.967,5.967,0,0,1-3,6.949,1.235,1.235,0,0,0-.79,1.288c.037,2.292.025,4.585.011,6.878-.012,2.014-.753,2.746-2.784,2.755-2.4.012-4.8,0-7.272,0v8.058h4.336c2.372,0,4.745-.02,7.117.012a1.316,1.316,0,0,0,1.386-.816,5.964,5.964,0,0,1,6.96-2.981,6.015,6.015,0,0,1,4.358,6.313,6.022,6.022,0,0,1-5.207,5.5,5.909,5.909,0,0,1-6.059-3.064,1.455,1.455,0,0,0-1.565-.917c-3.735.033-7.47.015-11.4.015,0,1.172.01,2.279,0,3.385-.021,1.975-.721,2.671-2.7,2.679-2.407.01-4.815,0-7.323,0v4.066c1.609,0,3.278,0,4.948,0,2.424,0,3,.573,3.01,2.961,0,.322.027.646,0,.965a3.163,3.163,0,0,0,1.614,3.523,5.582,5.582,0,0,1,2.01,6.943,6.062,6.062,0,0,1-5.973,3.849,6.1,6.1,0,0,1-5.588-4.853,6.071,6.071,0,0,1,3.049-6.531c1.021-.569,1.062-.715.723-2.785-1.688,0-3.4,0-5.12,0-2.164-.008-2.833-.668-2.842-2.795-.007-1.649-.01-3.3-.018-4.947a1.517,1.517,0,0,0-.092-.311h-3.865v38.493h1.236c4.183,0,8.379.218,12.543-.054,5.321-.349,8.848,4.8,5.86,9.354a23.053,23.053,0,0,1,1.444,4.448,5.821,5.821,0,0,1-4.253,6.238c-.266.086-.525.189-.788.284Zm16.18-42.767c-2.707.337-3.5-1.293-3.7-3.52-.007-.079-.053-.154-.06-.233-.054-.631-.315-1.132-1.014-1.07a2.506,2.506,0,0,0-1.283.479,12.971,12.971,0,0,0-1.3,1.417,2.081,2.081,0,0,1-2.723.5c-1.312-.694-2.665-1.333-3.9-2.146-2.9-1.912-3.7-1.737-2.21-5.843a1.393,1.393,0,0,0-.33-1.195,1.633,1.633,0,0,0-1.225-.337,12.658,12.658,0,0,0-1.828.589,2.222,2.222,0,0,1-2.81-1c-.8-1.3-1.694-2.546-2.39-3.9-1.529-2.967-2.143-3.13,1.015-5.854a1.545,1.545,0,0,0,.422-1.292,1.743,1.743,0,0,0-1-.909,12.649,12.649,0,0,0-1.875-.422c-1.558-.364-2.027-.932-2.042-2.493-.014-1.368,0-2.735,0-4.1,0-3.995,0-3.975,3.924-4.85a1.546,1.546,0,0,0,1-.907,1.793,1.793,0,0,0-.424-1.3,11.159,11.159,0,0,0-1.41-1.311,2.062,2.062,0,0,1-.532-2.711,46.825,46.825,0,0,1,2.27-4.1c1.607-2.414,1.4-3.627,5.585-2.069a1.532,1.532,0,0,0,1.326-.309,1.742,1.742,0,0,0,.3-1.315,11.575,11.575,0,0,0-.572-1.834,2.107,2.107,0,0,1,.906-2.623,39.811,39.811,0,0,1,3.782-2.348c2.959-1.484,3.239-2.551,6.145.969a1.8,1.8,0,0,0,1.2.376c.986.041.954-.8,1.088-1.435.632-2.96.624-2.962,3.526-3.468.032-.006.058-.049.136-.118v-13.942c-.231,0-.384-.007-.535,0a42.468,42.468,0,0,0-17.548,4.714,37.5,37.5,0,0,0-16.206,15.85c-4.213,7.913-4.909,16.313-3.264,24.955a85.208,85.208,0,0,0,14.133,33.733,94.583,94.583,0,0,1,5.93,9.217,90.336,90.336,0,0,1,3.637,8.556h13.864Zm.069-6.568c0-1.518-.04-3.038.016-4.554.03-.82-.271-1.058-1.069-1.19a18.21,18.21,0,0,1-14.7-21.8,18.316,18.316,0,0,1,14.78-14.114c.347-.06.91-.4.921-.626.079-1.684.042-3.374.042-5.062-.915,2.385-3.261,1.783-4.868,2.525-2.5,1.152-3.272-1.288-4.754-2.442l-3.07,1.812c1.306,2.36,1.115,4.1-.927,6.192-2.1,2.149-3.918,1.954-6.146.887l-1.843,3.166c2.216,1.378,3.071,2.948,2.329,5.808-.758,2.922-2.423,3.748-4.922,3.886v3.735c2.584.023,4.134.923,4.908,3.788.781,2.887-.107,4.491-2.318,5.864l1.869,3.183c2.3-1.215,4.08-1.194,6.174.9s2.108,3.874.9,6.169l3.063,1.775c1.478-1.206,2.271-3.535,4.707-2.434C3485.1-2127.488,3487.451-2128.086,3488.4-2125.689Zm18.183-13.622v-20.1h-14.063v20.1Zm-18.258,3.768v-27.66c-5.812.441-12.28,6.158-12.049,14.405C3476.464-2142.128,3482.606-2135.347,3488.327-2135.543Zm2.042,55.107H3497c3.458,0,6.915.014,10.371-.008a2.033,2.033,0,0,0,2.286-2.082c-.01-1.338-.937-2.065-2.682-2.066q-16.521-.005-33.043,0a6.447,6.447,0,0,0-.963.039,1.965,1.965,0,0,0-1.318,3.188,3.316,3.316,0,0,0,2.194.889C3479.354-2080.4,3484.861-2080.436,3490.369-2080.436Zm.078-12.115c-5.545,0-11.09-.009-16.635.005a1.841,1.841,0,0,0-2.077,1.715,2.086,2.086,0,0,0,1.883,2.138,8.169,8.169,0,0,0,1.083.029q15.731,0,31.462,0a6.844,6.844,0,0,0,1.32-.066,1.97,1.97,0,0,0,1.612-2.309c-.171-1.013-.875-1.505-2.254-1.507Q3498.644-2092.56,3490.447-2092.551Zm28.292-75.064a2.07,2.07,0,0,0,2.066-1.949,2.094,2.094,0,0,0-1.947-2.074,2.078,2.078,0,0,0-2.06,1.958A2.056,2.056,0,0,0,3518.738-2167.615Zm12.189,24.362a2.075,2.075,0,0,0-1.97-2.043,2.053,2.053,0,0,0-2.032,1.976,2.04,2.04,0,0,0,1.963,2.033A2.051,2.051,0,0,0,3530.927-2143.252Zm-26.342-36.524a2.041,2.041,0,0,0-2.015-1.986,2.03,2.03,0,0,0-1.959,2.037,2.019,2.019,0,0,0,2.009,1.983A2.032,2.032,0,0,0,3504.586-2179.776Zm2.036,58.792a2.01,2.01,0,0,0-1.954,2.031,2.016,2.016,0,0,0,2,1.984,2.016,2.016,0,0,0,1.951-2.034A2,2,0,0,0,3506.622-2120.984Z" transform="translate(-3445.923 2197.9)" fill="#12263f"/>
        <path id="Trazado_173889" data-name="Trazado 173889" d="M3783.026-2096.988l3.647-1.774c.571,1.341,1.111,2.609,1.7,3.987l-3.823,1.375Z" transform="translate(-3701.526 2122.73)" fill="#12263f"/>
        <path id="Trazado_173890" data-name="Trazado 173890" d="M3801.084-2024.635l-4.055-.342c.056-1.268.111-2.518.171-3.868h3.884Z" transform="translate(-3712.145 2069.716)" fill="#12263f"/>
        <path id="Trazado_173891" data-name="Trazado 173891" d="M3741.751-1872.262l3.43,2.143-2.334,3.5-3.322-2.3Z" transform="translate(-3668.543 1950.989)" fill="#12263f"/>
        <path id="Trazado_173892" data-name="Trazado 173892" d="M3687.513-2188.538l4.029,1.494c-.527,1.25-1.027,2.438-1.565,3.717l-3.678-1.348C3686.7-2185.959,3687.091-2187.2,3687.513-2188.538Z" transform="translate(-3628.185 2190.802)" fill="#12263f"/>
        <path id="Trazado_173893" data-name="Trazado 173893" d="M3798.5-2060.621l-4,.478c-.234-1.3-.451-2.5-.685-3.808l3.922-.937C3797.991-2063.448,3798.232-2062.1,3798.5-2060.621Z" transform="translate(-3709.705 2097.046)" fill="#12263f"/>
        <path id="Trazado_173894" data-name="Trazado 173894" d="M3760.551-1895.977l-3.557-1.92,1.811-3.586,3.642,1.735Z" transform="translate(-3681.789 1973.146)" fill="#12263f"/>
        <path id="Trazado_173895" data-name="Trazado 173895" d="M3718.125-2174.615l3.69,2.228-2.249,3.359-3.359-2.031Z" transform="translate(-3650.862 2180.244)" fill="#12263f"/>
        <path id="Trazado_173896" data-name="Trazado 173896" d="M3765.753-2126.55l3.165-2.514,2.52,3.514-3.4,2.185Z" transform="translate(-3688.43 2145.706)" fill="#12263f"/>
        <path id="Trazado_173897" data-name="Trazado 173897" d="M3659.211-2195.449c-.312,1.383-.582,2.583-.882,3.917l-3.86-.662c.175-1.363.335-2.617.511-4Z" transform="translate(-3604.051 2196.606)" fill="#12263f"/>
        <path id="Trazado_173898" data-name="Trazado 173898" d="M3704.823-1814.956l3.524,1.944c-.55,1.161-1.07,2.262-1.654,3.494l-3.764-1.494Z" transform="translate(-3640.794 1907.538)" fill="#12263f"/>
        <path id="Trazado_173899" data-name="Trazado 173899" d="M3743.13-2151.533l2.573-3.123,3.159,2.892-2.93,2.789Z" transform="translate(-3671.276 2165.111)" fill="#12263f"/>
        <path id="Trazado_173900" data-name="Trazado 173900" d="M3725.675-1842.124l-2.274,3.367-3.393-2.2c.807-1.195,1.544-2.288,2.346-3.477Z" transform="translate(-3653.744 1929.889)" fill="#12263f"/>
        <path id="Trazado_173901" data-name="Trazado 173901" d="M3771.385-1928.477c.523-1.3.994-2.465,1.5-3.73l3.77,1.406c-.514,1.3-1,2.531-1.551,3.91Z" transform="translate(-3692.7 1996.442)" fill="#12263f"/>
      </g>
    </g>
  </g>
</svg>
