<svg xmlns="http://www.w3.org/2000/svg" xmlns:xlink="http://www.w3.org/1999/xlink" width="143" height="143" viewBox="0 0 143 143">
  <defs>
    <linearGradient id="linear-gradient" x1="0.5" x2="0.5" y2="1" gradientUnits="objectBoundingBox">
      <stop offset="0" stop-color="#4090de"/>
      <stop offset="1" stop-color="#3c6d9d"/>
    </linearGradient>
  </defs>
  <g id="Grupo_143229" data-name="Grupo 143229" transform="translate(-651 -1275)">
    <path id="Trazado_113533" data-name="Trazado 113533" d="M71.5,0A71.5,71.5,0,1,1,0,71.5,71.5,71.5,0,0,1,71.5,0Z" transform="translate(651 1275)" fill="url(#linear-gradient)"/>
    <g id="eLQu5w.tif" transform="translate(3055.595 490.894)">
      <g id="Grupo_143239" data-name="Grupo 143239" transform="translate(-2370.595 815.463)">
        <path id="Trazado_184571" data-name="Trazado 184571" d="M-2370.595,837.269v-2.26a10.377,10.377,0,0,1,3.633-5.651c.792-.727,1.527-1.517,2.289-2.277,3.485-3.475,7.932-3.474,11.414,0q6.482,6.476,12.961,12.955c.195.195.4.381.674.646a24.714,24.714,0,0,1,23.471-25.2,24.549,24.549,0,0,1,25.578,22.493,23.349,23.349,0,0,1-4.153,15.731c-5.045,7.225-12.059,10.825-21.156,10.9.42.346.662.515.868.72q4.829,4.818,9.64,9.654a3.084,3.084,0,0,1,.727,1.207c1.294,4.176,2.549,8.365,3.828,12.546.682,2.227,1.569,4.413,1.28,6.821h-3.068a6.018,6.018,0,0,0-.652-.285c-5.153-1.584-10.312-3.149-15.457-4.76a3.953,3.953,0,0,1-1.539-.933q-6.453-6.387-12.855-12.825c-.2-.2-.421-.4-.512-.484l-2.068,2.014c.886.871,1.862,1.76,2.756,2.726a3.805,3.805,0,0,1,.742,4.407,3.663,3.663,0,0,1-3.78,2.35,13.955,13.955,0,0,1-2.782-.8,4,4,0,0,1-2.992,2.092,4.248,4.248,0,0,1-3.753-1.406c-.643.694-1.2,1.388-1.853,1.983a11.753,11.753,0,0,1-10.955,3.047,11.647,11.647,0,0,1-9.191-8.553,11.79,11.79,0,0,1,3.21-12.212c.5-.511,1.081-.944,1.654-1.439a4.157,4.157,0,0,1-1.466-3.756,4.113,4.113,0,0,1,2.254-3.1,1.06,1.06,0,0,0-.086-.219,4.051,4.051,0,0,1,.57-5.7c1.709-1.392,3.972-1.172,5.716.583.811.816,1.589,1.664,2.326,2.44l2.128-2.16c-.181-.15-.426-.321-.635-.53-5.045-5.037-10.064-10.1-15.138-15.107C-2368.619,841.3-2370.138,839.637-2370.595,837.269Zm32.942,38.953c.187-.171.385-.338.567-.52q5.082-5.077,10.162-10.156a12.345,12.345,0,0,1,10.039-3.668,23.818,23.818,0,0,0,6.257-.376,22.057,22.057,0,0,0,17.183-25.4,21.812,21.812,0,0,0-32.073-15.283c-8.077,4.488-11.87,11.635-11.381,20.927a12.7,12.7,0,0,1-3.67,10.125q-5.042,5.061-10.1,10.1c-.2.2-.393.418-.533.568l3.883,3.875,25.395-29c-.5,0-.788.005-1.079,0a5.192,5.192,0,0,1-4.893-6.1,5.212,5.212,0,0,1,5.732-4.207,5.172,5.172,0,0,1,4.533,5.223c0,.822,0,1.645,0,2.554h7.751v6.585c4.929-.863,7.053,1.33,7.664,4a5.175,5.175,0,0,1-3.545,5.941,5.02,5.02,0,0,1-3.767-.281,5.39,5.39,0,0,1-2.992-4.34l-28.992,25.528Zm25.195-38.794c-1.97,0-3.825-.016-5.678.019a1.152,1.152,0,0,0-.687.43q-10.468,11.917-20.916,23.849c-1.929,2.2-3.854,4.407-5.738,6.564l2.125,2.176,9.083-8q10.692-9.416,21.377-18.84a1.159,1.159,0,0,0,.417-.71C-2312.442,841.122-2312.458,839.324-2312.458,837.428Zm-48.488,34.9c-3.69,2.943-5.209,6.726-4.155,10.717a9.241,9.241,0,0,0,7.519,7.126c4.323.875,7.585-1.079,10.218-4.275Zm9.716-39.442c-1.5-1.524-2.938-3.093-4.494-4.53a4.941,4.941,0,0,0-6.62.105c-1.48,1.407-2.929,2.85-4.329,4.336a4.5,4.5,0,0,0-1.2,4.311,3.923,3.923,0,0,0,.693,1.687c1.589,1.769,3.265,3.46,4.88,5.148Zm36.751,49.832-12.8-12.808-4.314,4.31,12.812,12.809Zm6.623-6.736a5.31,5.31,0,0,1-.673-.5c-3.332-3.32-6.691-6.614-9.958-10a2.045,2.045,0,0,0-2.439-.623,9.586,9.586,0,0,0-4.419,2.839l12.876,12.883Zm-51.019-16.818a5.885,5.885,0,0,0-1.208,1.1c-.457.767.029,1.36.572,1.9q11.165,11.154,22.324,22.314a3.408,3.408,0,0,0,.542.48,1.4,1.4,0,0,0,2.108-.724,1.508,1.508,0,0,0-.553-1.716q-3.2-3.193-6.394-6.392-7.993-7.99-15.994-15.972A10.894,10.894,0,0,0-2358.874,859.169Zm56.64,33.691-4.3-13.964-9.664,9.667Zm-40.026-6.16a6.184,6.184,0,0,0,1.209-1.1c.407-.644.058-1.23-.433-1.721q-8.706-8.7-17.414-17.4c-.77-.768-1.558-.827-2.2-.2a1.426,1.426,0,0,0,.15,2.2q8.728,8.739,17.474,17.459A7.325,7.325,0,0,0-2342.26,886.7Zm-2.633-34.407-6.916-6.965-4.36,4.36,6.936,6.955Zm2.139-1.946a10.383,10.383,0,0,0,2.708-4.034,2.351,2.351,0,0,0-.68-3.066c-1.64-1.412-3.094-3.039-4.526-4.474l-4.544,4.54Zm-15.722-2.666,10.915-10.9-1.6-1.816-11.066,11.068c.46.437,1,.957,1.55,1.475C-2358.577,847.594-2358.477,847.68-2358.476,847.681Zm38.254-12.849c0-.99.057-1.878-.013-2.755a2.6,2.6,0,0,0-2.66-2.393,2.66,2.66,0,0,0-2.483,2.507,2.59,2.59,0,0,0,2.341,2.625C-2322.137,834.9-2321.223,834.832-2320.222,834.832Zm12.461,9.056c-.13,0-.291-.006-.451,0-1.365.061-1.669.372-1.667,1.706,0,.348-.019.7.014,1.044a2.621,2.621,0,0,0,2.163,2.372,2.6,2.6,0,0,0,2.683-1.358A2.622,2.622,0,0,0-2307.761,843.888Z" transform="translate(2370.595 -815.463)" fill="#fff"/>
        <path id="Trazado_184572" data-name="Trazado 184572" d="M-2027.046,850.061v-2.5a18.163,18.163,0,0,1,9.36,2.426,19.38,19.38,0,0,1,9.215,11.386l-2.437.743C-2013.7,854.6-2019.062,850.628-2027.046,850.061Z" transform="translate(2082.621 -842.37)" fill="#fff"/>
        <path id="Trazado_184573" data-name="Trazado 184573" d="M-1924.448,950.448l2.6-.377c.067.957.127,1.819.19,2.73h-2.58Z" transform="translate(1996.62 -928.296)" fill="#fff"/>
      </g>
    </g>
  </g>
</svg>
