<svg xmlns="http://www.w3.org/2000/svg" xmlns:xlink="http://www.w3.org/1999/xlink" width="143" height="143" viewBox="0 0 143 143">
  <defs>
    <linearGradient id="linear-gradient" x1="0.5" x2="0.5" y2="1" gradientUnits="objectBoundingBox">
      <stop offset="0" stop-color="#4090de"/>
      <stop offset="1" stop-color="#3c6d9d"/>
    </linearGradient>
  </defs>
  <g id="Grupo_143232" data-name="Grupo 143232" transform="translate(-651 -1275)">
    <path id="Trazado_113533" data-name="Trazado 113533" d="M71.5,0A71.5,71.5,0,1,1,0,71.5,71.5,71.5,0,0,1,71.5,0Z" transform="translate(651 1275)" fill="url(#linear-gradient)"/>
    <g id="B9N9Mx" transform="translate(1681.178 1035.402)">
      <g id="Grupo_143236" data-name="Grupo 143236" transform="translate(-1004.088 271.191)">
        <path id="Trazado_184559" data-name="Trazado 184559" d="M-906.813,276.98v.108a3.465,3.465,0,0,0-.227.292q-4.406,7.055-8.8,14.119a1.81,1.81,0,0,0-.225.913q-.016,25.156-.01,50.311v.706h-.809q-40.173,0-80.346,0c-2.286,0-4.573.022-6.859.034V277.52c.234,0,.468.014.7.014l32.154,0q25.237,0,50.473.013a.954.954,0,0,0,.939-.526c1.086-1.784,2.2-3.55,3.31-5.321.1-.164.218-.32.346-.508.542.334,1.047.643,1.55.954Zm-15.475,3.935H-1000.7v59.148h81.229V297.333c-.153.229-.243.358-.327.492q-7.74,12.395-15.484,24.786a1.662,1.662,0,0,1-.556.558q-4.777,2.689-9.57,5.349c-.117.065-.247.109-.406.178,0-.218-.012-.379,0-.538.3-3.5.591-7,.9-10.495a2,2,0,0,1,.271-.854q11.043-17.719,22.105-35.427C-922.456,281.25-922.391,281.108-922.288,280.915Zm10.948-2.837-3.78-2.447-26.046,41.831,3.943,2.435Z" transform="translate(1004.088 -271.191)" fill="#fff"/>
        <path id="Trazado_184560" data-name="Trazado 184560" d="M-931.774,408.486h-.67c-4.773,0-9.547-.011-14.32.009-.543,0-.693-.132-.689-.687.026-4.161.014-8.323.014-12.485v-.763c-.245-.011-.454-.028-.662-.028-2.306,0-4.611,0-6.917,0a2.623,2.623,0,0,1-2.881-2.887q-.008-5.918,0-11.836a2.647,2.647,0,0,1,2.924-2.909q9.43,0,18.859,0a2.663,2.663,0,0,1,2.915,2.926q.005,5.918,0,11.836a2.626,2.626,0,0,1-2.844,2.873c-2.486.006-4.972,0-7.457,0h-.636v10.645h29.227V404h-.718c-2.864,0-5.728,0-8.592,0a2.8,2.8,0,0,1-3.078-3.089q0-6.918,0-13.836a2.784,2.784,0,0,1,3.031-3.025q10.943,0,21.886,0c2.1,0,3.176,1.055,3.18,3.143q.013,6.918,0,13.836A2.767,2.767,0,0,1-902.177,404c-2.936.009-5.872,0-8.808.007h-.65v4.471h-16.87v5.36a9.28,9.28,0,0,1,4.256,1.92,9.211,9.211,0,0,1,3.347,9.99,9.084,9.084,0,0,1-7.657,7.024,9.529,9.529,0,0,1-11.118-8.25,9.577,9.577,0,0,1,7.385-10.566c.377-.085.535-.21.528-.628C-931.79,411.743-931.774,410.16-931.774,408.486Zm29.181-7.849V387.425h-21.33v13.212Zm-51.948-9.451c.2.014.358.034.515.035q8.451,0,16.9.011c.458,0,.57-.144.567-.584-.017-3.294-.009-6.589-.01-9.883,0-.157-.017-.315-.027-.484h-17.948Zm18.122,32.112a6.306,6.306,0,0,0,6.269,6.3,6.32,6.32,0,0,0,6.271-6.25,6.283,6.283,0,0,0-6.247-6.315A6.277,6.277,0,0,0-936.418,423.3Z" transform="translate(962.896 -365.47)" fill="#fff"/>
      </g>
    </g>
  </g>
</svg>
