<svg xmlns="http://www.w3.org/2000/svg" xmlns:xlink="http://www.w3.org/1999/xlink" width="747.209" height="389.455" viewBox="0 0 747.209 389.455">
  <defs>
    <linearGradient id="linear-gradient" x1="0.5" x2="0.5" y2="1" gradientUnits="objectBoundingBox">
      <stop offset="0" stop-color="#4090de"/>
      <stop offset="1" stop-color="#3c6d9d"/>
    </linearGradient>
    <linearGradient id="linear-gradient-2" x1="0.5" x2="0.5" y2="1" gradientUnits="objectBoundingBox">
      <stop offset="0" stop-color="#5f9025"/>
      <stop offset="1" stop-color="#78b62e"/>
    </linearGradient>
    <linearGradient id="linear-gradient-3" x1="0.5" x2="0.5" y2="1" gradientUnits="objectBoundingBox">
      <stop offset="0" stop-color="#f5f5f5"/>
      <stop offset="0.25" stop-color="#f5f5f5"/>
      <stop offset="1" stop-color="#afafaf"/>
    </linearGradient>
    <radialGradient id="radial-gradient" cx="0.076" cy="0.019" r="1.465" gradientTransform="translate(0.001)" gradientUnits="objectBoundingBox">
      <stop offset="0" stop-color="#f6f6f7"/>
      <stop offset="0.477" stop-color="#f9f9fa"/>
      <stop offset="0.715" stop-color="#fff"/>
    </radialGradient>
  </defs>
  <g id="Grupo_144557" data-name="Grupo 144557" transform="translate(-412.557 -16399.471)">
    <g id="Grupo_143324" data-name="Grupo 143324" transform="translate(425.729 16567.281)">
      <path id="Unión_53" data-name="Unión 53" d="M0,0H191.875V13.557H0Z" transform="translate(13.557) rotate(90)" fill="#bec1c7"/>
      <path id="Unión_56" data-name="Unión 56" d="M0,0H36.758V13.557H0Z" transform="translate(38.001 108.59) rotate(180)" fill="#bec1c7"/>
      <path id="Unión_58" data-name="Unión 58" d="M0,0H36.758V13.557H0Z" transform="translate(38.001 191.874) rotate(180)" fill="#bec1c7"/>
      <path id="Unión_55" data-name="Unión 55" d="M0,0H36.758V13.557H0Z" transform="translate(36.758 13.557) rotate(180)" fill="#bec1c7"/>
    </g>
    <g id="Grupo_143325" data-name="Grupo 143325" transform="translate(682.122 16567.281)">
      <path id="Unión_53-2" data-name="Unión 53" d="M0,0H191.875V13.557H0Z" transform="translate(13.557) rotate(90)" fill="#bec1c7"/>
      <path id="Unión_56-2" data-name="Unión 56" d="M0,0H36.758V13.557H0Z" transform="translate(38.001 108.59) rotate(180)" fill="#bec1c7"/>
      <path id="Unión_58-2" data-name="Unión 58" d="M0,0H36.758V13.557H0Z" transform="translate(38.001 191.874) rotate(180)" fill="#bec1c7"/>
      <path id="Unión_55-2" data-name="Unión 55" d="M0,0H36.758V13.557H0Z" transform="translate(36.758 13.557) rotate(180)" fill="#bec1c7"/>
    </g>
    <g id="Grupo_143326" data-name="Grupo 143326" transform="translate(982.824 16567.281)">
      <path id="Unión_53-3" data-name="Unión 53" d="M0,0H191.874V13.557H0Z" transform="translate(13.557) rotate(90)" fill="#bec1c7"/>
      <path id="Unión_56-3" data-name="Unión 56" d="M0,0H36.758V13.557H0Z" transform="translate(38.002 108.59) rotate(180)" fill="#bec1c7"/>
      <path id="Unión_58-3" data-name="Unión 58" d="M0,0H36.758V13.557H0Z" transform="translate(38.002 191.874) rotate(180)" fill="#bec1c7"/>
      <path id="Unión_55-3" data-name="Unión 55" d="M0,0H36.758V13.557H0Z" transform="translate(36.758 13.557) rotate(180)" fill="#bec1c7"/>
    </g>
    <g id="Grupo_143328" data-name="Grupo 143328" transform="translate(616.042 16399.471)">
      <rect id="Rectángulo_37320" data-name="Rectángulo 37320" width="338.522" height="72.593" rx="10" transform="translate(1.396 0)" fill="url(#linear-gradient)"/>
      <g id="Rectángulo_37321" data-name="Rectángulo 37321" transform="translate(0 0)" fill="#fff" stroke="#3c6d9d" stroke-width="1">
        <rect width="68.405" height="72.593" rx="10" stroke="none"/>
        <rect x="0.5" y="0.5" width="67.405" height="71.593" rx="9.5" fill="none"/>
      </g>
      <path id="Trazado_186726" data-name="Trazado 186726" d="M12.109-4.512A5.231,5.231,0,0,1,10.444-1.03,5.457,5.457,0,0,1,6.719.2,5.01,5.01,0,0,1,2.681-1.611,7.268,7.268,0,0,1,1.162-6.445V-7.812A8.1,8.1,0,0,1,1.87-11.3a5.288,5.288,0,0,1,2.007-2.31,5.588,5.588,0,0,1,3.008-.806,5.138,5.138,0,0,1,3.633,1.265,5.294,5.294,0,0,1,1.592,3.5H10.225a4.085,4.085,0,0,0-1.06-2.468,3.206,3.206,0,0,0-2.28-.764,3.355,3.355,0,0,0-2.817,1.329A6.1,6.1,0,0,0,3.047-7.769v1.378a6.273,6.273,0,0,0,.967,3.685A3.124,3.124,0,0,0,6.719-1.338a3.608,3.608,0,0,0,2.4-.708,3.929,3.929,0,0,0,1.108-2.466ZM16.348,0H14.541V-15h1.807Zm9.414,0a3.8,3.8,0,0,1-.254-1.113A4.031,4.031,0,0,1,22.5.2a3.73,3.73,0,0,1-2.563-.884,2.859,2.859,0,0,1-1-2.241A2.987,2.987,0,0,1,20.19-5.493a5.916,5.916,0,0,1,3.53-.913h1.758v-.83a2.029,2.029,0,0,0-.566-1.509,2.276,2.276,0,0,0-1.67-.562,2.634,2.634,0,0,0-1.621.488,1.439,1.439,0,0,0-.654,1.182H19.15a2.493,2.493,0,0,1,.562-1.528,3.832,3.832,0,0,1,1.523-1.167,5.125,5.125,0,0,1,2.114-.43,4.177,4.177,0,0,1,2.861.913,3.294,3.294,0,0,1,1.074,2.515v4.863a5.946,5.946,0,0,0,.371,2.314V0Zm-3-1.377a3.175,3.175,0,0,0,1.611-.439,2.658,2.658,0,0,0,1.1-1.143V-5.127H24.063q-3.32,0-3.32,1.943a1.645,1.645,0,0,0,.566,1.328A2.177,2.177,0,0,0,22.764-1.377ZM36.27-2.8a1.33,1.33,0,0,0-.552-1.138,5.311,5.311,0,0,0-1.924-.7,9.1,9.1,0,0,1-2.178-.7,3.1,3.1,0,0,1-1.191-.977,2.336,2.336,0,0,1-.386-1.348,2.741,2.741,0,0,1,1.1-2.2,4.291,4.291,0,0,1,2.808-.9,4.415,4.415,0,0,1,2.915.928,2.947,2.947,0,0,1,1.118,2.373H36.162a1.631,1.631,0,0,0-.63-1.279,2.36,2.36,0,0,0-1.587-.537,2.47,2.47,0,0,0-1.543.43,1.353,1.353,0,0,0-.557,1.123,1.1,1.1,0,0,0,.518.986,6.368,6.368,0,0,0,1.87.635,9.744,9.744,0,0,1,2.192.723A3.2,3.2,0,0,1,37.671-4.37a2.485,2.485,0,0,1,.405,1.44A2.7,2.7,0,0,1,36.943-.659,4.752,4.752,0,0,1,34,.2a5.321,5.321,0,0,1-2.246-.449,3.653,3.653,0,0,1-1.528-1.255,3.025,3.025,0,0,1-.552-1.743h1.807a1.87,1.87,0,0,0,.728,1.44A2.822,2.822,0,0,0,34-1.279a2.913,2.913,0,0,0,1.646-.415A1.275,1.275,0,0,0,36.27-2.8ZM42.393,0H40.586V-10.566h1.807ZM40.439-13.369a1.078,1.078,0,0,1,.269-.742,1.008,1.008,0,0,1,.8-.3,1.024,1.024,0,0,1,.8.3,1.067,1.067,0,0,1,.273.742,1.032,1.032,0,0,1-.273.732,1.043,1.043,0,0,1-.8.293,1.026,1.026,0,0,1-.8-.293A1.043,1.043,0,0,1,40.439-13.369ZM45.889,0V-9.17h-1.67v-1.4h1.67v-.9A3.671,3.671,0,0,1,46.9-14.219a3.919,3.919,0,0,1,2.856-.986,8.6,8.6,0,0,1,2.764.6l-.3,1.523a6.259,6.259,0,0,0-2.324-.488,2.274,2.274,0,0,0-1.675.522,2.154,2.154,0,0,0-.513,1.567v.918h2.158v1.4H47.705V0Zm7.529,0H51.6V-10.566h1.816ZM60.6-1.279a2.6,2.6,0,0,0,1.689-.586,2.061,2.061,0,0,0,.8-1.465h1.709A3.276,3.276,0,0,1,64.17-1.6,4.116,4.116,0,0,1,62.632-.293,4.438,4.438,0,0,1,60.6.2a4.353,4.353,0,0,1-3.433-1.44,5.737,5.737,0,0,1-1.274-3.94v-.3a6.361,6.361,0,0,1,.566-2.744A4.314,4.314,0,0,1,58.081-10.1a4.619,4.619,0,0,1,2.5-.664A4.238,4.238,0,0,1,63.54-9.7a3.8,3.8,0,0,1,1.255,2.764H63.086a2.49,2.49,0,0,0-.776-1.685,2.415,2.415,0,0,0-1.724-.659,2.529,2.529,0,0,0-2.134.991A4.655,4.655,0,0,0,57.7-5.42v.342a4.562,4.562,0,0,0,.752,2.813A2.541,2.541,0,0,0,60.6-1.279ZM73.35,0A3.8,3.8,0,0,1,73.1-1.113,4.031,4.031,0,0,1,70.088.2a3.73,3.73,0,0,1-2.563-.884,2.859,2.859,0,0,1-1-2.241,2.987,2.987,0,0,1,1.255-2.563,5.916,5.916,0,0,1,3.53-.913h1.758v-.83A2.029,2.029,0,0,0,72.5-8.745a2.276,2.276,0,0,0-1.67-.562,2.634,2.634,0,0,0-1.621.488,1.439,1.439,0,0,0-.654,1.182H66.738A2.493,2.493,0,0,1,67.3-9.165a3.832,3.832,0,0,1,1.523-1.167,5.125,5.125,0,0,1,2.114-.43,4.177,4.177,0,0,1,2.861.913,3.294,3.294,0,0,1,1.074,2.515v4.863a5.946,5.946,0,0,0,.371,2.314V0Zm-3-1.377a3.175,3.175,0,0,0,1.611-.439,2.658,2.658,0,0,0,1.1-1.143V-5.127H71.65q-3.32,0-3.32,1.943A1.645,1.645,0,0,0,68.9-1.855,2.177,2.177,0,0,0,70.352-1.377Zm11.592.1a2.6,2.6,0,0,0,1.689-.586,2.061,2.061,0,0,0,.8-1.465h1.709A3.276,3.276,0,0,1,85.518-1.6,4.116,4.116,0,0,1,83.979-.293,4.438,4.438,0,0,1,81.943.2a4.353,4.353,0,0,1-3.433-1.44,5.737,5.737,0,0,1-1.274-3.94v-.3A6.361,6.361,0,0,1,77.8-8.232,4.314,4.314,0,0,1,79.429-10.1a4.619,4.619,0,0,1,2.5-.664A4.238,4.238,0,0,1,84.888-9.7a3.8,3.8,0,0,1,1.255,2.764H84.434a2.49,2.49,0,0,0-.776-1.685,2.415,2.415,0,0,0-1.724-.659,2.529,2.529,0,0,0-2.134.991,4.655,4.655,0,0,0-.757,2.866v.342a4.562,4.562,0,0,0,.752,2.813A2.541,2.541,0,0,0,81.943-1.279ZM90.137,0H88.33V-10.566h1.807ZM88.184-13.369a1.078,1.078,0,0,1,.269-.742,1.008,1.008,0,0,1,.8-.3,1.024,1.024,0,0,1,.8.3,1.067,1.067,0,0,1,.273.742,1.032,1.032,0,0,1-.273.732,1.043,1.043,0,0,1-.8.293,1.026,1.026,0,0,1-.8-.293A1.043,1.043,0,0,1,88.184-13.369Zm4.365,7.988a6.241,6.241,0,0,1,.61-2.793,4.553,4.553,0,0,1,1.7-1.914,4.626,4.626,0,0,1,2.485-.674,4.456,4.456,0,0,1,3.491,1.494,5.748,5.748,0,0,1,1.333,3.975v.127a6.3,6.3,0,0,1-.591,2.769A4.486,4.486,0,0,1,99.888-.488,4.679,4.679,0,0,1,97.363.2,4.445,4.445,0,0,1,93.882-1.3a5.719,5.719,0,0,1-1.333-3.955Zm1.816.215a4.52,4.52,0,0,0,.815,2.822,2.61,2.61,0,0,0,2.183,1.064,2.594,2.594,0,0,0,2.188-1.079,4.943,4.943,0,0,0,.811-3.022A4.513,4.513,0,0,0,99.536-8.2a2.623,2.623,0,0,0-2.192-1.079,2.594,2.594,0,0,0-2.158,1.064A4.906,4.906,0,0,0,94.365-5.166Zm3.8-9.814h2.188l-2.617,2.871-1.455,0Zm7.979,4.414.059,1.328a3.85,3.85,0,0,1,3.164-1.523q3.35,0,3.379,3.779V0h-1.807V-6.992a2.432,2.432,0,0,0-.522-1.689,2.094,2.094,0,0,0-1.6-.547,2.607,2.607,0,0,0-1.543.469,3.183,3.183,0,0,0-1.035,1.23V0h-1.807V-10.566Zm13.838,5.2a6.19,6.19,0,0,1,1.152-3.911,3.644,3.644,0,0,1,3.018-1.479,3.665,3.665,0,0,1,2.939,1.27V-15H128.9V0h-1.66l-.088-1.133A3.679,3.679,0,0,1,124.131.2a3.609,3.609,0,0,1-2.993-1.5,6.26,6.26,0,0,1-1.157-3.926Zm1.807.205a4.687,4.687,0,0,0,.742,2.813,2.4,2.4,0,0,0,2.051,1.016,2.636,2.636,0,0,0,2.51-1.543V-7.734a2.656,2.656,0,0,0-2.49-1.494,2.411,2.411,0,0,0-2.07,1.025A5.16,5.16,0,0,0,121.787-5.166ZM136.084.2a4.617,4.617,0,0,1-3.5-1.411A5.237,5.237,0,0,1,131.24-4.99v-.332a6.341,6.341,0,0,1,.6-2.808,4.685,4.685,0,0,1,1.68-1.934,4.223,4.223,0,0,1,2.339-.7,3.957,3.957,0,0,1,3.2,1.357,5.877,5.877,0,0,1,1.143,3.887v.752h-7.158a3.756,3.756,0,0,0,.913,2.524,2.87,2.87,0,0,0,2.222.962A3.147,3.147,0,0,0,137.8-1.67a4.073,4.073,0,0,0,1.162-1.035l1.1.859A4.437,4.437,0,0,1,136.084.2Zm-.225-9.473a2.41,2.41,0,0,0-1.836.8,3.868,3.868,0,0,0-.918,2.231H138.4v-.137a3.441,3.441,0,0,0-.742-2.134A2.269,2.269,0,0,0,135.859-9.277ZM149.209,0H147.4V-15h1.807Zm2.412-5.381a6.241,6.241,0,0,1,.61-2.793,4.553,4.553,0,0,1,1.7-1.914,4.626,4.626,0,0,1,2.485-.674,4.456,4.456,0,0,1,3.491,1.494,5.748,5.748,0,0,1,1.333,3.975v.127a6.3,6.3,0,0,1-.591,2.769A4.486,4.486,0,0,1,158.96-.488,4.679,4.679,0,0,1,156.436.2,4.445,4.445,0,0,1,152.954-1.3a5.719,5.719,0,0,1-1.333-3.955Zm1.816.215a4.52,4.52,0,0,0,.815,2.822,2.61,2.61,0,0,0,2.183,1.064,2.594,2.594,0,0,0,2.188-1.079,4.943,4.943,0,0,0,.811-3.022,4.513,4.513,0,0,0-.825-2.817,2.623,2.623,0,0,0-2.192-1.079,2.594,2.594,0,0,0-2.158,1.064A4.906,4.906,0,0,0,153.438-5.166ZM169.658-2.8a1.33,1.33,0,0,0-.552-1.138,5.311,5.311,0,0,0-1.924-.7,9.1,9.1,0,0,1-2.178-.7,3.1,3.1,0,0,1-1.191-.977,2.336,2.336,0,0,1-.386-1.348,2.741,2.741,0,0,1,1.1-2.2,4.291,4.291,0,0,1,2.808-.9,4.415,4.415,0,0,1,2.915.928,2.947,2.947,0,0,1,1.118,2.373h-1.816a1.631,1.631,0,0,0-.63-1.279,2.36,2.36,0,0,0-1.587-.537,2.47,2.47,0,0,0-1.543.43,1.353,1.353,0,0,0-.557,1.123,1.1,1.1,0,0,0,.518.986,6.368,6.368,0,0,0,1.87.635,9.744,9.744,0,0,1,2.192.723A3.2,3.2,0,0,1,171.06-4.37a2.485,2.485,0,0,1,.405,1.44,2.7,2.7,0,0,1-1.133,2.271A4.752,4.752,0,0,1,167.393.2a5.321,5.321,0,0,1-2.246-.449,3.653,3.653,0,0,1-1.528-1.255,3.025,3.025,0,0,1-.552-1.743h1.807a1.87,1.87,0,0,0,.728,1.44,2.822,2.822,0,0,0,1.792.532,2.913,2.913,0,0,0,1.646-.415A1.275,1.275,0,0,0,169.658-2.8Zm13.35,1.523a2.6,2.6,0,0,0,1.689-.586,2.061,2.061,0,0,0,.8-1.465h1.709a3.276,3.276,0,0,1-.625,1.729,4.116,4.116,0,0,1-1.538,1.309A4.438,4.438,0,0,1,183.008.2a4.353,4.353,0,0,1-3.433-1.44,5.737,5.737,0,0,1-1.274-3.94v-.3a6.361,6.361,0,0,1,.566-2.744,4.314,4.314,0,0,1,1.626-1.865,4.619,4.619,0,0,1,2.5-.664A4.238,4.238,0,0,1,185.952-9.7a3.8,3.8,0,0,1,1.255,2.764H185.5a2.49,2.49,0,0,0-.776-1.685A2.415,2.415,0,0,0,183-9.277a2.529,2.529,0,0,0-2.134.991,4.655,4.655,0,0,0-.757,2.866v.342a4.562,4.562,0,0,0,.752,2.813A2.541,2.541,0,0,0,183.008-1.279Zm5.752-4.1a6.241,6.241,0,0,1,.61-2.793,4.553,4.553,0,0,1,1.7-1.914,4.626,4.626,0,0,1,2.485-.674,4.456,4.456,0,0,1,3.491,1.494,5.748,5.748,0,0,1,1.333,3.975v.127a6.3,6.3,0,0,1-.591,2.769A4.486,4.486,0,0,1,196.1-.488,4.679,4.679,0,0,1,193.574.2,4.445,4.445,0,0,1,190.093-1.3a5.719,5.719,0,0,1-1.333-3.955Zm1.816.215a4.52,4.52,0,0,0,.815,2.822,2.61,2.61,0,0,0,2.183,1.064,2.594,2.594,0,0,0,2.188-1.079,4.943,4.943,0,0,0,.811-3.022,4.513,4.513,0,0,0-.825-2.817,2.623,2.623,0,0,0-2.192-1.079A2.594,2.594,0,0,0,191.4-8.213,4.906,4.906,0,0,0,190.576-5.166ZM206.8-2.8a1.33,1.33,0,0,0-.552-1.138,5.311,5.311,0,0,0-1.924-.7,9.1,9.1,0,0,1-2.178-.7,3.1,3.1,0,0,1-1.191-.977,2.336,2.336,0,0,1-.386-1.348,2.741,2.741,0,0,1,1.1-2.2,4.291,4.291,0,0,1,2.808-.9,4.415,4.415,0,0,1,2.915.928,2.947,2.947,0,0,1,1.118,2.373h-1.816a1.631,1.631,0,0,0-.63-1.279,2.36,2.36,0,0,0-1.587-.537,2.47,2.47,0,0,0-1.543.43,1.353,1.353,0,0,0-.557,1.123,1.1,1.1,0,0,0,.518.986,6.368,6.368,0,0,0,1.87.635,9.744,9.744,0,0,1,2.192.723A3.2,3.2,0,0,1,208.2-4.37a2.485,2.485,0,0,1,.405,1.44,2.7,2.7,0,0,1-1.133,2.271A4.752,4.752,0,0,1,204.531.2a5.321,5.321,0,0,1-2.246-.449,3.653,3.653,0,0,1-1.528-1.255,3.025,3.025,0,0,1-.552-1.743h1.807a1.87,1.87,0,0,0,.728,1.44,2.822,2.822,0,0,0,1.792.532,2.913,2.913,0,0,0,1.646-.415A1.275,1.275,0,0,0,206.8-2.8Zm6.611-10.322v2.559h1.973v1.4h-1.973v6.561a1.467,1.467,0,0,0,.264.953,1.11,1.11,0,0,0,.9.318,4.374,4.374,0,0,0,.859-.117V0A5.268,5.268,0,0,1,214.043.2a2.25,2.25,0,0,1-1.826-.732,3.147,3.147,0,0,1-.615-2.08V-9.17h-1.924v-1.4H211.6v-2.559Zm3.408,7.744a6.241,6.241,0,0,1,.61-2.793,4.553,4.553,0,0,1,1.7-1.914,4.626,4.626,0,0,1,2.485-.674A4.456,4.456,0,0,1,225.1-9.268a5.748,5.748,0,0,1,1.333,3.975v.127a6.3,6.3,0,0,1-.591,2.769,4.486,4.486,0,0,1-1.689,1.909A4.679,4.679,0,0,1,221.631.2,4.445,4.445,0,0,1,218.149-1.3a5.719,5.719,0,0,1-1.333-3.955Zm1.816.215a4.52,4.52,0,0,0,.815,2.822,2.61,2.61,0,0,0,2.183,1.064,2.594,2.594,0,0,0,2.188-1.079,4.943,4.943,0,0,0,.811-3.022A4.513,4.513,0,0,0,223.8-8.2a2.623,2.623,0,0,0-2.192-1.079,2.594,2.594,0,0,0-2.158,1.064A4.906,4.906,0,0,0,218.633-5.166ZM234.854-2.8A1.33,1.33,0,0,0,234.3-3.94a5.311,5.311,0,0,0-1.924-.7,9.1,9.1,0,0,1-2.178-.7,3.1,3.1,0,0,1-1.191-.977,2.336,2.336,0,0,1-.386-1.348,2.741,2.741,0,0,1,1.1-2.2,4.291,4.291,0,0,1,2.808-.9,4.415,4.415,0,0,1,2.915.928,2.947,2.947,0,0,1,1.118,2.373h-1.816a1.631,1.631,0,0,0-.63-1.279,2.36,2.36,0,0,0-1.587-.537,2.47,2.47,0,0,0-1.543.43,1.353,1.353,0,0,0-.557,1.123,1.1,1.1,0,0,0,.518.986,6.368,6.368,0,0,0,1.87.635,9.744,9.744,0,0,1,2.192.723,3.2,3.2,0,0,1,1.245,1.011,2.485,2.485,0,0,1,.405,1.44,2.7,2.7,0,0,1-1.133,2.271A4.752,4.752,0,0,1,232.588.2a5.321,5.321,0,0,1-2.246-.449,3.653,3.653,0,0,1-1.528-1.255,3.025,3.025,0,0,1-.552-1.743h1.807a1.87,1.87,0,0,0,.728,1.44,2.822,2.822,0,0,0,1.792.532,2.913,2.913,0,0,0,1.646-.415A1.275,1.275,0,0,0,234.854-2.8Z" transform="translate(86.554 42.732)" fill="#fff"/>
      <g id="jS21yb.tif" transform="translate(15.611 16.248)">
        <g id="Grupo_142300" data-name="Grupo 142300" transform="translate(0)">
          <path id="Trazado_118083" data-name="Trazado 118083" d="M-102.057,2639.165c1.395-1.656,2.606-3.1,3.825-4.539s2.482-1.548,3.929-.352c2.423,2,2.492,2.776.466,5.188-2.593,3.088-5.2,6.167-7.765,9.276a2.07,2.07,0,0,0-.435,1.213c-.03,4.748-.017,9.5-.02,14.245,0,1.753-.749,2.5-2.508,2.5q-12.613,0-25.226,0c-1.705,0-2.465-.757-2.466-2.454q0-18.149,0-36.3a2.113,2.113,0,0,1,2.4-2.433c6.893,0,13.785,0,20.678-.011a2.694,2.694,0,0,1,2.067.84q2.1,2.149,4.246,4.248a2.587,2.587,0,0,1,.816,1.991C-102.073,2634.684-102.057,2636.791-102.057,2639.165Zm-1.372-6.794c-1.509,0-2.931,0-4.352,0-1,0-1.134-.141-1.138-1.148,0-1.42,0-2.841,0-4.282a3.759,3.759,0,0,0-.416-.055q-10.293,0-20.585-.012c-.846,0-.972.461-.972,1.158q.014,18.057.008,36.114c0,1.054.127,1.178,1.194,1.178q12.523,0,25.045,0c1.109,0,1.216-.11,1.216-1.242q0-6.091,0-12.181v-.991c-1.247,1.477-2.32,2.758-3.406,4.029a2.476,2.476,0,0,1-.739.7q-2.534,1.153-5.106,2.221a.676.676,0,0,1-.974-.819c.4-1.812.844-3.617,1.305-5.416a2.226,2.226,0,0,1,.505-.778c2.36-2.834,4.675-5.707,7.117-8.469a4.757,4.757,0,0,0,1.327-3.679C-103.516,2636.622-103.429,2634.538-103.429,2632.371Zm4.42,5.294-11.714,13.968,2.867,2.405,11.716-13.963Z" transform="translate(132.259 -2625.498)" fill="#12263f"/>
          <path id="Trazado_118084" data-name="Trazado 118084" d="M-101.644,2754.538h-1.882a.742.742,0,0,1-.842-.84c0-1.283,0-2.566,0-3.85a.712.712,0,0,1,.794-.8c1.283,0,2.566,0,3.849,0a.742.742,0,0,1,.842.84c0,1.283,0,2.566,0,3.85a.714.714,0,0,1-.794.8C-100.332,2754.542-100.988,2754.538-101.644,2754.538Zm1.374-4.059h-2.661v2.616h2.661Z" transform="translate(109.174 -2727.759)" fill="#12263f"/>
          <path id="Trazado_118085" data-name="Trazado 118085" d="M-101.613,2796.822c.6,0,1.2.008,1.8,0s.911.248.909.862q0,1.882,0,3.764c0,.612-.308.873-.9.868-1.226-.009-2.452-.011-3.678,0-.656.006-.92-.313-.912-.95.014-1.2.018-2.4,0-3.593-.011-.7.317-.979.993-.956C-102.811,2796.838-102.212,2796.821-101.613,2796.822Zm1.278,4.1v-2.666h-2.62v2.666Z" transform="translate(109.203 -2767.293)" fill="#12263f"/>
          <path id="Trazado_118086" data-name="Trazado 118086" d="M-57.551,2713.177c1.941,0,3.882,0,5.823,0,.529,0,1.042.067,1.015.729-.024.6-.519.649-1.011.649q-5.823-.008-11.645,0c-.529,0-1.041-.066-1.015-.729.024-.6.52-.65,1.011-.648C-61.433,2713.181-59.492,2713.177-57.551,2713.177Z" transform="translate(76.082 -2698.065)" fill="#12263f"/>
          <path id="Trazado_118087" data-name="Trazado 118087" d="M-55.93,2666.738c-1.169,0-2.341.047-3.505-.031a1.155,1.155,0,0,1-.866-.654c-.1-.514.357-.688.846-.687,2.367,0,4.734-.022,7.1.032.308.007.606.421.909.647-.3.231-.582.642-.893.662C-53.532,2666.785-54.733,2666.738-55.93,2666.738Z" transform="translate(72.713 -2658.493)" fill="#12263f"/>
          <path id="Trazado_118088" data-name="Trazado 118088" d="M-100.8,2657c.561-1.111,1.052-2.066,1.527-3.03.23-.466.5-.926,1.09-.622s.36.8.129,1.255c-.592,1.168-1.166,2.345-1.764,3.51-.415.807-.795.874-1.436.258a19.021,19.021,0,0,1-1.73-1.77c-.181-.226-.075-.682-.1-1.033.351.031.788-.06,1.033.117A9.643,9.643,0,0,1-100.8,2657Z" transform="translate(108.119 -2648.471)" fill="#12263f"/>
          <path id="Trazado_118089" data-name="Trazado 118089" d="M-101.8,2704.789c.551-1.1,1.026-2.033,1.492-2.973.224-.453.468-.947,1.075-.663s.408.776.173,1.239c-.605,1.193-1.191,2.4-1.8,3.584-.389.752-.776.814-1.387.234-.578-.55-1.131-1.125-1.7-1.686-.335-.331-.561-.7-.172-1.109.429-.451.821-.207,1.168.156S-102.251,2704.315-101.8,2704.789Z" transform="translate(109.142 -2688.047)" fill="#12263f"/>
          <path id="Trazado_118090" data-name="Trazado 118090" d="M-60.593,2762.342c-.969,0-1.938,0-2.907,0-.5,0-.923-.206-.817-.72A1.079,1.079,0,0,1-63.5,2761c1.936-.055,3.875-.027,5.813-.03.5,0,.922.206.817.719a1.1,1.1,0,0,1-.817.622C-58.651,2762.392-59.624,2762.342-60.593,2762.342Z" transform="translate(76.039 -2737.621)" fill="#12263f"/>
          <path id="Trazado_118091" data-name="Trazado 118091" d="M-61.776,2810.07a11.405,11.405,0,0,1-1.874-.03c-.3-.051-.551-.421-.824-.647.268-.23.526-.644.806-.659a34.612,34.612,0,0,1,3.84,0c.285.016.548.421.821.646-.268.23-.512.612-.81.66A12.589,12.589,0,0,1-61.776,2810.07Z" transform="translate(76.155 -2777.113)" fill="#12263f"/>
        </g>
      </g>
    </g>
    <rect id="Rectángulo_42418" data-name="Rectángulo 42418" width="145.187" height="72.593" rx="10" transform="translate(451.906 16537.334)" fill="url(#linear-gradient-2)"/>
    <rect id="Rectángulo_42419" data-name="Rectángulo 42419" width="145.187" height="72.593" rx="10" transform="translate(451.906 16633.049)" fill="url(#linear-gradient-3)"/>
    <rect id="Rectángulo_42420" data-name="Rectángulo 42420" width="145.187" height="72.593" rx="10" transform="translate(713.876 16633.049)" fill="url(#linear-gradient-3)"/>
    <rect id="Rectángulo_42421" data-name="Rectángulo 42421" width="145.187" height="72.593" rx="10" transform="translate(1014.579 16633.049)" fill="url(#linear-gradient-3)"/>
    <rect id="Rectángulo_42423" data-name="Rectángulo 42423" width="145.187" height="72.593" rx="10" transform="translate(451.906 16716.332)" fill="url(#linear-gradient-3)"/>
    <rect id="Rectángulo_42424" data-name="Rectángulo 42424" width="145.187" height="72.593" rx="10" transform="translate(713.876 16716.332)" fill="url(#linear-gradient-3)"/>
    <rect id="Rectángulo_42425" data-name="Rectángulo 42425" width="145.187" height="72.593" rx="10" transform="translate(1014.579 16716.332)" fill="url(#linear-gradient-3)"/>
    <rect id="Rectángulo_42430" data-name="Rectángulo 42430" width="145.187" height="72.593" rx="10" transform="translate(713.876 16537.334)" fill="url(#linear-gradient-2)"/>
    <rect id="Rectángulo_42431" data-name="Rectángulo 42431" width="145.187" height="72.593" rx="10" transform="translate(1012.586 16537.334)" fill="url(#linear-gradient-2)"/>
    <path id="Trazado_186727" data-name="Trazado 186727" d="M-50.269-5.752h-3.34V0h-1.885V-14.219h4.707a5.571,5.571,0,0,1,3.7,1.094A3.935,3.935,0,0,1-45.8-9.941a3.828,3.828,0,0,1-.718,2.314,4.285,4.285,0,0,1-2,1.475l3.34,6.035V0h-2.012Zm-3.34-1.533h2.881a3.249,3.249,0,0,0,2.222-.724,2.448,2.448,0,0,0,.825-1.937,2.578,2.578,0,0,0-.786-2.025,3.329,3.329,0,0,0-2.271-.714h-2.871ZM-39.067.2a4.617,4.617,0,0,1-3.5-1.411A5.237,5.237,0,0,1-43.911-4.99v-.332a6.341,6.341,0,0,1,.6-2.808,4.685,4.685,0,0,1,1.68-1.934,4.223,4.223,0,0,1,2.339-.7,3.957,3.957,0,0,1,3.2,1.357,5.877,5.877,0,0,1,1.143,3.887v.752H-42.1a3.756,3.756,0,0,0,.913,2.524,2.87,2.87,0,0,0,2.222.962,3.147,3.147,0,0,0,1.621-.391,4.073,4.073,0,0,0,1.162-1.035l1.1.859A4.437,4.437,0,0,1-39.067.2Zm-.225-9.473a2.41,2.41,0,0,0-1.836.8,3.868,3.868,0,0,0-.918,2.231h5.293v-.137A3.441,3.441,0,0,0-37.5-8.521,2.269,2.269,0,0,0-39.292-9.277ZM-30.894,0H-32.7V-15h1.807Zm9.414,0a3.8,3.8,0,0,1-.254-1.113A4.031,4.031,0,0,1-24.741.2,3.73,3.73,0,0,1-27.3-.688a2.859,2.859,0,0,1-1-2.241,2.987,2.987,0,0,1,1.255-2.563,5.916,5.916,0,0,1,3.53-.913h1.758v-.83a2.029,2.029,0,0,0-.566-1.509A2.276,2.276,0,0,0-24-9.307a2.634,2.634,0,0,0-1.621.488,1.439,1.439,0,0,0-.654,1.182h-1.816a2.493,2.493,0,0,1,.562-1.528,3.832,3.832,0,0,1,1.523-1.167,5.125,5.125,0,0,1,2.114-.43,4.177,4.177,0,0,1,2.861.913,3.294,3.294,0,0,1,1.074,2.515v4.863a5.946,5.946,0,0,0,.371,2.314V0Zm-3-1.377a3.175,3.175,0,0,0,1.611-.439,2.658,2.658,0,0,0,1.1-1.143V-5.127h-1.416q-3.32,0-3.32,1.943a1.645,1.645,0,0,0,.566,1.328A2.177,2.177,0,0,0-24.478-1.377Zm11.592.1A2.6,2.6,0,0,0-11.2-1.865a2.061,2.061,0,0,0,.8-1.465h1.709A3.276,3.276,0,0,1-9.312-1.6,4.116,4.116,0,0,1-10.85-.293,4.438,4.438,0,0,1-12.886.2a4.353,4.353,0,0,1-3.433-1.44,5.737,5.737,0,0,1-1.274-3.94v-.3a6.361,6.361,0,0,1,.566-2.744A4.314,4.314,0,0,1-15.4-10.1a4.619,4.619,0,0,1,2.5-.664A4.238,4.238,0,0,1-9.941-9.7,3.8,3.8,0,0,1-8.687-6.934H-10.4a2.49,2.49,0,0,0-.776-1.685A2.415,2.415,0,0,0-12.9-9.277a2.529,2.529,0,0,0-2.134.991,4.655,4.655,0,0,0-.757,2.866v.342a4.562,4.562,0,0,0,.752,2.813A2.541,2.541,0,0,0-12.886-1.279ZM-4.692,0H-6.5V-10.566h1.807ZM-6.646-13.369a1.078,1.078,0,0,1,.269-.742,1.008,1.008,0,0,1,.8-.3,1.024,1.024,0,0,1,.8.3,1.067,1.067,0,0,1,.273.742,1.032,1.032,0,0,1-.273.732,1.043,1.043,0,0,1-.8.293,1.026,1.026,0,0,1-.8-.293A1.043,1.043,0,0,1-6.646-13.369ZM-2.28-5.381a6.241,6.241,0,0,1,.61-2.793,4.553,4.553,0,0,1,1.7-1.914,4.626,4.626,0,0,1,2.485-.674A4.456,4.456,0,0,1,6.006-9.268,5.748,5.748,0,0,1,7.339-5.293v.127A6.3,6.3,0,0,1,6.748-2.4,4.486,4.486,0,0,1,5.059-.488,4.679,4.679,0,0,1,2.534.2,4.445,4.445,0,0,1-.947-1.3,5.719,5.719,0,0,1-2.28-5.254Zm1.816.215A4.52,4.52,0,0,0,.352-2.344,2.61,2.61,0,0,0,2.534-1.279,2.594,2.594,0,0,0,4.722-2.358a4.943,4.943,0,0,0,.811-3.022A4.513,4.513,0,0,0,4.707-8.2,2.623,2.623,0,0,0,2.515-9.277,2.594,2.594,0,0,0,.356-8.213,4.906,4.906,0,0,0-.464-5.166Zm3.8-9.814H5.522L2.905-12.109l-1.455,0Zm7.979,4.414.059,1.328a3.85,3.85,0,0,1,3.164-1.523q3.35,0,3.379,3.779V0H16.108V-6.992a2.432,2.432,0,0,0-.522-1.689,2.094,2.094,0,0,0-1.6-.547,2.607,2.607,0,0,0-1.543.469,3.183,3.183,0,0,0-1.035,1.23V0H9.6V-10.566ZM29.829-1.279a2.6,2.6,0,0,0,1.689-.586,2.061,2.061,0,0,0,.8-1.465h1.709A3.276,3.276,0,0,1,33.4-1.6,4.116,4.116,0,0,1,31.865-.293,4.438,4.438,0,0,1,29.829.2,4.353,4.353,0,0,1,26.4-1.245a5.737,5.737,0,0,1-1.274-3.94v-.3a6.361,6.361,0,0,1,.566-2.744A4.314,4.314,0,0,1,27.314-10.1a4.619,4.619,0,0,1,2.5-.664A4.238,4.238,0,0,1,32.773-9.7a3.8,3.8,0,0,1,1.255,2.764H32.319a2.49,2.49,0,0,0-.776-1.685,2.415,2.415,0,0,0-1.724-.659,2.529,2.529,0,0,0-2.134.991,4.655,4.655,0,0,0-.757,2.866v.342a4.562,4.562,0,0,0,.752,2.813A2.541,2.541,0,0,0,29.829-1.279Zm5.752-4.1a6.241,6.241,0,0,1,.61-2.793,4.553,4.553,0,0,1,1.7-1.914,4.626,4.626,0,0,1,2.485-.674,4.456,4.456,0,0,1,3.491,1.494A5.748,5.748,0,0,1,45.2-5.293v.127A6.3,6.3,0,0,1,44.609-2.4,4.486,4.486,0,0,1,42.92-.488,4.679,4.679,0,0,1,40.4.2,4.445,4.445,0,0,1,36.914-1.3a5.719,5.719,0,0,1-1.333-3.955Zm1.816.215a4.52,4.52,0,0,0,.815,2.822A2.61,2.61,0,0,0,40.4-1.279a2.594,2.594,0,0,0,2.188-1.079,4.943,4.943,0,0,0,.811-3.022A4.513,4.513,0,0,0,42.568-8.2a2.623,2.623,0,0,0-2.192-1.079,2.594,2.594,0,0,0-2.158,1.064A4.906,4.906,0,0,0,37.4-5.166Zm11.777-5.4.059,1.328A3.851,3.851,0,0,1,52.4-10.762q3.35,0,3.379,3.779V0H53.97V-6.992a2.432,2.432,0,0,0-.522-1.689,2.094,2.094,0,0,0-1.6-.547,2.607,2.607,0,0,0-1.543.469,3.183,3.183,0,0,0-1.035,1.23V0H47.466V-10.566Zm-88.75,28.4a6.327,6.327,0,0,1-1.1,3.887A3.537,3.537,0,0,1-43.667,23.2a3.875,3.875,0,0,1-3.027-1.221v5.088H-48.5V12.434h1.65l.088,1.172A3.722,3.722,0,0,1-43.7,12.238a3.6,3.6,0,0,1,3.013,1.436,6.4,6.4,0,0,1,1.108,3.994Zm-1.807-.205a4.669,4.669,0,0,0-.762-2.822,2.454,2.454,0,0,0-2.09-1.035,2.656,2.656,0,0,0-2.461,1.455v5.049a2.661,2.661,0,0,0,2.48,1.445,2.442,2.442,0,0,0,2.065-1.03A5.1,5.1,0,0,0-41.382,17.629Zm9.209-3.574a5.414,5.414,0,0,0-.889-.068A2.381,2.381,0,0,0-35.474,15.5V23H-37.28V12.434h1.758l.029,1.221a2.813,2.813,0,0,1,2.52-1.416,1.846,1.846,0,0,1,.8.137Zm.986,3.564a6.241,6.241,0,0,1,.61-2.793,4.553,4.553,0,0,1,1.7-1.914,4.626,4.626,0,0,1,2.485-.674A4.456,4.456,0,0,1-22.9,13.732a5.748,5.748,0,0,1,1.333,3.975v.127a6.3,6.3,0,0,1-.591,2.769,4.486,4.486,0,0,1-1.689,1.909,4.679,4.679,0,0,1-2.524.684A4.445,4.445,0,0,1-29.854,21.7a5.719,5.719,0,0,1-1.333-3.955Zm1.816.215a4.52,4.52,0,0,0,.815,2.822,2.61,2.61,0,0,0,2.183,1.064,2.594,2.594,0,0,0,2.188-1.079,4.943,4.943,0,0,0,.811-3.022A4.513,4.513,0,0,0-24.2,14.8a2.623,2.623,0,0,0-2.192-1.079,2.594,2.594,0,0,0-2.158,1.064A4.906,4.906,0,0,0-29.37,17.834Zm9.629-.205a6.19,6.19,0,0,1,1.152-3.911,3.644,3.644,0,0,1,3.018-1.479,3.665,3.665,0,0,1,2.939,1.27V8h1.807V23h-1.66l-.088-1.133A3.679,3.679,0,0,1-15.591,23.2a3.609,3.609,0,0,1-2.993-1.5,6.26,6.26,0,0,1-1.157-3.926Zm1.807.205a4.687,4.687,0,0,0,.742,2.813,2.4,2.4,0,0,0,2.051,1.016,2.636,2.636,0,0,0,2.51-1.543V15.266a2.656,2.656,0,0,0-2.49-1.494,2.411,2.411,0,0,0-2.07,1.025A5.16,5.16,0,0,0-17.935,17.834ZM-1.5,21.955a3.837,3.837,0,0,1-3.1,1.24,3.285,3.285,0,0,1-2.573-.981,4.248,4.248,0,0,1-.894-2.905V12.434h1.807V19.26q0,2.4,1.953,2.4a2.7,2.7,0,0,0,2.754-1.543V12.434H.259V23H-1.46Zm8.74-.234a2.6,2.6,0,0,0,1.689-.586,2.061,2.061,0,0,0,.8-1.465H11.44a3.276,3.276,0,0,1-.625,1.729,4.116,4.116,0,0,1-1.538,1.309,4.438,4.438,0,0,1-2.036.488,4.353,4.353,0,0,1-3.433-1.44,5.737,5.737,0,0,1-1.274-3.94v-.3A6.361,6.361,0,0,1,3.1,14.768,4.314,4.314,0,0,1,4.727,12.9a4.619,4.619,0,0,1,2.5-.664A4.238,4.238,0,0,1,10.186,13.3a3.8,3.8,0,0,1,1.255,2.764H9.731a2.49,2.49,0,0,0-.776-1.685,2.415,2.415,0,0,0-1.724-.659,2.529,2.529,0,0,0-2.134.991,4.655,4.655,0,0,0-.757,2.866v.342a4.562,4.562,0,0,0,.752,2.813A2.541,2.541,0,0,0,7.241,21.721Zm10.469,0a2.6,2.6,0,0,0,1.689-.586,2.061,2.061,0,0,0,.8-1.465h1.709a3.276,3.276,0,0,1-.625,1.729,4.116,4.116,0,0,1-1.538,1.309,4.438,4.438,0,0,1-2.036.488,4.353,4.353,0,0,1-3.433-1.44A5.737,5.737,0,0,1,13,17.814v-.3a6.361,6.361,0,0,1,.566-2.744A4.314,4.314,0,0,1,15.2,12.9a4.619,4.619,0,0,1,2.5-.664A4.238,4.238,0,0,1,20.654,13.3a3.8,3.8,0,0,1,1.255,2.764H20.2a2.49,2.49,0,0,0-.776-1.685,2.415,2.415,0,0,0-1.724-.659,2.529,2.529,0,0,0-2.134.991,4.655,4.655,0,0,0-.757,2.866v.342a4.562,4.562,0,0,0,.752,2.813A2.541,2.541,0,0,0,17.71,21.721ZM25.9,23H24.1V12.434H25.9ZM23.95,9.631a1.078,1.078,0,0,1,.269-.742,1.008,1.008,0,0,1,.8-.3,1.024,1.024,0,0,1,.8.3,1.067,1.067,0,0,1,.273.742,1.032,1.032,0,0,1-.273.732,1.043,1.043,0,0,1-.8.293,1.026,1.026,0,0,1-.8-.293A1.043,1.043,0,0,1,23.95,9.631Zm4.365,7.988a6.241,6.241,0,0,1,.61-2.793,4.553,4.553,0,0,1,1.7-1.914,4.626,4.626,0,0,1,2.485-.674A4.456,4.456,0,0,1,36.6,13.732a5.748,5.748,0,0,1,1.333,3.975v.127a6.3,6.3,0,0,1-.591,2.769,4.486,4.486,0,0,1-1.689,1.909,4.679,4.679,0,0,1-2.524.684A4.445,4.445,0,0,1,29.648,21.7a5.719,5.719,0,0,1-1.333-3.955Zm1.816.215a4.52,4.52,0,0,0,.815,2.822,2.763,2.763,0,0,0,4.37-.015,4.943,4.943,0,0,0,.811-3.022A4.513,4.513,0,0,0,35.3,14.8a2.623,2.623,0,0,0-2.192-1.079,2.594,2.594,0,0,0-2.158,1.064A4.906,4.906,0,0,0,30.132,17.834Zm3.8-9.814h2.188L33.5,10.891l-1.455,0Zm7.979,4.414.059,1.328a3.851,3.851,0,0,1,3.164-1.523q3.35,0,3.379,3.779V23H46.7V16.008a2.432,2.432,0,0,0-.522-1.689,2.094,2.094,0,0,0-1.6-.547,2.607,2.607,0,0,0-1.543.469,3.183,3.183,0,0,0-1.035,1.23V23H40.2V12.434Z" transform="translate(527.971 16571.639)" fill="#fff"/>
    <path id="Trazado_186728" data-name="Trazado 186728" d="M-33.213-2.366l3.859-11.142h1.948L-32.415,0h-1.577l-5-13.508h1.939ZM-20.095,0a3.605,3.605,0,0,1-.241-1.058A3.829,3.829,0,0,1-23.193.186a3.543,3.543,0,0,1-2.435-.84,2.716,2.716,0,0,1-.951-2.129,2.838,2.838,0,0,1,1.192-2.435,5.621,5.621,0,0,1,3.354-.867h1.67v-.789A1.928,1.928,0,0,0-20.9-8.308a2.163,2.163,0,0,0-1.586-.533,2.5,2.5,0,0,0-1.54.464,1.367,1.367,0,0,0-.622,1.123h-1.726a2.369,2.369,0,0,1,.533-1.452,3.641,3.641,0,0,1,1.447-1.109,4.869,4.869,0,0,1,2.009-.408,3.968,3.968,0,0,1,2.718.867,3.129,3.129,0,0,1,1.021,2.389v4.62a5.649,5.649,0,0,0,.353,2.2V0Zm-2.848-1.308a3.016,3.016,0,0,0,1.531-.417,2.525,2.525,0,0,0,1.048-1.085v-2.06h-1.345q-3.154,0-3.154,1.846a1.562,1.562,0,0,0,.538,1.262A2.068,2.068,0,0,0-22.943-1.308ZM-11.1-8.5a5.143,5.143,0,0,0-.844-.065,2.262,2.262,0,0,0-2.292,1.438V0h-1.716V-10.038h1.67l.028,1.16a2.672,2.672,0,0,1,2.394-1.345,1.753,1.753,0,0,1,.761.13ZM-7.663,0H-9.379V-10.038h1.716ZM-9.519-12.7a1.024,1.024,0,0,1,.255-.705.958.958,0,0,1,.756-.288.973.973,0,0,1,.761.288,1.014,1.014,0,0,1,.26.705.98.98,0,0,1-.26.7.99.99,0,0,1-.761.278A.975.975,0,0,1-9.263-12,.991.991,0,0,1-9.519-12.7ZM1.28,0a3.605,3.605,0,0,1-.241-1.058A3.829,3.829,0,0,1-1.818.186a3.543,3.543,0,0,1-2.435-.84A2.716,2.716,0,0,1-5.2-2.783,2.838,2.838,0,0,1-4.012-5.219,5.621,5.621,0,0,1-.659-6.086h1.67v-.789A1.928,1.928,0,0,0,.473-8.308a2.163,2.163,0,0,0-1.586-.533,2.5,2.5,0,0,0-1.54.464,1.367,1.367,0,0,0-.622,1.123H-5a2.369,2.369,0,0,1,.533-1.452A3.641,3.641,0,0,1-3.02-9.815a4.869,4.869,0,0,1,2.009-.408,3.968,3.968,0,0,1,2.718.867A3.129,3.129,0,0,1,2.728-6.967v4.62a5.649,5.649,0,0,0,.353,2.2V0ZM-1.568-1.308A3.016,3.016,0,0,0-.037-1.726,2.525,2.525,0,0,0,1.011-2.811v-2.06H-.334q-3.154,0-3.154,1.846A1.562,1.562,0,0,0-2.95-1.763,2.068,2.068,0,0,0-1.568-1.308Zm15.484-3.6a5.969,5.969,0,0,1-1.058,3.7A3.379,3.379,0,0,1,10.02.186,3.5,3.5,0,0,1,7.079-1.16L7,0H5.418V-14.25H7.134v5.316A3.479,3.479,0,0,1,10-10.224a3.4,3.4,0,0,1,2.871,1.382,6.148,6.148,0,0,1,1.044,3.785ZM12.2-5.1a4.638,4.638,0,0,0-.677-2.709,2.242,2.242,0,0,0-1.948-.956A2.52,2.52,0,0,0,7.134-7.19v4.342A2.59,2.59,0,0,0,9.593-1.271a2.23,2.23,0,0,0,1.92-.956A4.932,4.932,0,0,0,12.2-5.1ZM17.942,0H16.226V-14.25h1.716Zm6.912.186a4.386,4.386,0,0,1-3.321-1.341,4.976,4.976,0,0,1-1.28-3.586v-.315a6.024,6.024,0,0,1,.571-2.667,4.451,4.451,0,0,1,1.6-1.837,4.012,4.012,0,0,1,2.222-.663,3.759,3.759,0,0,1,3.043,1.29,5.583,5.583,0,0,1,1.085,3.692v.714h-6.8a3.568,3.568,0,0,0,.867,2.4,2.727,2.727,0,0,0,2.111.914,2.989,2.989,0,0,0,1.54-.371,3.87,3.87,0,0,0,1.1-.983l1.048.816A4.215,4.215,0,0,1,24.854.186Zm-.213-9a2.289,2.289,0,0,0-1.744.756,3.675,3.675,0,0,0-.872,2.12h5.028v-.13a3.269,3.269,0,0,0-.705-2.027A2.155,2.155,0,0,0,24.641-8.813ZM36.6-2.663a1.264,1.264,0,0,0-.524-1.081,5.045,5.045,0,0,0-1.828-.663,8.641,8.641,0,0,1-2.069-.668A2.943,2.943,0,0,1,31.047-6a2.219,2.219,0,0,1-.366-1.28A2.6,2.6,0,0,1,31.724-9.37a4.076,4.076,0,0,1,2.667-.854,4.194,4.194,0,0,1,2.769.881,2.8,2.8,0,0,1,1.062,2.254H36.5A1.549,1.549,0,0,0,35.9-8.3a2.242,2.242,0,0,0-1.508-.51,2.346,2.346,0,0,0-1.466.408A1.285,1.285,0,0,0,32.4-7.338a1.041,1.041,0,0,0,.492.937,6.05,6.05,0,0,0,1.777.6,9.257,9.257,0,0,1,2.083.687,3.038,3.038,0,0,1,1.183.96,2.361,2.361,0,0,1,.385,1.368A2.569,2.569,0,0,1,37.239-.626a4.514,4.514,0,0,1-2.792.812,5.055,5.055,0,0,1-2.134-.427,3.47,3.47,0,0,1-1.452-1.192,2.873,2.873,0,0,1-.524-1.656h1.716a1.777,1.777,0,0,0,.691,1.368,2.681,2.681,0,0,0,1.7.506A2.768,2.768,0,0,0,36.01-1.61,1.212,1.212,0,0,0,36.6-2.663Z" transform="translate(521.536 16676.023)" fill="#12263f"/>
    <path id="Trazado_186731" data-name="Trazado 186731" d="M-33.426,0V-13.508h3.813a6.138,6.138,0,0,1,3.117.779A5.271,5.271,0,0,1-24.4-10.511a7.217,7.217,0,0,1,.747,3.3v.863A7.242,7.242,0,0,1-24.395-3,5.188,5.188,0,0,1-26.5-.789,6.529,6.529,0,0,1-29.687,0Zm1.781-12.051V-1.457h1.874a4.077,4.077,0,0,0,3.205-1.281A5.294,5.294,0,0,0-25.42-6.387v-.789A5.378,5.378,0,0,0-26.5-10.756a3.846,3.846,0,0,0-3.066-1.3ZM-19.371,0h-1.716V-10.038h1.716Zm-1.855-12.7a1.024,1.024,0,0,1,.255-.705.958.958,0,0,1,.756-.288.973.973,0,0,1,.761.288,1.014,1.014,0,0,1,.26.705.98.98,0,0,1-.26.7.99.99,0,0,1-.761.278A.975.975,0,0,1-20.971-12,.991.991,0,0,1-21.227-12.7Zm9.454,4.2a5.143,5.143,0,0,0-.844-.065,2.262,2.262,0,0,0-2.292,1.438V0h-1.716V-10.038h1.67l.028,1.16a2.672,2.672,0,0,1,2.394-1.345,1.753,1.753,0,0,1,.761.13ZM-6.207.186A4.386,4.386,0,0,1-9.528-1.155a4.976,4.976,0,0,1-1.28-3.586v-.315a6.024,6.024,0,0,1,.571-2.667,4.451,4.451,0,0,1,1.6-1.837,4.012,4.012,0,0,1,2.222-.663,3.759,3.759,0,0,1,3.043,1.29A5.583,5.583,0,0,1-2.292-5.242v.714h-6.8a3.568,3.568,0,0,0,.867,2.4,2.727,2.727,0,0,0,2.111.914,2.989,2.989,0,0,0,1.54-.371,3.869,3.869,0,0,0,1.1-.983l1.048.816A4.215,4.215,0,0,1-6.207.186Zm-.213-9a2.289,2.289,0,0,0-1.744.756,3.675,3.675,0,0,0-.872,2.12h5.028v-.13a3.269,3.269,0,0,0-.705-2.027A2.155,2.155,0,0,0-6.42-8.813Zm10.14,7.6a2.472,2.472,0,0,0,1.6-.557,1.958,1.958,0,0,0,.761-1.392H7.709a3.112,3.112,0,0,1-.594,1.642A3.911,3.911,0,0,1,5.655-.278,4.216,4.216,0,0,1,3.72.186,4.135,4.135,0,0,1,.459-1.183,5.45,5.45,0,0,1-.751-4.926v-.288A6.043,6.043,0,0,1-.213-7.821,4.1,4.1,0,0,1,1.331-9.593a4.388,4.388,0,0,1,2.38-.631A4.026,4.026,0,0,1,6.517-9.212,3.614,3.614,0,0,1,7.709-6.587H6.086a2.365,2.365,0,0,0-.738-1.6,2.294,2.294,0,0,0-1.637-.626,2.4,2.4,0,0,0-2.027.942A4.422,4.422,0,0,0,.965-5.149v.325a4.334,4.334,0,0,0,.714,2.672A2.414,2.414,0,0,0,3.72-1.215Zm8.248-11.253v2.431h1.874v1.327H11.968v6.233a1.393,1.393,0,0,0,.25.906,1.054,1.054,0,0,0,.854.3,4.155,4.155,0,0,0,.816-.111V0a5,5,0,0,1-1.317.184,2.137,2.137,0,0,1-1.735-.7,2.989,2.989,0,0,1-.584-1.976V-8.711H8.424v-1.327h1.828v-2.431Zm3.238,7.357a5.929,5.929,0,0,1,.58-2.653A4.326,4.326,0,0,1,17.4-9.583a4.394,4.394,0,0,1,2.361-.64A4.233,4.233,0,0,1,23.077-8.8a5.461,5.461,0,0,1,1.266,3.776v.121a5.981,5.981,0,0,1-.561,2.63,4.262,4.262,0,0,1-1.6,1.814,4.445,4.445,0,0,1-2.4.649,4.223,4.223,0,0,1-3.307-1.419,5.433,5.433,0,0,1-1.266-3.757Zm1.726.2a4.294,4.294,0,0,0,.775,2.681,2.479,2.479,0,0,0,2.073,1.011A2.464,2.464,0,0,0,21.857-2.24a4.7,4.7,0,0,0,.77-2.871,4.287,4.287,0,0,0-.784-2.677,2.492,2.492,0,0,0-2.083-1.025A2.465,2.465,0,0,0,17.71-7.8,4.661,4.661,0,0,0,16.931-4.908Zm15.41,2.245a1.264,1.264,0,0,0-.524-1.081,5.045,5.045,0,0,0-1.828-.663,8.641,8.641,0,0,1-2.069-.668A2.943,2.943,0,0,1,26.788-6a2.219,2.219,0,0,1-.366-1.28A2.6,2.6,0,0,1,27.466-9.37a4.076,4.076,0,0,1,2.667-.854,4.194,4.194,0,0,1,2.769.881,2.8,2.8,0,0,1,1.062,2.254H32.239a1.549,1.549,0,0,0-.6-1.215,2.242,2.242,0,0,0-1.508-.51,2.346,2.346,0,0,0-1.466.408,1.285,1.285,0,0,0-.529,1.067,1.041,1.041,0,0,0,.492.937,6.05,6.05,0,0,0,1.777.6,9.257,9.257,0,0,1,2.083.687,3.038,3.038,0,0,1,1.183.96,2.361,2.361,0,0,1,.385,1.368A2.569,2.569,0,0,1,32.981-.626a4.514,4.514,0,0,1-2.792.812,5.055,5.055,0,0,1-2.134-.427A3.47,3.47,0,0,1,26.6-1.433a2.873,2.873,0,0,1-.524-1.656h1.716a1.777,1.777,0,0,0,.691,1.368,2.681,2.681,0,0,0,1.7.506,2.768,2.768,0,0,0,1.563-.394A1.212,1.212,0,0,0,32.341-2.663Z" transform="translate(784.78 16676.02)" fill="#12263f"/>
    <path id="Trazado_186734" data-name="Trazado 186734" d="M-35.671-6.244h-5.854v4.787h6.8V0h-8.582V-13.508h8.489v1.457h-6.708V-7.7h5.854Zm8.739,3.581a1.263,1.263,0,0,0-.524-1.081,5.045,5.045,0,0,0-1.828-.663,8.641,8.641,0,0,1-2.069-.668A2.943,2.943,0,0,1-32.485-6a2.219,2.219,0,0,1-.366-1.28A2.6,2.6,0,0,1-31.807-9.37a4.076,4.076,0,0,1,2.667-.854,4.194,4.194,0,0,1,2.769.881,2.8,2.8,0,0,1,1.062,2.254h-1.726a1.549,1.549,0,0,0-.6-1.215,2.242,2.242,0,0,0-1.508-.51,2.346,2.346,0,0,0-1.466.408,1.285,1.285,0,0,0-.529,1.067,1.041,1.041,0,0,0,.492.937,6.05,6.05,0,0,0,1.777.6,9.257,9.257,0,0,1,2.083.687,3.038,3.038,0,0,1,1.183.96,2.361,2.361,0,0,1,.385,1.368A2.569,2.569,0,0,1-26.292-.626a4.514,4.514,0,0,1-2.792.812,5.055,5.055,0,0,1-2.134-.427A3.47,3.47,0,0,1-32.67-1.433a2.873,2.873,0,0,1-.524-1.656h1.716a1.777,1.777,0,0,0,.691,1.368,2.681,2.681,0,0,0,1.7.506,2.768,2.768,0,0,0,1.563-.394A1.212,1.212,0,0,0-26.932-2.663Zm6.281-9.806v2.431h1.874v1.327h-1.874v6.233a1.393,1.393,0,0,0,.25.906,1.054,1.054,0,0,0,.854.3,4.155,4.155,0,0,0,.816-.111V0a5.005,5.005,0,0,1-1.317.184,2.137,2.137,0,0,1-1.735-.7,2.989,2.989,0,0,1-.584-1.976V-8.711H-24.2v-1.327h1.828v-2.431ZM-14.909,0h-1.716V-10.038h1.716Zm-1.855-12.7a1.024,1.024,0,0,1,.255-.705.958.958,0,0,1,.756-.288.973.973,0,0,1,.761.288,1.014,1.014,0,0,1,.26.705.98.98,0,0,1-.26.7.99.99,0,0,1-.761.278A.975.975,0,0,1-16.509-12,.991.991,0,0,1-16.764-12.7Zm6.216,2.663.046,1.113a3.707,3.707,0,0,1,2.978-1.3A2.87,2.87,0,0,1-4.657-8.609a3.8,3.8,0,0,1,1.3-1.169,3.85,3.85,0,0,1,1.9-.445q3.3,0,3.358,3.5V0H.186V-6.624a2.3,2.3,0,0,0-.492-1.61,2.165,2.165,0,0,0-1.651-.533A2.276,2.276,0,0,0-3.544-8.2a2.315,2.315,0,0,0-.733,1.535V0H-6V-6.578A1.915,1.915,0,0,0-8.146-8.767a2.3,2.3,0,0,0-2.31,1.438V0h-1.716V-10.038ZM10.688,0a3.605,3.605,0,0,1-.241-1.058A3.829,3.829,0,0,1,7.589.186a3.543,3.543,0,0,1-2.435-.84A2.716,2.716,0,0,1,4.2-2.783,2.838,2.838,0,0,1,5.395-5.219a5.621,5.621,0,0,1,3.354-.867h1.67v-.789A1.928,1.928,0,0,0,9.88-8.308a2.163,2.163,0,0,0-1.586-.533,2.5,2.5,0,0,0-1.54.464,1.367,1.367,0,0,0-.622,1.123H4.407A2.369,2.369,0,0,1,4.94-8.707,3.641,3.641,0,0,1,6.387-9.815,4.869,4.869,0,0,1,8.4-10.224a3.968,3.968,0,0,1,2.718.867,3.129,3.129,0,0,1,1.021,2.389v4.62a5.649,5.649,0,0,0,.353,2.2V0ZM7.839-1.308A3.016,3.016,0,0,0,9.37-1.726a2.525,2.525,0,0,0,1.048-1.085v-2.06H9.073q-3.154,0-3.154,1.846a1.562,1.562,0,0,0,.538,1.262A2.068,2.068,0,0,0,7.839-1.308ZM14.408-5.1A5.88,5.88,0,0,1,15.5-8.818a3.462,3.462,0,0,1,2.867-1.406,3.481,3.481,0,0,1,2.792,1.206V-14.25h1.716V0H21.3l-.083-1.076A3.5,3.5,0,0,1,18.351.186a3.429,3.429,0,0,1-2.844-1.429,5.947,5.947,0,0,1-1.1-3.729Zm1.716.195a4.452,4.452,0,0,0,.705,2.672,2.279,2.279,0,0,0,1.948.965,2.5,2.5,0,0,0,2.384-1.466V-7.348A2.523,2.523,0,0,0,18.8-8.767a2.29,2.29,0,0,0-1.967.974A4.9,4.9,0,0,0,16.124-4.908Zm8.962-.2a5.929,5.929,0,0,1,.58-2.653A4.326,4.326,0,0,1,27.28-9.583a4.394,4.394,0,0,1,2.361-.64A4.233,4.233,0,0,1,32.958-8.8a5.461,5.461,0,0,1,1.266,3.776v.121a5.981,5.981,0,0,1-.561,2.63,4.262,4.262,0,0,1-1.6,1.814,4.445,4.445,0,0,1-2.4.649,4.223,4.223,0,0,1-3.307-1.419,5.433,5.433,0,0,1-1.266-3.757Zm1.726.2a4.294,4.294,0,0,0,.775,2.681A2.479,2.479,0,0,0,29.66-1.215,2.464,2.464,0,0,0,31.738-2.24a4.7,4.7,0,0,0,.77-2.871,4.287,4.287,0,0,0-.784-2.677,2.492,2.492,0,0,0-2.083-1.025A2.465,2.465,0,0,0,27.591-7.8,4.661,4.661,0,0,0,26.812-4.908Zm15.41,2.245A1.264,1.264,0,0,0,41.7-3.743a5.045,5.045,0,0,0-1.828-.663A8.641,8.641,0,0,1,37.8-5.075,2.943,2.943,0,0,1,36.669-6a2.219,2.219,0,0,1-.366-1.28A2.6,2.6,0,0,1,37.346-9.37a4.076,4.076,0,0,1,2.667-.854,4.194,4.194,0,0,1,2.769.881,2.8,2.8,0,0,1,1.062,2.254H42.119a1.549,1.549,0,0,0-.6-1.215,2.242,2.242,0,0,0-1.508-.51,2.346,2.346,0,0,0-1.466.408,1.285,1.285,0,0,0-.529,1.067,1.041,1.041,0,0,0,.492.937,6.05,6.05,0,0,0,1.777.6,9.257,9.257,0,0,1,2.083.687,3.038,3.038,0,0,1,1.183.96,2.361,2.361,0,0,1,.385,1.368A2.569,2.569,0,0,1,42.861-.626a4.514,4.514,0,0,1-2.792.812,5.055,5.055,0,0,1-2.134-.427,3.47,3.47,0,0,1-1.452-1.192,2.873,2.873,0,0,1-.524-1.656h1.716a1.777,1.777,0,0,0,.691,1.368,2.681,2.681,0,0,0,1.7.506,2.768,2.768,0,0,0,1.563-.394A1.212,1.212,0,0,0,42.221-2.663Z" transform="translate(1084.38 16676.023)" fill="#12263f"/>
    <path id="Trazado_186729" data-name="Trazado 186729" d="M-11.124-5.965h-5.668V0h-1.781V-13.508h8.368v1.457h-6.587v4.629h5.668ZM-6.476,0H-8.192V-10.038h1.716ZM-8.331-12.7a1.024,1.024,0,0,1,.255-.705.958.958,0,0,1,.756-.288.973.973,0,0,1,.761.288,1.014,1.014,0,0,1,.26.705.98.98,0,0,1-.26.7.99.99,0,0,1-.761.278A.975.975,0,0,1-8.076-12,.991.991,0,0,1-8.331-12.7Zm6.374,2.663V1.16q0,2.895-2.625,2.895a3.2,3.2,0,0,1-1.048-.166V2.523a3.318,3.318,0,0,0,.779.074,1.166,1.166,0,0,0,.877-.311,1.538,1.538,0,0,0,.3-1.082V-10.038ZM-3.85-12.7a1.029,1.029,0,0,1,.255-.7.938.938,0,0,1,.747-.292.973.973,0,0,1,.761.288,1.014,1.014,0,0,1,.26.705.98.98,0,0,1-.26.7.99.99,0,0,1-.761.278A.96.96,0,0,1-3.6-12,1,1,0,0,1-3.85-12.7Zm4.2,7.589a5.929,5.929,0,0,1,.58-2.653A4.326,4.326,0,0,1,2.547-9.583a4.394,4.394,0,0,1,2.361-.64A4.233,4.233,0,0,1,8.224-8.8,5.461,5.461,0,0,1,9.491-5.028v.121a5.981,5.981,0,0,1-.561,2.63,4.262,4.262,0,0,1-1.6,1.814,4.445,4.445,0,0,1-2.4.649A4.223,4.223,0,0,1,1.619-1.234,5.433,5.433,0,0,1,.353-4.991Zm1.726.2a4.294,4.294,0,0,0,.775,2.681A2.479,2.479,0,0,0,4.926-1.215,2.464,2.464,0,0,0,7-2.24a4.7,4.7,0,0,0,.77-2.871A4.287,4.287,0,0,0,6.99-7.788,2.492,2.492,0,0,0,4.908-8.813,2.465,2.465,0,0,0,2.857-7.8,4.661,4.661,0,0,0,2.078-4.908Zm15.41,2.245a1.263,1.263,0,0,0-.524-1.081,5.045,5.045,0,0,0-1.828-.663,8.641,8.641,0,0,1-2.069-.668A2.943,2.943,0,0,1,11.935-6a2.219,2.219,0,0,1-.366-1.28A2.6,2.6,0,0,1,12.613-9.37a4.076,4.076,0,0,1,2.667-.854,4.194,4.194,0,0,1,2.769.881,2.8,2.8,0,0,1,1.062,2.254H17.386a1.549,1.549,0,0,0-.6-1.215,2.242,2.242,0,0,0-1.508-.51,2.346,2.346,0,0,0-1.466.408,1.285,1.285,0,0,0-.529,1.067,1.041,1.041,0,0,0,.492.937,6.05,6.05,0,0,0,1.777.6,9.257,9.257,0,0,1,2.083.687,3.038,3.038,0,0,1,1.183.96A2.361,2.361,0,0,1,19.2-2.783,2.569,2.569,0,0,1,18.128-.626a4.514,4.514,0,0,1-2.792.812A5.055,5.055,0,0,1,13.2-.241,3.47,3.47,0,0,1,11.75-1.433a2.873,2.873,0,0,1-.524-1.656h1.716a1.777,1.777,0,0,0,.691,1.368,2.681,2.681,0,0,0,1.7.506A2.768,2.768,0,0,0,16.9-1.61,1.212,1.212,0,0,0,17.488-2.663Z" transform="translate(523.214 16759.309)" fill="#12263f"/>
    <path id="Trazado_186732" data-name="Trazado 186732" d="M-36.444,0h-1.687V-12.8h1.688Zm4.368-9.51.053,1.2a3.465,3.465,0,0,1,2.848-1.371q3.015,0,3.041,3.4V0H-27.76V-6.293a2.189,2.189,0,0,0-.47-1.521,1.884,1.884,0,0,0-1.437-.492,2.347,2.347,0,0,0-1.389.422,2.865,2.865,0,0,0-.932,1.107V0h-1.626V-9.51Zm8,4.676a5.571,5.571,0,0,1,1.037-3.52,3.28,3.28,0,0,1,2.716-1.332,3.3,3.3,0,0,1,2.646,1.143V-13.5h1.626V0h-1.494l-.079-1.02a3.311,3.311,0,0,1-2.716,1.2,3.248,3.248,0,0,1-2.694-1.354,5.634,5.634,0,0,1-1.042-3.533Zm1.626.185a4.218,4.218,0,0,0,.668,2.531,2.159,2.159,0,0,0,1.846.914,2.372,2.372,0,0,0,2.259-1.389V-6.961A2.39,2.39,0,0,0-19.92-8.306a2.17,2.17,0,0,0-1.863.923A4.644,4.644,0,0,0-22.452-4.649ZM-11.764,0H-13.39V-9.51h1.626Zm-1.758-12.032a.971.971,0,0,1,.242-.668.907.907,0,0,1,.716-.272.922.922,0,0,1,.721.272.96.96,0,0,1,.246.668.929.929,0,0,1-.246.659.938.938,0,0,1-.721.264.924.924,0,0,1-.716-.264A.938.938,0,0,1-13.522-12.032Zm8.956,3.981a4.873,4.873,0,0,0-.8-.062A2.143,2.143,0,0,0-7.537-6.75V0H-9.163V-9.51h1.582l.026,1.1A2.532,2.532,0,0,1-5.287-9.686a1.661,1.661,0,0,1,.721.123ZM.708.176a4.155,4.155,0,0,1-3.146-1.27,4.714,4.714,0,0,1-1.213-3.4v-.3a5.707,5.707,0,0,1,.541-2.527A4.217,4.217,0,0,1-1.6-9.057a3.8,3.8,0,0,1,2.1-.628A3.562,3.562,0,0,1,3.388-8.464a5.289,5.289,0,0,1,1.028,3.5v.677H-2.026A3.38,3.38,0,0,0-1.2-2.017a2.583,2.583,0,0,0,2,.866A2.832,2.832,0,0,0,2.254-1.5,3.666,3.666,0,0,0,3.3-2.435l.993.773A3.993,3.993,0,0,1,.708.176ZM.505-8.35a2.169,2.169,0,0,0-1.652.716,3.482,3.482,0,0,0-.826,2.008H2.791v-.123a3.1,3.1,0,0,0-.668-1.92A2.042,2.042,0,0,0,.505-8.35Zm9.606,7.2a2.342,2.342,0,0,0,1.521-.527A1.855,1.855,0,0,0,12.353-3h1.538a2.949,2.949,0,0,1-.562,1.556A3.7,3.7,0,0,1,11.944-.264a3.994,3.994,0,0,1-1.833.439,3.918,3.918,0,0,1-3.089-1.3A5.163,5.163,0,0,1,5.875-4.667v-.272a5.725,5.725,0,0,1,.51-2.47A3.883,3.883,0,0,1,7.849-9.088a4.157,4.157,0,0,1,2.254-.6,3.814,3.814,0,0,1,2.659.958A3.424,3.424,0,0,1,13.891-6.24H12.353a2.241,2.241,0,0,0-.7-1.516A2.174,2.174,0,0,0,10.1-8.35a2.276,2.276,0,0,0-1.92.892A4.19,4.19,0,0,0,7.5-4.878v.308a4.106,4.106,0,0,0,.677,2.531A2.287,2.287,0,0,0,10.112-1.151Zm7.813-10.661v2.3H19.7v1.257H17.925v5.9a1.32,1.32,0,0,0,.237.858,1,1,0,0,0,.809.286,3.937,3.937,0,0,0,.773-.105V0A4.742,4.742,0,0,1,18.5.176a2.025,2.025,0,0,1-1.644-.659A2.832,2.832,0,0,1,16.3-2.355v-5.9H14.568V-9.51H16.3v-2.3Zm3.067,6.97a5.617,5.617,0,0,1,.549-2.514,4.1,4.1,0,0,1,1.529-1.723,4.163,4.163,0,0,1,2.237-.606A4.01,4.01,0,0,1,28.45-8.341a5.174,5.174,0,0,1,1.2,3.577v.114a5.666,5.666,0,0,1-.532,2.492A4.038,4.038,0,0,1,27.6-.439a4.211,4.211,0,0,1-2.272.615,4,4,0,0,1-3.133-1.345,5.147,5.147,0,0,1-1.2-3.56Zm1.635.193a4.068,4.068,0,0,0,.734,2.54,2.349,2.349,0,0,0,1.964.958,2.335,2.335,0,0,0,1.969-.971,4.449,4.449,0,0,0,.729-2.72,4.061,4.061,0,0,0-.743-2.536,2.361,2.361,0,0,0-1.973-.971,2.335,2.335,0,0,0-1.942.958A4.416,4.416,0,0,0,22.627-4.649Zm14.6,2.127a1.2,1.2,0,0,0-.5-1.024A4.78,4.78,0,0,0,35-4.175a8.186,8.186,0,0,1-1.96-.633,2.788,2.788,0,0,1-1.072-.879A2.1,2.1,0,0,1,31.619-6.9a2.467,2.467,0,0,1,.989-1.978,3.861,3.861,0,0,1,2.527-.809,3.974,3.974,0,0,1,2.624.835,2.652,2.652,0,0,1,1.006,2.136H37.129a1.468,1.468,0,0,0-.567-1.151,2.124,2.124,0,0,0-1.428-.483,2.223,2.223,0,0,0-1.389.387,1.217,1.217,0,0,0-.5,1.011.986.986,0,0,0,.466.888,5.731,5.731,0,0,0,1.683.571,8.77,8.77,0,0,1,1.973.65,2.878,2.878,0,0,1,1.121.91,2.237,2.237,0,0,1,.365,1.3,2.434,2.434,0,0,1-1.02,2.043,4.277,4.277,0,0,1-2.646.769,4.789,4.789,0,0,1-2.021-.4A3.288,3.288,0,0,1,31.79-1.358a2.722,2.722,0,0,1-.5-1.569h1.626a1.683,1.683,0,0,0,.655,1.3,2.54,2.54,0,0,0,1.613.479,2.622,2.622,0,0,0,1.481-.374A1.148,1.148,0,0,0,37.226-2.522Z" transform="translate(790.98 16758.305)" fill="#12263f"/>
    <path id="Trazado_186735" data-name="Trazado 186735" d="M-28.347-6.244H-34.2v4.787h6.8V0h-8.582V-13.508h8.489v1.457H-34.2V-7.7h5.854Zm8.739,3.581a1.263,1.263,0,0,0-.524-1.081,5.045,5.045,0,0,0-1.828-.663,8.641,8.641,0,0,1-2.069-.668A2.943,2.943,0,0,1-25.16-6a2.219,2.219,0,0,1-.366-1.28A2.6,2.6,0,0,1-24.483-9.37a4.076,4.076,0,0,1,2.667-.854,4.194,4.194,0,0,1,2.769.881,2.8,2.8,0,0,1,1.062,2.254H-19.71a1.549,1.549,0,0,0-.6-1.215,2.242,2.242,0,0,0-1.508-.51,2.346,2.346,0,0,0-1.466.408,1.285,1.285,0,0,0-.529,1.067,1.041,1.041,0,0,0,.492.937,6.05,6.05,0,0,0,1.777.6,9.257,9.257,0,0,1,2.083.687,3.038,3.038,0,0,1,1.183.96,2.361,2.361,0,0,1,.385,1.368A2.569,2.569,0,0,1-18.968-.626,4.514,4.514,0,0,1-21.76.186a5.055,5.055,0,0,1-2.134-.427,3.47,3.47,0,0,1-1.452-1.192,2.873,2.873,0,0,1-.524-1.656h1.716a1.777,1.777,0,0,0,.691,1.368,2.681,2.681,0,0,0,1.7.506A2.768,2.768,0,0,0-20.2-1.61,1.212,1.212,0,0,0-19.608-2.663Zm6.281-9.806v2.431h1.874v1.327h-1.874v6.233a1.393,1.393,0,0,0,.25.906,1.054,1.054,0,0,0,.854.3,4.155,4.155,0,0,0,.816-.111V0a5,5,0,0,1-1.317.184,2.137,2.137,0,0,1-1.735-.7,2.989,2.989,0,0,1-.584-1.976V-8.711h-1.828v-1.327h1.828v-2.431ZM-3.252,0a3.605,3.605,0,0,1-.241-1.058A3.829,3.829,0,0,1-6.35.186a3.543,3.543,0,0,1-2.435-.84,2.716,2.716,0,0,1-.951-2.129A2.838,2.838,0,0,1-8.544-5.219a5.621,5.621,0,0,1,3.354-.867h1.67v-.789a1.928,1.928,0,0,0-.538-1.433,2.163,2.163,0,0,0-1.586-.533,2.5,2.5,0,0,0-1.54.464,1.367,1.367,0,0,0-.622,1.123H-9.532A2.369,2.369,0,0,1-9-8.707,3.641,3.641,0,0,1-7.552-9.815a4.869,4.869,0,0,1,2.009-.408,3.968,3.968,0,0,1,2.718.867A3.129,3.129,0,0,1-1.8-6.967v4.62a5.649,5.649,0,0,0,.353,2.2V0ZM-6.1-1.308a3.016,3.016,0,0,0,1.531-.417A2.525,2.525,0,0,0-3.521-2.811v-2.06H-4.866q-3.154,0-3.154,1.846a1.562,1.562,0,0,0,.538,1.262A2.068,2.068,0,0,0-6.1-1.308Zm1.586-12.923h2.078L-4.922-11.5l-1.382,0ZM2.51-10.038l.056,1.262a3.658,3.658,0,0,1,3.006-1.447q3.182,0,3.21,3.59V0H7.065V-6.643a2.311,2.311,0,0,0-.5-1.6,1.989,1.989,0,0,0-1.517-.52,2.477,2.477,0,0,0-1.466.445A3.024,3.024,0,0,0,2.6-7.153V0H.886V-10.038ZM10.952-5.1a5.88,5.88,0,0,1,1.095-3.716,3.462,3.462,0,0,1,2.867-1.406,3.481,3.481,0,0,1,2.792,1.206V-14.25h1.716V0H17.845l-.083-1.076A3.5,3.5,0,0,1,14.895.186a3.429,3.429,0,0,1-2.844-1.429,5.947,5.947,0,0,1-1.1-3.729Zm1.716.195a4.452,4.452,0,0,0,.705,2.672,2.279,2.279,0,0,0,1.948.965,2.5,2.5,0,0,0,2.384-1.466V-7.348A2.523,2.523,0,0,0,15.34-8.767a2.29,2.29,0,0,0-1.967.974A4.9,4.9,0,0,0,12.668-4.908ZM28.282,0a3.605,3.605,0,0,1-.241-1.058A3.829,3.829,0,0,1,25.183.186a3.543,3.543,0,0,1-2.435-.84A2.716,2.716,0,0,1,21.8-2.783a2.838,2.838,0,0,1,1.192-2.435,5.621,5.621,0,0,1,3.354-.867h1.67v-.789a1.928,1.928,0,0,0-.538-1.433,2.163,2.163,0,0,0-1.586-.533,2.5,2.5,0,0,0-1.54.464,1.367,1.367,0,0,0-.622,1.123H22a2.369,2.369,0,0,1,.533-1.452,3.641,3.641,0,0,1,1.447-1.109,4.869,4.869,0,0,1,2.009-.408,3.968,3.968,0,0,1,2.718.867,3.129,3.129,0,0,1,1.021,2.389v4.62a5.649,5.649,0,0,0,.353,2.2V0ZM25.434-1.308a3.016,3.016,0,0,0,1.531-.417,2.525,2.525,0,0,0,1.048-1.085v-2.06H26.668q-3.154,0-3.154,1.846a1.562,1.562,0,0,0,.538,1.262A2.068,2.068,0,0,0,25.434-1.308ZM37.272-8.5a5.143,5.143,0,0,0-.844-.065,2.262,2.262,0,0,0-2.292,1.438V0H32.42V-10.038h1.67l.028,1.16a2.672,2.672,0,0,1,2.394-1.345,1.753,1.753,0,0,1,.761.13Z" transform="translate(1084.807 16759.309)" fill="#12263f"/>
    <path id="Trazado_186730" data-name="Trazado 186730" d="M-52.782-6.04h-3.507V0h-1.979V-14.93h4.942a5.85,5.85,0,0,1,3.881,1.148,4.132,4.132,0,0,1,1.359,3.343,4.019,4.019,0,0,1-.754,2.43,4.5,4.5,0,0,1-2.1,1.548l3.507,6.337V0h-2.112Zm-3.507-1.61h3.025a3.412,3.412,0,0,0,2.333-.76,2.571,2.571,0,0,0,.866-2.034,2.707,2.707,0,0,0-.825-2.126,3.5,3.5,0,0,0-2.384-.75h-3.015ZM-41.021.205a4.848,4.848,0,0,1-3.671-1.482A5.5,5.5,0,0,1-46.107-5.24v-.349a6.658,6.658,0,0,1,.631-2.948,4.919,4.919,0,0,1,1.764-2.03,4.434,4.434,0,0,1,2.456-.733,4.155,4.155,0,0,1,3.363,1.425,6.171,6.171,0,0,1,1.2,4.081V-5H-44.21a3.944,3.944,0,0,0,.959,2.651,3.014,3.014,0,0,0,2.333,1.01,3.3,3.3,0,0,0,1.7-.41A4.277,4.277,0,0,0-38-2.84l1.159.9A4.659,4.659,0,0,1-41.021.205Zm-.236-9.946a2.53,2.53,0,0,0-1.928.836,4.062,4.062,0,0,0-.964,2.343h5.558v-.144a3.613,3.613,0,0,0-.779-2.24A2.382,2.382,0,0,0-41.257-9.741ZM-32.438,0h-1.9V-15.75h1.9Zm9.885,0a3.985,3.985,0,0,1-.267-1.169A4.233,4.233,0,0,1-25.978.205,3.916,3.916,0,0,1-28.67-.723a3,3,0,0,1-1.051-2.353A3.136,3.136,0,0,1-28.4-5.768,6.212,6.212,0,0,1-24.7-6.727h1.846V-7.6a2.131,2.131,0,0,0-.595-1.584,2.39,2.39,0,0,0-1.753-.59,2.766,2.766,0,0,0-1.7.513,1.511,1.511,0,0,0-.687,1.241H-29.5a2.618,2.618,0,0,1,.59-1.6,4.024,4.024,0,0,1,1.6-1.225,5.381,5.381,0,0,1,2.22-.451,4.386,4.386,0,0,1,3,.959A3.458,3.458,0,0,1-20.954-7.7v5.106a6.243,6.243,0,0,0,.39,2.43V0ZM-25.7-1.446a3.334,3.334,0,0,0,1.692-.461,2.791,2.791,0,0,0,1.159-1.2V-5.383h-1.487q-3.486,0-3.486,2.041a1.727,1.727,0,0,0,.595,1.395A2.286,2.286,0,0,0-25.7-1.446Zm12.171.1a2.732,2.732,0,0,0,1.774-.615A2.164,2.164,0,0,0-10.915-3.5h1.794a3.44,3.44,0,0,1-.656,1.815A4.322,4.322,0,0,1-11.392-.308,4.66,4.66,0,0,1-13.53.205a4.57,4.57,0,0,1-3.6-1.512,6.024,6.024,0,0,1-1.338-4.137v-.318a6.679,6.679,0,0,1,.595-2.881A4.53,4.53,0,0,1-16.17-10.6a4.85,4.85,0,0,1,2.63-.7,4.45,4.45,0,0,1,3.1,1.118,3.994,3.994,0,0,1,1.318,2.9h-1.794a2.614,2.614,0,0,0-.815-1.769,2.536,2.536,0,0,0-1.81-.692A2.655,2.655,0,0,0-15.781-8.7a4.888,4.888,0,0,0-.795,3.01v.359a4.79,4.79,0,0,0,.79,2.953A2.668,2.668,0,0,0-13.53-1.343ZM-4.927,0h-1.9V-11.095h1.9ZM-6.978-14.038a1.132,1.132,0,0,1,.282-.779,1.059,1.059,0,0,1,.836-.318,1.075,1.075,0,0,1,.841.318,1.12,1.12,0,0,1,.287.779,1.084,1.084,0,0,1-.287.769,1.1,1.1,0,0,1-.841.308,1.078,1.078,0,0,1-.836-.308A1.1,1.1,0,0,1-6.978-14.038ZM-2.394-5.65a6.553,6.553,0,0,1,.641-2.933,4.781,4.781,0,0,1,1.784-2.01A4.857,4.857,0,0,1,2.64-11.3,4.679,4.679,0,0,1,6.306-9.731a6.036,6.036,0,0,1,1.4,4.173v.133a6.61,6.61,0,0,1-.62,2.907,4.71,4.71,0,0,1-1.774,2A4.913,4.913,0,0,1,2.661.205,4.667,4.667,0,0,1-.995-1.364a6.005,6.005,0,0,1-1.4-4.153Zm1.907.226A4.746,4.746,0,0,0,.369-2.461,2.74,2.74,0,0,0,2.661-1.343a2.724,2.724,0,0,0,2.3-1.133A5.19,5.19,0,0,0,5.809-5.65a4.738,4.738,0,0,0-.866-2.958,2.755,2.755,0,0,0-2.3-1.133A2.724,2.724,0,0,0,.374-8.624,5.152,5.152,0,0,0-.487-5.424ZM3.5-15.729H5.8L3.051-12.715,1.523-12.72Zm8.377,4.635L11.941-9.7a4.043,4.043,0,0,1,3.322-1.6q3.517,0,3.548,3.968V0h-1.9V-7.342a2.554,2.554,0,0,0-.549-1.774,2.2,2.2,0,0,0-1.677-.574,2.738,2.738,0,0,0-1.62.492,3.342,3.342,0,0,0-1.087,1.292V0h-1.9V-11.095ZM31.321-1.343a2.732,2.732,0,0,0,1.774-.615A2.164,2.164,0,0,0,33.935-3.5H35.73a3.44,3.44,0,0,1-.656,1.815A4.322,4.322,0,0,1,33.458-.308a4.66,4.66,0,0,1-2.138.513,4.57,4.57,0,0,1-3.6-1.512,6.024,6.024,0,0,1-1.338-4.137v-.318a6.679,6.679,0,0,1,.595-2.881A4.53,4.53,0,0,1,28.68-10.6a4.85,4.85,0,0,1,2.63-.7,4.45,4.45,0,0,1,3.1,1.118,3.994,3.994,0,0,1,1.318,2.9H33.935a2.614,2.614,0,0,0-.815-1.769,2.536,2.536,0,0,0-1.81-.692A2.655,2.655,0,0,0,29.07-8.7a4.888,4.888,0,0,0-.795,3.01v.359a4.79,4.79,0,0,0,.79,2.953A2.668,2.668,0,0,0,31.321-1.343ZM37.36-5.65A6.553,6.553,0,0,1,38-8.583a4.781,4.781,0,0,1,1.784-2.01,4.857,4.857,0,0,1,2.61-.708,4.679,4.679,0,0,1,3.666,1.569,6.036,6.036,0,0,1,1.4,4.173v.133a6.61,6.61,0,0,1-.62,2.907,4.71,4.71,0,0,1-1.774,2,4.913,4.913,0,0,1-2.651.718A4.667,4.667,0,0,1,38.76-1.364a6.005,6.005,0,0,1-1.4-4.153Zm1.907.226a4.746,4.746,0,0,0,.856,2.963,2.74,2.74,0,0,0,2.292,1.118,2.724,2.724,0,0,0,2.3-1.133,5.19,5.19,0,0,0,.851-3.174A4.738,4.738,0,0,0,44.7-8.608a2.755,2.755,0,0,0-2.3-1.133,2.724,2.724,0,0,0-2.266,1.118A5.152,5.152,0,0,0,39.267-5.424Zm12.366-5.67L51.7-9.7a4.043,4.043,0,0,1,3.322-1.6q3.517,0,3.548,3.968V0h-1.9V-7.342a2.554,2.554,0,0,0-.549-1.774,2.2,2.2,0,0,0-1.677-.574,2.738,2.738,0,0,0-1.62.492,3.342,3.342,0,0,0-1.087,1.292V0h-1.9V-11.095Zm-82.677,29.67A6.643,6.643,0,0,1-32.2,22.657a3.714,3.714,0,0,1-3.138,1.548,4.069,4.069,0,0,1-3.179-1.282v5.342h-1.9V12.905h1.733l.092,1.23a3.908,3.908,0,0,1,3.22-1.436,3.783,3.783,0,0,1,3.163,1.507A6.716,6.716,0,0,1-31.044,18.4Zm-1.9-.215a4.9,4.9,0,0,0-.8-2.963,2.576,2.576,0,0,0-2.194-1.087,2.789,2.789,0,0,0-2.584,1.528v5.3a2.794,2.794,0,0,0,2.6,1.518,2.564,2.564,0,0,0,2.169-1.082A5.351,5.351,0,0,0-32.941,18.36Zm9.669-3.753a5.685,5.685,0,0,0-.933-.072,2.5,2.5,0,0,0-2.533,1.589V24h-1.9V12.905h1.846l.031,1.282A2.954,2.954,0,0,1-24.112,12.7a1.938,1.938,0,0,1,.841.144Zm1.036,3.743a6.553,6.553,0,0,1,.641-2.933,4.781,4.781,0,0,1,1.784-2.01A4.857,4.857,0,0,1-17.2,12.7a4.679,4.679,0,0,1,3.666,1.569,6.036,6.036,0,0,1,1.4,4.173v.133a6.61,6.61,0,0,1-.62,2.907,4.71,4.71,0,0,1-1.774,2,4.913,4.913,0,0,1-2.651.718,4.667,4.667,0,0,1-3.656-1.569,6.005,6.005,0,0,1-1.4-4.153Zm1.907.226a4.746,4.746,0,0,0,.856,2.963,2.74,2.74,0,0,0,2.292,1.118,2.724,2.724,0,0,0,2.3-1.133,5.19,5.19,0,0,0,.851-3.174,4.738,4.738,0,0,0-.866-2.958,2.755,2.755,0,0,0-2.3-1.133,2.724,2.724,0,0,0-2.266,1.118A5.152,5.152,0,0,0-20.328,18.576Zm10.11-.215a6.5,6.5,0,0,1,1.21-4.107A3.826,3.826,0,0,1-5.84,12.7a3.848,3.848,0,0,1,3.086,1.333V8.25h1.9V24H-2.6l-.092-1.189A3.863,3.863,0,0,1-5.86,24.205,3.789,3.789,0,0,1-9,22.626,6.573,6.573,0,0,1-10.218,18.5Zm1.9.215a4.921,4.921,0,0,0,.779,2.953A2.519,2.519,0,0,0-5.388,22.6a2.767,2.767,0,0,0,2.635-1.62v-5.1A2.789,2.789,0,0,0-5.368,14.31a2.531,2.531,0,0,0-2.174,1.077A5.418,5.418,0,0,0-8.321,18.576ZM8.936,22.9a4.029,4.029,0,0,1-3.25,1.3,3.449,3.449,0,0,1-2.7-1.031,4.461,4.461,0,0,1-.938-3.051V12.905h1.9v7.167q0,2.522,2.051,2.522a2.84,2.84,0,0,0,2.892-1.62v-8.07h1.9V24h-1.8Zm9.177-.246a2.732,2.732,0,0,0,1.774-.615,2.164,2.164,0,0,0,.841-1.538h1.794a3.44,3.44,0,0,1-.656,1.815,4.322,4.322,0,0,1-1.615,1.374,4.66,4.66,0,0,1-2.138.513,4.57,4.57,0,0,1-3.6-1.512,6.024,6.024,0,0,1-1.338-4.137v-.318a6.679,6.679,0,0,1,.595-2.881A4.53,4.53,0,0,1,15.473,13.4a4.85,4.85,0,0,1,2.63-.7,4.45,4.45,0,0,1,3.1,1.118,3.994,3.994,0,0,1,1.318,2.9H20.728a2.614,2.614,0,0,0-.815-1.769,2.536,2.536,0,0,0-1.81-.692,2.655,2.655,0,0,0-2.24,1.041,4.888,4.888,0,0,0-.795,3.01v.359a4.79,4.79,0,0,0,.79,2.953A2.668,2.668,0,0,0,18.114,22.657Zm9.116-12.438v2.687H29.3v1.466H27.229v6.889a1.54,1.54,0,0,0,.277,1,1.165,1.165,0,0,0,.943.334,4.593,4.593,0,0,0,.9-.123V24a5.532,5.532,0,0,1-1.456.2,2.362,2.362,0,0,1-1.917-.769,3.3,3.3,0,0,1-.646-2.184v-6.88h-2.02V12.905h2.02V10.219Zm3.579,8.131a6.553,6.553,0,0,1,.641-2.933,4.781,4.781,0,0,1,1.784-2.01,4.857,4.857,0,0,1,2.61-.708,4.679,4.679,0,0,1,3.666,1.569,6.036,6.036,0,0,1,1.4,4.173v.133a6.61,6.61,0,0,1-.62,2.907,4.71,4.71,0,0,1-1.774,2,4.913,4.913,0,0,1-2.651.718,4.667,4.667,0,0,1-3.656-1.569,6.005,6.005,0,0,1-1.4-4.153Zm1.907.226a4.746,4.746,0,0,0,.856,2.963,2.9,2.9,0,0,0,4.589-.015,5.19,5.19,0,0,0,.851-3.174,4.738,4.738,0,0,0-.866-2.958,2.755,2.755,0,0,0-2.3-1.133,2.724,2.724,0,0,0-2.266,1.118A5.152,5.152,0,0,0,32.715,18.576Z" transform="translate(793.011 16568.738)" fill="#fff"/>
    <path id="Trazado_186733" data-name="Trazado 186733" d="M-18.975-14.219v9.668A4.535,4.535,0,0,1-20.239-1.26a5.1,5.1,0,0,1-3.4,1.436l-.5.02a5.322,5.322,0,0,1-3.721-1.26,4.505,4.505,0,0,1-1.406-3.467v-9.687h1.855V-4.59a3.252,3.252,0,0,0,.85,2.4,3.265,3.265,0,0,0,2.422.854,3.287,3.287,0,0,0,2.437-.85,3.246,3.246,0,0,0,.845-2.393v-9.639ZM-10.146-2.8A1.33,1.33,0,0,0-10.7-3.94a5.311,5.311,0,0,0-1.924-.7,9.1,9.1,0,0,1-2.178-.7,3.1,3.1,0,0,1-1.191-.977,2.336,2.336,0,0,1-.386-1.348,2.741,2.741,0,0,1,1.1-2.2,4.291,4.291,0,0,1,2.808-.9,4.415,4.415,0,0,1,2.915.928A2.947,2.947,0,0,1-8.437-7.461h-1.816a1.631,1.631,0,0,0-.63-1.279,2.36,2.36,0,0,0-1.587-.537,2.47,2.47,0,0,0-1.543.43,1.353,1.353,0,0,0-.557,1.123,1.1,1.1,0,0,0,.518.986,6.368,6.368,0,0,0,1.87.635,9.744,9.744,0,0,1,2.192.723A3.2,3.2,0,0,1-8.745-4.37,2.485,2.485,0,0,1-8.34-2.93,2.7,2.7,0,0,1-9.473-.659,4.752,4.752,0,0,1-12.412.2a5.321,5.321,0,0,1-2.246-.449,3.653,3.653,0,0,1-1.528-1.255,3.025,3.025,0,0,1-.552-1.743h1.807a1.87,1.87,0,0,0,.728,1.44,2.822,2.822,0,0,0,1.792.532,2.913,2.913,0,0,0,1.646-.415A1.275,1.275,0,0,0-10.146-2.8Zm3.682-2.578a6.241,6.241,0,0,1,.61-2.793,4.553,4.553,0,0,1,1.7-1.914,4.626,4.626,0,0,1,2.485-.674A4.456,4.456,0,0,1,1.821-9.268,5.748,5.748,0,0,1,3.154-5.293v.127A6.3,6.3,0,0,1,2.563-2.4,4.486,4.486,0,0,1,.874-.488,4.679,4.679,0,0,1-1.65.2,4.445,4.445,0,0,1-5.132-1.3,5.719,5.719,0,0,1-6.465-5.254Zm1.816.215a4.52,4.52,0,0,0,.815,2.822A2.61,2.61,0,0,0-1.65-1.279,2.594,2.594,0,0,0,.537-2.358a4.943,4.943,0,0,0,.811-3.022A4.513,4.513,0,0,0,.522-8.2,2.623,2.623,0,0,0-1.67-9.277,2.594,2.594,0,0,0-3.828-8.213,4.906,4.906,0,0,0-4.648-5.166ZM14.756.2a4.617,4.617,0,0,1-3.5-1.411A5.237,5.237,0,0,1,9.912-4.99v-.332a6.341,6.341,0,0,1,.6-2.808,4.685,4.685,0,0,1,1.68-1.934,4.223,4.223,0,0,1,2.339-.7,3.957,3.957,0,0,1,3.2,1.357,5.877,5.877,0,0,1,1.143,3.887v.752H11.719a3.756,3.756,0,0,0,.913,2.524,2.87,2.87,0,0,0,2.222.962,3.147,3.147,0,0,0,1.621-.391,4.073,4.073,0,0,0,1.162-1.035l1.1.859A4.437,4.437,0,0,1,14.756.2Zm-.225-9.473a2.41,2.41,0,0,0-1.836.8,3.868,3.868,0,0,0-.918,2.231H17.07v-.137a3.441,3.441,0,0,0-.742-2.134A2.269,2.269,0,0,0,14.531-9.277Zm8.145-1.289.059,1.328A3.85,3.85,0,0,1,25.9-10.762q3.35,0,3.379,3.779V0H27.471V-6.992a2.432,2.432,0,0,0-.522-1.689,2.094,2.094,0,0,0-1.6-.547,2.607,2.607,0,0,0-1.543.469,3.183,3.183,0,0,0-1.035,1.23V0H20.967V-10.566Zm-61,28.4a6.327,6.327,0,0,1-1.1,3.887A3.537,3.537,0,0,1-42.412,23.2a3.875,3.875,0,0,1-3.027-1.221v5.088h-1.807V12.434h1.65l.088,1.172a3.722,3.722,0,0,1,3.066-1.367,3.6,3.6,0,0,1,3.013,1.436,6.4,6.4,0,0,1,1.108,3.994Zm-1.807-.205a4.669,4.669,0,0,0-.762-2.822,2.454,2.454,0,0,0-2.09-1.035,2.656,2.656,0,0,0-2.461,1.455v5.049a2.661,2.661,0,0,0,2.48,1.445,2.442,2.442,0,0,0,2.065-1.03A5.1,5.1,0,0,0-40.127,17.629ZM-34.062,23h-1.807V8h1.807Zm9.414,0a3.8,3.8,0,0,1-.254-1.113A4.031,4.031,0,0,1-27.91,23.2a3.73,3.73,0,0,1-2.563-.884,2.859,2.859,0,0,1-1-2.241,2.987,2.987,0,0,1,1.255-2.563,5.916,5.916,0,0,1,3.53-.913h1.758v-.83a2.029,2.029,0,0,0-.566-1.509,2.276,2.276,0,0,0-1.67-.562,2.634,2.634,0,0,0-1.621.488,1.439,1.439,0,0,0-.654,1.182H-31.26a2.493,2.493,0,0,1,.562-1.528,3.832,3.832,0,0,1,1.523-1.167,5.125,5.125,0,0,1,2.114-.43,4.177,4.177,0,0,1,2.861.913,3.294,3.294,0,0,1,1.074,2.515v4.863a5.946,5.946,0,0,0,.371,2.314V23Zm-3-1.377a3.175,3.175,0,0,0,1.611-.439,2.658,2.658,0,0,0,1.1-1.143V17.873h-1.416q-3.32,0-3.32,1.943a1.645,1.645,0,0,0,.566,1.328A2.177,2.177,0,0,0-27.646,21.623Zm9.063-9.189.059,1.328a3.85,3.85,0,0,1,3.164-1.523q3.35,0,3.379,3.779V23h-1.807V16.008a2.432,2.432,0,0,0-.522-1.689,2.094,2.094,0,0,0-1.6-.547,2.607,2.607,0,0,0-1.543.469,3.183,3.183,0,0,0-1.035,1.23V23h-1.807V12.434ZM-4.873,23.2a4.617,4.617,0,0,1-3.5-1.411A5.237,5.237,0,0,1-9.717,18.01v-.332a6.341,6.341,0,0,1,.6-2.808,4.685,4.685,0,0,1,1.68-1.934,4.223,4.223,0,0,1,2.339-.7,3.957,3.957,0,0,1,3.2,1.357A5.877,5.877,0,0,1-.752,17.482v.752H-7.91A3.756,3.756,0,0,0-7,20.759a2.87,2.87,0,0,0,2.222.962,3.147,3.147,0,0,0,1.621-.391,4.073,4.073,0,0,0,1.162-1.035l1.1.859A4.437,4.437,0,0,1-4.873,23.2ZM-5.1,13.723a2.41,2.41,0,0,0-1.836.8,3.868,3.868,0,0,0-.918,2.231h5.293v-.137A3.441,3.441,0,0,0-3.3,14.479,2.269,2.269,0,0,0-5.1,13.723ZM7.861,23a3.8,3.8,0,0,1-.254-1.113A4.031,4.031,0,0,1,4.6,23.2a3.73,3.73,0,0,1-2.563-.884,2.859,2.859,0,0,1-1-2.241A2.987,2.987,0,0,1,2.29,17.507a5.916,5.916,0,0,1,3.53-.913H7.578v-.83a2.029,2.029,0,0,0-.566-1.509,2.276,2.276,0,0,0-1.67-.562,2.634,2.634,0,0,0-1.621.488,1.439,1.439,0,0,0-.654,1.182H1.25a2.493,2.493,0,0,1,.562-1.528,3.832,3.832,0,0,1,1.523-1.167,5.125,5.125,0,0,1,2.114-.43,4.177,4.177,0,0,1,2.861.913,3.294,3.294,0,0,1,1.074,2.515v4.863a5.946,5.946,0,0,0,.371,2.314V23Zm-3-1.377a3.175,3.175,0,0,0,1.611-.439,2.658,2.658,0,0,0,1.1-1.143V17.873H6.162q-3.32,0-3.32,1.943a1.645,1.645,0,0,0,.566,1.328A2.177,2.177,0,0,0,4.863,21.623Zm11.592.1a2.6,2.6,0,0,0,1.689-.586,2.061,2.061,0,0,0,.8-1.465h1.709a3.276,3.276,0,0,1-.625,1.729,4.116,4.116,0,0,1-1.538,1.309,4.438,4.438,0,0,1-2.036.488,4.353,4.353,0,0,1-3.433-1.44,5.737,5.737,0,0,1-1.274-3.94v-.3a6.361,6.361,0,0,1,.566-2.744A4.314,4.314,0,0,1,13.94,12.9a4.619,4.619,0,0,1,2.5-.664A4.238,4.238,0,0,1,19.4,13.3a3.8,3.8,0,0,1,1.255,2.764H18.945a2.49,2.49,0,0,0-.776-1.685,2.415,2.415,0,0,0-1.724-.659,2.529,2.529,0,0,0-2.134.991,4.655,4.655,0,0,0-.757,2.866v.342a4.562,4.562,0,0,0,.752,2.813A2.541,2.541,0,0,0,16.455,21.721ZM24.648,23H22.842V12.434h1.807ZM22.7,9.631a1.078,1.078,0,0,1,.269-.742,1.008,1.008,0,0,1,.8-.3,1.024,1.024,0,0,1,.8.3,1.067,1.067,0,0,1,.273.742,1.032,1.032,0,0,1-.273.732,1.043,1.043,0,0,1-.8.293,1.026,1.026,0,0,1-.8-.293A1.043,1.043,0,0,1,22.7,9.631Zm4.365,7.988a6.241,6.241,0,0,1,.61-2.793,4.553,4.553,0,0,1,1.7-1.914,4.626,4.626,0,0,1,2.485-.674,4.456,4.456,0,0,1,3.491,1.494,5.748,5.748,0,0,1,1.333,3.975v.127a6.3,6.3,0,0,1-.591,2.769A4.486,4.486,0,0,1,34.4,22.512a4.679,4.679,0,0,1-2.524.684A4.445,4.445,0,0,1,28.394,21.7a5.719,5.719,0,0,1-1.333-3.955Zm1.816.215a4.52,4.52,0,0,0,.815,2.822,2.763,2.763,0,0,0,4.37-.015,4.943,4.943,0,0,0,.811-3.022,4.513,4.513,0,0,0-.825-2.817,2.623,2.623,0,0,0-2.192-1.079A2.594,2.594,0,0,0,29.7,14.787,4.906,4.906,0,0,0,28.877,17.834Zm3.8-9.814h2.188l-2.617,2.871-1.455,0Zm7.979,4.414.059,1.328a3.851,3.851,0,0,1,3.164-1.523q3.35,0,3.379,3.779V23H45.449V16.008a2.432,2.432,0,0,0-.522-1.689,2.094,2.094,0,0,0-1.6-.547,2.607,2.607,0,0,0-1.543.469,3.183,3.183,0,0,0-1.035,1.23V23H38.945V12.434Z" transform="translate(1088.724 16568.738)" fill="#fff"/>
    <g id="Grupo_143329" data-name="Grupo 143329" transform="translate(1198.89 16473.229) rotate(90)">
      <path id="Unión_53-4" data-name="Unión 53" d="M0,0H569.964V13.557H0Z" transform="translate(39.661 113.96) rotate(90)" fill="#bec1c7"/>
      <path id="Unión_58-4" data-name="Unión 58" d="M0,0H32.882V13.557H0Z" transform="translate(32.882 421.429) rotate(180)" fill="#bec1c7"/>
      <path id="Unión_57" data-name="Unión 57" d="M0,0H36.758V13.557H0Z" transform="translate(64.105 421.316) rotate(180)" fill="#bec1c7"/>
      <path id="Unión_64" data-name="Unión 64" d="M0,0H36.758V13.557H0Z" transform="translate(64.105 127.517) rotate(180)" fill="#bec1c7"/>
      <path id="Unión_59" data-name="Unión 59" d="M0,0H36.758V13.557H0Z" transform="translate(64.105 683.924) rotate(180)" fill="#bec1c7"/>
    </g>
    <g id="Grupo_143333" data-name="Grupo 143333" transform="translate(673.518 16548.635)">
      <g id="Grupo_142308" data-name="Grupo 142308" transform="translate(0 0)">
        <g id="Grupo_18423" data-name="Grupo 18423" transform="translate(0 0)">
          <g id="Grupo_18421" data-name="Grupo 18421">
            <g id="Grupo_18420" data-name="Grupo 18420">
              <g id="Grupo_18419" data-name="Grupo 18419">
                <path id="Trazado_40936" data-name="Trazado 40936" d="M249.833,2173.325a27.6,27.6,0,1,1-27.6-27.6A27.6,27.6,0,0,1,249.833,2173.325Z" transform="translate(-194.623 -2145.721)" fill="#fff"/>
              </g>
            </g>
          </g>
          <path id="Trazado_40937" data-name="Trazado 40937" d="M249.982,2173.488a27.6,27.6,0,1,0-27.6,27.605A27.5,27.5,0,0,0,249.982,2173.488Z" transform="translate(-194.772 -2145.884)" fill="url(#radial-gradient)"/>
          <path id="Trazado_40938" data-name="Trazado 40938" d="M244.892,2174.938a21.071,21.071,0,1,0-21.071,21.071A20.991,20.991,0,0,0,244.892,2174.938Z" transform="translate(-196.132 -2147.241)" fill="none" stroke="#1d272b" stroke-miterlimit="10" stroke-width="3"/>
          <g id="Grupo_18422" data-name="Grupo 18422" transform="translate(4.89 15.498)">
            <path id="Trazado_40939" data-name="Trazado 40939" d="M248.073,2164.488a27.608,27.608,0,0,1-47.528,27.491,27.521,27.521,0,0,0,47.528-27.491Z" transform="translate(-200.545 -2164.488)" fill="#eceef0"/>
          </g>
        </g>
      </g>
    </g>
    <g id="Grupo_143335" data-name="Grupo 143335" transform="translate(967.829 16548.635)">
      <g id="Grupo_142308-2" data-name="Grupo 142308" transform="translate(0 0)">
        <g id="Grupo_18423-2" data-name="Grupo 18423" transform="translate(0 0)">
          <g id="Grupo_18421-2" data-name="Grupo 18421">
            <g id="Grupo_18420-2" data-name="Grupo 18420">
              <g id="Grupo_18419-2" data-name="Grupo 18419">
                <path id="Trazado_40936-2" data-name="Trazado 40936" d="M249.833,2173.325a27.6,27.6,0,1,1-27.6-27.6A27.6,27.6,0,0,1,249.833,2173.325Z" transform="translate(-194.623 -2145.721)" fill="#fff"/>
              </g>
            </g>
          </g>
          <path id="Trazado_40937-2" data-name="Trazado 40937" d="M249.982,2173.488a27.6,27.6,0,1,0-27.6,27.605A27.5,27.5,0,0,0,249.982,2173.488Z" transform="translate(-194.772 -2145.884)" fill="url(#radial-gradient)"/>
          <path id="Trazado_40938-2" data-name="Trazado 40938" d="M244.892,2174.938a21.071,21.071,0,1,0-21.071,21.071A20.991,20.991,0,0,0,244.892,2174.938Z" transform="translate(-196.132 -2147.241)" fill="none" stroke="#1d272b" stroke-miterlimit="10" stroke-width="3"/>
          <g id="Grupo_18422-2" data-name="Grupo 18422" transform="translate(4.89 15.498)">
            <path id="Trazado_40939-2" data-name="Trazado 40939" d="M248.073,2164.488a27.608,27.608,0,0,1-47.528,27.491,27.521,27.521,0,0,0,47.528-27.491Z" transform="translate(-200.545 -2164.488)" fill="#eceef0"/>
          </g>
        </g>
      </g>
    </g>
    <g id="Grupo_143344" data-name="Grupo 143344" transform="translate(118.063 14503.664)">
      <g id="Grupo_142313" data-name="Grupo 142313">
        <g id="Grupo_142308-3" data-name="Grupo 142308" transform="translate(294.493 2044.971)">
          <g id="Grupo_18423-3" data-name="Grupo 18423" transform="translate(0 0)">
            <g id="Grupo_18421-3" data-name="Grupo 18421">
              <g id="Grupo_18420-3" data-name="Grupo 18420">
                <g id="Grupo_18419-3" data-name="Grupo 18419">
                  <path id="Trazado_40936-3" data-name="Trazado 40936" d="M244.8,2170.808a25.087,25.087,0,1,1-25.087-25.086A25.087,25.087,0,0,1,244.8,2170.808Z" transform="translate(-194.623 -2145.721)" fill="#fff"/>
                </g>
              </g>
            </g>
            <path id="Trazado_40937-3" data-name="Trazado 40937" d="M245.01,2171.04a25.086,25.086,0,1,0-25.087,25.087A24.988,24.988,0,0,0,245.01,2171.04Z" transform="translate(-194.836 -2145.954)" fill="url(#radial-gradient)"/>
            <path id="Trazado_40938-3" data-name="Trazado 40938" d="M241.1,2173.069a19.149,19.149,0,1,0-19.149,19.148A19.077,19.077,0,0,0,241.1,2173.069Z" transform="translate(-196.785 -2147.899)" fill="none" stroke="#1d272b" stroke-miterlimit="10" stroke-width="3"/>
            <g id="Grupo_18422-3" data-name="Grupo 18422" transform="translate(4.444 14.084)">
              <path id="Trazado_40939-3" data-name="Trazado 40939" d="M243.738,2164.488a25.09,25.09,0,0,1-43.193,24.983,25.01,25.01,0,0,0,43.193-24.983Z" transform="translate(-200.545 -2164.488)" fill="#eceef0"/>
            </g>
          </g>
        </g>
      </g>
    </g>
  </g>
</svg>
