<svg xmlns="http://www.w3.org/2000/svg" xmlns:xlink="http://www.w3.org/1999/xlink" width="851.914" height="300.982" viewBox="0 0 851.914 300.982">
  <defs>
    <linearGradient id="linear-gradient" x1="0.5" x2="0.5" y2="1" gradientUnits="objectBoundingBox">
      <stop offset="0" stop-color="#4090de"/>
      <stop offset="1" stop-color="#3c6d9d"/>
    </linearGradient>
    <linearGradient id="linear-gradient-3" x1="0.5" x2="0.5" y2="1" gradientUnits="objectBoundingBox">
      <stop offset="0" stop-color="#5f9025"/>
      <stop offset="1" stop-color="#78b62e"/>
    </linearGradient>
  </defs>
  <g id="Grupo_144559" data-name="Grupo 144559" transform="translate(-366.586 -5599.009)">
    <rect id="Rectángulo_37371" data-name="Rectángulo 37371" width="355.168" height="67.865" rx="10" transform="translate(609.316 5627.333)" fill="url(#linear-gradient)"/>
    <rect id="Rectángulo_37374" data-name="Rectángulo 37374" width="293.577" height="67.865" rx="10" transform="translate(640.692 5804.915)" fill="url(#linear-gradient)"/>
    <g id="Rectángulo_37372" data-name="Rectángulo 37372" transform="translate(608.011 5627.333)" fill="#fff" stroke="#1565c0" stroke-width="1">
      <rect width="63.95" height="67.865" rx="10" stroke="none"/>
      <rect x="0.5" y="0.5" width="62.95" height="66.865" rx="9.5" fill="none"/>
    </g>
    <g id="Rectángulo_37375" data-name="Rectángulo 37375" transform="translate(639.387 5804.915)" fill="#fff" stroke="#1565c0" stroke-width="1">
      <rect width="63.95" height="67.865" rx="10" stroke="none"/>
      <rect x="0.5" y="0.5" width="62.95" height="66.865" rx="9.5" fill="none"/>
    </g>
    <path id="Trazado_186724" data-name="Trazado 186724" d="M3.525-5.566V0H1.65V-14.219H6.895a5.269,5.269,0,0,1,3.657,1.191,4.039,4.039,0,0,1,1.323,3.154,3.986,3.986,0,0,1-1.294,3.188A5.5,5.5,0,0,1,6.875-5.566Zm0-1.533H6.895a3.369,3.369,0,0,0,2.3-.709,2.593,2.593,0,0,0,.8-2.05,2.679,2.679,0,0,0-.8-2.035A3.156,3.156,0,0,0,7-12.686H3.525ZM19.092-8.945a5.414,5.414,0,0,0-.889-.068A2.381,2.381,0,0,0,15.791-7.5V0H13.984V-10.566h1.758l.029,1.221a2.813,2.813,0,0,1,2.52-1.416,1.846,1.846,0,0,1,.8.137Zm.986,3.564a6.241,6.241,0,0,1,.61-2.793,4.553,4.553,0,0,1,1.7-1.914,4.626,4.626,0,0,1,2.485-.674,4.456,4.456,0,0,1,3.491,1.494A5.748,5.748,0,0,1,29.7-5.293v.127A6.3,6.3,0,0,1,29.106-2.4,4.486,4.486,0,0,1,27.417-.488,4.679,4.679,0,0,1,24.893.2,4.445,4.445,0,0,1,21.411-1.3a5.719,5.719,0,0,1-1.333-3.955Zm1.816.215a4.52,4.52,0,0,0,.815,2.822,2.61,2.61,0,0,0,2.183,1.064A2.594,2.594,0,0,0,27.08-2.358a4.943,4.943,0,0,0,.811-3.022A4.513,4.513,0,0,0,27.065-8.2a2.623,2.623,0,0,0-2.192-1.079,2.594,2.594,0,0,0-2.158,1.064A4.906,4.906,0,0,0,21.895-5.166ZM36.2-1.279a2.6,2.6,0,0,0,1.689-.586,2.061,2.061,0,0,0,.8-1.465H40.4A3.276,3.276,0,0,1,39.775-1.6,4.116,4.116,0,0,1,38.237-.293,4.438,4.438,0,0,1,36.2.2a4.353,4.353,0,0,1-3.433-1.44,5.737,5.737,0,0,1-1.274-3.94v-.3a6.361,6.361,0,0,1,.566-2.744A4.314,4.314,0,0,1,33.687-10.1a4.619,4.619,0,0,1,2.5-.664A4.238,4.238,0,0,1,39.146-9.7,3.8,3.8,0,0,1,40.4-6.934H38.691a2.49,2.49,0,0,0-.776-1.685,2.415,2.415,0,0,0-1.724-.659,2.529,2.529,0,0,0-2.134.991A4.655,4.655,0,0,0,33.3-5.42v.342a4.562,4.562,0,0,0,.752,2.813A2.541,2.541,0,0,0,36.2-1.279ZM46.816.2a4.617,4.617,0,0,1-3.5-1.411A5.237,5.237,0,0,1,41.973-4.99v-.332a6.341,6.341,0,0,1,.6-2.808,4.685,4.685,0,0,1,1.68-1.934,4.223,4.223,0,0,1,2.339-.7,3.957,3.957,0,0,1,3.2,1.357,5.877,5.877,0,0,1,1.143,3.887v.752H43.779a3.756,3.756,0,0,0,.913,2.524,2.87,2.87,0,0,0,2.222.962,3.147,3.147,0,0,0,1.621-.391A4.073,4.073,0,0,0,49.7-2.705l1.1.859A4.437,4.437,0,0,1,46.816.2Zm-.225-9.473a2.41,2.41,0,0,0-1.836.8,3.868,3.868,0,0,0-.918,2.231h5.293v-.137a3.441,3.441,0,0,0-.742-2.134A2.269,2.269,0,0,0,46.592-9.277ZM59.18-2.8a1.33,1.33,0,0,0-.552-1.138,5.311,5.311,0,0,0-1.924-.7,9.1,9.1,0,0,1-2.178-.7,3.1,3.1,0,0,1-1.191-.977,2.336,2.336,0,0,1-.386-1.348,2.741,2.741,0,0,1,1.1-2.2,4.291,4.291,0,0,1,2.808-.9,4.415,4.415,0,0,1,2.915.928,2.947,2.947,0,0,1,1.118,2.373H59.072a1.631,1.631,0,0,0-.63-1.279,2.36,2.36,0,0,0-1.587-.537,2.47,2.47,0,0,0-1.543.43,1.353,1.353,0,0,0-.557,1.123,1.1,1.1,0,0,0,.518.986,6.368,6.368,0,0,0,1.87.635,9.744,9.744,0,0,1,2.192.723A3.2,3.2,0,0,1,60.581-4.37a2.485,2.485,0,0,1,.405,1.44A2.7,2.7,0,0,1,59.854-.659,4.752,4.752,0,0,1,56.914.2a5.321,5.321,0,0,1-2.246-.449A3.653,3.653,0,0,1,53.14-1.509a3.025,3.025,0,0,1-.552-1.743h1.807a1.87,1.87,0,0,0,.728,1.44,2.822,2.822,0,0,0,1.792.532,2.913,2.913,0,0,0,1.646-.415A1.275,1.275,0,0,0,59.18-2.8Zm3.682-2.578a6.241,6.241,0,0,1,.61-2.793,4.553,4.553,0,0,1,1.7-1.914,4.626,4.626,0,0,1,2.485-.674,4.456,4.456,0,0,1,3.491,1.494A5.748,5.748,0,0,1,72.48-5.293v.127A6.3,6.3,0,0,1,71.89-2.4,4.486,4.486,0,0,1,70.2-.488,4.679,4.679,0,0,1,67.676.2,4.445,4.445,0,0,1,64.194-1.3a5.719,5.719,0,0,1-1.333-3.955Zm1.816.215a4.52,4.52,0,0,0,.815,2.822,2.61,2.61,0,0,0,2.183,1.064,2.594,2.594,0,0,0,2.188-1.079,4.943,4.943,0,0,0,.811-3.022A4.513,4.513,0,0,0,69.849-8.2a2.623,2.623,0,0,0-2.192-1.079A2.594,2.594,0,0,0,65.5-8.213,4.906,4.906,0,0,0,64.678-5.166Zm14.58-.205A6.19,6.19,0,0,1,80.41-9.282a3.644,3.644,0,0,1,3.018-1.479,3.665,3.665,0,0,1,2.939,1.27V-15h1.807V0h-1.66l-.088-1.133A3.679,3.679,0,0,1,83.408.2a3.609,3.609,0,0,1-2.993-1.5,6.26,6.26,0,0,1-1.157-3.926Zm1.807.205a4.687,4.687,0,0,0,.742,2.813,2.4,2.4,0,0,0,2.051,1.016,2.636,2.636,0,0,0,2.51-1.543V-7.734a2.656,2.656,0,0,0-2.49-1.494A2.411,2.411,0,0,0,81.807-8.2,5.16,5.16,0,0,0,81.064-5.166ZM95.361.2a4.617,4.617,0,0,1-3.5-1.411A5.237,5.237,0,0,1,90.518-4.99v-.332a6.341,6.341,0,0,1,.6-2.808,4.685,4.685,0,0,1,1.68-1.934,4.223,4.223,0,0,1,2.339-.7A3.957,3.957,0,0,1,98.34-9.4a5.877,5.877,0,0,1,1.143,3.887v.752H92.324a3.756,3.756,0,0,0,.913,2.524,2.87,2.87,0,0,0,2.222.962A3.147,3.147,0,0,0,97.08-1.67a4.073,4.073,0,0,0,1.162-1.035l1.1.859A4.437,4.437,0,0,1,95.361.2Zm-.225-9.473a2.41,2.41,0,0,0-1.836.8,3.869,3.869,0,0,0-.918,2.231h5.293v-.137a3.441,3.441,0,0,0-.742-2.134A2.269,2.269,0,0,0,95.137-9.277Zm13.838-3.848v2.559h1.973v1.4h-1.973v6.561a1.467,1.467,0,0,0,.264.953,1.11,1.11,0,0,0,.9.318A4.374,4.374,0,0,0,111-1.455V0A5.268,5.268,0,0,1,109.609.2a2.25,2.25,0,0,1-1.826-.732,3.147,3.147,0,0,1-.615-2.08V-9.17h-1.924v-1.4h1.924v-2.559Zm9.189,4.18a5.414,5.414,0,0,0-.889-.068A2.381,2.381,0,0,0,114.863-7.5V0h-1.807V-10.566h1.758l.029,1.221a2.813,2.813,0,0,1,2.52-1.416,1.846,1.846,0,0,1,.8.137ZM125.957,0a3.8,3.8,0,0,1-.254-1.113A4.031,4.031,0,0,1,122.7.2a3.73,3.73,0,0,1-2.563-.884,2.859,2.859,0,0,1-1-2.241,2.987,2.987,0,0,1,1.255-2.563,5.916,5.916,0,0,1,3.53-.913h1.758v-.83a2.029,2.029,0,0,0-.566-1.509,2.276,2.276,0,0,0-1.67-.562,2.634,2.634,0,0,0-1.621.488,1.439,1.439,0,0,0-.654,1.182h-1.816a2.493,2.493,0,0,1,.562-1.528,3.832,3.832,0,0,1,1.523-1.167,5.125,5.125,0,0,1,2.114-.43,4.177,4.177,0,0,1,2.861.913,3.294,3.294,0,0,1,1.074,2.515v4.863a5.946,5.946,0,0,0,.371,2.314V0Zm-3-1.377a3.175,3.175,0,0,0,1.611-.439,2.658,2.658,0,0,0,1.1-1.143V-5.127h-1.416q-3.32,0-3.32,1.943a1.645,1.645,0,0,0,.566,1.328A2.177,2.177,0,0,0,122.959-1.377Zm9.063-9.189.059,1.328a3.851,3.851,0,0,1,3.164-1.523q3.35,0,3.379,3.779V0h-1.807V-6.992a2.433,2.433,0,0,0-.522-1.689,2.094,2.094,0,0,0-1.6-.547,2.607,2.607,0,0,0-1.543.469,3.183,3.183,0,0,0-1.035,1.23V0h-1.807V-10.566ZM147.5-2.8a1.33,1.33,0,0,0-.552-1.138,5.311,5.311,0,0,0-1.924-.7,9.1,9.1,0,0,1-2.178-.7,3.1,3.1,0,0,1-1.191-.977,2.336,2.336,0,0,1-.386-1.348,2.741,2.741,0,0,1,1.1-2.2,4.291,4.291,0,0,1,2.808-.9,4.415,4.415,0,0,1,2.915.928,2.947,2.947,0,0,1,1.118,2.373h-1.816a1.631,1.631,0,0,0-.63-1.279,2.36,2.36,0,0,0-1.587-.537,2.47,2.47,0,0,0-1.543.43,1.353,1.353,0,0,0-.557,1.123,1.1,1.1,0,0,0,.518.986,6.368,6.368,0,0,0,1.87.635,9.744,9.744,0,0,1,2.192.723A3.2,3.2,0,0,1,148.9-4.37a2.485,2.485,0,0,1,.405,1.44,2.7,2.7,0,0,1-1.133,2.271A4.752,4.752,0,0,1,145.234.2a5.321,5.321,0,0,1-2.246-.449,3.653,3.653,0,0,1-1.528-1.255,3.025,3.025,0,0,1-.552-1.743h1.807a1.87,1.87,0,0,0,.728,1.44,2.822,2.822,0,0,0,1.792.532,2.913,2.913,0,0,0,1.646-.415A1.275,1.275,0,0,0,147.5-2.8ZM152.549,0V-9.17h-1.67v-1.4h1.67V-11.65a3.6,3.6,0,0,1,.908-2.627,3.431,3.431,0,0,1,2.568-.928,4.77,4.77,0,0,1,1.24.165l-.1,1.456a5.189,5.189,0,0,0-.977-.088,1.763,1.763,0,0,0-1.357.514,2.086,2.086,0,0,0-.479,1.474v1.117h2.256v1.4h-2.256V0Zm5.576-5.381a6.241,6.241,0,0,1,.61-2.793,4.553,4.553,0,0,1,1.7-1.914,4.626,4.626,0,0,1,2.485-.674,4.456,4.456,0,0,1,3.491,1.494,5.748,5.748,0,0,1,1.333,3.975v.127a6.3,6.3,0,0,1-.591,2.769,4.486,4.486,0,0,1-1.689,1.909A4.679,4.679,0,0,1,162.939.2,4.445,4.445,0,0,1,159.458-1.3a5.719,5.719,0,0,1-1.333-3.955Zm1.816.215a4.52,4.52,0,0,0,.815,2.822,2.61,2.61,0,0,0,2.183,1.064,2.594,2.594,0,0,0,2.188-1.079,4.943,4.943,0,0,0,.811-3.022,4.513,4.513,0,0,0-.825-2.817,2.623,2.623,0,0,0-2.192-1.079,2.594,2.594,0,0,0-2.158,1.064A4.906,4.906,0,0,0,159.941-5.166Zm15.176-3.779a5.414,5.414,0,0,0-.889-.068A2.381,2.381,0,0,0,171.816-7.5V0H170.01V-10.566h1.758l.029,1.221a2.813,2.813,0,0,1,2.52-1.416,1.846,1.846,0,0,1,.8.137Zm3.359-1.621.049,1.172a3.9,3.9,0,0,1,3.135-1.367,3.021,3.021,0,0,1,3.018,1.7,4,4,0,0,1,1.372-1.23,4.052,4.052,0,0,1,2-.469q3.477,0,3.535,3.682V0h-1.807V-6.973a2.426,2.426,0,0,0-.518-1.694,2.279,2.279,0,0,0-1.738-.562,2.4,2.4,0,0,0-1.67.6,2.436,2.436,0,0,0-.771,1.616V0h-1.816V-6.924a2.016,2.016,0,0,0-2.256-2.3,2.417,2.417,0,0,0-2.432,1.514V0h-1.807V-10.566ZM200.83,0a3.8,3.8,0,0,1-.254-1.113A4.031,4.031,0,0,1,197.568.2,3.73,3.73,0,0,1,195-.688a2.859,2.859,0,0,1-1-2.241,2.987,2.987,0,0,1,1.255-2.563,5.916,5.916,0,0,1,3.53-.913h1.758v-.83a2.029,2.029,0,0,0-.566-1.509,2.276,2.276,0,0,0-1.67-.562,2.634,2.634,0,0,0-1.621.488,1.439,1.439,0,0,0-.654,1.182h-1.816a2.493,2.493,0,0,1,.562-1.528,3.832,3.832,0,0,1,1.523-1.167,5.125,5.125,0,0,1,2.114-.43,4.177,4.177,0,0,1,2.861.913,3.294,3.294,0,0,1,1.074,2.515v4.863a5.946,5.946,0,0,0,.371,2.314V0Zm-3-1.377a3.175,3.175,0,0,0,1.611-.439,2.658,2.658,0,0,0,1.1-1.143V-5.127h-1.416q-3.32,0-3.32,1.943a1.645,1.645,0,0,0,.566,1.328A2.177,2.177,0,0,0,197.832-1.377Zm11.592.1a2.6,2.6,0,0,0,1.689-.586,2.061,2.061,0,0,0,.8-1.465h1.709A3.276,3.276,0,0,1,213-1.6,4.116,4.116,0,0,1,211.46-.293,4.438,4.438,0,0,1,209.424.2a4.353,4.353,0,0,1-3.433-1.44,5.737,5.737,0,0,1-1.274-3.94v-.3a6.361,6.361,0,0,1,.566-2.744,4.314,4.314,0,0,1,1.626-1.865,4.619,4.619,0,0,1,2.5-.664A4.238,4.238,0,0,1,212.368-9.7a3.8,3.8,0,0,1,1.255,2.764h-1.709a2.49,2.49,0,0,0-.776-1.685,2.415,2.415,0,0,0-1.724-.659,2.529,2.529,0,0,0-2.134.991,4.655,4.655,0,0,0-.757,2.866v.342a4.562,4.562,0,0,0,.752,2.813A2.541,2.541,0,0,0,209.424-1.279ZM217.617,0h-1.807V-10.566h1.807Zm-1.953-13.369a1.078,1.078,0,0,1,.269-.742,1.008,1.008,0,0,1,.8-.3,1.024,1.024,0,0,1,.8.3,1.067,1.067,0,0,1,.273.742,1.032,1.032,0,0,1-.273.732,1.043,1.043,0,0,1-.8.293,1.026,1.026,0,0,1-.8-.293A1.043,1.043,0,0,1,215.664-13.369Zm4.365,7.988a6.241,6.241,0,0,1,.61-2.793,4.553,4.553,0,0,1,1.7-1.914,4.626,4.626,0,0,1,2.485-.674,4.456,4.456,0,0,1,3.491,1.494,5.748,5.748,0,0,1,1.333,3.975v.127a6.3,6.3,0,0,1-.591,2.769,4.486,4.486,0,0,1-1.689,1.909A4.679,4.679,0,0,1,224.844.2,4.445,4.445,0,0,1,221.362-1.3a5.719,5.719,0,0,1-1.333-3.955Zm1.816.215a4.52,4.52,0,0,0,.815,2.822,2.61,2.61,0,0,0,2.183,1.064,2.594,2.594,0,0,0,2.188-1.079,4.943,4.943,0,0,0,.811-3.022,4.513,4.513,0,0,0-.825-2.817,2.623,2.623,0,0,0-2.192-1.079,2.594,2.594,0,0,0-2.158,1.064A4.906,4.906,0,0,0,221.846-5.166Zm3.8-9.814h2.188l-2.617,2.871-1.455,0Zm7.979,4.414.059,1.328a3.851,3.851,0,0,1,3.164-1.523q3.35,0,3.379,3.779V0h-1.807V-6.992a2.433,2.433,0,0,0-.522-1.689,2.094,2.094,0,0,0-1.6-.547,2.607,2.607,0,0,0-1.543.469,3.183,3.183,0,0,0-1.035,1.23V0h-1.807V-10.566Z" transform="translate(691.251 5668.519)" fill="#fff"/>
    <path id="Trazado_186726" data-name="Trazado 186726" d="M5.84-6.338a8.817,8.817,0,0,1-3.511-1.7,3.256,3.256,0,0,1-1.1-2.5,3.439,3.439,0,0,1,1.343-2.778,5.337,5.337,0,0,1,3.491-1.1,5.825,5.825,0,0,1,2.612.566,4.3,4.3,0,0,1,1.777,1.563,4,4,0,0,1,.63,2.178H9.2a2.6,2.6,0,0,0-.82-2.034,3.336,3.336,0,0,0-2.314-.74,3.415,3.415,0,0,0-2.163.611,2.04,2.04,0,0,0-.776,1.7A1.835,1.835,0,0,0,3.862-9.1,7.232,7.232,0,0,0,6.372-8,11.645,11.645,0,0,1,9.146-6.9,4.209,4.209,0,0,1,10.63-5.5a3.577,3.577,0,0,1,.483,1.885A3.322,3.322,0,0,1,9.766-.845,5.746,5.746,0,0,1,6.162.2,6.683,6.683,0,0,1,3.428-.366,4.6,4.6,0,0,1,1.47-1.9,3.754,3.754,0,0,1,.781-4.121H2.666a2.449,2.449,0,0,0,.952,2.036,4.009,4.009,0,0,0,2.544.747,3.685,3.685,0,0,0,2.275-.605,1.967,1.967,0,0,0,.791-1.65A1.931,1.931,0,0,0,8.5-5.21,8.444,8.444,0,0,0,5.84-6.338ZM15.2,0H13.389V-10.566H15.2ZM13.242-13.369a1.078,1.078,0,0,1,.269-.742,1.008,1.008,0,0,1,.8-.3,1.024,1.024,0,0,1,.8.3,1.067,1.067,0,0,1,.273.742,1.032,1.032,0,0,1-.273.732,1.043,1.043,0,0,1-.8.293,1.026,1.026,0,0,1-.8-.293A1.043,1.043,0,0,1,13.242-13.369Zm11,10.566a1.33,1.33,0,0,0-.552-1.138,5.311,5.311,0,0,0-1.924-.7,9.1,9.1,0,0,1-2.178-.7,3.1,3.1,0,0,1-1.191-.977,2.336,2.336,0,0,1-.386-1.348,2.741,2.741,0,0,1,1.1-2.2,4.291,4.291,0,0,1,2.808-.9,4.415,4.415,0,0,1,2.915.928,2.947,2.947,0,0,1,1.118,2.373H24.131A1.631,1.631,0,0,0,23.5-8.74a2.36,2.36,0,0,0-1.587-.537,2.47,2.47,0,0,0-1.543.43,1.353,1.353,0,0,0-.557,1.123,1.1,1.1,0,0,0,.518.986A6.368,6.368,0,0,0,22.2-6.1a9.744,9.744,0,0,1,2.192.723A3.2,3.2,0,0,1,25.64-4.37a2.485,2.485,0,0,1,.405,1.44A2.7,2.7,0,0,1,24.912-.659,4.752,4.752,0,0,1,21.973.2a5.321,5.321,0,0,1-2.246-.449A3.653,3.653,0,0,1,18.2-1.509a3.025,3.025,0,0,1-.552-1.743h1.807a1.87,1.87,0,0,0,.728,1.44,2.822,2.822,0,0,0,1.792.532,2.913,2.913,0,0,0,1.646-.415A1.275,1.275,0,0,0,24.238-2.8ZM30.85-13.125v2.559h1.973v1.4H30.85v6.561a1.467,1.467,0,0,0,.264.953,1.11,1.11,0,0,0,.9.318,4.374,4.374,0,0,0,.859-.117V0A5.268,5.268,0,0,1,31.484.2a2.25,2.25,0,0,1-1.826-.732,3.147,3.147,0,0,1-.615-2.08V-9.17H27.119v-1.4h1.924v-2.559ZM39.316.2a4.617,4.617,0,0,1-3.5-1.411A5.237,5.237,0,0,1,34.473-4.99v-.332a6.341,6.341,0,0,1,.6-2.808,4.685,4.685,0,0,1,1.68-1.934,4.223,4.223,0,0,1,2.339-.7,3.957,3.957,0,0,1,3.2,1.357,5.877,5.877,0,0,1,1.143,3.887v.752H36.279a3.756,3.756,0,0,0,.913,2.524,2.87,2.87,0,0,0,2.222.962,3.147,3.147,0,0,0,1.621-.391A4.073,4.073,0,0,0,42.2-2.705l1.1.859A4.437,4.437,0,0,1,39.316.2Zm-.225-9.473a2.41,2.41,0,0,0-1.836.8,3.868,3.868,0,0,0-.918,2.231h5.293v-.137a3.441,3.441,0,0,0-.742-2.134A2.269,2.269,0,0,0,39.092-9.277Zm8.135-1.289.049,1.172a3.9,3.9,0,0,1,3.135-1.367,3.021,3.021,0,0,1,3.018,1.7,4,4,0,0,1,1.372-1.23,4.052,4.052,0,0,1,2-.469q3.477,0,3.535,3.682V0H58.525V-6.973a2.426,2.426,0,0,0-.518-1.694,2.279,2.279,0,0,0-1.738-.562,2.4,2.4,0,0,0-1.67.6,2.436,2.436,0,0,0-.771,1.616V0H52.012V-6.924a2.016,2.016,0,0,0-2.256-2.3,2.417,2.417,0,0,0-2.432,1.514V0H45.518V-10.566ZM69.58,0a3.8,3.8,0,0,1-.254-1.113A4.031,4.031,0,0,1,66.318.2a3.73,3.73,0,0,1-2.563-.884,2.859,2.859,0,0,1-1-2.241,2.987,2.987,0,0,1,1.255-2.563,5.916,5.916,0,0,1,3.53-.913H69.3v-.83a2.029,2.029,0,0,0-.566-1.509,2.276,2.276,0,0,0-1.67-.562,2.634,2.634,0,0,0-1.621.488,1.439,1.439,0,0,0-.654,1.182H62.969a2.493,2.493,0,0,1,.562-1.528,3.832,3.832,0,0,1,1.523-1.167,5.125,5.125,0,0,1,2.114-.43,4.177,4.177,0,0,1,2.861.913A3.294,3.294,0,0,1,71.1-7.334v4.863a5.946,5.946,0,0,0,.371,2.314V0Zm-3-1.377a3.175,3.175,0,0,0,1.611-.439,2.658,2.658,0,0,0,1.1-1.143V-5.127H67.881q-3.32,0-3.32,1.943a1.645,1.645,0,0,0,.566,1.328A2.177,2.177,0,0,0,66.582-1.377ZM78.447-5.371A6.19,6.19,0,0,1,79.6-9.282a3.644,3.644,0,0,1,3.018-1.479,3.665,3.665,0,0,1,2.939,1.27V-15h1.807V0H85.7l-.088-1.133A3.679,3.679,0,0,1,82.6.2a3.609,3.609,0,0,1-2.993-1.5,6.26,6.26,0,0,1-1.157-3.926Zm1.807.205A4.687,4.687,0,0,0,81-2.354a2.4,2.4,0,0,0,2.051,1.016,2.636,2.636,0,0,0,2.51-1.543V-7.734a2.656,2.656,0,0,0-2.49-1.494A2.411,2.411,0,0,0,81-8.2,5.16,5.16,0,0,0,80.254-5.166ZM94.551.2a4.617,4.617,0,0,1-3.5-1.411A5.237,5.237,0,0,1,89.707-4.99v-.332a6.341,6.341,0,0,1,.6-2.808,4.685,4.685,0,0,1,1.68-1.934,4.223,4.223,0,0,1,2.339-.7,3.957,3.957,0,0,1,3.2,1.357,5.877,5.877,0,0,1,1.143,3.887v.752H91.514a3.756,3.756,0,0,0,.913,2.524,2.87,2.87,0,0,0,2.222.962A3.147,3.147,0,0,0,96.27-1.67a4.073,4.073,0,0,0,1.162-1.035l1.1.859A4.437,4.437,0,0,1,94.551.2Zm-.225-9.473a2.41,2.41,0,0,0-1.836.8,3.869,3.869,0,0,0-.918,2.231h5.293v-.137a3.441,3.441,0,0,0-.742-2.134A2.269,2.269,0,0,0,94.326-9.277Zm15.625,8a2.6,2.6,0,0,0,1.689-.586,2.061,2.061,0,0,0,.8-1.465h1.709a3.276,3.276,0,0,1-.625,1.729,4.116,4.116,0,0,1-1.538,1.309A4.438,4.438,0,0,1,109.951.2a4.353,4.353,0,0,1-3.433-1.44,5.737,5.737,0,0,1-1.274-3.94v-.3a6.361,6.361,0,0,1,.566-2.744,4.314,4.314,0,0,1,1.626-1.865,4.619,4.619,0,0,1,2.5-.664A4.238,4.238,0,0,1,112.9-9.7a3.8,3.8,0,0,1,1.255,2.764h-1.709a2.49,2.49,0,0,0-.776-1.685,2.415,2.415,0,0,0-1.724-.659,2.529,2.529,0,0,0-2.134.991,4.655,4.655,0,0,0-.757,2.866v.342a4.562,4.562,0,0,0,.752,2.813A2.541,2.541,0,0,0,109.951-1.279Zm5.752-4.1a6.241,6.241,0,0,1,.61-2.793,4.553,4.553,0,0,1,1.7-1.914,4.626,4.626,0,0,1,2.485-.674,4.456,4.456,0,0,1,3.491,1.494,5.748,5.748,0,0,1,1.333,3.975v.127a6.3,6.3,0,0,1-.591,2.769,4.486,4.486,0,0,1-1.689,1.909A4.679,4.679,0,0,1,120.518.2,4.445,4.445,0,0,1,117.036-1.3,5.719,5.719,0,0,1,115.7-5.254Zm1.816.215a4.52,4.52,0,0,0,.815,2.822,2.61,2.61,0,0,0,2.183,1.064,2.594,2.594,0,0,0,2.188-1.079,4.943,4.943,0,0,0,.811-3.022A4.513,4.513,0,0,0,122.69-8.2,2.623,2.623,0,0,0,120.5-9.277a2.594,2.594,0,0,0-2.158,1.064A4.906,4.906,0,0,0,117.52-5.166Zm11.777-5.4.059,1.328a3.851,3.851,0,0,1,3.164-1.523q3.35,0,3.379,3.779V0h-1.807V-6.992a2.433,2.433,0,0,0-.522-1.689,2.094,2.094,0,0,0-1.6-.547,2.607,2.607,0,0,0-1.543.469,3.183,3.183,0,0,0-1.035,1.23V0h-1.807V-10.566Zm11.777-2.559v2.559h1.973v1.4h-1.973v6.561a1.467,1.467,0,0,0,.264.953,1.11,1.11,0,0,0,.9.318,4.374,4.374,0,0,0,.859-.117V0A5.268,5.268,0,0,1,141.709.2a2.25,2.25,0,0,1-1.826-.732,3.147,3.147,0,0,1-.615-2.08V-9.17h-1.924v-1.4h1.924v-2.559Zm9.189,4.18a5.414,5.414,0,0,0-.889-.068A2.381,2.381,0,0,0,146.963-7.5V0h-1.807V-10.566h1.758l.029,1.221a2.813,2.813,0,0,1,2.52-1.416,1.846,1.846,0,0,1,.8.137Zm.986,3.564a6.241,6.241,0,0,1,.61-2.793,4.553,4.553,0,0,1,1.7-1.914,4.626,4.626,0,0,1,2.485-.674,4.456,4.456,0,0,1,3.491,1.494,5.748,5.748,0,0,1,1.333,3.975v.127a6.3,6.3,0,0,1-.591,2.769,4.486,4.486,0,0,1-1.689,1.909A4.679,4.679,0,0,1,156.064.2,4.445,4.445,0,0,1,152.583-1.3a5.719,5.719,0,0,1-1.333-3.955Zm1.816.215a4.52,4.52,0,0,0,.815,2.822,2.61,2.61,0,0,0,2.183,1.064,2.594,2.594,0,0,0,2.188-1.079,4.943,4.943,0,0,0,.811-3.022,4.513,4.513,0,0,0-.825-2.817,2.623,2.623,0,0,0-2.192-1.079,2.594,2.594,0,0,0-2.158,1.064A4.906,4.906,0,0,0,153.066-5.166ZM165.1,0h-1.807V-15H165.1Z" transform="translate(722.628 5846.102)" fill="#fff"/>
    <g id="OfmmeW.tif" transform="translate(624.929 5639.113)">
      <g id="Grupo_142298" data-name="Grupo 142298" transform="translate(0 0)">
        <path id="Trazado_118067" data-name="Trazado 118067" d="M1318.747,2265.128v-35.27c.411-1.163,1.375-1.245,2.409-1.154,0-.191,0-.309,0-.427a1.527,1.527,0,0,1,1.732-1.722h.945c0-.31,0-.561,0-.812,0-1.348.514-1.866,1.851-1.866q8.387,0,16.773-.01a1.651,1.651,0,0,1,1.3.415c2.118,2.172,4.241,4.341,6.342,6.53a1.242,1.242,0,0,1,.3.785q.026,10.58.017,21.16,0,3.571,0,7.143a1.521,1.521,0,0,1-1.668,1.658c-.293,0-.586,0-.9,0-.066.721.119,1.448-.426,2.031-.56.6-1.308.43-2,.484,0,.132,0,.206,0,.28-.016,1.472-.488,1.938-1.963,1.938q-11.42,0-22.84.011A1.751,1.751,0,0,1,1318.747,2265.128Zm23.556-40h-16.608c-.612,0-.613,0-.613.625v33.93c0,.624,0,.625.62.625h22.842c.627,0,.629,0,.629-.617q0-13.594,0-27.189v-.5h-5.005c-1.319,0-1.865-.548-1.865-1.871C1342.3,2228.481,1342.3,2226.832,1342.3,2225.126Zm4.257,36.431h-20.894c-1.293,0-1.833-.545-1.833-1.85q0-15.666,0-31.332v-.57h-.74c-.687,0-.688,0-.688.686v33.653c0,.662,0,.663.669.663q11.217,0,22.434,0C1346.638,2262.8,1346.632,2263.092,1346.56,2261.557Zm-2.411,2.5h-21.164c-1.3,0-1.83-.537-1.83-1.85v-32.24c-.11-.009-.18-.017-.251-.019-.909-.025-.909-.025-.909.869v33.521c0,.7,0,.7.718.7h22.614C1344.226,2265.039,1344.226,2265.039,1344.149,2264.057Zm-.6-38.208c0,1.592,0,3.047,0,4.5,0,.317.165.407.451.4.683-.008,1.367,0,2.05,0h2.278Z" transform="translate(-1318.747 -2223.866)" fill="#12263f"/>
        <path id="Trazado_118068" data-name="Trazado 118068" d="M1425.25,2345.686h8.693a2.921,2.921,0,0,1,.4.007.62.62,0,0,1-.011,1.237,2.842,2.842,0,0,1-.356.006H1416.5a2.019,2.019,0,0,1-.4-.012.619.619,0,0,1,.011-1.227,2.208,2.208,0,0,1,.4-.01Z" transform="translate(-1406.909 -2334.782)" fill="#12263f"/>
        <path id="Trazado_118069" data-name="Trazado 118069" d="M1425.247,2386.87h-8.693a2.735,2.735,0,0,1-.4-.008.62.62,0,0,1,.02-1.236,2.551,2.551,0,0,1,.312-.005h17.563c.089,0,.179,0,.267,0a.617.617,0,0,1,.615.631.61.61,0,0,1-.635.613c-.118.008-.238,0-.357,0Z" transform="translate(-1406.922 -2371.144)" fill="#12263f"/>
        <path id="Trazado_118070" data-name="Trazado 118070" d="M1425.2,2427.768h-8.692a2.08,2.08,0,0,1-.4-.012.619.619,0,0,1,0-1.226,2.121,2.121,0,0,1,.4-.011h17.474a2.1,2.1,0,0,1,.4.011.619.619,0,0,1,0,1.226,2.1,2.1,0,0,1-.4.011Z" transform="translate(-1406.908 -2408.381)" fill="#12263f"/>
        <path id="Trazado_118071" data-name="Trazado 118071" d="M1425.278,2468.688h-8.737a2.546,2.546,0,0,1-.4-.008.62.62,0,0,1-.009-1.233,2.162,2.162,0,0,1,.356-.008h17.519a1.876,1.876,0,0,1,.4.015.618.618,0,0,1,.009,1.218,2.116,2.116,0,0,1-.444.016Z" transform="translate(-1406.915 -2445.641)" fill="#12263f"/>
        <path id="Trazado_118072" data-name="Trazado 118072" d="M1422.47,2508.6H1416.5a2,2,0,0,1-.4-.013.619.619,0,0,1,.016-1.227,1.96,1.96,0,0,1,.356-.01H1428.5a2.134,2.134,0,0,1,.312.007.62.62,0,0,1-.016,1.237,2.887,2.887,0,0,1-.356.006Z" transform="translate(-1406.908 -2481.983)" fill="#12263f"/>
      </g>
    </g>
    <rect id="Rectángulo_37373" data-name="Rectángulo 37373" width="135.731" height="67.865" rx="10" transform="translate(719.034 5716.705)" fill="url(#linear-gradient-3)"/>
    <rect id="Rectángulo_37380" data-name="Rectángulo 37380" width="135.731" height="67.865" rx="10" transform="translate(366.586 5716.705)" fill="url(#linear-gradient-3)"/>
    <path id="Trazado_186725" data-name="Trazado 186725" d="M9.2-6.244H3.349v4.787h6.8V0H1.568V-13.508h8.489v1.457H3.349V-7.7H9.2Zm4.509-3.794.046,1.113a3.707,3.707,0,0,1,2.978-1.3A2.87,2.87,0,0,1,19.6-8.609a3.8,3.8,0,0,1,1.3-1.169,3.85,3.85,0,0,1,1.9-.445q3.3,0,3.358,3.5V0H24.446V-6.624a2.3,2.3,0,0,0-.492-1.61A2.165,2.165,0,0,0,22.3-8.767a2.276,2.276,0,0,0-1.586.571,2.315,2.315,0,0,0-.733,1.535V0H18.258V-6.578a1.915,1.915,0,0,0-2.143-2.189A2.3,2.3,0,0,0,13.8-7.329V0H12.088V-10.038ZM37.23-4.908a6.011,6.011,0,0,1-1.048,3.692,3.36,3.36,0,0,1-2.839,1.4,3.681,3.681,0,0,1-2.876-1.16V3.859H28.75v-13.9h1.568L30.4-8.925a3.536,3.536,0,0,1,2.913-1.3A3.423,3.423,0,0,1,36.177-8.86,6.076,6.076,0,0,1,37.23-5.065ZM35.514-5.1a4.435,4.435,0,0,0-.724-2.681A2.331,2.331,0,0,0,32.8-8.767a2.523,2.523,0,0,0-2.338,1.382v4.8a2.528,2.528,0,0,0,2.356,1.373,2.32,2.32,0,0,0,1.962-.979A4.841,4.841,0,0,0,35.514-5.1Zm8.749-3.4a5.143,5.143,0,0,0-.844-.065,2.262,2.262,0,0,0-2.292,1.438V0H39.41V-10.038h1.67l.028,1.16A2.672,2.672,0,0,1,43.5-10.224a1.753,1.753,0,0,1,.761.13ZM49.829.186a4.386,4.386,0,0,1-3.321-1.341,4.976,4.976,0,0,1-1.28-3.586v-.315A6.024,6.024,0,0,1,45.8-7.723a4.451,4.451,0,0,1,1.6-1.837,4.012,4.012,0,0,1,2.222-.663,3.759,3.759,0,0,1,3.043,1.29,5.583,5.583,0,0,1,1.085,3.692v.714h-6.8a3.568,3.568,0,0,0,.867,2.4,2.727,2.727,0,0,0,2.111.914,2.989,2.989,0,0,0,1.54-.371,3.869,3.869,0,0,0,1.1-.983l1.048.816A4.215,4.215,0,0,1,49.829.186Zm-.213-9a2.289,2.289,0,0,0-1.744.756A3.675,3.675,0,0,0,47-5.937h5.028v-.13a3.269,3.269,0,0,0-.705-2.027A2.155,2.155,0,0,0,49.615-8.813ZM61.574-2.663a1.264,1.264,0,0,0-.524-1.081,5.045,5.045,0,0,0-1.828-.663,8.641,8.641,0,0,1-2.069-.668A2.943,2.943,0,0,1,56.021-6a2.219,2.219,0,0,1-.366-1.28A2.6,2.6,0,0,1,56.7-9.37a4.076,4.076,0,0,1,2.667-.854,4.194,4.194,0,0,1,2.769.881A2.8,2.8,0,0,1,63.2-7.088H61.472a1.549,1.549,0,0,0-.6-1.215,2.242,2.242,0,0,0-1.508-.51,2.346,2.346,0,0,0-1.466.408,1.285,1.285,0,0,0-.529,1.067,1.041,1.041,0,0,0,.492.937,6.05,6.05,0,0,0,1.777.6,9.257,9.257,0,0,1,2.083.687,3.038,3.038,0,0,1,1.183.96,2.361,2.361,0,0,1,.385,1.368A2.569,2.569,0,0,1,62.214-.626a4.514,4.514,0,0,1-2.792.812,5.055,5.055,0,0,1-2.134-.427,3.47,3.47,0,0,1-1.452-1.192,2.873,2.873,0,0,1-.524-1.656h1.716a1.777,1.777,0,0,0,.691,1.368,2.681,2.681,0,0,0,1.7.506,2.768,2.768,0,0,0,1.563-.394A1.212,1.212,0,0,0,61.574-2.663ZM71.723,0a3.605,3.605,0,0,1-.241-1.058A3.829,3.829,0,0,1,68.625.186a3.543,3.543,0,0,1-2.435-.84,2.716,2.716,0,0,1-.951-2.129A2.838,2.838,0,0,1,66.43-5.219a5.621,5.621,0,0,1,3.354-.867h1.67v-.789a1.928,1.928,0,0,0-.538-1.433,2.163,2.163,0,0,0-1.586-.533,2.5,2.5,0,0,0-1.54.464,1.367,1.367,0,0,0-.622,1.123H65.442a2.369,2.369,0,0,1,.533-1.452,3.641,3.641,0,0,1,1.447-1.109,4.869,4.869,0,0,1,2.009-.408,3.968,3.968,0,0,1,2.718.867A3.129,3.129,0,0,1,73.17-6.967v4.62a5.649,5.649,0,0,0,.353,2.2V0ZM68.875-1.308a3.016,3.016,0,0,0,1.531-.417,2.525,2.525,0,0,0,1.048-1.085v-2.06H70.109q-3.154,0-3.154,1.846a1.562,1.562,0,0,0,.538,1.262A2.068,2.068,0,0,0,68.875-1.308Z" transform="translate(745.137 5756.891)" fill="#fff"/>
    <path id="Trazado_186723" data-name="Trazado 186723" d="M9.2-6.244H3.349v4.787h6.8V0H1.568V-13.508h8.489v1.457H3.349V-7.7H9.2Zm6.262-.13,2.227-3.665h2L16.412-5.075,19.8,0H17.813L15.493-3.757,13.174,0H11.179l3.386-5.075-3.284-4.963h1.985Zm8.377-6.1v2.431h1.874v1.327H23.843v6.233a1.393,1.393,0,0,0,.25.906,1.054,1.054,0,0,0,.854.3,4.155,4.155,0,0,0,.816-.111V0a5.005,5.005,0,0,1-1.317.184,2.137,2.137,0,0,1-1.735-.7,2.989,2.989,0,0,1-.584-1.976V-8.711H20.3v-1.327h1.828v-2.431ZM31.886.186a4.386,4.386,0,0,1-3.321-1.341,4.976,4.976,0,0,1-1.28-3.586v-.315a6.024,6.024,0,0,1,.571-2.667,4.451,4.451,0,0,1,1.6-1.837,4.012,4.012,0,0,1,2.222-.663,3.759,3.759,0,0,1,3.043,1.29A5.583,5.583,0,0,1,35.8-5.242v.714H29a3.568,3.568,0,0,0,.867,2.4,2.727,2.727,0,0,0,2.111.914,2.989,2.989,0,0,0,1.54-.371,3.869,3.869,0,0,0,1.1-.983l1.048.816A4.215,4.215,0,0,1,31.886.186Zm-.213-9a2.289,2.289,0,0,0-1.744.756,3.675,3.675,0,0,0-.872,2.12h5.028v-.13a3.269,3.269,0,0,0-.705-2.027A2.155,2.155,0,0,0,31.673-8.813ZM42.639-8.5a5.143,5.143,0,0,0-.844-.065A2.262,2.262,0,0,0,39.5-7.125V0H37.787V-10.038h1.67l.028,1.16a2.672,2.672,0,0,1,2.394-1.345,1.753,1.753,0,0,1,.761.13ZM46.081,0H44.364V-10.038h1.716ZM44.225-12.7a1.024,1.024,0,0,1,.255-.705.958.958,0,0,1,.756-.288.973.973,0,0,1,.761.288,1.014,1.014,0,0,1,.26.705A.98.98,0,0,1,46-12a.99.99,0,0,1-.761.278A.975.975,0,0,1,44.48-12,.991.991,0,0,1,44.225-12.7Zm4.147,7.589a5.929,5.929,0,0,1,.58-2.653,4.325,4.325,0,0,1,1.614-1.818,4.394,4.394,0,0,1,2.361-.64A4.233,4.233,0,0,1,56.244-8.8,5.461,5.461,0,0,1,57.51-5.028v.121a5.981,5.981,0,0,1-.561,2.63,4.262,4.262,0,0,1-1.6,1.814,4.445,4.445,0,0,1-2.4.649,4.223,4.223,0,0,1-3.307-1.419,5.433,5.433,0,0,1-1.266-3.757Zm1.726.2a4.294,4.294,0,0,0,.775,2.681,2.479,2.479,0,0,0,2.073,1.011A2.464,2.464,0,0,0,55.024-2.24a4.7,4.7,0,0,0,.77-2.871,4.287,4.287,0,0,0-.784-2.677,2.492,2.492,0,0,0-2.083-1.025A2.465,2.465,0,0,0,50.877-7.8,4.661,4.661,0,0,0,50.1-4.908ZM64.515-8.5a5.143,5.143,0,0,0-.844-.065,2.262,2.262,0,0,0-2.292,1.438V0H59.663V-10.038h1.67l.028,1.16a2.672,2.672,0,0,1,2.394-1.345,1.753,1.753,0,0,1,.761.13Z" transform="translate(396.175 5756.891)" fill="#fff"/>
    <g id="Rectángulo_37376" data-name="Rectángulo 37376" transform="translate(570.824 5599.009)" fill="none" stroke="#12263f" stroke-width="4" stroke-dasharray="7">
      <rect width="433.461" height="300.982" rx="2" stroke="none"/>
      <rect x="2" y="2" width="429.461" height="296.982" fill="none"/>
    </g>
    <path id="Unión_60" data-name="Unión 60" d="M0,0H79.869V12.674H0Z" transform="translate(612.543 5756.848) rotate(180)" fill="#bec1c7"/>
    <path id="Unión_62" data-name="Unión 62" d="M0,0H79.869V12.674H0Z" transform="translate(1036.026 5756.848) rotate(180)" fill="#bec1c7"/>
    <path id="Unión_61" data-name="Unión 61" d="M22.758,16.25,0,32.5V0Z" transform="translate(606.171 5734.261)" fill="#bec1c7"/>
    <path id="Unión_63" data-name="Unión 63" d="M22.758,16.25,0,32.5V0Z" transform="translate(1029.654 5734.261)" fill="#bec1c7"/>
    <rect id="Rectángulo_37381" data-name="Rectángulo 37381" width="135.731" height="67.865" rx="10" transform="translate(1082.769 5716.705)" fill="url(#linear-gradient-3)"/>
    <path id="Trazado_186727" data-name="Trazado 186727" d="M9.2-6.244H3.349v4.787h6.8V0H1.568V-13.508h8.489v1.457H3.349V-7.7H9.2Zm6.262-.13,2.227-3.665h2L16.412-5.075,19.8,0H17.813L15.493-3.757,13.174,0H11.179l3.386-5.075-3.284-4.963h1.985Zm8.377-6.1v2.431h1.874v1.327H23.843v6.233a1.393,1.393,0,0,0,.25.906,1.054,1.054,0,0,0,.854.3,4.155,4.155,0,0,0,.816-.111V0a5.005,5.005,0,0,1-1.317.184,2.137,2.137,0,0,1-1.735-.7,2.989,2.989,0,0,1-.584-1.976V-8.711H20.3v-1.327h1.828v-2.431ZM31.886.186a4.386,4.386,0,0,1-3.321-1.341,4.976,4.976,0,0,1-1.28-3.586v-.315a6.024,6.024,0,0,1,.571-2.667,4.451,4.451,0,0,1,1.6-1.837,4.012,4.012,0,0,1,2.222-.663,3.759,3.759,0,0,1,3.043,1.29A5.583,5.583,0,0,1,35.8-5.242v.714H29a3.568,3.568,0,0,0,.867,2.4,2.727,2.727,0,0,0,2.111.914,2.989,2.989,0,0,0,1.54-.371,3.869,3.869,0,0,0,1.1-.983l1.048.816A4.215,4.215,0,0,1,31.886.186Zm-.213-9a2.289,2.289,0,0,0-1.744.756,3.675,3.675,0,0,0-.872,2.12h5.028v-.13a3.269,3.269,0,0,0-.705-2.027A2.155,2.155,0,0,0,31.673-8.813ZM42.639-8.5a5.143,5.143,0,0,0-.844-.065A2.262,2.262,0,0,0,39.5-7.125V0H37.787V-10.038h1.67l.028,1.16a2.672,2.672,0,0,1,2.394-1.345,1.753,1.753,0,0,1,.761.13ZM46.081,0H44.364V-10.038h1.716ZM44.225-12.7a1.024,1.024,0,0,1,.255-.705.958.958,0,0,1,.756-.288.973.973,0,0,1,.761.288,1.014,1.014,0,0,1,.26.705A.98.98,0,0,1,46-12a.99.99,0,0,1-.761.278A.975.975,0,0,1,44.48-12,.991.991,0,0,1,44.225-12.7Zm4.147,7.589a5.929,5.929,0,0,1,.58-2.653,4.325,4.325,0,0,1,1.614-1.818,4.394,4.394,0,0,1,2.361-.64A4.233,4.233,0,0,1,56.244-8.8,5.461,5.461,0,0,1,57.51-5.028v.121a5.981,5.981,0,0,1-.561,2.63,4.262,4.262,0,0,1-1.6,1.814,4.445,4.445,0,0,1-2.4.649,4.223,4.223,0,0,1-3.307-1.419,5.433,5.433,0,0,1-1.266-3.757Zm1.726.2a4.294,4.294,0,0,0,.775,2.681,2.479,2.479,0,0,0,2.073,1.011A2.464,2.464,0,0,0,55.024-2.24a4.7,4.7,0,0,0,.77-2.871,4.287,4.287,0,0,0-.784-2.677,2.492,2.492,0,0,0-2.083-1.025A2.465,2.465,0,0,0,50.877-7.8,4.661,4.661,0,0,0,50.1-4.908ZM64.515-8.5a5.143,5.143,0,0,0-.844-.065,2.262,2.262,0,0,0-2.292,1.438V0H59.663V-10.038h1.67l.028,1.16a2.672,2.672,0,0,1,2.394-1.345,1.753,1.753,0,0,1,.761.13Z" transform="translate(1112.358 5756.891)" fill="#fff"/>
    <g id="tJppI8" transform="translate(650.66 5818.566)">
      <g id="Grupo_142299" data-name="Grupo 142299" transform="translate(0 0)">
        <path id="Trazado_118073" data-name="Trazado 118073" d="M574.041,2570.332a3,3,0,0,1-.534-2.02q.037-3.963,0-7.926a2.843,2.843,0,0,1,.667-2.048,3.241,3.241,0,0,1-.665-2.471c.019-2.642.005-5.284.007-7.926a2.461,2.461,0,0,1,2.515-2.521q16.434-.007,32.869,0a2.487,2.487,0,0,1,2.523,2.479c.017,2.92.027,5.84-.015,8.76a3.9,3.9,0,0,1-.467,1.42c-.093.209-.131.336.011.528a2.525,2.525,0,0,1,.481,1.606c-.015.772,0,1.545,0,2.317a.78.78,0,1,1-1.549.023c-.01-.8,0-1.606-.005-2.409a.946.946,0,0,0-1-1.031c-.17-.007-.34,0-.51,0h-31.8a6.306,6.306,0,0,0-.648.015.861.861,0,0,0-.848.913q-.008,4.334,0,8.667c0,.624.383.979,1.08,1,.633.018,1.267,0,1.9,0H588.8c.63,0,.974.253.989.721.016.493-.393.837-1.011.838q-6.3,0-12.61,0c-.834,0-1.106.27-1.106,1.109q0,4.148,0,8.3c0,.831.349,1.177,1.181,1.177q7.139,0,14.279,0a1.361,1.361,0,0,1,.581.093.677.677,0,0,1,.379.772.793.793,0,0,1-.645.646,1.96,1.96,0,0,1-.506.032q-7.023,0-14.047,0a2.5,2.5,0,0,1-2.313-1.092,2.847,2.847,0,0,1-.439-1.373c-.039-2.935-.045-5.871,0-8.806A7.647,7.647,0,0,1,574.041,2570.332Zm18.438-23.356H576.165c-.767,0-1.1.33-1.1,1.092q0,4.147,0,8.294c0,.9.3,1.2,1.184,1.2h32.443c.856,0,1.183-.32,1.184-1.163q0-4.1,0-8.2c0-.909-.313-1.221-1.221-1.221Z" transform="translate(-573.505 -2545.417)" fill="#12263f"/>
        <path id="Trazado_118074" data-name="Trazado 118074" d="M778.878,2763.046a11.183,11.183,0,0,1,22.365-.019,11.183,11.183,0,0,1-22.365.019Zm1.547-.021a9.561,9.561,0,0,0,9.649,9.634,9.624,9.624,0,0,0,.117-19.247A9.618,9.618,0,0,0,780.425,2763.024Z" transform="translate(-759.839 -2732.734)" fill="#12263f"/>
        <path id="Trazado_118075" data-name="Trazado 118075" d="M622.419,2723.267a2.5,2.5,0,1,1-.272,4.993,2.579,2.579,0,0,1-2.32-2.592A2.517,2.517,0,0,1,622.419,2723.267Zm-.051,3.442a1.006,1.006,0,0,0,.96-.929.978.978,0,0,0-1.956-.012A1,1,0,0,0,622.368,2726.709Z" transform="translate(-615.529 -2706.776)" fill="#12263f"/>
        <path id="Trazado_118076" data-name="Trazado 118076" d="M622.414,2854.378a2.451,2.451,0,0,1,2.513,2.51,2.522,2.522,0,0,1-5.043-.06A2.469,2.469,0,0,1,622.414,2854.378Zm.97,2.5a.952.952,0,0,0-.927-.949.934.934,0,0,0-1.026.9,1.012,1.012,0,0,0,.976.985A1.03,1.03,0,0,0,623.384,2856.876Z" transform="translate(-615.585 -2825.733)" fill="#12263f"/>
        <path id="Trazado_118077" data-name="Trazado 118077" d="M717.093,2733.981c-.8,0-1.6,0-2.406,0-.614,0-.951-.277-.958-.761-.008-.508.331-.79.975-.791q2.406-.006,4.812,0c.578,0,.954.316.953.779s-.386.768-.971.772C718.7,2733.985,717.894,2733.98,717.093,2733.981Z" transform="translate(-700.729 -2715.089)" fill="#12263f"/>
        <path id="Trazado_118078" data-name="Trazado 118078" d="M716.156,2771.671c-.556,0-1.112,0-1.668,0a.732.732,0,0,1-.8-.664.657.657,0,0,1,.678-.8c1.227-.037,2.457-.032,3.685,0a.662.662,0,0,1,.623.769.71.71,0,0,1-.717.693c-.6.013-1.2,0-1.807,0Z" transform="translate(-700.694 -2749.343)" fill="#12263f"/>
        <path id="Trazado_118079" data-name="Trazado 118079" d="M722.936,2603.1q-4.238,0-8.477,0a.854.854,0,0,1-.853-.432.748.748,0,0,1,.457-1.041,2.614,2.614,0,0,1,.684-.072q8.245-.005,16.49,0c.108,0,.216,0,.324,0a.736.736,0,0,1,.8.81c-.013.495-.26.729-.806.73Q727.244,2603.108,722.936,2603.1Z" transform="translate(-700.549 -2596.354)" fill="#12263f"/>
        <path id="Trazado_118080" data-name="Trazado 118080" d="M723.035,2640.746q-4.164,0-8.329,0c-.664,0-.991-.255-.994-.759a.718.718,0,0,1,.672-.74c.138-.011.278,0,.417,0h16.367c.216,0,.432-.014.648-.016a.63.63,0,0,1,.7.584c.071.5-.106.809-.515.892a3.459,3.459,0,0,1-.686.053q-4.141.005-8.282,0Z" transform="translate(-700.715 -2630.53)" fill="#12263f"/>
        <path id="Trazado_118081" data-name="Trazado 118081" d="M622.365,2597.4a2.5,2.5,0,1,1,2.535-2.479A2.551,2.551,0,0,1,622.365,2597.4Zm0-1.554a.946.946,0,1,0-.971-.961A.982.982,0,0,0,622.369,2595.841Z" transform="translate(-615.553 -2588.046)" fill="#12263f"/>
        <path id="Trazado_118082" data-name="Trazado 118082" d="M839.615,2833.232a2.625,2.625,0,0,1,.285-.427q2.828-2.84,5.667-5.671a4.334,4.334,0,0,1,.4-.381.728.728,0,0,1,1.005.065.8.8,0,0,1,.044,1.016c-.178.212-.384.4-.58.6q-3.079,3.081-6.16,6.161c-.635.635-.946.635-1.589,0q-1.495-1.488-2.982-2.982a2.8,2.8,0,0,1-.25-.273.791.791,0,0,1,.064-1.083.724.724,0,0,1,1.038.051q1.176,1.143,2.323,2.317a6.481,6.481,0,0,1,.482.62Z" transform="translate(-811.009 -2800.518)" fill="#12263f"/>
      </g>
    </g>
  </g>
</svg>
