<svg xmlns="http://www.w3.org/2000/svg" width="93.343" height="110.244" viewBox="0 0 93.343 110.244">
  <g id="YhmUKV.tif" transform="translate(-3251.588 2689.368)">
    <g id="Grupo_142434" data-name="Grupo 142434" transform="translate(3251.588 -2689.368)">
      <path id="Trazado_173866" data-name="Trazado 173866" d="M3312.058-2489.483h-3.334c0-1.821-.067-3.614.023-5.4.058-1.148-.28-1.513-1.463-1.5-5.461.061-10.923.051-16.384.006-1.032-.009-1.428.249-1.378,1.341.086,1.833.024,3.672.024,5.559h-3.352v-6.925h-1.612q-12.83,0-25.661,0c-4.422,0-7.311-2.781-7.316-7.171q-.037-24.765,0-49.531a6.786,6.786,0,0,1,5.143-6.985,13.626,13.626,0,0,1,1.671-.206c0,1.022.048,1.9-.033,2.762-.022.235-.4.537-.669.634a3.627,3.627,0,0,0-2.772,3.88c-.011,13.939.007,27.878-.031,41.817,0,1.133.573,1.089,1.348,1.088q14.637-.015,29.275-.006h54.334c1.687,0,1.687,0,1.687-1.692q0-20.487,0-40.974c0-2.918-1.247-4.154-4.182-4.157a10.873,10.873,0,0,0-1.444.01c-1.027.138-1.279-.3-1.278-1.282,0-2.538-.113-2.069,2.124-2.094a13.356,13.356,0,0,1,2.876.16,6.624,6.624,0,0,1,5.276,6.487q.02,25.368-.037,50.735a6.641,6.641,0,0,1-6.827,6.518c-8.111.022-16.224.007-24.336.008-1.666,0-1.667,0-1.667,1.721Zm-13.829-10.255c12.688,0,25.375-.068,38.062.041,3.816.033,5.569-1.086,5.282-5.312-.134-1.986.192-1.768-1.856-1.768q-41.074-.008-82.148,0c-2.645,0-2.645,0-2.635,2.653.012,3.109,1.289,4.389,4.389,4.389Z" transform="translate(-3251.588 2591.486)" fill="#12263f"/>
      <path id="Trazado_173867" data-name="Trazado 173867" d="M3297.922-2589.683h-3.334v-44.257q0-7.712,0-15.424c0-3.011,1.231-4.223,4.258-4.223q25.967,0,51.931,0c3.1,0,4.274,1.187,4.274,4.306q0,18.682,0,37.364v1.473h-3.337v-1.5c0-12.254-.016-24.508.025-36.761,0-1.188-.256-1.567-1.516-1.564q-25.424.066-50.847.006c-1.16,0-1.521.315-1.482,1.483.085,2.488.026,4.981.026,7.472,0,1.588,0,1.592,1.559,1.592h41.732c0,.985.047,1.859-.032,2.72-.021.225-.4.509-.676.595a3.715,3.715,0,0,1-1.077.029c-13.334,0-26.668.017-40-.029-1.237,0-1.535.339-1.531,1.55.042,14.5.027,29.007.027,43.51Z" transform="translate(-3284.204 2662.227)" fill="#12263f"/>
      <path id="Trazado_173868" data-name="Trazado 173868" d="M3327.431-2552.758c1.686.7,3.215,1.3,4.712,1.97.651.292,1,.112,1.564-.306,1.49-1.112,1.652-2.281.75-3.853a28.6,28.6,0,0,1-1.422-3.4l9.9-4.107c.639,1.538,1.3,2.983,1.835,4.474.325.9.779,1.338,1.765,1.118a2.428,2.428,0,0,1,.958.019c.789.151,1.151-.22,1.42-.922.585-1.53,1.246-3.031,1.934-4.683l9.9,4.1c-.65,1.585-1.215,3.084-1.88,4.536a1.517,1.517,0,0,0,.344,1.863c1.105,1.4,2.182,1.51,3.661.66a30.023,30.023,0,0,1,3.47-1.46l4.113,9.91c-1.578.656-3.035,1.305-4.525,1.865-.774.291-1.234.657-1.075,1.565a11.536,11.536,0,0,0,.038,1.315,1.93,1.93,0,0,0,.75,1.124c1.516.723,3.087,1.329,4.8,2.047l-4.09,9.9c-1.578-.647-3.071-1.218-4.524-1.874a1.38,1.38,0,0,0-1.875.35c-1.456,1.59-1.5,1.551-.692,3.522.471,1.148.949,2.293,1.489,3.6l-9.9,4.112c-.662-1.577-1.335-3.068-1.91-4.6-.283-.754-.661-1.134-1.495-1a3.923,3.923,0,0,1-1.2,0c-.791-.125-1.142.255-1.407.948-.584,1.531-1.241,3.033-1.911,4.653l-9.907-4.11c.676-1.642,1.26-3.173,1.938-4.662.321-.706.083-1.079-.337-1.669-1.128-1.586-2.349-1.509-3.872-.667a33.135,33.135,0,0,1-3.326,1.4c-1.375-3.315-2.718-6.556-4.107-9.9,1.615-.676,3.112-1.338,4.639-1.924a1.262,1.262,0,0,0,.968-1.4c-.068-2.28-.032-2.28-2.121-3.142-1.11-.457-2.217-.922-3.483-1.45Zm.352,8.076c1.465.608,2.747,1.176,4.058,1.667.7.262.789.632.749,1.36a51.219,51.219,0,0,0,.008,5.625c.037.7-.095,1.014-.729,1.258-1.338.517-2.649,1.1-4.077,1.7.521,1.248.994,2.374,1.442,3.446a1.609,1.609,0,0,0,.392,0q1.341-.539,2.676-1.093c1.855-.772,1.833-.758,3.058.766a18.313,18.313,0,0,0,1.892,2.017c.7.64,1.483,1.189,2.223,1.773l-1.969,4.919,3.591,1.474c.57-1.378,1.13-2.616,1.592-3.889.277-.765.631-.973,1.495-.905a36.9,36.9,0,0,0,5.384.012c.828-.056,1.228.064,1.515.87.463,1.3,1.055,2.558,1.626,3.915l3.585-1.5c-.58-1.412-1.083-2.715-1.652-3.99a1.11,1.11,0,0,1,.373-1.523,46.667,46.667,0,0,0,3.973-3.984,1.088,1.088,0,0,1,1.511-.366c1.279.565,2.583,1.076,4,1.662.509-1.224.979-2.357,1.494-3.6-1.382-.582-2.654-1.164-3.963-1.65-.749-.278-.868-.69-.827-1.453a46.413,46.413,0,0,0,0-5.386c-.051-.829.1-1.239.9-1.524,1.3-.468,2.563-1.049,3.9-1.606l-1.5-3.588c-1.416.575-2.73,1.052-3.992,1.643-.741.347-1.08.121-1.587-.453a41.218,41.218,0,0,0-3.812-3.807c-.641-.556-.79-.957-.438-1.709.574-1.227,1.05-2.5,1.619-3.878l-3.6-1.5c-.612,1.458-1.119,2.81-1.759,4.093a1.542,1.542,0,0,1-1.144.657c-1.913.067-3.831-.019-5.744.051-.666.025-1.039-.079-1.279-.733-.4-1.093-.849-2.172-1.349-3.222-.134-.281-.61-.673-.8-.611-1.045.349-2.049.82-3.13,1.276.6,1.453,1.1,2.761,1.672,4.04a1.017,1.017,0,0,1-.337,1.408c-1.42,1.283-2.776,2.646-4.064,4.061-.464.511-.779.644-1.407.362-1.306-.587-2.649-1.091-4.079-1.67Z" transform="translate(-3306.004 2593.101)" fill="#12263f"/>
      <path id="Trazado_173869" data-name="Trazado 173869" d="M3391.006-2651.462h-3.333v-34.447h-53.708v3.294h-3.32a36.341,36.341,0,0,1,.032-4.065,3.2,3.2,0,0,1,2.9-2.653,9.717,9.717,0,0,1,1.2-.032q26.022,0,52.043,0c3,0,4.181,1.163,4.181,4.122q0,16.148,0,32.3Z" transform="translate(-3311.521 2689.368)" fill="#12263f"/>
      <path id="Trazado_173870" data-name="Trazado 173870" d="M3403.679-2255.258l-2.5,2.3c-.7-.692-1.406-1.5-2.222-2.173a2.721,2.721,0,0,0-1.558-.663q-14.8-.059-29.606,0a2.8,2.8,0,0,0-1.653.713,25.755,25.755,0,0,0-2.086,2.281l-2.464-2.633c1.109-1.076,2.262-2.244,3.479-3.34a1.914,1.914,0,0,1,1.19-.38q16.308-.029,32.616,0a1.907,1.907,0,0,1,1.195.375C3401.281-2257.665,3402.426-2256.489,3403.679-2255.258Z" transform="translate(-3335.029 2363.037)" fill="#12263f"/>
      <path id="Trazado_173871" data-name="Trazado 173871" d="M3355.619-2624.514v3.192h-3.241v-3.192Z" transform="translate(-3328.041 2640.174)" fill="#12263f"/>
      <path id="Trazado_173872" data-name="Trazado 173872" d="M3570.5-2485.058h-3.185v-3.221h3.185Z" transform="translate(-3491.078 2536.834)" fill="#12263f"/>
      <path id="Trazado_173873" data-name="Trazado 173873" d="M3326.827-2621.283h-3.2v-3.193h3.2Z" transform="translate(-3306.235 2640.145)" fill="#12263f"/>
      <path id="Trazado_173874" data-name="Trazado 173874" d="M3380.775-2624.522h3.231v3.177h-3.231Z" transform="translate(-3349.582 2640.18)" fill="#12263f"/>
      <path id="Trazado_173875" data-name="Trazado 173875" d="M3567.272-2514v-3.279a5.485,5.485,0,0,1,.757-.1c2.978.041,2.433-.451,2.509,2.547.016.622-.217.871-.842.843C3568.94-2514.027,3568.181-2514,3567.272-2514Z" transform="translate(-3491.047 2558.917)" fill="#12263f"/>
      <path id="Trazado_173876" data-name="Trazado 173876" d="M3531.562-2459.833h3.132v3.228h-3.132Z" transform="translate(-3463.959 2515.256)" fill="#12263f"/>
      <path id="Trazado_173877" data-name="Trazado 173877" d="M3393.006-2483.9a8.841,8.841,0,0,1-8.843-8.917,8.865,8.865,0,0,1,8.909-8.864,8.91,8.91,0,0,1,8.861,8.931A8.868,8.868,0,0,1,3393.006-2483.9Zm5.507-8.852a5.477,5.477,0,0,0-5.385-5.512,5.507,5.507,0,0,0-5.581,5.451,5.559,5.559,0,0,0,5.522,5.529A5.507,5.507,0,0,0,3398.513-2492.751Z" transform="translate(-3352.152 2547)" fill="#12263f"/>
    </g>
  </g>
</svg>
