<svg xmlns="http://www.w3.org/2000/svg" xmlns:xlink="http://www.w3.org/1999/xlink" width="327.321" height="65.972" viewBox="0 0 327.321 65.972">
  <defs>
    <linearGradient id="linear-gradient" x1="0.5" x2="0.5" y2="1" gradientUnits="objectBoundingBox">
      <stop offset="0" stop-color="#4090de"/>
      <stop offset="1" stop-color="#3c6d9d"/>
    </linearGradient>
  </defs>
  <g id="Grupo_142479" data-name="Grupo 142479" transform="translate(-618.289 -1910.543)">
    <rect id="Rect치ngulo_37320" data-name="Rect치ngulo 37320" width="326.053" height="65.972" rx="10" transform="translate(619.557 1910.543)" fill="url(#linear-gradient)"/>
    <g id="Rect치ngulo_37321" data-name="Rect치ngulo 37321" transform="translate(618.289 1910.543)" fill="#fff" stroke="#3c6d9d" stroke-width="1">
      <rect width="62.166" height="65.972" rx="10" stroke="none"/>
      <rect x="0.5" y="0.5" width="61.166" height="64.972" rx="9.5" fill="none"/>
    </g>
    <path id="Trazado_186764" data-name="Trazado 186764" d="M9.018-5.965H3.349V0H1.568V-13.508H9.936v1.457H3.349v4.629H9.018ZM13.666,0H11.949V-10.038h1.716ZM11.81-12.7a1.024,1.024,0,0,1,.255-.705.958.958,0,0,1,.756-.288.973.973,0,0,1,.761.288,1.014,1.014,0,0,1,.26.705.98.98,0,0,1-.26.7.99.99,0,0,1-.761.278A.975.975,0,0,1,12.065-12,.991.991,0,0,1,11.81-12.7ZM20.438-1.215a2.472,2.472,0,0,0,1.6-.557A1.958,1.958,0,0,0,22.8-3.164h1.624a3.112,3.112,0,0,1-.594,1.642A3.911,3.911,0,0,1,22.372-.278a4.216,4.216,0,0,1-1.934.464,4.135,4.135,0,0,1-3.261-1.368,5.45,5.45,0,0,1-1.211-3.743v-.288A6.043,6.043,0,0,1,16.5-7.821a4.1,4.1,0,0,1,1.545-1.772,4.388,4.388,0,0,1,2.38-.631,4.026,4.026,0,0,1,2.806,1.011,3.614,3.614,0,0,1,1.192,2.625H22.8a2.365,2.365,0,0,0-.738-1.6,2.294,2.294,0,0,0-1.637-.626,2.4,2.4,0,0,0-2.027.942,4.422,4.422,0,0,0-.719,2.723v.325A4.334,4.334,0,0,0,18.4-2.152,2.414,2.414,0,0,0,20.438-1.215Zm7.635-7.607a3.649,3.649,0,0,1,2.969-1.4q3.182,0,3.21,3.59V0H32.536V-6.643a2.311,2.311,0,0,0-.5-1.6,1.989,1.989,0,0,0-1.517-.52,2.477,2.477,0,0,0-1.466.445,3.024,3.024,0,0,0-.983,1.169V0H26.357V-14.25h1.716ZM43.019,0a3.605,3.605,0,0,1-.241-1.058A3.829,3.829,0,0,1,39.92.186a3.543,3.543,0,0,1-2.435-.84,2.716,2.716,0,0,1-.951-2.129,2.838,2.838,0,0,1,1.192-2.435,5.621,5.621,0,0,1,3.354-.867h1.67v-.789a1.928,1.928,0,0,0-.538-1.433,2.163,2.163,0,0,0-1.586-.533,2.5,2.5,0,0,0-1.54.464,1.367,1.367,0,0,0-.622,1.123H36.738a2.369,2.369,0,0,1,.533-1.452,3.641,3.641,0,0,1,1.447-1.109,4.869,4.869,0,0,1,2.009-.408,3.968,3.968,0,0,1,2.718.867,3.129,3.129,0,0,1,1.021,2.389v4.62a5.649,5.649,0,0,0,.353,2.2V0ZM40.171-1.308A3.016,3.016,0,0,0,41.7-1.726,2.525,2.525,0,0,0,42.75-2.811v-2.06H41.4q-3.154,0-3.154,1.846a1.562,1.562,0,0,0,.538,1.262A2.068,2.068,0,0,0,40.171-1.308ZM53-2.663a1.264,1.264,0,0,0-.524-1.081,5.045,5.045,0,0,0-1.828-.663,8.641,8.641,0,0,1-2.069-.668A2.943,2.943,0,0,1,47.449-6a2.219,2.219,0,0,1-.366-1.28A2.6,2.6,0,0,1,48.126-9.37a4.076,4.076,0,0,1,2.667-.854,4.194,4.194,0,0,1,2.769.881,2.8,2.8,0,0,1,1.062,2.254H52.9A1.549,1.549,0,0,0,52.3-8.3a2.242,2.242,0,0,0-1.508-.51,2.346,2.346,0,0,0-1.466.408A1.285,1.285,0,0,0,48.8-7.338a1.041,1.041,0,0,0,.492.937,6.05,6.05,0,0,0,1.777.6,9.257,9.257,0,0,1,2.083.687,3.038,3.038,0,0,1,1.183.96,2.361,2.361,0,0,1,.385,1.368A2.569,2.569,0,0,1,53.642-.626a4.514,4.514,0,0,1-2.792.812,5.055,5.055,0,0,1-2.134-.427,3.47,3.47,0,0,1-1.452-1.192,2.873,2.873,0,0,1-.524-1.656h1.716a1.777,1.777,0,0,0,.691,1.368,2.681,2.681,0,0,0,1.7.506,2.768,2.768,0,0,0,1.563-.394A1.212,1.212,0,0,0,53-2.663Zm10.984-9.806v2.431H65.86v1.327H63.986v6.233a1.393,1.393,0,0,0,.25.906,1.054,1.054,0,0,0,.854.3,4.155,4.155,0,0,0,.816-.111V0a5.005,5.005,0,0,1-1.317.184,2.137,2.137,0,0,1-1.735-.7,2.989,2.989,0,0,1-.584-1.976V-8.711H60.442v-1.327H62.27v-2.431ZM72.029.186a4.386,4.386,0,0,1-3.321-1.341,4.976,4.976,0,0,1-1.28-3.586v-.315A6.024,6.024,0,0,1,68-7.723a4.451,4.451,0,0,1,1.6-1.837,4.012,4.012,0,0,1,2.222-.663,3.759,3.759,0,0,1,3.043,1.29,5.583,5.583,0,0,1,1.085,3.692v.714h-6.8a3.568,3.568,0,0,0,.867,2.4,2.727,2.727,0,0,0,2.111.914,2.989,2.989,0,0,0,1.54-.371,3.87,3.87,0,0,0,1.1-.983l1.048.816A4.215,4.215,0,0,1,72.029.186Zm-.213-9a2.289,2.289,0,0,0-1.744.756,3.675,3.675,0,0,0-.872,2.12h5.028v-.13a3.269,3.269,0,0,0-.705-2.027A2.155,2.155,0,0,0,71.816-8.813Zm.835-5.418h2.078L72.243-11.5l-1.382,0ZM81.956-1.215a2.472,2.472,0,0,0,1.6-.557,1.958,1.958,0,0,0,.761-1.392h1.624a3.112,3.112,0,0,1-.594,1.642A3.911,3.911,0,0,1,83.89-.278a4.216,4.216,0,0,1-1.934.464A4.135,4.135,0,0,1,78.7-1.183a5.45,5.45,0,0,1-1.211-3.743v-.288a6.043,6.043,0,0,1,.538-2.607,4.1,4.1,0,0,1,1.545-1.772,4.388,4.388,0,0,1,2.38-.631,4.026,4.026,0,0,1,2.806,1.011,3.614,3.614,0,0,1,1.192,2.625H84.322a2.365,2.365,0,0,0-.738-1.6,2.294,2.294,0,0,0-1.637-.626,2.4,2.4,0,0,0-2.027.942A4.422,4.422,0,0,0,79.2-5.149v.325a4.334,4.334,0,0,0,.714,2.672A2.414,2.414,0,0,0,81.956-1.215ZM89.5-10.038l.056,1.262a3.658,3.658,0,0,1,3.006-1.447q3.182,0,3.21,3.59V0H94.054V-6.643a2.311,2.311,0,0,0-.5-1.6,1.989,1.989,0,0,0-1.517-.52,2.477,2.477,0,0,0-1.466.445,3.024,3.024,0,0,0-.983,1.169V0H87.875V-10.038ZM100.223,0H98.507V-10.038h1.716ZM98.368-12.7a1.025,1.025,0,0,1,.255-.705.958.958,0,0,1,.756-.288.973.973,0,0,1,.761.288,1.014,1.014,0,0,1,.26.705.98.98,0,0,1-.26.7.99.99,0,0,1-.761.278A.975.975,0,0,1,98.623-12,.991.991,0,0,1,98.368-12.7ZM107-1.215a2.472,2.472,0,0,0,1.6-.557,1.958,1.958,0,0,0,.761-1.392h1.624a3.112,3.112,0,0,1-.594,1.642A3.911,3.911,0,0,1,108.93-.278,4.216,4.216,0,0,1,107,.186a4.135,4.135,0,0,1-3.261-1.368,5.45,5.45,0,0,1-1.211-3.743v-.288a6.043,6.043,0,0,1,.538-2.607,4.1,4.1,0,0,1,1.545-1.772,4.388,4.388,0,0,1,2.38-.631,4.026,4.026,0,0,1,2.806,1.011,3.614,3.614,0,0,1,1.192,2.625h-1.624a2.365,2.365,0,0,0-.738-1.6,2.294,2.294,0,0,0-1.637-.626,2.4,2.4,0,0,0-2.027.942,4.422,4.422,0,0,0-.719,2.723v.325a4.334,4.334,0,0,0,.714,2.672A2.414,2.414,0,0,0,107-1.215ZM119.112,0a3.605,3.605,0,0,1-.241-1.058A3.829,3.829,0,0,1,116.013.186a3.543,3.543,0,0,1-2.435-.84,2.716,2.716,0,0,1-.951-2.129,2.838,2.838,0,0,1,1.192-2.435,5.621,5.621,0,0,1,3.354-.867h1.67v-.789a1.928,1.928,0,0,0-.538-1.433,2.163,2.163,0,0,0-1.586-.533,2.5,2.5,0,0,0-1.54.464,1.367,1.367,0,0,0-.622,1.123h-1.726a2.369,2.369,0,0,1,.533-1.452,3.641,3.641,0,0,1,1.447-1.109,4.869,4.869,0,0,1,2.009-.408,3.968,3.968,0,0,1,2.718.867,3.129,3.129,0,0,1,1.021,2.389v4.62a5.649,5.649,0,0,0,.353,2.2V0Zm-2.848-1.308a3.016,3.016,0,0,0,1.531-.417,2.525,2.525,0,0,0,1.048-1.085v-2.06H117.5q-3.154,0-3.154,1.846a1.562,1.562,0,0,0,.538,1.262A2.068,2.068,0,0,0,116.264-1.308Zm12.831-1.354a1.264,1.264,0,0,0-.524-1.081,5.045,5.045,0,0,0-1.828-.663,8.641,8.641,0,0,1-2.069-.668A2.943,2.943,0,0,1,123.542-6a2.219,2.219,0,0,1-.366-1.28,2.6,2.6,0,0,1,1.044-2.087,4.076,4.076,0,0,1,2.667-.854,4.194,4.194,0,0,1,2.769.881,2.8,2.8,0,0,1,1.062,2.254h-1.726a1.549,1.549,0,0,0-.6-1.215,2.242,2.242,0,0,0-1.508-.51,2.347,2.347,0,0,0-1.466.408,1.285,1.285,0,0,0-.529,1.067,1.041,1.041,0,0,0,.492.937,6.05,6.05,0,0,0,1.777.6,9.257,9.257,0,0,1,2.083.687,3.038,3.038,0,0,1,1.183.96,2.361,2.361,0,0,1,.385,1.368,2.569,2.569,0,0,1-1.076,2.157,4.514,4.514,0,0,1-2.792.812,5.055,5.055,0,0,1-2.134-.427,3.47,3.47,0,0,1-1.452-1.192,2.873,2.873,0,0,1-.524-1.656h1.716a1.777,1.777,0,0,0,.691,1.368,2.681,2.681,0,0,0,1.7.506,2.768,2.768,0,0,0,1.563-.394A1.212,1.212,0,0,0,129.094-2.663Z" transform="translate(743.947 1950.11)" fill="#fff"/>
    <g id="OfmmeW.tif" transform="translate(633.069 1921.324)">
      <g id="Grupo_142298" data-name="Grupo 142298" transform="translate(0 0)">
        <path id="Trazado_118067" data-name="Trazado 118067" d="M1318.747,2265.128v-35.27c.411-1.163,1.375-1.245,2.409-1.154,0-.191,0-.309,0-.427a1.527,1.527,0,0,1,1.732-1.722h.945c0-.31,0-.561,0-.812,0-1.348.514-1.866,1.851-1.866q8.387,0,16.773-.01a1.651,1.651,0,0,1,1.3.415c2.118,2.172,4.241,4.341,6.342,6.53a1.242,1.242,0,0,1,.3.785q.026,10.58.017,21.16,0,3.571,0,7.143a1.521,1.521,0,0,1-1.668,1.658c-.293,0-.586,0-.9,0-.066.721.119,1.448-.426,2.031-.56.6-1.308.43-2,.484,0,.132,0,.206,0,.28-.016,1.472-.488,1.938-1.963,1.938q-11.42,0-22.84.011A1.751,1.751,0,0,1,1318.747,2265.128Zm23.556-40h-16.608c-.612,0-.613,0-.613.625v33.93c0,.624,0,.625.62.625h22.842c.627,0,.629,0,.629-.617q0-13.594,0-27.189v-.5h-5.005c-1.319,0-1.865-.548-1.865-1.871C1342.3,2228.481,1342.3,2226.832,1342.3,2225.126Zm4.257,36.431h-20.894c-1.293,0-1.833-.545-1.833-1.85q0-15.666,0-31.332v-.57h-.74c-.687,0-.688,0-.688.686v33.653c0,.662,0,.663.669.663q11.217,0,22.434,0C1346.638,2262.8,1346.632,2263.092,1346.56,2261.557Zm-2.411,2.5h-21.164c-1.3,0-1.83-.537-1.83-1.85v-32.24c-.11-.009-.18-.017-.251-.019-.909-.025-.909-.025-.909.869v33.521c0,.7,0,.7.718.7h22.614C1344.226,2265.039,1344.226,2265.039,1344.149,2264.057Zm-.6-38.208c0,1.592,0,3.047,0,4.5,0,.317.165.407.451.4.683-.008,1.367,0,2.05,0h2.278Z" transform="translate(-1318.747 -2223.866)" fill="#12263f"/>
        <path id="Trazado_118068" data-name="Trazado 118068" d="M1425.25,2345.686h8.693a2.921,2.921,0,0,1,.4.007.62.62,0,0,1-.011,1.237,2.842,2.842,0,0,1-.356.006H1416.5a2.019,2.019,0,0,1-.4-.012.619.619,0,0,1,.011-1.227,2.208,2.208,0,0,1,.4-.01Z" transform="translate(-1406.909 -2334.782)" fill="#12263f"/>
        <path id="Trazado_118069" data-name="Trazado 118069" d="M1425.247,2386.87h-8.693a2.735,2.735,0,0,1-.4-.008.62.62,0,0,1,.02-1.236,2.551,2.551,0,0,1,.312-.005h17.563c.089,0,.179,0,.267,0a.617.617,0,0,1,.615.631.61.61,0,0,1-.635.613c-.118.008-.238,0-.357,0Z" transform="translate(-1406.922 -2371.144)" fill="#12263f"/>
        <path id="Trazado_118070" data-name="Trazado 118070" d="M1425.2,2427.768h-8.692a2.08,2.08,0,0,1-.4-.012.619.619,0,0,1,0-1.226,2.121,2.121,0,0,1,.4-.011h17.474a2.1,2.1,0,0,1,.4.011.619.619,0,0,1,0,1.226,2.1,2.1,0,0,1-.4.011Z" transform="translate(-1406.908 -2408.381)" fill="#12263f"/>
        <path id="Trazado_118071" data-name="Trazado 118071" d="M1425.278,2468.688h-8.737a2.546,2.546,0,0,1-.4-.008.62.62,0,0,1-.009-1.233,2.162,2.162,0,0,1,.356-.008h17.519a1.876,1.876,0,0,1,.4.015.618.618,0,0,1,.009,1.218,2.116,2.116,0,0,1-.444.016Z" transform="translate(-1406.915 -2445.641)" fill="#12263f"/>
        <path id="Trazado_118072" data-name="Trazado 118072" d="M1422.47,2508.6H1416.5a2,2,0,0,1-.4-.013.619.619,0,0,1,.016-1.227,1.96,1.96,0,0,1,.356-.01H1428.5a2.134,2.134,0,0,1,.312.007.62.62,0,0,1-.016,1.237,2.887,2.887,0,0,1-.356.006Z" transform="translate(-1406.908 -2481.983)" fill="#12263f"/>
      </g>
    </g>
  </g>
</svg>
