<svg xmlns="http://www.w3.org/2000/svg" xmlns:xlink="http://www.w3.org/1999/xlink" width="143" height="143" viewBox="0 0 143 143">
  <defs>
    <linearGradient id="linear-gradient" x1="0.5" x2="0.5" y2="1" gradientUnits="objectBoundingBox">
      <stop offset="0" stop-color="#4090de"/>
      <stop offset="1" stop-color="#3c6d9d"/>
    </linearGradient>
  </defs>
  <g id="Grupo_143220" data-name="Grupo 143220" transform="translate(-651 -1275)">
    <path id="Trazado_113533" data-name="Trazado 113533" d="M71.5,0A71.5,71.5,0,1,1,0,71.5,71.5,71.5,0,0,1,71.5,0Z" transform="translate(651 1275)" fill="url(#linear-gradient)"/>
    <g id="_1kM4ZG" data-name="1kM4ZG" transform="translate(1265.279 964.709)">
      <g id="Grupo_143235" data-name="Grupo 143235" transform="translate(-584.279 341.291)">
        <path id="Trazado_184555" data-name="Trazado 184555" d="M-474.729,431.336c.811,0,1.622-.007,2.432,0a3.456,3.456,0,0,1,3.508,3.36c.076,1.446.153,2.895.132,4.341-.015,1.032.882.813,1.37,1.144.418.283.766.165,1.117-.236.877-1,1.791-1.972,2.722-2.924a3.592,3.592,0,0,1,5.273-.154q1.7,1.552,3.363,3.144a3.536,3.536,0,0,1,.165,5.248c-.9.979-1.8,1.967-2.738,2.91a.778.778,0,0,0-.131,1.142c.35.482.215,1.377,1.23,1.3,1.385-.1,2.777-.137,4.166-.151a3.319,3.319,0,0,1,3.592,3.3q.158,2.731.22,5.467a3.6,3.6,0,0,1-3.174,3.243c-1.44.041-2.881.145-4.318.1-.954-.027-.9.709-1.149,1.229-.234.484-.365.911.179,1.37,1.039.876,2.021,1.823,2.992,2.776a3.445,3.445,0,0,1,.165,5.046c-1.081,1.208-2.181,2.4-3.308,3.565a3.58,3.58,0,0,1-5.015.226c-1.049-.91-2.057-1.87-3.046-2.845a.85.85,0,0,0-1.219-.143c-.492.335-1.355.23-1.264,1.244.111,1.238.066,2.489.135,3.732.143,2.572-1.279,4.141-3.827,4.2-1.448.036-2.894.116-4.342.143a3.546,3.546,0,0,1-3.892-3.711c-.049-1.331-.132-2.664-.1-3.994.021-.971-.783-.838-1.28-1.126a.85.85,0,0,0-1.211.221c-.819.937-1.688,1.83-2.534,2.744a3.672,3.672,0,0,1-5.583.207c-1.034-.971-2.082-1.928-3.114-2.9a3.549,3.549,0,0,1-.215-5.434c.88-.961,1.768-1.915,2.673-2.852.32-.331.492-.649.17-1.05-.388-.484-.2-1.456-1.262-1.378-1.328.1-2.661.131-3.993.159a3.549,3.549,0,0,1-3.882-3.635c-.072-1.562-.132-3.125-.149-4.689a3.5,3.5,0,0,1,3.45-3.7c1.358-.079,2.72-.136,4.08-.131a.9.9,0,0,0,1.017-.819c.126-.585.737-1.122-.061-1.761-1.037-.83-1.974-1.787-2.933-2.71a3.509,3.509,0,0,1-.2-5.117c1.084-1.206,2.193-2.389,3.316-3.559a3.593,3.593,0,0,1,5.081-.156c.989.892,1.968,1.8,2.916,2.731a.9.9,0,0,0,1.205.241c1.345-.649,1.359-.62,1.308-2.151-.037-1.129-.1-2.257-.108-3.386a3.473,3.473,0,0,1,3.472-3.667c.867-.035,1.736-.006,2.6-.006Zm18.754,39.216a30.841,30.841,0,0,0-2.437-2.266c-2.273-1.7-2.765-3.7-1.547-6.31.826-1.767,1.836-2.7,3.788-2.759,1.244-.038,2.49-.056,3.735-.063.628,0,.884-.273.838-.907q-.138-1.9-.214-3.813c-.021-.549-.329-.568-.754-.553-1.358.05-2.717.08-4.076.1a3.477,3.477,0,0,1-3.54-2.277c-.163-.371-.319-.745-.494-1.11a3.619,3.619,0,0,1,.682-4.6c1-1.083,2.006-2.157,3.062-3.292l-3.815-3.577c-1.146,1.225-2.213,2.4-3.32,3.539a3.478,3.478,0,0,1-3.975.887c-.516-.19-1.033-.377-1.543-.58a3.468,3.468,0,0,1-2.409-3.281c-.057-1.418-.08-2.838-.165-4.254-.014-.238-.27-.662-.414-.662-1.582,0-3.164.067-4.7.115,0,1.734-.005,3.351,0,4.967a3.513,3.513,0,0,1-2.2,3.435c-.314.147-.641.267-.957.411-2.329,1.061-3.338.889-5.226-.877-.964-.9-1.938-1.792-2.96-2.736l-3.553,3.815c1.143,1.073,2.24,2.091,3.324,3.124,1.845,1.756,1.554,5.748-.523,7.267-.07.051-.154.082-.225.131a5.415,5.415,0,0,1-3.4.777c-1.137-.021-2.276,0-3.332,0v5.257c1.641,0,3.14.03,4.638-.007a3.61,3.61,0,0,1,3.751,2.37c.149.345.3.689.466,1.027a3.644,3.644,0,0,1-.732,4.671c-.987,1.052-1.972,2.107-3.03,3.237,1.21,1.13,2.354,2.225,3.544,3.269.112.1.584-.046.758-.214a16.3,16.3,0,0,0,1.833-1.969c1.624-2.195,3.577-2.62,6.087-1.547,1.962.839,2.83,1.811,2.89,3.934.041,1.467.113,2.933.167,4.322h5.055c0-1.744,0-3.332,0-4.92a3.53,3.53,0,0,1,2.18-3.447c.393-.184.8-.344,1.188-.532a3.7,3.7,0,0,1,4.747.721c1.055.983,2.115,1.96,3.231,2.995Z" transform="translate(514.546 -415.68)" fill="#fff"/>
        <path id="Trazado_184556" data-name="Trazado 184556" d="M-516.147,563.692l-3.6-3.306c-.576-.529-1.17-1.039-1.726-1.588a1.724,1.724,0,0,1-.139-2.483,1.679,1.679,0,0,1,2.42-.03q4.493,3.834,8.957,7.7a1.7,1.7,0,0,1-.109,2.818q-4.487,3.569-9,7.107a1.672,1.672,0,0,1-2.463-.217,1.651,1.651,0,0,1,.362-2.446c1.46-1.14,2.95-2.243,4.424-3.365.217-.165.42-.35.842-.7h-1.264l-13.209,0c-1.474,0-2.949.013-4.422-.008-.479-.007-.684.151-.681.644,0,.548-.078,1.1-.083,1.645a4.589,4.589,0,0,1-4.726,4.685c-2.69-.037-5.382-.114-8.069-.248a4.414,4.414,0,0,1-4.287-2.967,9.319,9.319,0,0,1-.308-3.245c.022-.834-.128-1.162-1-1.5-2.388-.926-4.7-2.056-7-3.187a1.037,1.037,0,0,0-1.408.151,10.833,10.833,0,0,1-2.677,2.005,4.209,4.209,0,0,1-4.954-.991q-2.975-3.041-5.812-6.218a4.649,4.649,0,0,1,.124-6.257c.059-.064.117-.128.178-.19.587-.591,1.545-1.118,1.659-1.788s-.661-1.478-.946-2.261c-.719-1.982-1.417-3.973-2.044-5.985-.173-.556-.393-.743-.943-.737a20.009,20.009,0,0,1-2.081-.108,4.57,4.57,0,0,1-4.144-4.475c0-1.879.135-3.758.195-5.637.027-.867,0-1.736.028-2.6a4.688,4.688,0,0,1,5.014-4.724c1.129.025,2.259.043,3.387.1,1.235.063,1.986.767,1.945,1.771-.042,1.027-.816,1.66-2.05,1.634-1.071-.023-2.141-.095-3.212-.121-1.106-.026-1.583.307-1.648,1.425-.153,2.649-.233,5.3-.284,7.956-.016.852.485,1.271,1.4,1.323,1.063.061,2.129.091,3.194.105,1.356.019,1.818.406,2.11,1.751a33.493,33.493,0,0,0,3.68,9.788c.707,1.218.6,1.772-.437,2.745-.76.714-1.532,1.414-2.282,2.139a1.3,1.3,0,0,0-.105,2.113q2.615,2.847,5.268,5.659a1.3,1.3,0,0,0,2.115.047c.84-.755,1.649-1.544,2.487-2.3a1.677,1.677,0,0,1,2.421-.206,34.643,34.643,0,0,0,9.8,4.538c1.252.367,1.434.666,1.406,1.989-.025,1.156-.045,2.313-.021,3.468a1.252,1.252,0,0,0,1.339,1.384q3.95.155,7.9.251a1.22,1.22,0,0,0,1.4-1.215c.085-1.151.187-2.306.178-3.459-.012-1.564.656-2.325,2.2-2.326q9.944,0,19.889,0C-516.783,563.735-516.611,563.718-516.147,563.692Z" transform="translate(584.279 -491.559)" fill="#fff"/>
        <path id="Trazado_184557" data-name="Trazado 184557" d="M-543.542,352.092c1.515,1.185,2.852,2.23,4.187,3.276.319.25.642.5.951.758a1.722,1.722,0,0,1,.362,2.391,1.681,1.681,0,0,1-2.465.253c-1.689-1.318-3.352-2.67-5.025-4.01q-1.932-1.548-3.859-3.1a1.709,1.709,0,0,1-.08-2.926q4.086-3.51,8.209-6.976a1.7,1.7,0,0,1,2.42.082,1.724,1.724,0,0,1-.188,2.474c-1.452,1.366-2.927,2.706-4.573,4.224h18.838a31.974,31.974,0,0,1,.274-3.229,4.447,4.447,0,0,1,4.194-3.612c2.749-.126,5.5-.218,8.251-.259,2.781-.042,4.7,1.9,4.847,4.817.034.69,0,1.383,0,1.954l9.246,3.385c.359-.379.887-.946,1.424-1.5a4.693,4.693,0,0,1,6.892-.185q2.8,2.6,5.593,5.213a4.721,4.721,0,0,1,.232,7.021c-.487.528-1.24,1.04-1.329,1.64-.08.544.623,1.177.9,1.805.9,2.033,1.8,4.069,2.631,6.134.23.575.452.828,1.1.781a11.32,11.32,0,0,1,2.6.022A4.569,4.569,0,0,1-474,376.969c.134,2.771.156,5.546.265,8.318a5.087,5.087,0,0,1-4.364,4.931c-1.212.071-2.419.243-3.628.376a1.849,1.849,0,0,1-2.094-1.617,1.738,1.738,0,0,1,1.486-2.083c1.141-.159,2.3-.164,3.455-.247,1.409-.1,1.806-.585,1.746-2-.1-2.372-.177-4.745-.261-7.118-.046-1.293-.46-1.688-1.766-1.661-1.043.022-2.085.058-3.128.077a1.715,1.715,0,0,1-2.034-1.465,31.684,31.684,0,0,0-4.523-9.9,1.62,1.62,0,0,1,.175-2.214c.733-.82,1.5-1.614,2.248-2.417.9-.956.892-1.552-.045-2.43q-2.7-2.525-5.406-5.033c-.879-.813-1.466-.787-2.3.086-.719.755-1.42,1.528-2.14,2.282a1.789,1.789,0,0,1-2.622.383,32.674,32.674,0,0,0-10.012-3.739,1.613,1.613,0,0,1-1.535-1.776c-.053-1.126-.045-2.254-.085-3.381a1.369,1.369,0,0,0-1.571-1.526c-1.1,0-2.2.046-3.3.071-1.359.03-2.718.045-4.076.093-1.433.05-1.853.524-1.8,1.934.042,1.071.085,2.142.1,3.214a1.742,1.742,0,0,1-1.963,1.89q-9.881-.012-19.762,0C-543.045,352.017-543.158,352.044-543.542,352.092Z" transform="translate(556.172 -341.291)" fill="#fff"/>
        <path id="Trazado_184558" data-name="Trazado 184558" d="M-402.823,515.174A13.757,13.757,0,0,1-416.541,528.9a13.738,13.738,0,0,1-13.677-13.755,13.709,13.709,0,0,1,13.752-13.663A13.73,13.73,0,0,1-402.823,515.174Zm-23.978.077a10.265,10.265,0,0,0,10.5,10.216A10.317,10.317,0,0,0-406.23,514.98,10.29,10.29,0,0,0-416.7,504.908,10.249,10.249,0,0,0-426.8,515.25Z" transform="translate(457 -473.633)" fill="#fff"/>
      </g>
    </g>
  </g>
</svg>
