<svg xmlns="http://www.w3.org/2000/svg" xmlns:xlink="http://www.w3.org/1999/xlink" width="143" height="143" viewBox="0 0 143 143">
  <defs>
    <linearGradient id="linear-gradient" x1="0.5" x2="0.5" y2="1" gradientUnits="objectBoundingBox">
      <stop offset="0" stop-color="#4090de"/>
      <stop offset="1" stop-color="#3c6d9d"/>
    </linearGradient>
  </defs>
  <g id="Grupo_143226" data-name="Grupo 143226" transform="translate(-651 -1275)">
    <path id="Trazado_113533" data-name="Trazado 113533" d="M71.5,0A71.5,71.5,0,1,1,0,71.5,71.5,71.5,0,0,1,71.5,0Z" transform="translate(651 1275)" fill="url(#linear-gradient)"/>
    <g id="_6UxV7D" data-name="6UxV7D" transform="translate(2272.281 1187.708)">
      <g id="Grupo_143238" data-name="Grupo 143238" transform="translate(-1585.281 126.756)">
        <path id="Trazado_184568" data-name="Trazado 184568" d="M-1557.9,141.632h-13.751a13.229,13.229,0,0,1-7.836-2.415,13.205,13.205,0,0,1-5.7-9.462,12.65,12.65,0,0,1-.1-1.562,1.353,1.353,0,0,1,1.429-1.425q4.076-.006,8.152,0c1.117,0,2.234.051,3.351.061.416,0,.831-.061,1.247-.061q13.619-.006,27.238,0,14.794,0,29.588-.01a1.541,1.541,0,0,1,1.592,1.713,12.944,12.944,0,0,1-1.314,5.508,13.073,13.073,0,0,1-10.247,7.48,38.8,38.8,0,0,1-5.238.17c-3.383.022-6.767.008-10.15.008h-.471v.652c0,1.332.01,2.665-.007,4,0,.307.1.408.39.5,1.042.327,2.066.709,3.1,1.053a26.282,26.282,0,0,1,6.722,3.452,24.86,24.86,0,0,1,8.909,10.585,20.15,20.15,0,0,1,1.713,8.021c.018,7.224.005,14.448,0,21.672a1.432,1.432,0,0,1-1.629,1.633q-17.908,0-35.817-.005-10.168,0-20.336.009a1.4,1.4,0,0,1-1.238-.445,1.784,1.784,0,0,1-.367-.951c-.021-2.259.013-4.519.011-6.778,0-3.173-.022-6.346-.029-9.519,0-1.946-.023-3.893.007-5.839a20.558,20.558,0,0,1,3.152-10.6,26.9,26.9,0,0,1,12.5-10.587c1.569-.69,3.235-1.159,4.852-1.743.124-.045.3-.2.3-.3.018-1.541.012-3.083.009-4.624A.961.961,0,0,0-1557.9,141.632Zm-18.022,48.769h53.889c0-.239,0-.448,0-.656q0-9.347,0-18.695a20.96,20.96,0,0,0-.481-5.013,20.57,20.57,0,0,0-7.027-10.992,27.38,27.38,0,0,0-10.217-5.4,10.237,10.237,0,0,0-2.625-.561c-4.389-.057-8.779-.028-13.168-.023a2.778,2.778,0,0,0-.773.091c-1.412.416-2.848.772-4.22,1.3a25.492,25.492,0,0,0-10.847,7.591,18.868,18.868,0,0,0-4.539,12.455c.028,4.4.006,8.8.006,13.2V190.4Zm60.416-60.876h-66.93c.039.263.06.482.1.695a10.725,10.725,0,0,0,10.605,8.638c5.237,0,10.475-.01,15.712-.009q14.693,0,29.387.019a11.075,11.075,0,0,0,5.641-1.336,10.63,10.63,0,0,0,5.325-7.143C-1515.6,130.121-1515.564,129.847-1515.508,129.526Zm-39.568,16.73h12.194v-4.591h-12.194Z" transform="translate(1585.281 -126.756)" fill="#fff"/>
        <path id="Trazado_184569" data-name="Trazado 184569" d="M-1309.528,488.48a15.478,15.478,0,0,1,15.513-15.47,15.474,15.474,0,0,1,15.431,15.526,15.476,15.476,0,0,1-15.4,15.418A15.476,15.476,0,0,1-1309.528,488.48Zm23.439-9.9a12.717,12.717,0,0,0-6.616-2.739c0,.476,0,.876,0,1.276,0,.546.046,1.1-.008,1.638a1.3,1.3,0,0,1-1.3,1.133,1.47,1.47,0,0,1-1.435-1.746c.026-.4.061-.8.057-1.2,0-.358-.056-.715-.089-1.1a12.751,12.751,0,0,0-6.585,2.774c.7.666,1.371,1.265,1.99,1.916a1.33,1.33,0,0,1-.05,1.874,1.383,1.383,0,0,1-1.883.061c-.227-.2-.437-.413-.644-.63-.42-.44-.832-.887-1.274-1.359a12.752,12.752,0,0,0-2.767,6.617h.505c.732,0,1.463-.01,2.195,0a1.288,1.288,0,0,1,1.215.785,1.346,1.346,0,0,1-.154,1.443,1.36,1.36,0,0,1-1.166.524c-.846,0-1.692,0-2.593,0a12.634,12.634,0,0,0,2.72,6.568c.084-.08.151-.141.215-.2.555-.554,1.1-1.117,1.666-1.658a1.333,1.333,0,0,1,1.519-.3,1.3,1.3,0,0,1,.841,1.177,1.518,1.518,0,0,1-.555,1.24c-.579.558-1.145,1.129-1.719,1.7a12.119,12.119,0,0,0,6.56,2.708c0-.822-.01-1.642.006-2.463a2.1,2.1,0,0,1,.138-.759,1.35,1.35,0,0,1,1.4-.788,1.311,1.311,0,0,1,1.186,1.172c.056.649.033,1.3.042,1.956,0,.3,0,.591,0,.922a12.682,12.682,0,0,0,6.562-2.737c-.63-.627-1.223-1.216-1.814-1.806a1.372,1.372,0,0,1-.437-1.349,1.373,1.373,0,0,1,2.308-.688c.637.613,1.237,1.265,1.877,1.923a12.752,12.752,0,0,0,2.751-6.609h-.483c-.732,0-1.463,0-2.195,0a1.285,1.285,0,0,1-1.244-.794,1.369,1.369,0,0,1,1.263-1.956c.872-.019,1.745,0,2.658,0a12.621,12.621,0,0,0-2.744-6.581c-.625.635-1.2,1.244-1.8,1.816a1.779,1.779,0,0,1-.761.436,1.3,1.3,0,0,1-1.488-.673,1.338,1.338,0,0,1,.247-1.653C-1287.365,479.831-1286.745,479.233-1286.089,478.584Z" transform="translate(1331.144 -445.868)" fill="#fff"/>
        <path id="Trazado_184570" data-name="Trazado 184570" d="M-1123.468,561.561a4.307,4.307,0,0,1-.193.626q-1.717,3.58-3.451,7.152a1.379,1.379,0,0,1-2.325.35,1.37,1.37,0,0,1-.151-1.576q1.5-3.1,2.992-6.2c.164-.341.321-.685.5-1.02a1.361,1.361,0,0,1,1.556-.69A1.433,1.433,0,0,1-1123.468,561.561Z" transform="translate(1165.473 -526.183)" fill="#fff"/>
      </g>
    </g>
  </g>
</svg>
