<svg xmlns="http://www.w3.org/2000/svg" xmlns:xlink="http://www.w3.org/1999/xlink" width="143" height="143" viewBox="0 0 143 143">
  <defs>
    <linearGradient id="linear-gradient" x1="0.5" x2="0.5" y2="1" gradientUnits="objectBoundingBox">
      <stop offset="0" stop-color="#4090de"/>
      <stop offset="1" stop-color="#3c6d9d"/>
    </linearGradient>
  </defs>
  <g id="Grupo_143217" data-name="Grupo 143217" transform="translate(-651 -1275)">
    <path id="Trazado_113533" data-name="Trazado 113533" d="M71.5,0A71.5,71.5,0,1,1,0,71.5,71.5,71.5,0,0,1,71.5,0Z" transform="translate(651 1275)" fill="url(#linear-gradient)"/>
    <g id="vM3siJ.tif" transform="translate(1000.908 1046.47)">
      <g id="Grupo_143234" data-name="Grupo 143234" transform="translate(-314.908 264.816)">
        <path id="Trazado_184547" data-name="Trazado 184547" d="M-314.908,299.481c.189-1.376.346-2.757.573-4.126a35.648,35.648,0,0,1,4.025-11.415,36.728,36.728,0,0,1,11.473-12.654,35.807,35.807,0,0,1,13.574-5.712,36.313,36.313,0,0,1,27.2,5.067q.244.153.49.3c.04.024.086.04.2.091l1.787-2.563a3.23,3.23,0,0,1,.5-.7c.313-.254.709-.608,1.039-.579.268.024.618.512.717.856.929,3.226,1.822,6.463,2.7,9.7a1.66,1.66,0,0,1-1.526,2.208c-2.774.272-5.553.5-8.329.746a11.492,11.492,0,0,1-1.65.126c-.4-.023-1.016-.134-1.116-.379a1.611,1.611,0,0,1,.251-1.233c.672-1.08,1.428-2.108,2.249-3.3-1.519-.811-2.973-1.682-4.5-2.387a29.7,29.7,0,0,0-13.006-2.725,30.406,30.406,0,0,0-18.071,6.039,30.477,30.477,0,0,0-11.558,16.929,29.569,29.569,0,0,0-.716,12.142,30.4,30.4,0,0,0,15.39,22.809,30.314,30.314,0,0,0,9.69,3.539,3,3,0,0,1,2.5,2.547,2.832,2.832,0,0,1-1.566,2.985,3.854,3.854,0,0,1-2.083.3,36.307,36.307,0,0,1-17.821-8.719,35.951,35.951,0,0,1-11.279-18.628c-.488-1.971-.675-4.016-1-6.027-.034-.21-.091-.415-.137-.623Z" transform="translate(314.908 -264.816)" fill="#fff"/>
        <path id="Trazado_184548" data-name="Trazado 184548" d="M-88.743,368.563c0-3.8-.006-7.6,0-11.4a2.42,2.42,0,0,1,1.972-2.691,2.359,2.359,0,0,1,2.825,2.318c.02,2.621.007,5.243.007,7.865,0,4.161.012,8.322-.014,12.482a.989.989,0,0,0,.64,1.033q9.191,4.723,18.362,9.485c1.345.7,1.868,1.7,1.538,2.9a2.383,2.383,0,0,1-3.167,1.639,6.668,6.668,0,0,1-.785-.356q-10.363-5.356-20.732-10.7a1.047,1.047,0,0,1-.661-1.1C-88.732,376.212-88.744,372.388-88.743,368.563Z" transform="translate(121.464 -341.472)" fill="#fff"/>
        <path id="Trazado_184549" data-name="Trazado 184549" d="M138.219,415.735a3.062,3.062,0,0,1,1.952-3.028,2.694,2.694,0,0,1,3.229.891,12.909,12.909,0,0,1,1.4,3.791,2.686,2.686,0,0,1-1.936,2.872,2.883,2.883,0,0,1-3.294-.976A9.4,9.4,0,0,1,138.219,415.735Z" transform="translate(-72.685 -391.159)" fill="#fff"/>
        <path id="Trazado_184550" data-name="Trazado 184550" d="M146.149,573.085a9.172,9.172,0,0,1-1.283,3.5,2.951,2.951,0,0,1-5.235-2.425,18,18,0,0,1,.89-2.579,2.889,2.889,0,0,1,3.339-1.624A3.007,3.007,0,0,1,146.149,573.085Z" transform="translate(-73.811 -525.763)" fill="#fff"/>
        <path id="Trazado_184551" data-name="Trazado 184551" d="M102.041,648.469a3.05,3.05,0,0,1-2.859-1.551,2.751,2.751,0,0,1,.094-3,17.726,17.726,0,0,1,1.7-2.139,2.9,2.9,0,0,1,3.694-.41,2.748,2.748,0,0,1,1.119,3.573,14.079,14.079,0,0,1-2.354,2.959A3.379,3.379,0,0,1,102.041,648.469Z" transform="translate(-38.951 -586.496)" fill="#fff"/>
        <path id="Trazado_184552" data-name="Trazado 184552" d="M154.819,494.708c0-.432-.029-.866.005-1.3a2.944,2.944,0,0,1,2.933-2.786,2.993,2.993,0,0,1,2.984,2.832,22.91,22.91,0,0,1,0,2.449,2.956,2.956,0,0,1-5.9.024c-.029-.407-.038-.816-.057-1.223Z" transform="translate(-86.86 -457.968)" fill="#fff"/>
        <path id="Trazado_184553" data-name="Trazado 184553" d="M-32.841,727.883a3.082,3.082,0,0,1,3.261,2.336,2.923,2.923,0,0,1-1.9,3.4,14.328,14.328,0,0,1-2.732.608,2.963,2.963,0,0,1-3.249-2.428,2.965,2.965,0,0,1,2.157-3.373C-34.379,728.172-33.433,728.011-32.841,727.883Z" transform="translate(77.627 -660.911)" fill="#fff"/>
        <path id="Trazado_184554" data-name="Trazado 184554" d="M40.862,702.54a3.1,3.1,0,0,1-3.195-1.877,2.818,2.818,0,0,1,.819-3.265,15.4,15.4,0,0,1,2.622-1.626,2.842,2.842,0,0,1,3.333.789,2.8,2.8,0,0,1,.335,3.406A6.934,6.934,0,0,1,40.862,702.54Z" transform="translate(13.501 -633.228)" fill="#fff"/>
      </g>
    </g>
  </g>
</svg>
