<svg xmlns="http://www.w3.org/2000/svg" xmlns:xlink="http://www.w3.org/1999/xlink" width="143" height="143" viewBox="0 0 143 143">
  <defs>
    <linearGradient id="linear-gradient" x1="0.5" x2="0.5" y2="1" gradientUnits="objectBoundingBox">
      <stop offset="0" stop-color="#4090de"/>
      <stop offset="1" stop-color="#3c6d9d"/>
    </linearGradient>
  </defs>
  <g id="Grupo_143222" data-name="Grupo 143222" transform="translate(-651 -1275)">
    <path id="Trazado_113533" data-name="Trazado 113533" d="M71.5,0A71.5,71.5,0,1,1,0,71.5,71.5,71.5,0,0,1,71.5,0Z" transform="translate(651 1275)" fill="url(#linear-gradient)"/>
    <g id="_9ACm8Z.tif" data-name="9ACm8Z.tif" transform="translate(1863.652 933.851)">
      <g id="Grupo_143237" data-name="Grupo 143237" transform="translate(-1178.652 367.247)">
        <path id="Trazado_184561" data-name="Trazado 184561" d="M-1178.652,557.343a31,31,0,0,1,1.06-3.818,14.361,14.361,0,0,1,10.458-8.888c.616-.146.8-.358.8-.986-.027-4.96-.015-9.921-.015-14.881v-.984h24.467v16.407h8.391v-16.4h24.508v.921c0,4.934.017,9.868-.019,14.8-.005.715.179.977.894,1.16,6.142,1.575,9.928,5.523,11.189,11.7a14.535,14.535,0,0,1-8.986,16.177c-.676.261-.941.563-.892,1.3.075,1.136.02,2.281.02,3.485h4.65v4.658h-22.091v-4.656h4.611v-3.623h-36.1v3.679h4.594v4.6h-22.091v-4.656h4.65c0-1.283-.03-2.505.014-3.724a.847.847,0,0,0-.664-.964,14.392,14.392,0,0,1-8.532-8.656,34.9,34.9,0,0,1-.911-3.449Zm40.921,11.7q12.924,0,25.849-.007a15.69,15.69,0,0,0,2.226-.155,10.093,10.093,0,0,0,8.265-11.525,10.086,10.086,0,0,0-10.25-8.505q-26.009-.007-52.017,0a14.022,14.022,0,0,0-1.908.146,10.08,10.08,0,0,0-8.373,11.581,10.052,10.052,0,0,0,10.2,8.458Q-1150.735,569.055-1137.731,569.044ZM-1146.5,532.4h-15.245V544h15.245Zm17.682-.026v11.614h15.225v-11.6h-5.365v7.6h-4.61v-7.617Zm-35.089,41.306v3.641h3.451v-3.641Zm48.973,3.618h3.481v-3.6h-3.481Z" transform="translate(1178.652 -502.036)" fill="#fff"/>
        <path id="Trazado_184562" data-name="Trazado 184562" d="M-1086.4,383.193h6.731v4.534h-24.708V383.2h5.526v-15.95h12.451Zm-7.778-11.355v10.125H-1091V371.838Z" transform="translate(1116.294 -367.247)" fill="#fff"/>
        <path id="Trazado_184563" data-name="Trazado 184563" d="M-1113.078,683.927a7.254,7.254,0,0,1-7.3,7.241,7.327,7.327,0,0,1-7.271-7.3,7.386,7.386,0,0,1,7.287-7.292A7.332,7.332,0,0,1-1113.078,683.927Zm-9.962-.124a2.705,2.705,0,0,0,2.677,2.793,2.748,2.748,0,0,0,2.729-2.684,2.766,2.766,0,0,0-2.659-2.76A2.729,2.729,0,0,0-1123.04,683.8Z" transform="translate(1135.83 -626.963)" fill="#fff"/>
        <path id="Trazado_184564" data-name="Trazado 184564" d="M-809.495,683.918a7.316,7.316,0,0,1,7.225-7.324,7.337,7.337,0,0,1,7.332,7.31,7.2,7.2,0,0,1-7.279,7.263A7.2,7.2,0,0,1-809.495,683.918Zm9.962.018a2.72,2.72,0,0,0-2.706-2.773,2.762,2.762,0,0,0-2.7,2.72,2.745,2.745,0,0,0,2.688,2.724A2.7,2.7,0,0,0-799.533,683.937Z" transform="translate(868.706 -626.976)" fill="#fff"/>
        <path id="Trazado_184565" data-name="Trazado 184565" d="M-942.413,712.607v-4.484h6.171v4.484Z" transform="translate(980.305 -653.448)" fill="#fff"/>
        <path id="Trazado_184566" data-name="Trazado 184566" d="M-1005.553,712.684h-6.129v-4.458h6.129Z" transform="translate(1038.463 -653.535)" fill="#fff"/>
        <path id="Trazado_184567" data-name="Trazado 184567" d="M-866.793,712.767h-6.133v-4.455h6.133Z" transform="translate(921.963 -653.607)" fill="#fff"/>
      </g>
    </g>
  </g>
</svg>
