<svg xmlns="http://www.w3.org/2000/svg" xmlns:xlink="http://www.w3.org/1999/xlink" width="1033.845" height="367.553" viewBox="0 0 1033.845 367.553">
  <defs>
    <linearGradient id="linear-gradient" x1="0.5" x2="0.5" y2="1" gradientUnits="objectBoundingBox">
      <stop offset="0" stop-color="#4090de"/>
      <stop offset="1" stop-color="#3c6d9d"/>
    </linearGradient>
    <linearGradient id="linear-gradient-2" x1="0.5" x2="0.5" y2="1" gradientUnits="objectBoundingBox">
      <stop offset="0" stop-color="#5f9025"/>
      <stop offset="1" stop-color="#78b62e"/>
    </linearGradient>
    <linearGradient id="linear-gradient-3" x1="0.5" x2="0.5" y2="1" gradientUnits="objectBoundingBox">
      <stop offset="0" stop-color="#f5f5f5"/>
      <stop offset="0.25" stop-color="#f5f5f5"/>
      <stop offset="1" stop-color="#afafaf"/>
    </linearGradient>
  </defs>
  <g id="Grupo_144563" data-name="Grupo 144563" transform="translate(-255.251 -14434.471)">
    <g id="Grupo_143296" data-name="Grupo 143296" transform="translate(255.251 14602.281)">
      <path id="Unión_53" data-name="Unión 53" d="M0,0H108.59V13.557H0Z" transform="translate(13.557) rotate(90)" fill="#bec1c7"/>
      <path id="Unión_56" data-name="Unión 56" d="M0,0H36.758V13.557H0Z" transform="translate(38.001 108.59) rotate(180)" fill="#bec1c7"/>
      <path id="Unión_55" data-name="Unión 55" d="M0,0H36.758V13.557H0Z" transform="translate(36.758 13.557) rotate(180)" fill="#bec1c7"/>
    </g>
    <g id="Grupo_143297" data-name="Grupo 143297" transform="translate(511.645 14602.281)">
      <path id="Unión_53-2" data-name="Unión 53" d="M0,0H108.59V13.557H0Z" transform="translate(13.557) rotate(90)" fill="#bec1c7"/>
      <path id="Unión_56-2" data-name="Unión 56" d="M0,0H36.758V13.557H0Z" transform="translate(38.001 108.59) rotate(180)" fill="#bec1c7"/>
      <path id="Unión_55-2" data-name="Unión 55" d="M0,0H36.758V13.557H0Z" transform="translate(36.758 13.557) rotate(180)" fill="#bec1c7"/>
    </g>
    <g id="Grupo_143298" data-name="Grupo 143298" transform="translate(812.347 14602.281)">
      <path id="Unión_53-3" data-name="Unión 53" d="M0,0H108.59V13.557H0Z" transform="translate(13.557) rotate(90)" fill="#bec1c7"/>
      <path id="Unión_56-3" data-name="Unión 56" d="M0,0H36.758V13.557H0Z" transform="translate(38.002 108.59) rotate(180)" fill="#bec1c7"/>
      <path id="Unión_55-3" data-name="Unión 55" d="M0,0H36.758V13.557H0Z" transform="translate(36.758 13.557) rotate(180)" fill="#bec1c7"/>
    </g>
    <g id="Grupo_143299" data-name="Grupo 143299" transform="translate(1083.12 14602.281)">
      <path id="Unión_53-4" data-name="Unión 53" d="M0,0H108.874V13.557H0Z" transform="translate(13.557) rotate(90)" fill="#bec1c7"/>
      <path id="Unión_56-4" data-name="Unión 56" d="M0,0H36.758V13.557H0Z" transform="translate(38.002 108.59) rotate(180)" fill="#bec1c7"/>
      <path id="Unión_55-4" data-name="Unión 55" d="M0,0H36.758V13.557H0Z" transform="translate(36.758 13.557) rotate(180)" fill="#bec1c7"/>
    </g>
    <g id="Grupo_143300" data-name="Grupo 143300" transform="translate(628.564 14434.471)">
      <rect id="Rectángulo_37320" data-name="Rectángulo 37320" width="337.522" height="72.593" rx="10" transform="translate(1.396 0)" fill="url(#linear-gradient)"/>
      <g id="Rectángulo_37321" data-name="Rectángulo 37321" transform="translate(0 0)" fill="#fff" stroke="#3c6d9d" stroke-width="1">
        <rect width="68.405" height="72.593" rx="10" stroke="none"/>
        <rect x="0.5" y="0.5" width="67.405" height="71.593" rx="9.5" fill="none"/>
      </g>
      <path id="Trazado_186717" data-name="Trazado 186717" d="M12.109-4.512A5.231,5.231,0,0,1,10.444-1.03,5.457,5.457,0,0,1,6.719.2,5.01,5.01,0,0,1,2.681-1.611,7.268,7.268,0,0,1,1.162-6.445V-7.812A8.1,8.1,0,0,1,1.87-11.3a5.288,5.288,0,0,1,2.007-2.31,5.588,5.588,0,0,1,3.008-.806,5.138,5.138,0,0,1,3.633,1.265,5.294,5.294,0,0,1,1.592,3.5H10.225a4.085,4.085,0,0,0-1.06-2.468,3.206,3.206,0,0,0-2.28-.764,3.355,3.355,0,0,0-2.817,1.329A6.1,6.1,0,0,0,3.047-7.769v1.378a6.273,6.273,0,0,0,.967,3.685A3.124,3.124,0,0,0,6.719-1.338a3.608,3.608,0,0,0,2.4-.708,3.929,3.929,0,0,0,1.108-2.466Zm1.8-.869a6.241,6.241,0,0,1,.61-2.793,4.553,4.553,0,0,1,1.7-1.914,4.626,4.626,0,0,1,2.485-.674,4.456,4.456,0,0,1,3.491,1.494,5.748,5.748,0,0,1,1.333,3.975v.127A6.3,6.3,0,0,1,22.935-2.4,4.486,4.486,0,0,1,21.245-.488,4.679,4.679,0,0,1,18.721.2,4.445,4.445,0,0,1,15.239-1.3a5.719,5.719,0,0,1-1.333-3.955Zm1.816.215a4.52,4.52,0,0,0,.815,2.822,2.61,2.61,0,0,0,2.183,1.064,2.594,2.594,0,0,0,2.188-1.079,4.943,4.943,0,0,0,.811-3.022A4.513,4.513,0,0,0,20.894-8.2,2.623,2.623,0,0,0,18.7-9.277a2.594,2.594,0,0,0-2.158,1.064A4.906,4.906,0,0,0,15.723-5.166ZM31.943-2.8a1.33,1.33,0,0,0-.552-1.138,5.311,5.311,0,0,0-1.924-.7,9.1,9.1,0,0,1-2.178-.7A3.1,3.1,0,0,1,26.1-6.318a2.336,2.336,0,0,1-.386-1.348,2.741,2.741,0,0,1,1.1-2.2,4.291,4.291,0,0,1,2.808-.9,4.415,4.415,0,0,1,2.915.928,2.947,2.947,0,0,1,1.118,2.373H31.836a1.631,1.631,0,0,0-.63-1.279,2.36,2.36,0,0,0-1.587-.537,2.47,2.47,0,0,0-1.543.43,1.353,1.353,0,0,0-.557,1.123,1.1,1.1,0,0,0,.518.986,6.368,6.368,0,0,0,1.87.635,9.744,9.744,0,0,1,2.192.723A3.2,3.2,0,0,1,33.345-4.37a2.485,2.485,0,0,1,.405,1.44A2.7,2.7,0,0,1,32.617-.659,4.752,4.752,0,0,1,29.678.2a5.321,5.321,0,0,1-2.246-.449A3.653,3.653,0,0,1,25.9-1.509a3.025,3.025,0,0,1-.552-1.743h1.807a1.87,1.87,0,0,0,.728,1.44,2.822,2.822,0,0,0,1.792.532,2.913,2.913,0,0,0,1.646-.415A1.275,1.275,0,0,0,31.943-2.8Zm6.611-10.322v2.559h1.973v1.4H38.555v6.561a1.467,1.467,0,0,0,.264.953,1.11,1.11,0,0,0,.9.318,4.374,4.374,0,0,0,.859-.117V0A5.268,5.268,0,0,1,39.189.2a2.25,2.25,0,0,1-1.826-.732,3.147,3.147,0,0,1-.615-2.08V-9.17H34.824v-1.4h1.924v-2.559Zm3.408,7.744a6.241,6.241,0,0,1,.61-2.793,4.553,4.553,0,0,1,1.7-1.914,4.626,4.626,0,0,1,2.485-.674,4.456,4.456,0,0,1,3.491,1.494,5.748,5.748,0,0,1,1.333,3.975v.127A6.3,6.3,0,0,1,50.991-2.4,4.486,4.486,0,0,1,49.3-.488,4.679,4.679,0,0,1,46.777.2,4.445,4.445,0,0,1,43.3-1.3a5.719,5.719,0,0,1-1.333-3.955Zm1.816.215a4.52,4.52,0,0,0,.815,2.822,2.61,2.61,0,0,0,2.183,1.064,2.594,2.594,0,0,0,2.188-1.079,4.943,4.943,0,0,0,.811-3.022A4.513,4.513,0,0,0,48.95-8.2a2.623,2.623,0,0,0-2.192-1.079A2.594,2.594,0,0,0,44.6-8.213,4.906,4.906,0,0,0,43.779-5.166Zm14.58-.205a6.19,6.19,0,0,1,1.152-3.911,3.644,3.644,0,0,1,3.018-1.479,3.665,3.665,0,0,1,2.939,1.27V-15h1.807V0h-1.66l-.088-1.133A3.679,3.679,0,0,1,62.51.2a3.609,3.609,0,0,1-2.993-1.5,6.26,6.26,0,0,1-1.157-3.926Zm1.807.205a4.687,4.687,0,0,0,.742,2.813,2.4,2.4,0,0,0,2.051,1.016,2.636,2.636,0,0,0,2.51-1.543V-7.734a2.656,2.656,0,0,0-2.49-1.494A2.411,2.411,0,0,0,60.908-8.2,5.16,5.16,0,0,0,60.166-5.166ZM74.463.2a4.617,4.617,0,0,1-3.5-1.411A5.237,5.237,0,0,1,69.619-4.99v-.332a6.341,6.341,0,0,1,.6-2.808,4.685,4.685,0,0,1,1.68-1.934,4.223,4.223,0,0,1,2.339-.7,3.957,3.957,0,0,1,3.2,1.357,5.877,5.877,0,0,1,1.143,3.887v.752H71.426a3.756,3.756,0,0,0,.913,2.524,2.87,2.87,0,0,0,2.222.962,3.147,3.147,0,0,0,1.621-.391,4.073,4.073,0,0,0,1.162-1.035l1.1.859A4.437,4.437,0,0,1,74.463.2Zm-.225-9.473a2.41,2.41,0,0,0-1.836.8,3.869,3.869,0,0,0-.918,2.231h5.293v-.137a3.441,3.441,0,0,0-.742-2.134A2.269,2.269,0,0,0,74.238-9.277ZM87.588,0H85.781V-15h1.807ZM97,0a3.8,3.8,0,0,1-.254-1.113A4.031,4.031,0,0,1,93.74.2a3.73,3.73,0,0,1-2.563-.884,2.859,2.859,0,0,1-1-2.241,2.987,2.987,0,0,1,1.255-2.563,5.916,5.916,0,0,1,3.53-.913h1.758v-.83a2.029,2.029,0,0,0-.566-1.509,2.276,2.276,0,0,0-1.67-.562,2.634,2.634,0,0,0-1.621.488,1.439,1.439,0,0,0-.654,1.182H90.391a2.493,2.493,0,0,1,.562-1.528,3.832,3.832,0,0,1,1.523-1.167,5.125,5.125,0,0,1,2.114-.43,4.177,4.177,0,0,1,2.861.913,3.294,3.294,0,0,1,1.074,2.515v4.863A5.946,5.946,0,0,0,98.9-.156V0ZM94-1.377a3.175,3.175,0,0,0,1.611-.439,2.658,2.658,0,0,0,1.1-1.143V-5.127H95.3q-3.32,0-3.32,1.943a1.645,1.645,0,0,0,.566,1.328A2.177,2.177,0,0,0,94-1.377Zm14-9.189.049,1.172a3.9,3.9,0,0,1,3.135-1.367,3.021,3.021,0,0,1,3.018,1.7,4,4,0,0,1,1.372-1.23,4.052,4.052,0,0,1,2-.469q3.477,0,3.535,3.682V0h-1.807V-6.973a2.426,2.426,0,0,0-.518-1.694,2.279,2.279,0,0,0-1.738-.562,2.4,2.4,0,0,0-1.67.6,2.436,2.436,0,0,0-.771,1.616V0h-1.816V-6.924a2.016,2.016,0,0,0-2.256-2.3,2.417,2.417,0,0,0-2.432,1.514V0H106.3V-10.566ZM130.361,0a3.8,3.8,0,0,1-.254-1.113A4.031,4.031,0,0,1,127.1.2a3.73,3.73,0,0,1-2.563-.884,2.859,2.859,0,0,1-1-2.241,2.987,2.987,0,0,1,1.255-2.563,5.916,5.916,0,0,1,3.53-.913h1.758v-.83a2.029,2.029,0,0,0-.566-1.509,2.276,2.276,0,0,0-1.67-.562,2.634,2.634,0,0,0-1.621.488,1.439,1.439,0,0,0-.654,1.182H123.75a2.493,2.493,0,0,1,.562-1.528,3.832,3.832,0,0,1,1.523-1.167,5.125,5.125,0,0,1,2.114-.43,4.177,4.177,0,0,1,2.861.913,3.294,3.294,0,0,1,1.074,2.515v4.863a5.946,5.946,0,0,0,.371,2.314V0Zm-3-1.377a3.175,3.175,0,0,0,1.611-.439,2.658,2.658,0,0,0,1.1-1.143V-5.127h-1.416q-3.32,0-3.32,1.943a1.645,1.645,0,0,0,.566,1.328A2.177,2.177,0,0,0,127.363-1.377Zm9.8-11.748v2.559h1.973v1.4h-1.973v6.561a1.467,1.467,0,0,0,.264.953,1.11,1.11,0,0,0,.9.318,4.374,4.374,0,0,0,.859-.117V0A5.268,5.268,0,0,1,137.8.2a2.25,2.25,0,0,1-1.826-.732,3.147,3.147,0,0,1-.615-2.08V-9.17h-1.924v-1.4h1.924v-2.559ZM145.635.2a4.617,4.617,0,0,1-3.5-1.411,5.237,5.237,0,0,1-1.348-3.774v-.332a6.341,6.341,0,0,1,.6-2.808,4.685,4.685,0,0,1,1.68-1.934,4.223,4.223,0,0,1,2.339-.7,3.957,3.957,0,0,1,3.2,1.357,5.877,5.877,0,0,1,1.143,3.887v.752H142.6a3.756,3.756,0,0,0,.913,2.524,2.87,2.87,0,0,0,2.222.962,3.147,3.147,0,0,0,1.621-.391,4.073,4.073,0,0,0,1.162-1.035l1.1.859A4.437,4.437,0,0,1,145.635.2Zm-.225-9.473a2.41,2.41,0,0,0-1.836.8,3.868,3.868,0,0,0-.918,2.231h5.293v-.137a3.441,3.441,0,0,0-.742-2.134A2.269,2.269,0,0,0,145.41-9.277Zm11.543.332a5.414,5.414,0,0,0-.889-.068A2.381,2.381,0,0,0,153.652-7.5V0h-1.807V-10.566H153.6l.029,1.221a2.813,2.813,0,0,1,2.52-1.416,1.846,1.846,0,0,1,.8.137ZM160.576,0H158.77V-10.566h1.807Zm-1.953-13.369a1.078,1.078,0,0,1,.269-.742,1.008,1.008,0,0,1,.8-.3,1.024,1.024,0,0,1,.8.3,1.067,1.067,0,0,1,.273.742,1.032,1.032,0,0,1-.273.732,1.043,1.043,0,0,1-.8.293,1.026,1.026,0,0,1-.8-.293A1.043,1.043,0,0,1,158.623-13.369ZM169.99,0a3.8,3.8,0,0,1-.254-1.113A4.031,4.031,0,0,1,166.729.2a3.73,3.73,0,0,1-2.563-.884,2.859,2.859,0,0,1-1-2.241,2.987,2.987,0,0,1,1.255-2.563,5.916,5.916,0,0,1,3.53-.913h1.758v-.83a2.029,2.029,0,0,0-.566-1.509,2.276,2.276,0,0,0-1.67-.562,2.634,2.634,0,0,0-1.621.488,1.439,1.439,0,0,0-.654,1.182h-1.816a2.493,2.493,0,0,1,.562-1.528,3.832,3.832,0,0,1,1.523-1.167,5.125,5.125,0,0,1,2.114-.43,4.177,4.177,0,0,1,2.861.913,3.294,3.294,0,0,1,1.074,2.515v4.863a5.946,5.946,0,0,0,.371,2.314V0Zm-3-1.377a3.175,3.175,0,0,0,1.611-.439,2.658,2.658,0,0,0,1.1-1.143V-5.127h-1.416q-3.32,0-3.32,1.943a1.645,1.645,0,0,0,.566,1.328A2.177,2.177,0,0,0,166.992-1.377Zm21.23-3.789a6.327,6.327,0,0,1-1.1,3.887A3.537,3.537,0,0,1,184.131.2,3.875,3.875,0,0,1,181.1-1.025V4.063H179.3V-10.566h1.65l.088,1.172a3.722,3.722,0,0,1,3.066-1.367,3.6,3.6,0,0,1,3.013,1.436,6.4,6.4,0,0,1,1.108,3.994Zm-1.807-.205a4.669,4.669,0,0,0-.762-2.822,2.454,2.454,0,0,0-2.09-1.035A2.656,2.656,0,0,0,181.1-7.773v5.049a2.661,2.661,0,0,0,2.48,1.445,2.442,2.442,0,0,0,2.065-1.03A5.1,5.1,0,0,0,186.416-5.371Zm9.209-3.574a5.414,5.414,0,0,0-.889-.068A2.381,2.381,0,0,0,192.324-7.5V0h-1.807V-10.566h1.758l.029,1.221a2.813,2.813,0,0,1,2.52-1.416,1.846,1.846,0,0,1,.8.137ZM199.248,0h-1.807V-10.566h1.807Zm-1.953-13.369a1.078,1.078,0,0,1,.269-.742,1.008,1.008,0,0,1,.8-.3,1.024,1.024,0,0,1,.8.3,1.067,1.067,0,0,1,.273.742,1.032,1.032,0,0,1-.273.732,1.043,1.043,0,0,1-.8.293,1.026,1.026,0,0,1-.8-.293A1.043,1.043,0,0,1,197.295-13.369Zm6.543,2.8.049,1.172a3.9,3.9,0,0,1,3.135-1.367,3.021,3.021,0,0,1,3.018,1.7,4,4,0,0,1,1.372-1.23,4.052,4.052,0,0,1,2-.469q3.477,0,3.535,3.682V0h-1.807V-6.973a2.426,2.426,0,0,0-.518-1.694,2.279,2.279,0,0,0-1.738-.562,2.4,2.4,0,0,0-1.67.6,2.436,2.436,0,0,0-.771,1.616V0h-1.816V-6.924a2.016,2.016,0,0,0-2.256-2.3,2.417,2.417,0,0,0-2.432,1.514V0h-1.807V-10.566ZM226.191,0a3.8,3.8,0,0,1-.254-1.113A4.031,4.031,0,0,1,222.93.2a3.73,3.73,0,0,1-2.563-.884,2.859,2.859,0,0,1-1-2.241,2.987,2.987,0,0,1,1.255-2.563,5.916,5.916,0,0,1,3.53-.913h1.758v-.83a2.029,2.029,0,0,0-.566-1.509,2.276,2.276,0,0,0-1.67-.562,2.634,2.634,0,0,0-1.621.488,1.439,1.439,0,0,0-.654,1.182H219.58a2.493,2.493,0,0,1,.562-1.528,3.832,3.832,0,0,1,1.523-1.167,5.125,5.125,0,0,1,2.114-.43,4.177,4.177,0,0,1,2.861.913,3.294,3.294,0,0,1,1.074,2.515v4.863a5.946,5.946,0,0,0,.371,2.314V0Zm-3-1.377a3.175,3.175,0,0,0,1.611-.439,2.658,2.658,0,0,0,1.1-1.143V-5.127h-1.416q-3.32,0-3.32,1.943a1.645,1.645,0,0,0,.566,1.328A2.177,2.177,0,0,0,223.193-1.377Z" transform="translate(86.554 42.732)" fill="#fff"/>
      <g id="Grupo_89214" data-name="Grupo 89214" transform="translate(-47.382 -1981.479)">
        <path id="Trazado_122310" data-name="Trazado 122310" d="M84.628,2029.826q-1.094,1.1-2.189,2.2a1.872,1.872,0,0,1-2.926,0c-1.2-1.221-2.4-2.447-3.57-3.694-.3-.323-.468-.315-.767,0-1.171,1.25-2.391,2.453-3.554,3.71a6.39,6.39,0,0,1-3.648,2.072c-.229.041-.454.107-.681.16-.555.131-1.267.1-1.62.44-.336.325.216.94.235,1.465a3.906,3.906,0,0,1-.829,2.684c-.362.455-.729.537-1.163.088q-5.386-5.568-10.779-11.128a.658.658,0,0,1,.05-1.069,3.4,3.4,0,0,1,3.829-.574c.477.243.679.158.979-.239,2.706-3.579,5.441-7.137,8.154-10.71a6.638,6.638,0,0,1,4.787-2.713c1.727-.185,3.446-.447,5.171-.659a1.661,1.661,0,0,0,1.068-.536c1.774-1.858,3.572-3.693,5.36-5.537.295-.3.616-.682,1.043-.3.469.422.106.774-.216,1.106q-5.822,6.011-11.639,12.028a2.679,2.679,0,0,0-.051,3.628c.894.931.9.941,1.823-.031a3.133,3.133,0,0,1,2.1-1.2c.346-.019.443-.2.45-.5a2.147,2.147,0,0,0-.509-1.512.729.729,0,0,1,.049-1.147c.933-.939,1.848-1.9,2.766-2.848.205-.214.413-.405.74-.311s.39.36.453.655a7.9,7.9,0,0,0,6.4,6.6c.731.163.852.606.322,1.168-.907.964-1.845,1.9-2.753,2.862-.4.427-.738.417-1.2.044a1.866,1.866,0,0,0-2.558-.035.8.8,0,0,1-1.356-.143c-.272-.358-.456-.411-.814-.028-1.214,1.3-1.233,1.282.026,2.577.814.837,1.623,1.68,2.438,2.517.851.874.965.874,1.8.016l19.767-20.415c.938-.97,1.881-1.935,2.816-2.908.636-.662.646-.936.036-1.569q-4.784-4.958-9.578-9.907c-.566-.584-.838-.577-1.421.013-.438.443-.868.893-1.3,1.343-.292.306-.615.416-.94.083-.3-.311-.164-.613.1-.884.5-.522.993-1.062,1.516-1.565a1.817,1.817,0,0,1,2.7.031q5,5.129,9.963,10.292a1.957,1.957,0,0,1-.172,2.907q-3.191,3.3-6.391,6.6c-.16.165-.3.349-.451.524-1.765,1.646-3.377,3.44-5.04,5.185l-.675.706a6.883,6.883,0,0,0-1.64,1.854l-.017.015c-.109-.092-.18-.015-.25.058Zm-9.42-16.679c-1.542.205-3.084.4-4.625.617a4.793,4.793,0,0,0-3.227,1.85c-2.9,3.757-5.769,7.54-8.66,11.3-.215.28-.222.441.037.705q2.806,2.863,5.573,5.764a.732.732,0,0,0,.822.206c1.029-.262,2.067-.5,3.1-.738a4.414,4.414,0,0,0,2.193-1.264q3.171-3.27,6.332-6.549a1.652,1.652,0,0,0,.084-2.425,1.532,1.532,0,0,0-2.318.241c-1.071,1.094-2.13,2.2-3.2,3.3a1.033,1.033,0,0,1-1.27.276,1.086,1.086,0,0,1-.658-1.129c.005-.1.01-.208.021-.311q.3-3.02.608-6.04a2.267,2.267,0,0,1,1.155-1.843C72.883,2016.172,73.867,2014.5,75.207,2013.146Zm3.33,3.429c-.472.468-.919.964-1.422,1.4a.746.746,0,0,0-.19,1.113,2.9,2.9,0,0,1,.252,1.817c-.026.227-.093.437.156.618a2.826,2.826,0,0,1,1.159,2.491.768.768,0,0,0,1.157.672,2.255,2.255,0,0,1,2.023-.207c1.232.748,1.788-.065,2.45-.792a2.75,2.75,0,0,1,.327-.332c.453-.352.3-.482-.164-.651a8.946,8.946,0,0,1-5.449-5.486C78.755,2017.006,78.766,2016.747,78.537,2016.576Zm-13.8,20.076a2.292,2.292,0,0,0-.608-1.778q-3.476-3.621-6.984-7.212a2.227,2.227,0,0,0-2.233-.561c-.455.11-.637.247-.2.684.635.637,1.212,1.348,1.849,1.97,2.466,2.406,4.8,4.943,7.229,7.382.191.192.37.6.618.5.306-.126.3-.561.33-.893A.4.4,0,0,0,64.732,2036.651Zm6.087-13.487a7.494,7.494,0,0,0-.174,1.97C71.857,2024,71.857,2024,70.819,2023.165Z" transform="translate(0)" fill="#12263f"/>
        <path id="Trazado_122312" data-name="Trazado 122312" d="M137.613,2043.512a7.222,7.222,0,1,1,7.06-7.166A7.09,7.09,0,0,1,137.613,2043.512Zm5.891-7.215a5.852,5.852,0,1,0-5.823,6.064A5.951,5.951,0,0,0,143.5,2036.3Z" transform="translate(-50.364 -22.361)" fill="#12263f"/>
        <path id="Trazado_122313" data-name="Trazado 122313" d="M164.42,2016.7c0,.229-.159.372-.277.541a2.142,2.142,0,0,0-.005,2.8.773.773,0,0,1-.086,1.2c-1.1,1.1-2.171,2.233-3.254,3.352-.219.226-.435.473-.8.354s-.382-.441-.451-.75a7.921,7.921,0,0,0-6.327-6.5c-.8-.186-.928-.594-.37-1.182,1.091-1.148,2.2-2.274,3.3-3.421a.734.734,0,0,1,1.139-.12,1.932,1.932,0,0,0,2.743.006.69.69,0,0,1,1.076.051c1,1.051,2.019,2.092,3.03,3.135A.787.787,0,0,1,164.42,2016.7Zm-3.937,6.306c.7-.648,1.385-1.3,2.1-1.929a.708.708,0,0,0,.2-1.037,2.2,2.2,0,0,1-.207-2.025c.683-1.271-.031-1.955-.857-2.677a9.278,9.278,0,0,1-.863-.892.49.49,0,0,0-.719-.122,3.047,3.047,0,0,1-2.975-.007c-.226-.119-.387-.2-.6.035-.737.785-1.495,1.55-2.3,2.377A9.257,9.257,0,0,1,160.483,2023.006Z" transform="translate(-64.517 -11.788)" fill="#12263f"/>
        <path id="Trazado_122314" data-name="Trazado 122314" d="M149.706,2011.013a1.37,1.37,0,0,1-.191.347c-.533.565-1.076,1.121-1.622,1.674a.539.539,0,0,1-.826.052.545.545,0,0,1-.028-.831c.547-.588,1.111-1.159,1.68-1.726a.523.523,0,0,1,.7-.1A.608.608,0,0,1,149.706,2011.013Z" transform="translate(-60.858 -10.226)" fill="#12263f"/>
        <path id="Trazado_122315" data-name="Trazado 122315" d="M143.689,2097.742c.339-.09.677-.129.872.245s-.056.621-.289.869c-.419.446-.832.9-1.247,1.345-.328.231-.678.465-1.013.052s-.039-.708.242-1C142.738,2098.754,143.211,2098.247,143.689,2097.742Z" transform="translate(-57.624 -66.791)" fill="#12263f"/>
        <path id="Trazado_122316" data-name="Trazado 122316" d="M130.253,2020.03a.57.57,0,0,1-.482-.914,12.277,12.277,0,0,1,1.294-1.329.483.483,0,0,1,.644.021.5.5,0,0,1,.161.69,7.361,7.361,0,0,1-1.38,1.448A.616.616,0,0,1,130.253,2020.03Z" transform="translate(-49.711 -14.978)" fill="#12263f"/>
        <path id="Trazado_122317" data-name="Trazado 122317" d="M141.311,2009.258a2.742,2.742,0,0,1-1.349,1.369.547.547,0,0,1-.512-.281.532.532,0,0,1,.042-.647,13.005,13.005,0,0,1,.912-.934.494.494,0,0,1,.641-.027A.556.556,0,0,1,141.311,2009.258Z" transform="translate(-56.001 -9.124)" fill="#12263f"/>
        <path id="Trazado_122318" data-name="Trazado 122318" d="M121.452,2029.718a.541.541,0,0,1-.507-.81,4.751,4.751,0,0,1,1.011-1.062.545.545,0,0,1,.858.428C122.849,2028.666,121.858,2029.715,121.452,2029.718Z" transform="translate(-44.02 -21.497)" fill="#12263f"/>
        <path id="Trazado_122319" data-name="Trazado 122319" d="M155.894,2086.27a.392.392,0,0,1-.483-.248.522.522,0,0,1,.09-.574c.576-.565,1.14-1.142,1.7-1.718.245-.25.455-.05.688.026.366.12.195.5.147.573a5.4,5.4,0,0,1-1.89,1.937C156.088,2086.3,156,2086.27,155.894,2086.27Z" transform="translate(-66.366 -57.677)" fill="#12263f"/>
        <path id="Trazado_122320" data-name="Trazado 122320" d="M142.636,2043.875a2.269,2.269,0,0,1-2.224-2.986c.107-.358.333-.686-.056-1.045a.457.457,0,0,1,.079-.635c.2-.209.476-.306.692-.1.309.292.568.195.9.07a2.137,2.137,0,0,1,2.128.335c.315.237.539.543.274.925s-.583.288-.941.053a1.19,1.19,0,0,0-1.8.368,1.162,1.162,0,0,0,.13,1.563,1.064,1.064,0,0,0,1.546-.039,2.609,2.609,0,0,1,2.1-.813,2.264,2.264,0,0,1,1.881,2.983c-.106.361-.318.693.063,1.052a.45.45,0,0,1-.086.633c-.2.2-.469.306-.692.1-.3-.283-.549-.2-.891-.078a2.16,2.16,0,0,1-2.252-.419.581.581,0,0,1-.12-.887c.239-.283.521-.235.832-.047.782.471,1.383.377,1.826-.246a1.254,1.254,0,0,0-.078-1.637,1.091,1.091,0,0,0-1.55.034A2.647,2.647,0,0,1,142.636,2043.875Z" transform="translate(-56.582 -28.785)" fill="#12263f"/>
      </g>
    </g>
    <rect id="Rectángulo_42386" data-name="Rectángulo 42386" width="145.187" height="72.593" rx="10" transform="translate(281.429 14572.334)" fill="url(#linear-gradient-2)"/>
    <rect id="Rectángulo_42387" data-name="Rectángulo 42387" width="181.187" height="98.593" rx="10" transform="translate(281.429 14668.049)" fill="url(#linear-gradient-3)"/>
    <rect id="Rectángulo_42401" data-name="Rectángulo 42401" width="181.187" height="98.593" rx="10" transform="translate(543.398 14668.049)" fill="url(#linear-gradient-3)"/>
    <rect id="Rectángulo_42403" data-name="Rectángulo 42403" width="181.187" height="74.475" rx="10" transform="translate(1107.91 14668.049)" fill="url(#linear-gradient-3)"/>
    <rect id="Rectángulo_42402" data-name="Rectángulo 42402" width="181.187" height="133.975" rx="10" transform="translate(842.109 14668.049)" fill="url(#linear-gradient-3)"/>
    <rect id="Rectángulo_42398" data-name="Rectángulo 42398" width="177.742" height="72.593" rx="10" transform="translate(543.398 14572.334)" fill="url(#linear-gradient-2)"/>
    <rect id="Rectángulo_42399" data-name="Rectángulo 42399" width="156.888" height="72.593" rx="10" transform="translate(842.109 14572.334)" fill="url(#linear-gradient-2)"/>
    <rect id="Rectángulo_42400" data-name="Rectángulo 42400" width="175.151" height="72.593" rx="10" transform="translate(1107.91 14572.334)" fill="url(#linear-gradient-2)"/>
    <path id="Trazado_186718" data-name="Trazado 186718" d="M-28.262-4.512A5.231,5.231,0,0,1-29.927-1.03,5.457,5.457,0,0,1-33.652.2,5.01,5.01,0,0,1-37.69-1.611a7.268,7.268,0,0,1-1.519-4.834V-7.812A8.1,8.1,0,0,1-38.5-11.3a5.288,5.288,0,0,1,2.007-2.31,5.588,5.588,0,0,1,3.008-.806,5.138,5.138,0,0,1,3.633,1.265,5.294,5.294,0,0,1,1.592,3.5h-1.885a4.085,4.085,0,0,0-1.06-2.468,3.206,3.206,0,0,0-2.28-.764A3.355,3.355,0,0,0-36.3-11.552a6.1,6.1,0,0,0-1.021,3.782v1.378a6.273,6.273,0,0,0,.967,3.685,3.124,3.124,0,0,0,2.705,1.368,3.608,3.608,0,0,0,2.4-.708,3.929,3.929,0,0,0,1.108-2.466Zm1.8-.869a6.241,6.241,0,0,1,.61-2.793,4.553,4.553,0,0,1,1.7-1.914,4.626,4.626,0,0,1,2.485-.674,4.456,4.456,0,0,1,3.491,1.494,5.748,5.748,0,0,1,1.333,3.975v.127A6.3,6.3,0,0,1-17.437-2.4,4.486,4.486,0,0,1-19.126-.488,4.679,4.679,0,0,1-21.65.2,4.445,4.445,0,0,1-25.132-1.3a5.719,5.719,0,0,1-1.333-3.955Zm1.816.215a4.52,4.52,0,0,0,.815,2.822A2.61,2.61,0,0,0-21.65-1.279a2.594,2.594,0,0,0,2.188-1.079,4.943,4.943,0,0,0,.811-3.022A4.513,4.513,0,0,0-19.478-8.2,2.623,2.623,0,0,0-21.67-9.277a2.594,2.594,0,0,0-2.158,1.064A4.906,4.906,0,0,0-24.648-5.166Zm11.768-5.4.049,1.172A3.9,3.9,0,0,1-9.7-10.762a3.021,3.021,0,0,1,3.018,1.7,4,4,0,0,1,1.372-1.23,4.052,4.052,0,0,1,2-.469q3.477,0,3.535,3.682V0H-1.582V-6.973A2.426,2.426,0,0,0-2.1-8.667a2.279,2.279,0,0,0-1.738-.562,2.4,2.4,0,0,0-1.67.6,2.436,2.436,0,0,0-.771,1.616V0H-8.1V-6.924a2.016,2.016,0,0,0-2.256-2.3,2.417,2.417,0,0,0-2.432,1.514V0H-14.59V-10.566Zm24.756,5.4a6.327,6.327,0,0,1-1.1,3.887A3.537,3.537,0,0,1,7.783.2,3.875,3.875,0,0,1,4.756-1.025V4.063H2.949V-10.566H4.6l.088,1.172a3.722,3.722,0,0,1,3.066-1.367,3.6,3.6,0,0,1,3.013,1.436,6.4,6.4,0,0,1,1.108,3.994Zm-1.807-.205a4.669,4.669,0,0,0-.762-2.822,2.454,2.454,0,0,0-2.09-1.035A2.656,2.656,0,0,0,4.756-7.773v5.049a2.661,2.661,0,0,0,2.48,1.445A2.442,2.442,0,0,0,9.3-2.31,5.1,5.1,0,0,0,10.068-5.371Zm9.209-3.574a5.414,5.414,0,0,0-.889-.068A2.381,2.381,0,0,0,15.977-7.5V0H14.17V-10.566h1.758l.029,1.221a2.813,2.813,0,0,1,2.52-1.416,1.846,1.846,0,0,1,.8.137ZM27.07,0a3.8,3.8,0,0,1-.254-1.113A4.031,4.031,0,0,1,23.809.2a3.73,3.73,0,0,1-2.563-.884,2.859,2.859,0,0,1-1-2.241A2.987,2.987,0,0,1,21.5-5.493a5.916,5.916,0,0,1,3.53-.913h1.758v-.83a2.029,2.029,0,0,0-.566-1.509,2.276,2.276,0,0,0-1.67-.562,2.634,2.634,0,0,0-1.621.488,1.439,1.439,0,0,0-.654,1.182H20.459a2.493,2.493,0,0,1,.562-1.528,3.832,3.832,0,0,1,1.523-1.167,5.125,5.125,0,0,1,2.114-.43,4.177,4.177,0,0,1,2.861.913,3.294,3.294,0,0,1,1.074,2.515v4.863a5.946,5.946,0,0,0,.371,2.314V0Zm-3-1.377a3.175,3.175,0,0,0,1.611-.439,2.658,2.658,0,0,0,1.1-1.143V-5.127H25.371q-3.32,0-3.32,1.943a1.645,1.645,0,0,0,.566,1.328A2.177,2.177,0,0,0,24.072-1.377ZM37.578-2.8a1.33,1.33,0,0,0-.552-1.138,5.311,5.311,0,0,0-1.924-.7,9.1,9.1,0,0,1-2.178-.7,3.1,3.1,0,0,1-1.191-.977,2.336,2.336,0,0,1-.386-1.348,2.741,2.741,0,0,1,1.1-2.2,4.291,4.291,0,0,1,2.808-.9,4.415,4.415,0,0,1,2.915.928,2.947,2.947,0,0,1,1.118,2.373H37.471a1.631,1.631,0,0,0-.63-1.279,2.36,2.36,0,0,0-1.587-.537,2.47,2.47,0,0,0-1.543.43,1.353,1.353,0,0,0-.557,1.123,1.1,1.1,0,0,0,.518.986,6.368,6.368,0,0,0,1.87.635,9.744,9.744,0,0,1,2.192.723A3.2,3.2,0,0,1,38.979-4.37a2.485,2.485,0,0,1,.405,1.44A2.7,2.7,0,0,1,38.252-.659,4.752,4.752,0,0,1,35.313.2a5.321,5.321,0,0,1-2.246-.449,3.653,3.653,0,0,1-1.528-1.255,3.025,3.025,0,0,1-.552-1.743h1.807a1.87,1.87,0,0,0,.728,1.44,2.822,2.822,0,0,0,1.792.532,2.913,2.913,0,0,0,1.646-.415A1.275,1.275,0,0,0,37.578-2.8Z" transform="translate(352.493 14615.639)" fill="#fff"/>
    <path id="Trazado_186719" data-name="Trazado 186719" d="M3.349-5.288V0H1.568V-13.508H6.55a5.005,5.005,0,0,1,3.474,1.132,3.837,3.837,0,0,1,1.257,3A3.786,3.786,0,0,1,10.052-6.35,5.229,5.229,0,0,1,6.531-5.288Zm0-1.457h3.2a3.2,3.2,0,0,0,2.189-.674A2.464,2.464,0,0,0,9.5-9.365,2.545,2.545,0,0,0,8.739-11.3a3,3,0,0,0-2.087-.753h-3.3ZM18.137-8.5a5.143,5.143,0,0,0-.844-.065A2.262,2.262,0,0,0,15-7.125V0H13.285V-10.038h1.67l.028,1.16a2.672,2.672,0,0,1,2.394-1.345,1.753,1.753,0,0,1,.761.13ZM23.7.186a4.386,4.386,0,0,1-3.321-1.341A4.976,4.976,0,0,1,19.1-4.741v-.315a6.024,6.024,0,0,1,.571-2.667,4.451,4.451,0,0,1,1.6-1.837,4.012,4.012,0,0,1,2.222-.663,3.759,3.759,0,0,1,3.043,1.29,5.583,5.583,0,0,1,1.085,3.692v.714h-6.8a3.568,3.568,0,0,0,.867,2.4,2.727,2.727,0,0,0,2.111.914,2.989,2.989,0,0,0,1.54-.371,3.87,3.87,0,0,0,1.1-.983l1.048.816A4.215,4.215,0,0,1,23.7.186Zm-.213-9a2.289,2.289,0,0,0-1.744.756,3.675,3.675,0,0,0-.872,2.12H25.9v-.13A3.269,3.269,0,0,0,25.2-8.094,2.155,2.155,0,0,0,23.49-8.813Zm10.14,7.6a2.472,2.472,0,0,0,1.6-.557A1.958,1.958,0,0,0,36-3.164H37.62a3.112,3.112,0,0,1-.594,1.642A3.911,3.911,0,0,1,35.565-.278,4.216,4.216,0,0,1,33.63.186a4.135,4.135,0,0,1-3.261-1.368,5.45,5.45,0,0,1-1.211-3.743v-.288A6.043,6.043,0,0,1,29.7-7.821a4.1,4.1,0,0,1,1.545-1.772,4.388,4.388,0,0,1,2.38-.631,4.026,4.026,0,0,1,2.806,1.011A3.614,3.614,0,0,1,37.62-6.587H36a2.365,2.365,0,0,0-.738-1.6,2.294,2.294,0,0,0-1.637-.626,2.4,2.4,0,0,0-2.027.942,4.422,4.422,0,0,0-.719,2.723v.325a4.334,4.334,0,0,0,.714,2.672A2.414,2.414,0,0,0,33.63-1.215ZM41.414,0H39.7V-10.038h1.716ZM39.559-12.7a1.024,1.024,0,0,1,.255-.705.958.958,0,0,1,.756-.288.973.973,0,0,1,.761.288,1.014,1.014,0,0,1,.26.705.98.98,0,0,1-.26.7.99.99,0,0,1-.761.278A.975.975,0,0,1,39.814-12,.991.991,0,0,1,39.559-12.7Zm4.147,7.589a5.929,5.929,0,0,1,.58-2.653A4.325,4.325,0,0,1,45.9-9.583a4.394,4.394,0,0,1,2.361-.64A4.233,4.233,0,0,1,51.577-8.8a5.461,5.461,0,0,1,1.266,3.776v.121a5.981,5.981,0,0,1-.561,2.63,4.262,4.262,0,0,1-1.6,1.814,4.445,4.445,0,0,1-2.4.649,4.223,4.223,0,0,1-3.307-1.419,5.433,5.433,0,0,1-1.266-3.757Zm1.726.2a4.294,4.294,0,0,0,.775,2.681,2.479,2.479,0,0,0,2.073,1.011A2.464,2.464,0,0,0,50.357-2.24a4.7,4.7,0,0,0,.77-2.871,4.287,4.287,0,0,0-.784-2.677,2.492,2.492,0,0,0-2.083-1.025A2.465,2.465,0,0,0,46.21-7.8,4.661,4.661,0,0,0,45.431-4.908ZM59.282-5.1a5.88,5.88,0,0,1,1.095-3.716,3.462,3.462,0,0,1,2.867-1.406,3.481,3.481,0,0,1,2.792,1.206V-14.25h1.716V0H66.175l-.083-1.076A3.5,3.5,0,0,1,63.225.186a3.429,3.429,0,0,1-2.844-1.429,5.947,5.947,0,0,1-1.1-3.729ZM61-4.908A4.452,4.452,0,0,0,61.7-2.236a2.279,2.279,0,0,0,1.948.965,2.5,2.5,0,0,0,2.384-1.466V-7.348A2.523,2.523,0,0,0,63.67-8.767a2.29,2.29,0,0,0-1.967.974A4.9,4.9,0,0,0,61-4.908ZM74.581.186a4.386,4.386,0,0,1-3.321-1.341,4.976,4.976,0,0,1-1.28-3.586v-.315a6.024,6.024,0,0,1,.571-2.667,4.451,4.451,0,0,1,1.6-1.837,4.012,4.012,0,0,1,2.222-.663,3.759,3.759,0,0,1,3.043,1.29A5.583,5.583,0,0,1,78.5-5.242v.714H71.7a3.568,3.568,0,0,0,.867,2.4,2.727,2.727,0,0,0,2.111.914,2.989,2.989,0,0,0,1.54-.371,3.87,3.87,0,0,0,1.1-.983l1.048.816A4.215,4.215,0,0,1,74.581.186Zm-.213-9a2.289,2.289,0,0,0-1.744.756,3.675,3.675,0,0,0-.872,2.12h5.028v-.13a3.269,3.269,0,0,0-.705-2.027A2.155,2.155,0,0,0,74.367-8.813Zm14.844,7.6a2.472,2.472,0,0,0,1.6-.557,1.958,1.958,0,0,0,.761-1.392H93.2a3.112,3.112,0,0,1-.594,1.642A3.911,3.911,0,0,1,91.145-.278a4.216,4.216,0,0,1-1.934.464A4.135,4.135,0,0,1,85.95-1.183a5.45,5.45,0,0,1-1.211-3.743v-.288a6.043,6.043,0,0,1,.538-2.607,4.1,4.1,0,0,1,1.545-1.772,4.388,4.388,0,0,1,2.38-.631,4.026,4.026,0,0,1,2.806,1.011A3.614,3.614,0,0,1,93.2-6.587H91.577a2.365,2.365,0,0,0-.738-1.6A2.294,2.294,0,0,0,89.2-8.813a2.4,2.4,0,0,0-2.027.942,4.422,4.422,0,0,0-.719,2.723v.325a4.334,4.334,0,0,0,.714,2.672A2.414,2.414,0,0,0,89.211-1.215Zm5.464-3.9a5.929,5.929,0,0,1,.58-2.653,4.326,4.326,0,0,1,1.614-1.818,4.394,4.394,0,0,1,2.361-.64A4.233,4.233,0,0,1,102.547-8.8a5.461,5.461,0,0,1,1.266,3.776v.121a5.981,5.981,0,0,1-.561,2.63,4.262,4.262,0,0,1-1.6,1.814,4.445,4.445,0,0,1-2.4.649,4.223,4.223,0,0,1-3.307-1.419,5.433,5.433,0,0,1-1.266-3.757Zm1.726.2a4.294,4.294,0,0,0,.775,2.681,2.479,2.479,0,0,0,2.073,1.011,2.464,2.464,0,0,0,2.078-1.025,4.7,4.7,0,0,0,.77-2.871,4.287,4.287,0,0,0-.784-2.677A2.492,2.492,0,0,0,99.23-8.813,2.465,2.465,0,0,0,97.18-7.8,4.661,4.661,0,0,0,96.4-4.908Zm11.179-5.13.046,1.113a3.707,3.707,0,0,1,2.978-1.3,2.87,2.87,0,0,1,2.867,1.614,3.8,3.8,0,0,1,1.3-1.169,3.85,3.85,0,0,1,1.9-.445q3.3,0,3.358,3.5V0h-1.716V-6.624a2.3,2.3,0,0,0-.492-1.61,2.165,2.165,0,0,0-1.651-.533,2.276,2.276,0,0,0-1.586.571,2.315,2.315,0,0,0-.733,1.535V0h-1.726V-6.578a1.915,1.915,0,0,0-2.143-2.189,2.3,2.3,0,0,0-2.31,1.438V0h-1.716V-10.038ZM131.1-4.908a6.011,6.011,0,0,1-1.048,3.692,3.36,3.36,0,0,1-2.839,1.4,3.681,3.681,0,0,1-2.876-1.16V3.859h-1.716v-13.9h1.568l.083,1.113a3.536,3.536,0,0,1,2.913-1.3,3.423,3.423,0,0,1,2.862,1.364A6.076,6.076,0,0,1,131.1-5.065ZM129.382-5.1a4.435,4.435,0,0,0-.724-2.681,2.331,2.331,0,0,0-1.985-.983,2.523,2.523,0,0,0-2.338,1.382v4.8a2.528,2.528,0,0,0,2.356,1.373,2.32,2.32,0,0,0,1.962-.979A4.841,4.841,0,0,0,129.382-5.1Zm8.749-3.4a5.143,5.143,0,0,0-.844-.065,2.262,2.262,0,0,0-2.292,1.438V0h-1.716V-10.038h1.67l.028,1.16a2.672,2.672,0,0,1,2.394-1.345,1.753,1.753,0,0,1,.761.13Zm7.4,8.5a3.605,3.605,0,0,1-.241-1.058A3.829,3.829,0,0,1,142.435.186,3.543,3.543,0,0,1,140-.654a2.716,2.716,0,0,1-.951-2.129,2.838,2.838,0,0,1,1.192-2.435,5.621,5.621,0,0,1,3.354-.867h1.67v-.789a1.928,1.928,0,0,0-.538-1.433,2.163,2.163,0,0,0-1.586-.533,2.5,2.5,0,0,0-1.54.464,1.367,1.367,0,0,0-.622,1.123h-1.726a2.369,2.369,0,0,1,.533-1.452,3.641,3.641,0,0,1,1.447-1.109,4.869,4.869,0,0,1,2.009-.408,3.968,3.968,0,0,1,2.718.867,3.129,3.129,0,0,1,1.021,2.389v4.62a5.648,5.648,0,0,0,.353,2.2V0Zm-2.848-1.308a3.016,3.016,0,0,0,1.531-.417,2.525,2.525,0,0,0,1.048-1.085v-2.06h-1.345q-3.154,0-3.154,1.846a1.562,1.562,0,0,0,.538,1.262A2.068,2.068,0,0,0,142.686-1.308ZM4.871,18.962H.343v-1.4H4.871ZM6.81,24V10.492h3.813a6.138,6.138,0,0,1,3.117.779,5.271,5.271,0,0,1,2.092,2.217,7.217,7.217,0,0,1,.747,3.3v.863A7.242,7.242,0,0,1,15.841,21a5.188,5.188,0,0,1-2.106,2.208A6.529,6.529,0,0,1,10.548,24ZM8.591,11.949V22.543h1.874a4.077,4.077,0,0,0,3.205-1.281,5.294,5.294,0,0,0,1.146-3.649v-.789a5.378,5.378,0,0,0-1.081-3.579,3.846,3.846,0,0,0-3.066-1.3ZM23.166,24.186a4.386,4.386,0,0,1-3.321-1.341,4.976,4.976,0,0,1-1.28-3.586v-.315a6.024,6.024,0,0,1,.571-2.667,4.451,4.451,0,0,1,1.6-1.837,4.012,4.012,0,0,1,2.222-.663A3.759,3.759,0,0,1,26,15.066a5.583,5.583,0,0,1,1.085,3.692v.714h-6.8a3.568,3.568,0,0,0,.867,2.4,2.727,2.727,0,0,0,2.111.914,2.989,2.989,0,0,0,1.54-.371,3.87,3.87,0,0,0,1.1-.983l1.048.816A4.215,4.215,0,0,1,23.166,24.186Zm-.213-9a2.289,2.289,0,0,0-1.744.756,3.675,3.675,0,0,0-.872,2.12h5.028v-.13a3.269,3.269,0,0,0-.705-2.027A2.155,2.155,0,0,0,22.952,15.187Zm11.958,6.151a1.264,1.264,0,0,0-.524-1.081,5.045,5.045,0,0,0-1.828-.663,8.641,8.641,0,0,1-2.069-.668A2.943,2.943,0,0,1,29.358,18a2.219,2.219,0,0,1-.366-1.28,2.6,2.6,0,0,1,1.044-2.087,4.076,4.076,0,0,1,2.667-.854,4.194,4.194,0,0,1,2.769.881,2.8,2.8,0,0,1,1.062,2.254H34.809a1.549,1.549,0,0,0-.6-1.215,2.242,2.242,0,0,0-1.508-.51,2.346,2.346,0,0,0-1.466.408,1.285,1.285,0,0,0-.529,1.067,1.041,1.041,0,0,0,.492.937,6.05,6.05,0,0,0,1.777.6,9.257,9.257,0,0,1,2.083.687,3.038,3.038,0,0,1,1.183.96,2.361,2.361,0,0,1,.385,1.368,2.569,2.569,0,0,1-1.076,2.157,4.514,4.514,0,0,1-2.792.812,5.055,5.055,0,0,1-2.134-.427,3.47,3.47,0,0,1-1.452-1.192,2.873,2.873,0,0,1-.524-1.656h1.716a1.777,1.777,0,0,0,.691,1.368,2.681,2.681,0,0,0,1.7.506,2.768,2.768,0,0,0,1.563-.394A1.212,1.212,0,0,0,34.911,21.337Zm7.979,1.447a2.472,2.472,0,0,0,1.6-.557,1.958,1.958,0,0,0,.761-1.392h1.624a3.112,3.112,0,0,1-.594,1.642,3.911,3.911,0,0,1-1.461,1.243,4.216,4.216,0,0,1-1.934.464,4.135,4.135,0,0,1-3.261-1.368,5.45,5.45,0,0,1-1.211-3.743v-.288a6.043,6.043,0,0,1,.538-2.607A4.1,4.1,0,0,1,40.5,14.407a4.388,4.388,0,0,1,2.38-.631,4.026,4.026,0,0,1,2.806,1.011,3.614,3.614,0,0,1,1.192,2.625H45.255a2.365,2.365,0,0,0-.738-1.6,2.294,2.294,0,0,0-1.637-.626,2.4,2.4,0,0,0-2.027.942,4.422,4.422,0,0,0-.719,2.723v.325a4.334,4.334,0,0,0,.714,2.672A2.414,2.414,0,0,0,42.889,22.785Zm12.116.223a3.646,3.646,0,0,1-2.941,1.178,3.12,3.12,0,0,1-2.445-.932,4.036,4.036,0,0,1-.849-2.76V13.962h1.716v6.485q0,2.282,1.855,2.282a2.569,2.569,0,0,0,2.616-1.466v-7.3h1.716V24H55.042Zm8.442,1.178a4.386,4.386,0,0,1-3.321-1.341,4.976,4.976,0,0,1-1.28-3.586v-.315a6.024,6.024,0,0,1,.571-2.667,4.451,4.451,0,0,1,1.6-1.837,4.012,4.012,0,0,1,2.222-.663,3.759,3.759,0,0,1,3.043,1.29,5.583,5.583,0,0,1,1.085,3.692v.714h-6.8a3.568,3.568,0,0,0,.867,2.4,2.727,2.727,0,0,0,2.111.914,2.989,2.989,0,0,0,1.54-.371,3.87,3.87,0,0,0,1.1-.983l1.048.816A4.215,4.215,0,0,1,63.448,24.186Zm-.213-9a2.289,2.289,0,0,0-1.744.756,3.675,3.675,0,0,0-.872,2.12h5.028v-.13a3.269,3.269,0,0,0-.705-2.027A2.155,2.155,0,0,0,63.234,15.187Zm7.737-1.225.056,1.262a3.658,3.658,0,0,1,3.006-1.447q3.182,0,3.21,3.59V24H75.527V17.357a2.311,2.311,0,0,0-.5-1.6,1.989,1.989,0,0,0-1.517-.52,2.477,2.477,0,0,0-1.466.445,3.024,3.024,0,0,0-.983,1.169V24H69.348V13.962ZM82.16,11.531v2.431h1.874v1.327H82.16v6.233a1.393,1.393,0,0,0,.25.906,1.054,1.054,0,0,0,.854.3,4.155,4.155,0,0,0,.816-.111V24a5.005,5.005,0,0,1-1.317.184,2.137,2.137,0,0,1-1.735-.7,2.989,2.989,0,0,1-.584-1.976V15.289H78.616V13.962h1.828V11.531ZM85.4,18.888a5.929,5.929,0,0,1,.58-2.653,4.326,4.326,0,0,1,1.614-1.818,4.394,4.394,0,0,1,2.361-.64A4.233,4.233,0,0,1,93.27,15.2a5.461,5.461,0,0,1,1.266,3.776v.121a5.981,5.981,0,0,1-.561,2.63,4.262,4.262,0,0,1-1.6,1.814,4.445,4.445,0,0,1-2.4.649,4.223,4.223,0,0,1-3.307-1.419A5.433,5.433,0,0,1,85.4,19.009Zm1.726.2a4.294,4.294,0,0,0,.775,2.681,2.625,2.625,0,0,0,4.152-.014,4.7,4.7,0,0,0,.77-2.871,4.287,4.287,0,0,0-.784-2.677,2.492,2.492,0,0,0-2.083-1.025A2.465,2.465,0,0,0,87.9,16.2,4.661,4.661,0,0,0,87.124,19.092Zm15.41,2.245a1.263,1.263,0,0,0-.524-1.081,5.045,5.045,0,0,0-1.828-.663,8.641,8.641,0,0,1-2.069-.668A2.943,2.943,0,0,1,96.981,18a2.219,2.219,0,0,1-.366-1.28,2.6,2.6,0,0,1,1.044-2.087,4.076,4.076,0,0,1,2.667-.854,4.194,4.194,0,0,1,2.769.881,2.8,2.8,0,0,1,1.062,2.254h-1.726a1.549,1.549,0,0,0-.6-1.215,2.242,2.242,0,0,0-1.508-.51,2.347,2.347,0,0,0-1.466.408,1.285,1.285,0,0,0-.529,1.067,1.041,1.041,0,0,0,.492.937,6.05,6.05,0,0,0,1.777.6,9.257,9.257,0,0,1,2.083.687,3.038,3.038,0,0,1,1.183.96,2.361,2.361,0,0,1,.385,1.368,2.569,2.569,0,0,1-1.076,2.157,4.514,4.514,0,0,1-2.792.812,5.055,5.055,0,0,1-2.134-.427A3.47,3.47,0,0,1,96.8,22.567a2.873,2.873,0,0,1-.524-1.656h1.716a1.777,1.777,0,0,0,.691,1.368,2.681,2.681,0,0,0,1.7.506,2.768,2.768,0,0,0,1.563-.394A1.212,1.212,0,0,0,102.533,21.337ZM6.216,40.754H9.982v1.624H6.216v4.268H4.49V42.378H.724V40.754H4.49V36.812H6.216Zm15.456-4.806H17.33V48H15.558V35.949H11.226V34.492H21.672ZM27.563,39.5a5.143,5.143,0,0,0-.844-.065,2.262,2.262,0,0,0-2.292,1.438V48H22.711V37.962h1.67l.028,1.16A2.673,2.673,0,0,1,26.8,37.776a1.753,1.753,0,0,1,.761.13Zm7.4,8.5a3.605,3.605,0,0,1-.241-1.058,3.829,3.829,0,0,1-2.857,1.243,3.543,3.543,0,0,1-2.435-.84,2.716,2.716,0,0,1-.951-2.129,2.838,2.838,0,0,1,1.192-2.435,5.621,5.621,0,0,1,3.354-.867H34.7v-.789a1.928,1.928,0,0,0-.538-1.433,2.163,2.163,0,0,0-1.586-.533,2.5,2.5,0,0,0-1.54.464,1.367,1.367,0,0,0-.622,1.123H28.686a2.369,2.369,0,0,1,.533-1.452,3.641,3.641,0,0,1,1.447-1.109,4.869,4.869,0,0,1,2.009-.408,3.968,3.968,0,0,1,2.718.867,3.129,3.129,0,0,1,1.021,2.389v4.62a5.648,5.648,0,0,0,.353,2.2V48Zm-2.848-1.308a3.016,3.016,0,0,0,1.531-.417A2.525,2.525,0,0,0,34.7,45.189v-2.06H33.352q-3.154,0-3.154,1.846a1.562,1.562,0,0,0,.538,1.262A2.068,2.068,0,0,0,32.118,46.692Zm8.609-8.73.056,1.262a3.658,3.658,0,0,1,3.006-1.447q3.182,0,3.21,3.59V48H45.283V41.357a2.311,2.311,0,0,0-.5-1.6,1.989,1.989,0,0,0-1.517-.52,2.477,2.477,0,0,0-1.466.445,3.024,3.024,0,0,0-.983,1.169V48H39.1V37.962Zm14.7,7.375a1.264,1.264,0,0,0-.524-1.081,5.045,5.045,0,0,0-1.828-.663,8.641,8.641,0,0,1-2.069-.668A2.943,2.943,0,0,1,49.88,42a2.219,2.219,0,0,1-.366-1.28,2.6,2.6,0,0,1,1.044-2.087,4.076,4.076,0,0,1,2.667-.854,4.194,4.194,0,0,1,2.769.881,2.8,2.8,0,0,1,1.062,2.254H55.33a1.549,1.549,0,0,0-.6-1.215,2.242,2.242,0,0,0-1.508-.51,2.346,2.346,0,0,0-1.466.408,1.285,1.285,0,0,0-.529,1.067,1.041,1.041,0,0,0,.492.937,6.05,6.05,0,0,0,1.777.6,9.257,9.257,0,0,1,2.083.687,3.038,3.038,0,0,1,1.183.96,2.361,2.361,0,0,1,.385,1.368,2.569,2.569,0,0,1-1.076,2.157,4.514,4.514,0,0,1-2.792.812,5.055,5.055,0,0,1-2.134-.427,3.47,3.47,0,0,1-1.452-1.192,2.873,2.873,0,0,1-.524-1.656h1.716a1.777,1.777,0,0,0,.691,1.368,2.681,2.681,0,0,0,1.7.506,2.768,2.768,0,0,0,1.563-.394A1.212,1.212,0,0,0,55.432,45.337Zm12.432-2.245a6.011,6.011,0,0,1-1.048,3.692,3.36,3.36,0,0,1-2.839,1.4,3.681,3.681,0,0,1-2.876-1.16v4.833H59.384v-13.9h1.568l.083,1.113a3.536,3.536,0,0,1,2.913-1.3,3.423,3.423,0,0,1,2.862,1.364,6.076,6.076,0,0,1,1.053,3.794ZM66.147,42.9a4.435,4.435,0,0,0-.724-2.681,2.331,2.331,0,0,0-1.985-.983A2.523,2.523,0,0,0,61.1,40.615v4.8a2.528,2.528,0,0,0,2.356,1.373,2.32,2.32,0,0,0,1.962-.979A4.841,4.841,0,0,0,66.147,42.9Zm3.442-.009a5.929,5.929,0,0,1,.58-2.653,4.326,4.326,0,0,1,1.614-1.818,4.394,4.394,0,0,1,2.361-.64A4.233,4.233,0,0,1,77.461,39.2a5.461,5.461,0,0,1,1.266,3.776v.121a5.981,5.981,0,0,1-.561,2.63,4.262,4.262,0,0,1-1.6,1.814,4.445,4.445,0,0,1-2.4.649,4.223,4.223,0,0,1-3.307-1.419,5.433,5.433,0,0,1-1.266-3.757Zm1.726.2a4.294,4.294,0,0,0,.775,2.681,2.625,2.625,0,0,0,4.152-.014,4.7,4.7,0,0,0,.77-2.871,4.287,4.287,0,0,0-.784-2.677,2.492,2.492,0,0,0-2.083-1.025,2.465,2.465,0,0,0-2.05,1.011A4.661,4.661,0,0,0,71.315,43.092ZM85.732,39.5a5.143,5.143,0,0,0-.844-.065A2.262,2.262,0,0,0,82.6,40.875V48H80.88V37.962h1.67l.028,1.16a2.673,2.673,0,0,1,2.394-1.345,1.753,1.753,0,0,1,.761.13Zm4.37-3.971v2.431h1.874v1.327H90.1v6.233a1.393,1.393,0,0,0,.25.906,1.054,1.054,0,0,0,.854.3,4.155,4.155,0,0,0,.816-.111V48a5.005,5.005,0,0,1-1.317.184,2.137,2.137,0,0,1-1.735-.7,2.989,2.989,0,0,1-.584-1.976V39.289H86.558V37.962h1.828V35.531Zm8.043,12.654a4.386,4.386,0,0,1-3.321-1.341,4.976,4.976,0,0,1-1.28-3.586v-.315a6.024,6.024,0,0,1,.571-2.667,4.451,4.451,0,0,1,1.6-1.837,4.012,4.012,0,0,1,2.222-.663,3.759,3.759,0,0,1,3.043,1.29,5.583,5.583,0,0,1,1.085,3.692v.714h-6.8a3.568,3.568,0,0,0,.867,2.4,2.727,2.727,0,0,0,2.111.914,2.989,2.989,0,0,0,1.54-.371,3.87,3.87,0,0,0,1.1-.983l1.048.816A4.215,4.215,0,0,1,98.145,48.186Zm-.213-9a2.289,2.289,0,0,0-1.744.756,3.675,3.675,0,0,0-.872,2.12h5.028v-.13a3.269,3.269,0,0,0-.705-2.027A2.155,2.155,0,0,0,97.932,39.187Z" transform="translate(293.059 14701.023)" fill="#12263f"/>
    <path id="Trazado_186721" data-name="Trazado 186721" d="M9.027-3.535H3.368L2.1,0H.26L5.418-13.508H6.977L12.144,0H10.316ZM3.906-4.991H8.5L6.2-11.309ZM15.558,0H13.842V-14.25h1.716Zm4.36-10.038.046,1.113a3.707,3.707,0,0,1,2.978-1.3A2.87,2.87,0,0,1,25.81-8.609a3.8,3.8,0,0,1,1.3-1.169,3.85,3.85,0,0,1,1.9-.445q3.3,0,3.358,3.5V0H30.652V-6.624a2.3,2.3,0,0,0-.492-1.61,2.165,2.165,0,0,0-1.651-.533,2.276,2.276,0,0,0-1.586.571,2.315,2.315,0,0,0-.733,1.535V0H24.464V-6.578a1.915,1.915,0,0,0-2.143-2.189,2.3,2.3,0,0,0-2.31,1.438V0H18.295V-10.038ZM41.154,0a3.605,3.605,0,0,1-.241-1.058A3.829,3.829,0,0,1,38.056.186a3.543,3.543,0,0,1-2.435-.84,2.716,2.716,0,0,1-.951-2.129,2.838,2.838,0,0,1,1.192-2.435,5.621,5.621,0,0,1,3.354-.867h1.67v-.789a1.928,1.928,0,0,0-.538-1.433,2.163,2.163,0,0,0-1.586-.533,2.5,2.5,0,0,0-1.54.464A1.367,1.367,0,0,0,36.6-7.255H34.874a2.369,2.369,0,0,1,.533-1.452,3.641,3.641,0,0,1,1.447-1.109,4.869,4.869,0,0,1,2.009-.408,3.968,3.968,0,0,1,2.718.867A3.129,3.129,0,0,1,42.6-6.967v4.62a5.649,5.649,0,0,0,.353,2.2V0ZM38.306-1.308a3.016,3.016,0,0,0,1.531-.417,2.525,2.525,0,0,0,1.048-1.085v-2.06H39.54q-3.154,0-3.154,1.846a1.562,1.562,0,0,0,.538,1.262A2.068,2.068,0,0,0,38.306-1.308Zm11.012.093a2.472,2.472,0,0,0,1.6-.557,1.958,1.958,0,0,0,.761-1.392h1.624a3.112,3.112,0,0,1-.594,1.642A3.911,3.911,0,0,1,51.253-.278a4.216,4.216,0,0,1-1.934.464,4.135,4.135,0,0,1-3.261-1.368,5.45,5.45,0,0,1-1.211-3.743v-.288a6.043,6.043,0,0,1,.538-2.607,4.1,4.1,0,0,1,1.545-1.772,4.388,4.388,0,0,1,2.38-.631,4.026,4.026,0,0,1,2.806,1.011,3.614,3.614,0,0,1,1.192,2.625H51.684a2.365,2.365,0,0,0-.738-1.6,2.294,2.294,0,0,0-1.637-.626,2.4,2.4,0,0,0-2.027.942,4.422,4.422,0,0,0-.719,2.723v.325a4.334,4.334,0,0,0,.714,2.672A2.414,2.414,0,0,0,49.318-1.215ZM59.4.186a4.386,4.386,0,0,1-3.321-1.341A4.976,4.976,0,0,1,54.8-4.741v-.315a6.024,6.024,0,0,1,.571-2.667,4.451,4.451,0,0,1,1.6-1.837,4.012,4.012,0,0,1,2.222-.663,3.759,3.759,0,0,1,3.043,1.29,5.583,5.583,0,0,1,1.085,3.692v.714h-6.8a3.568,3.568,0,0,0,.867,2.4,2.727,2.727,0,0,0,2.111.914,2.989,2.989,0,0,0,1.54-.371,3.869,3.869,0,0,0,1.1-.983l1.048.816A4.215,4.215,0,0,1,59.4.186Zm-.213-9a2.289,2.289,0,0,0-1.744.756,3.675,3.675,0,0,0-.872,2.12H61.6v-.13A3.269,3.269,0,0,0,60.9-8.094,2.155,2.155,0,0,0,59.189-8.813Zm7.737-1.225.056,1.262a3.658,3.658,0,0,1,3.006-1.447q3.182,0,3.21,3.59V0H71.482V-6.643a2.311,2.311,0,0,0-.5-1.6,1.989,1.989,0,0,0-1.517-.52A2.477,2.477,0,0,0,68-8.322a3.024,3.024,0,0,0-.983,1.169V0H65.3V-10.038ZM81.984,0a3.605,3.605,0,0,1-.241-1.058A3.829,3.829,0,0,1,78.885.186a3.543,3.543,0,0,1-2.435-.84A2.716,2.716,0,0,1,75.5-2.783a2.838,2.838,0,0,1,1.192-2.435,5.621,5.621,0,0,1,3.354-.867h1.67v-.789a1.928,1.928,0,0,0-.538-1.433,2.163,2.163,0,0,0-1.586-.533,2.5,2.5,0,0,0-1.54.464,1.367,1.367,0,0,0-.622,1.123H75.7a2.369,2.369,0,0,1,.533-1.452,3.641,3.641,0,0,1,1.447-1.109,4.869,4.869,0,0,1,2.009-.408,3.968,3.968,0,0,1,2.718.867,3.129,3.129,0,0,1,1.021,2.389v4.62a5.649,5.649,0,0,0,.353,2.2V0ZM79.136-1.308a3.016,3.016,0,0,0,1.531-.417,2.525,2.525,0,0,0,1.048-1.085v-2.06H80.37q-3.154,0-3.154,1.846a1.562,1.562,0,0,0,.538,1.262A2.068,2.068,0,0,0,79.136-1.308Zm8.6-8.73.046,1.113a3.707,3.707,0,0,1,2.978-1.3,2.87,2.87,0,0,1,2.867,1.614,3.8,3.8,0,0,1,1.3-1.169,3.85,3.85,0,0,1,1.9-.445q3.3,0,3.358,3.5V0H98.47V-6.624a2.3,2.3,0,0,0-.492-1.61,2.165,2.165,0,0,0-1.651-.533A2.276,2.276,0,0,0,94.74-8.2a2.315,2.315,0,0,0-.733,1.535V0H92.282V-6.578a1.915,1.915,0,0,0-2.143-2.189,2.3,2.3,0,0,0-2.31,1.438V0H86.112V-10.038ZM104.639,0h-1.716V-10.038h1.716Zm-1.855-12.7a1.025,1.025,0,0,1,.255-.705.958.958,0,0,1,.756-.288.973.973,0,0,1,.761.288,1.014,1.014,0,0,1,.26.705.98.98,0,0,1-.26.7.99.99,0,0,1-.761.278.975.975,0,0,1-.756-.278A.991.991,0,0,1,102.784-12.7ZM111.551.186a4.386,4.386,0,0,1-3.321-1.341,4.976,4.976,0,0,1-1.28-3.586v-.315a6.024,6.024,0,0,1,.571-2.667,4.451,4.451,0,0,1,1.6-1.837,4.012,4.012,0,0,1,2.222-.663,3.759,3.759,0,0,1,3.043,1.29,5.583,5.583,0,0,1,1.085,3.692v.714h-6.8a3.568,3.568,0,0,0,.867,2.4,2.727,2.727,0,0,0,2.111.914,2.989,2.989,0,0,0,1.54-.371,3.87,3.87,0,0,0,1.1-.983l1.048.816A4.215,4.215,0,0,1,111.551.186Zm-.213-9a2.289,2.289,0,0,0-1.744.756,3.675,3.675,0,0,0-.872,2.12h5.028v-.13a3.269,3.269,0,0,0-.705-2.027A2.155,2.155,0,0,0,111.337-8.813Zm7.737-1.225.056,1.262a3.658,3.658,0,0,1,3.006-1.447q3.182,0,3.21,3.59V0H123.63V-6.643a2.311,2.311,0,0,0-.5-1.6,1.989,1.989,0,0,0-1.517-.52,2.477,2.477,0,0,0-1.466.445,3.024,3.024,0,0,0-.983,1.169V0h-1.716V-10.038Zm11.188-2.431v2.431h1.874v1.327h-1.874v6.233a1.393,1.393,0,0,0,.25.906,1.054,1.054,0,0,0,.854.3,4.155,4.155,0,0,0,.816-.111V0a5,5,0,0,1-1.317.184,2.137,2.137,0,0,1-1.735-.7,2.989,2.989,0,0,1-.584-1.976V-8.711h-1.828v-1.327h1.828v-2.431ZM133.5-5.112a5.929,5.929,0,0,1,.58-2.653A4.325,4.325,0,0,1,135.7-9.583a4.394,4.394,0,0,1,2.361-.64A4.233,4.233,0,0,1,141.373-8.8a5.461,5.461,0,0,1,1.266,3.776v.121a5.981,5.981,0,0,1-.561,2.63,4.262,4.262,0,0,1-1.6,1.814,4.445,4.445,0,0,1-2.4.649,4.223,4.223,0,0,1-3.307-1.419A5.433,5.433,0,0,1,133.5-4.991Zm1.726.2A4.294,4.294,0,0,0,136-2.227a2.479,2.479,0,0,0,2.073,1.011,2.464,2.464,0,0,0,2.078-1.025,4.7,4.7,0,0,0,.77-2.871,4.287,4.287,0,0,0-.784-2.677,2.492,2.492,0,0,0-2.083-1.025,2.465,2.465,0,0,0-2.05,1.011A4.661,4.661,0,0,0,135.227-4.908ZM5.548,17.979A8.376,8.376,0,0,1,2.213,16.36a3.093,3.093,0,0,1-1.044-2.37A3.267,3.267,0,0,1,2.445,11.35a5.07,5.07,0,0,1,3.317-1.044,5.534,5.534,0,0,1,2.482.538,4.081,4.081,0,0,1,1.688,1.484,3.8,3.8,0,0,1,.6,2.069H8.739a2.47,2.47,0,0,0-.779-1.932,3.169,3.169,0,0,0-2.2-.7,3.244,3.244,0,0,0-2.055.581,1.938,1.938,0,0,0-.738,1.612,1.743,1.743,0,0,0,.7,1.4A6.87,6.87,0,0,0,6.053,16.4a11.063,11.063,0,0,1,2.635,1.045,4,4,0,0,1,1.41,1.331,3.4,3.4,0,0,1,.459,1.791,3.156,3.156,0,0,1-1.28,2.63,5.459,5.459,0,0,1-3.423.988,6.349,6.349,0,0,1-2.6-.533A4.372,4.372,0,0,1,1.4,22.191a3.566,3.566,0,0,1-.654-2.106H2.533a2.326,2.326,0,0,0,.9,1.934,3.809,3.809,0,0,0,2.417.71,3.5,3.5,0,0,0,2.162-.575,1.868,1.868,0,0,0,.751-1.568,1.834,1.834,0,0,0-.7-1.535A8.022,8.022,0,0,0,5.548,17.979Zm11.188,6.207a4.386,4.386,0,0,1-3.321-1.341,4.976,4.976,0,0,1-1.28-3.586v-.315a6.024,6.024,0,0,1,.571-2.667,4.451,4.451,0,0,1,1.6-1.837,4.012,4.012,0,0,1,2.222-.663,3.759,3.759,0,0,1,3.043,1.29,5.583,5.583,0,0,1,1.085,3.692v.714h-6.8a3.568,3.568,0,0,0,.867,2.4,2.727,2.727,0,0,0,2.111.914,2.989,2.989,0,0,0,1.54-.371,3.87,3.87,0,0,0,1.1-.983l1.048.816A4.215,4.215,0,0,1,16.736,24.186Zm-.213-9a2.289,2.289,0,0,0-1.744.756,3.675,3.675,0,0,0-.872,2.12h5.028v-.13a3.269,3.269,0,0,0-.705-2.027A2.155,2.155,0,0,0,16.523,15.187ZM22.229,18.9a5.9,5.9,0,0,1,1.085-3.734,3.471,3.471,0,0,1,2.876-1.387,3.453,3.453,0,0,1,2.867,1.3l.083-1.113h1.568v9.8a4.084,4.084,0,0,1-1.155,3.071,4.262,4.262,0,0,1-3.1,1.123,5.163,5.163,0,0,1-2.125-.464,3.657,3.657,0,0,1-1.586-1.271l.891-1.03a3.356,3.356,0,0,0,2.7,1.364,2.63,2.63,0,0,0,1.953-.705,2.7,2.7,0,0,0,.7-1.985V23a3.528,3.528,0,0,1-2.811,1.188,3.429,3.429,0,0,1-2.853-1.419A6.2,6.2,0,0,1,22.229,18.9Zm1.726.195a4.5,4.5,0,0,0,.7,2.667,2.261,2.261,0,0,0,1.948.969,2.514,2.514,0,0,0,2.384-1.475V16.671a2.543,2.543,0,0,0-2.366-1.438,2.281,2.281,0,0,0-1.958.974A4.9,4.9,0,0,0,23.954,19.092Zm15.54,3.915a3.646,3.646,0,0,1-2.941,1.178,3.12,3.12,0,0,1-2.445-.932,4.036,4.036,0,0,1-.849-2.76V13.962h1.716v6.485q0,2.282,1.855,2.282a2.569,2.569,0,0,0,2.616-1.466v-7.3h1.716V24H39.531ZM48.623,15.5a5.143,5.143,0,0,0-.844-.065,2.262,2.262,0,0,0-2.292,1.438V24H43.771V13.962h1.67l.028,1.16a2.672,2.672,0,0,1,2.394-1.345,1.753,1.753,0,0,1,.761.13Zm.937,3.386a5.929,5.929,0,0,1,.58-2.653,4.325,4.325,0,0,1,1.614-1.818,4.394,4.394,0,0,1,2.361-.64A4.233,4.233,0,0,1,57.431,15.2,5.461,5.461,0,0,1,58.7,18.972v.121a5.981,5.981,0,0,1-.561,2.63,4.262,4.262,0,0,1-1.6,1.814,4.445,4.445,0,0,1-2.4.649,4.223,4.223,0,0,1-3.307-1.419,5.433,5.433,0,0,1-1.266-3.757Zm1.726.2a4.294,4.294,0,0,0,.775,2.681,2.625,2.625,0,0,0,4.152-.014,4.7,4.7,0,0,0,.77-2.871,4.287,4.287,0,0,0-.784-2.677,2.492,2.492,0,0,0-2.083-1.025,2.465,2.465,0,0,0-2.05,1.011A4.661,4.661,0,0,0,51.285,19.092Zm15.41,2.245a1.263,1.263,0,0,0-.524-1.081,5.045,5.045,0,0,0-1.828-.663,8.641,8.641,0,0,1-2.069-.668A2.943,2.943,0,0,1,61.142,18a2.219,2.219,0,0,1-.366-1.28A2.6,2.6,0,0,1,61.82,14.63a4.076,4.076,0,0,1,2.667-.854,4.194,4.194,0,0,1,2.769.881,2.8,2.8,0,0,1,1.062,2.254H66.593a1.549,1.549,0,0,0-.6-1.215,2.242,2.242,0,0,0-1.508-.51,2.346,2.346,0,0,0-1.466.408,1.285,1.285,0,0,0-.529,1.067,1.041,1.041,0,0,0,.492.937,6.05,6.05,0,0,0,1.777.6,9.257,9.257,0,0,1,2.083.687,3.038,3.038,0,0,1,1.183.96,2.361,2.361,0,0,1,.385,1.368,2.569,2.569,0,0,1-1.076,2.157,4.514,4.514,0,0,1-2.792.812,5.055,5.055,0,0,1-2.134-.427,3.47,3.47,0,0,1-1.452-1.192,2.873,2.873,0,0,1-.524-1.656h1.716a1.777,1.777,0,0,0,.691,1.368,2.681,2.681,0,0,0,1.7.506,2.768,2.768,0,0,0,1.563-.394A1.212,1.212,0,0,0,66.695,21.337ZM3.479,48H1.7V34.492H3.479Zm4.6-10.038.046,1.113a3.707,3.707,0,0,1,2.978-1.3,2.87,2.87,0,0,1,2.867,1.614,3.8,3.8,0,0,1,1.3-1.169,3.85,3.85,0,0,1,1.9-.445q3.3,0,3.358,3.5V48H18.814V41.376a2.3,2.3,0,0,0-.492-1.61,2.165,2.165,0,0,0-1.651-.533,2.276,2.276,0,0,0-1.586.571,2.315,2.315,0,0,0-.733,1.535V48H12.626V41.422a1.915,1.915,0,0,0-2.143-2.189,2.3,2.3,0,0,0-2.31,1.438V48H6.457V37.962ZM31.6,43.092a6.011,6.011,0,0,1-1.048,3.692,3.36,3.36,0,0,1-2.839,1.4,3.681,3.681,0,0,1-2.876-1.16v4.833H23.119v-13.9h1.568l.083,1.113a3.536,3.536,0,0,1,2.913-1.3,3.423,3.423,0,0,1,2.862,1.364A6.076,6.076,0,0,1,31.6,42.935ZM29.882,42.9a4.435,4.435,0,0,0-.724-2.681,2.331,2.331,0,0,0-1.985-.983,2.523,2.523,0,0,0-2.338,1.382v4.8a2.528,2.528,0,0,0,2.356,1.373,2.32,2.32,0,0,0,1.962-.979A4.841,4.841,0,0,0,29.882,42.9Zm10.094,4.11a3.646,3.646,0,0,1-2.941,1.178,3.12,3.12,0,0,1-2.445-.932,4.036,4.036,0,0,1-.849-2.76V37.962h1.716v6.485q0,2.282,1.855,2.282a2.569,2.569,0,0,0,2.616-1.466v-7.3h1.716V48H40.013Zm8.442,1.178A4.386,4.386,0,0,1,45.1,46.845a4.976,4.976,0,0,1-1.28-3.586v-.315a6.024,6.024,0,0,1,.571-2.667,4.451,4.451,0,0,1,1.6-1.837,4.012,4.012,0,0,1,2.222-.663,3.759,3.759,0,0,1,3.043,1.29,5.583,5.583,0,0,1,1.085,3.692v.714h-6.8a3.568,3.568,0,0,0,.867,2.4,2.727,2.727,0,0,0,2.111.914,2.989,2.989,0,0,0,1.54-.371,3.869,3.869,0,0,0,1.1-.983l1.048.816A4.215,4.215,0,0,1,48.418,48.186Zm-.213-9a2.289,2.289,0,0,0-1.744.756,3.675,3.675,0,0,0-.872,2.12h5.028v-.13a3.269,3.269,0,0,0-.705-2.027A2.155,2.155,0,0,0,48.205,39.187Zm11.958,6.151a1.264,1.264,0,0,0-.524-1.081,5.045,5.045,0,0,0-1.828-.663,8.641,8.641,0,0,1-2.069-.668A2.943,2.943,0,0,1,54.611,42a2.219,2.219,0,0,1-.366-1.28,2.6,2.6,0,0,1,1.044-2.087,4.076,4.076,0,0,1,2.667-.854,4.194,4.194,0,0,1,2.769.881,2.8,2.8,0,0,1,1.062,2.254H60.062a1.549,1.549,0,0,0-.6-1.215,2.242,2.242,0,0,0-1.508-.51,2.346,2.346,0,0,0-1.466.408,1.285,1.285,0,0,0-.529,1.067,1.041,1.041,0,0,0,.492.937,6.05,6.05,0,0,0,1.777.6,9.257,9.257,0,0,1,2.083.687,3.038,3.038,0,0,1,1.183.96,2.361,2.361,0,0,1,.385,1.368A2.569,2.569,0,0,1,60.8,47.374a4.514,4.514,0,0,1-2.792.812,5.055,5.055,0,0,1-2.134-.427,3.47,3.47,0,0,1-1.452-1.192,2.873,2.873,0,0,1-.524-1.656h1.716a1.777,1.777,0,0,0,.691,1.368,2.681,2.681,0,0,0,1.7.506,2.768,2.768,0,0,0,1.563-.394A1.212,1.212,0,0,0,60.164,45.337Zm6.281-9.806v2.431h1.874v1.327H66.444v6.233a1.393,1.393,0,0,0,.25.906,1.054,1.054,0,0,0,.854.3,4.155,4.155,0,0,0,.816-.111V48a5.005,5.005,0,0,1-1.317.184,2.137,2.137,0,0,1-1.735-.7,2.989,2.989,0,0,1-.584-1.976V39.289H62.9V37.962h1.828V35.531Zm3.238,7.357a5.929,5.929,0,0,1,.58-2.653,4.326,4.326,0,0,1,1.614-1.818,4.394,4.394,0,0,1,2.361-.64A4.233,4.233,0,0,1,77.554,39.2a5.461,5.461,0,0,1,1.266,3.776v.121a5.981,5.981,0,0,1-.561,2.63,4.262,4.262,0,0,1-1.6,1.814,4.445,4.445,0,0,1-2.4.649,4.223,4.223,0,0,1-3.307-1.419,5.433,5.433,0,0,1-1.266-3.757Zm1.726.2a4.294,4.294,0,0,0,.775,2.681,2.625,2.625,0,0,0,4.152-.014,4.7,4.7,0,0,0,.77-2.871,4.287,4.287,0,0,0-.784-2.677,2.492,2.492,0,0,0-2.083-1.025,2.465,2.465,0,0,0-2.05,1.011A4.661,4.661,0,0,0,71.408,43.092Zm15.41,2.245a1.263,1.263,0,0,0-.524-1.081,5.045,5.045,0,0,0-1.828-.663,8.641,8.641,0,0,1-2.069-.668A2.943,2.943,0,0,1,81.265,42a2.219,2.219,0,0,1-.366-1.28,2.6,2.6,0,0,1,1.044-2.087,4.076,4.076,0,0,1,2.667-.854,4.194,4.194,0,0,1,2.769.881,2.8,2.8,0,0,1,1.062,2.254H86.715a1.549,1.549,0,0,0-.6-1.215,2.242,2.242,0,0,0-1.508-.51,2.346,2.346,0,0,0-1.466.408,1.285,1.285,0,0,0-.529,1.067,1.041,1.041,0,0,0,.492.937,6.05,6.05,0,0,0,1.777.6,9.257,9.257,0,0,1,2.083.687,3.038,3.038,0,0,1,1.183.96,2.361,2.361,0,0,1,.385,1.368,2.569,2.569,0,0,1-1.076,2.157,4.514,4.514,0,0,1-2.792.812,5.055,5.055,0,0,1-2.134-.427,3.47,3.47,0,0,1-1.452-1.192,2.873,2.873,0,0,1-.524-1.656h1.716a1.777,1.777,0,0,0,.691,1.368,2.681,2.681,0,0,0,1.7.506,2.768,2.768,0,0,0,1.563-.394A1.212,1.212,0,0,0,86.817,45.337Z" transform="translate(555.028 14701.023)" fill="#12263f"/>
    <path id="Trazado_186725" data-name="Trazado 186725" d="M6.522-5.464H3.349V0H1.559V-13.508H6.03a5.293,5.293,0,0,1,3.511,1.039,3.738,3.738,0,0,1,1.229,3.024,3.636,3.636,0,0,1-.682,2.2,4.07,4.07,0,0,1-1.9,1.4L11.365-.111V0H9.454ZM3.349-6.921H6.086A3.087,3.087,0,0,0,8.2-7.609a2.326,2.326,0,0,0,.784-1.84,2.449,2.449,0,0,0-.747-1.924,3.162,3.162,0,0,0-2.157-.678H3.349Zm9.194,1.809a5.929,5.929,0,0,1,.58-2.653,4.325,4.325,0,0,1,1.614-1.818,4.394,4.394,0,0,1,2.361-.64A4.233,4.233,0,0,1,20.415-8.8a5.461,5.461,0,0,1,1.266,3.776v.121a5.981,5.981,0,0,1-.561,2.63,4.262,4.262,0,0,1-1.6,1.814,4.445,4.445,0,0,1-2.4.649,4.223,4.223,0,0,1-3.307-1.419,5.433,5.433,0,0,1-1.266-3.757Zm1.726.2a4.294,4.294,0,0,0,.775,2.681,2.479,2.479,0,0,0,2.073,1.011A2.464,2.464,0,0,0,19.195-2.24a4.7,4.7,0,0,0,.77-2.871,4.287,4.287,0,0,0-.784-2.677A2.492,2.492,0,0,0,17.1-8.813,2.465,2.465,0,0,0,15.048-7.8,4.661,4.661,0,0,0,14.269-4.908Zm18.063,0a5.969,5.969,0,0,1-1.058,3.7,3.379,3.379,0,0,1-2.839,1.4A3.5,3.5,0,0,1,25.494-1.16L25.411,0H23.833V-14.25H25.55v5.316a3.479,3.479,0,0,1,2.867-1.29,3.4,3.4,0,0,1,2.871,1.382,6.148,6.148,0,0,1,1.044,3.785ZM30.615-5.1a4.638,4.638,0,0,0-.677-2.709,2.242,2.242,0,0,0-1.948-.956A2.52,2.52,0,0,0,25.55-7.19v4.342a2.59,2.59,0,0,0,2.458,1.577,2.23,2.23,0,0,0,1.92-.956A4.932,4.932,0,0,0,30.615-5.1Zm3.423-.009a5.929,5.929,0,0,1,.58-2.653,4.325,4.325,0,0,1,1.614-1.818,4.394,4.394,0,0,1,2.361-.64A4.233,4.233,0,0,1,41.91-8.8a5.461,5.461,0,0,1,1.266,3.776v.121a5.981,5.981,0,0,1-.561,2.63,4.262,4.262,0,0,1-1.6,1.814,4.445,4.445,0,0,1-2.4.649A4.223,4.223,0,0,1,35.3-1.234a5.433,5.433,0,0,1-1.266-3.757Zm1.726.2a4.294,4.294,0,0,0,.775,2.681,2.479,2.479,0,0,0,2.073,1.011A2.464,2.464,0,0,0,40.69-2.24a4.7,4.7,0,0,0,.77-2.871,4.287,4.287,0,0,0-.784-2.677,2.492,2.492,0,0,0-2.083-1.025A2.465,2.465,0,0,0,36.543-7.8,4.661,4.661,0,0,0,35.764-4.908Zm15.41,2.245a1.264,1.264,0,0,0-.524-1.081,5.045,5.045,0,0,0-1.828-.663,8.641,8.641,0,0,1-2.069-.668A2.943,2.943,0,0,1,45.621-6a2.219,2.219,0,0,1-.366-1.28A2.6,2.6,0,0,1,46.3-9.37a4.076,4.076,0,0,1,2.667-.854,4.194,4.194,0,0,1,2.769.881A2.8,2.8,0,0,1,52.8-7.088H51.072a1.549,1.549,0,0,0-.6-1.215,2.242,2.242,0,0,0-1.508-.51,2.346,2.346,0,0,0-1.466.408,1.285,1.285,0,0,0-.529,1.067,1.041,1.041,0,0,0,.492.937,6.05,6.05,0,0,0,1.777.6,9.257,9.257,0,0,1,2.083.687,3.038,3.038,0,0,1,1.183.96,2.361,2.361,0,0,1,.385,1.368A2.569,2.569,0,0,1,51.814-.626a4.514,4.514,0,0,1-2.792.812,5.055,5.055,0,0,1-2.134-.427,3.47,3.47,0,0,1-1.452-1.192,2.873,2.873,0,0,1-.524-1.656h1.716a1.777,1.777,0,0,0,.691,1.368,2.681,2.681,0,0,0,1.7.506,2.768,2.768,0,0,0,1.563-.394A1.212,1.212,0,0,0,51.174-2.663ZM11.958,17.682a8.356,8.356,0,0,1-.668,3.465A5.06,5.06,0,0,1,9.4,23.406a5.207,5.207,0,0,1-2.857.779,5.163,5.163,0,0,1-2.83-.784A5.18,5.18,0,0,1,1.8,21.166a8.018,8.018,0,0,1-.7-3.363v-.974a8.257,8.257,0,0,1,.677-3.442A5.162,5.162,0,0,1,3.688,11.1a5.14,5.14,0,0,1,2.834-.793,5.236,5.236,0,0,1,2.862.784,5.05,5.05,0,0,1,1.906,2.273,8.4,8.4,0,0,1,.668,3.465Zm-1.772-.872a6.056,6.056,0,0,0-.965-3.688,3.182,3.182,0,0,0-2.7-1.285,3.148,3.148,0,0,0-2.658,1.285,5.932,5.932,0,0,0-1,3.567v.993a6.065,6.065,0,0,0,.979,3.66,3.161,3.161,0,0,0,2.7,1.331,3.149,3.149,0,0,0,2.672-1.257,6.031,6.031,0,0,0,.974-3.6Zm12.673,2.282a5.969,5.969,0,0,1-1.058,3.7,3.379,3.379,0,0,1-2.839,1.4,3.5,3.5,0,0,1-2.941-1.345L15.938,24H14.361V9.75h1.716v5.316a3.479,3.479,0,0,1,2.867-1.29,3.4,3.4,0,0,1,2.871,1.382,6.148,6.148,0,0,1,1.044,3.785ZM21.143,18.9a4.638,4.638,0,0,0-.677-2.709,2.242,2.242,0,0,0-1.948-.956,2.52,2.52,0,0,0-2.44,1.577v4.342a2.59,2.59,0,0,0,2.458,1.577,2.23,2.23,0,0,0,1.92-.956A4.932,4.932,0,0,0,21.143,18.9Zm9.723,2.44a1.264,1.264,0,0,0-.524-1.081,5.045,5.045,0,0,0-1.828-.663,8.641,8.641,0,0,1-2.069-.668A2.943,2.943,0,0,1,25.313,18a2.219,2.219,0,0,1-.366-1.28A2.6,2.6,0,0,1,25.99,14.63a4.076,4.076,0,0,1,2.667-.854,4.194,4.194,0,0,1,2.769.881,2.8,2.8,0,0,1,1.062,2.254H30.764a1.549,1.549,0,0,0-.6-1.215,2.242,2.242,0,0,0-1.508-.51,2.346,2.346,0,0,0-1.466.408,1.285,1.285,0,0,0-.529,1.067,1.041,1.041,0,0,0,.492.937,6.05,6.05,0,0,0,1.777.6,9.257,9.257,0,0,1,2.083.687,3.038,3.038,0,0,1,1.183.96,2.361,2.361,0,0,1,.385,1.368,2.569,2.569,0,0,1-1.076,2.157,4.514,4.514,0,0,1-2.792.812,5.055,5.055,0,0,1-2.134-.427,3.47,3.47,0,0,1-1.452-1.192,2.873,2.873,0,0,1-.524-1.656H26.32a1.777,1.777,0,0,0,.691,1.368,2.681,2.681,0,0,0,1.7.506,2.768,2.768,0,0,0,1.563-.394A1.212,1.212,0,0,0,30.866,21.337Zm3.5-2.449a5.929,5.929,0,0,1,.58-2.653,4.325,4.325,0,0,1,1.614-1.818,4.394,4.394,0,0,1,2.361-.64A4.233,4.233,0,0,1,42.235,15.2,5.461,5.461,0,0,1,43.5,18.972v.121a5.981,5.981,0,0,1-.561,2.63,4.262,4.262,0,0,1-1.6,1.814,4.445,4.445,0,0,1-2.4.649,4.223,4.223,0,0,1-3.307-1.419,5.433,5.433,0,0,1-1.266-3.757Zm1.726.2a4.294,4.294,0,0,0,.775,2.681,2.625,2.625,0,0,0,4.152-.014,4.7,4.7,0,0,0,.77-2.871A4.287,4.287,0,0,0,41,16.212a2.492,2.492,0,0,0-2.083-1.025,2.465,2.465,0,0,0-2.05,1.011A4.661,4.661,0,0,0,36.089,19.092ZM47.519,24H45.8V9.75h1.716Zm6.912.186a4.386,4.386,0,0,1-3.321-1.341,4.976,4.976,0,0,1-1.28-3.586v-.315a6.024,6.024,0,0,1,.571-2.667,4.451,4.451,0,0,1,1.6-1.837,4.012,4.012,0,0,1,2.222-.663,3.759,3.759,0,0,1,3.043,1.29,5.583,5.583,0,0,1,1.085,3.692v.714h-6.8a3.568,3.568,0,0,0,.867,2.4,2.727,2.727,0,0,0,2.111.914,2.989,2.989,0,0,0,1.54-.371,3.869,3.869,0,0,0,1.1-.983l1.048.816A4.215,4.215,0,0,1,54.43,24.186Zm-.213-9a2.289,2.289,0,0,0-1.744.756,3.675,3.675,0,0,0-.872,2.12h5.028v-.13a3.269,3.269,0,0,0-.705-2.027A2.155,2.155,0,0,0,54.217,15.187Zm11.958,6.151a1.263,1.263,0,0,0-.524-1.081,5.045,5.045,0,0,0-1.828-.663,8.641,8.641,0,0,1-2.069-.668A2.943,2.943,0,0,1,60.623,18a2.219,2.219,0,0,1-.366-1.28A2.6,2.6,0,0,1,61.3,14.63a4.076,4.076,0,0,1,2.667-.854,4.194,4.194,0,0,1,2.769.881A2.8,2.8,0,0,1,67.8,16.912H66.073a1.549,1.549,0,0,0-.6-1.215,2.242,2.242,0,0,0-1.508-.51,2.346,2.346,0,0,0-1.466.408,1.285,1.285,0,0,0-.529,1.067,1.041,1.041,0,0,0,.492.937,6.05,6.05,0,0,0,1.777.6,9.257,9.257,0,0,1,2.083.687,3.038,3.038,0,0,1,1.183.96,2.361,2.361,0,0,1,.385,1.368,2.569,2.569,0,0,1-1.076,2.157,4.514,4.514,0,0,1-2.792.812,5.055,5.055,0,0,1-2.134-.427,3.47,3.47,0,0,1-1.452-1.192,2.873,2.873,0,0,1-.524-1.656h1.716a1.777,1.777,0,0,0,.691,1.368,2.681,2.681,0,0,0,1.7.506,2.768,2.768,0,0,0,1.563-.394A1.212,1.212,0,0,0,66.175,21.337Zm7.979,1.447a2.472,2.472,0,0,0,1.6-.557,1.958,1.958,0,0,0,.761-1.392h1.624a3.112,3.112,0,0,1-.594,1.642,3.911,3.911,0,0,1-1.461,1.243,4.216,4.216,0,0,1-1.934.464,4.135,4.135,0,0,1-3.261-1.368,5.45,5.45,0,0,1-1.211-3.743v-.288a6.043,6.043,0,0,1,.538-2.607,4.1,4.1,0,0,1,1.545-1.772,4.388,4.388,0,0,1,2.38-.631,4.026,4.026,0,0,1,2.806,1.011,3.614,3.614,0,0,1,1.192,2.625H76.52a2.365,2.365,0,0,0-.738-1.6,2.294,2.294,0,0,0-1.637-.626,2.4,2.4,0,0,0-2.027.942,4.422,4.422,0,0,0-.719,2.723v.325a4.334,4.334,0,0,0,.714,2.672A2.414,2.414,0,0,0,74.154,22.785Zm10.084,1.4a4.386,4.386,0,0,1-3.321-1.341,4.976,4.976,0,0,1-1.28-3.586v-.315a6.024,6.024,0,0,1,.571-2.667,4.451,4.451,0,0,1,1.6-1.837,4.012,4.012,0,0,1,2.222-.663,3.759,3.759,0,0,1,3.043,1.29,5.583,5.583,0,0,1,1.085,3.692v.714h-6.8a3.568,3.568,0,0,0,.867,2.4,2.727,2.727,0,0,0,2.111.914,2.989,2.989,0,0,0,1.54-.371,3.87,3.87,0,0,0,1.1-.983l1.048.816A4.215,4.215,0,0,1,84.238,24.186Zm-.213-9a2.289,2.289,0,0,0-1.744.756,3.675,3.675,0,0,0-.872,2.12h5.028v-.13a3.269,3.269,0,0,0-.705-2.027A2.155,2.155,0,0,0,84.025,15.187Zm7.737-1.225.056,1.262a3.658,3.658,0,0,1,3.006-1.447q3.182,0,3.21,3.59V24H96.317V17.357a2.311,2.311,0,0,0-.5-1.6,1.989,1.989,0,0,0-1.517-.52,2.477,2.477,0,0,0-1.466.445,3.024,3.024,0,0,0-.983,1.169V24H90.139V13.962Zm12.886,8.823a2.472,2.472,0,0,0,1.6-.557,1.958,1.958,0,0,0,.761-1.392h1.624a3.112,3.112,0,0,1-.594,1.642,3.911,3.911,0,0,1-1.461,1.243,4.216,4.216,0,0,1-1.934.464,4.135,4.135,0,0,1-3.261-1.368,5.45,5.45,0,0,1-1.211-3.743v-.288a6.043,6.043,0,0,1,.538-2.607,4.1,4.1,0,0,1,1.545-1.772,4.388,4.388,0,0,1,2.38-.631,4.026,4.026,0,0,1,2.806,1.011,3.614,3.614,0,0,1,1.192,2.625h-1.624a2.365,2.365,0,0,0-.738-1.6,2.294,2.294,0,0,0-1.637-.626,2.4,2.4,0,0,0-2.027.942,4.422,4.422,0,0,0-.719,2.723v.325a4.334,4.334,0,0,0,.714,2.672A2.414,2.414,0,0,0,104.648,22.785ZM112.432,24h-1.716V13.962h1.716Zm-1.855-12.7a1.025,1.025,0,0,1,.255-.705.958.958,0,0,1,.756-.288.973.973,0,0,1,.761.288,1.014,1.014,0,0,1,.26.705.98.98,0,0,1-.26.7.99.99,0,0,1-.761.278.975.975,0,0,1-.756-.278A.991.991,0,0,1,110.577,11.3Zm10.8,12.7a3.605,3.605,0,0,1-.241-1.058,3.829,3.829,0,0,1-2.857,1.243,3.543,3.543,0,0,1-2.435-.84,2.716,2.716,0,0,1-.951-2.129,2.838,2.838,0,0,1,1.192-2.435,5.621,5.621,0,0,1,3.354-.867h1.67v-.789a1.928,1.928,0,0,0-.538-1.433,2.163,2.163,0,0,0-1.586-.533,2.5,2.5,0,0,0-1.54.464,1.367,1.367,0,0,0-.622,1.123h-1.726a2.369,2.369,0,0,1,.533-1.452,3.641,3.641,0,0,1,1.447-1.109,4.869,4.869,0,0,1,2.009-.408,3.968,3.968,0,0,1,2.718.867,3.129,3.129,0,0,1,1.021,2.389v4.62a5.649,5.649,0,0,0,.353,2.2V24Zm-2.848-1.308a3.016,3.016,0,0,0,1.531-.417,2.525,2.525,0,0,0,1.048-1.085v-2.06h-1.345q-3.154,0-3.154,1.846a1.562,1.562,0,0,0,.538,1.262A2.068,2.068,0,0,0,118.527,22.692Z" transform="translate(1119.54 14701.023)" fill="#12263f"/>
    <path id="Trazado_186723" data-name="Trazado 186723" d="M3.349-5.288V0H1.568V-13.508H6.55a5.005,5.005,0,0,1,3.474,1.132,3.837,3.837,0,0,1,1.257,3A3.786,3.786,0,0,1,10.052-6.35,5.229,5.229,0,0,1,6.531-5.288Zm0-1.457h3.2a3.2,3.2,0,0,0,2.189-.674A2.464,2.464,0,0,0,9.5-9.365,2.545,2.545,0,0,0,8.739-11.3a3,3,0,0,0-2.087-.753h-3.3ZM19.38,0a3.605,3.605,0,0,1-.241-1.058A3.829,3.829,0,0,1,16.282.186a3.543,3.543,0,0,1-2.435-.84A2.716,2.716,0,0,1,12.9-2.783a2.838,2.838,0,0,1,1.192-2.435,5.621,5.621,0,0,1,3.354-.867h1.67v-.789a1.928,1.928,0,0,0-.538-1.433,2.163,2.163,0,0,0-1.586-.533,2.5,2.5,0,0,0-1.54.464,1.367,1.367,0,0,0-.622,1.123H13.1a2.369,2.369,0,0,1,.533-1.452A3.641,3.641,0,0,1,15.08-9.815a4.869,4.869,0,0,1,2.009-.408,3.968,3.968,0,0,1,2.718.867,3.129,3.129,0,0,1,1.021,2.389v4.62a5.649,5.649,0,0,0,.353,2.2V0ZM16.532-1.308a3.016,3.016,0,0,0,1.531-.417,2.525,2.525,0,0,0,1.048-1.085v-2.06H17.766q-3.154,0-3.154,1.846a1.562,1.562,0,0,0,.538,1.262A2.068,2.068,0,0,0,16.532-1.308ZM23.11-5.1A5.9,5.9,0,0,1,24.2-8.837a3.471,3.471,0,0,1,2.876-1.387,3.453,3.453,0,0,1,2.867,1.3l.083-1.113h1.568v9.8A4.084,4.084,0,0,1,30.434,2.83a4.262,4.262,0,0,1-3.1,1.123,5.163,5.163,0,0,1-2.125-.464A3.657,3.657,0,0,1,23.62,2.217l.891-1.03a3.356,3.356,0,0,0,2.7,1.364,2.63,2.63,0,0,0,1.953-.705,2.7,2.7,0,0,0,.7-1.985V-1A3.528,3.528,0,0,1,27.053.186,3.429,3.429,0,0,1,24.2-1.234,6.2,6.2,0,0,1,23.11-5.1Zm1.726.195a4.5,4.5,0,0,0,.7,2.667,2.261,2.261,0,0,0,1.948.969,2.514,2.514,0,0,0,2.384-1.475V-7.329A2.543,2.543,0,0,0,27.5-8.767a2.281,2.281,0,0,0-1.958.974A4.9,4.9,0,0,0,24.835-4.908Zm8.888-.2a5.929,5.929,0,0,1,.58-2.653,4.325,4.325,0,0,1,1.614-1.818,4.394,4.394,0,0,1,2.361-.64A4.233,4.233,0,0,1,41.595-8.8a5.461,5.461,0,0,1,1.266,3.776v.121a5.981,5.981,0,0,1-.561,2.63A4.262,4.262,0,0,1,40.7-.464a4.445,4.445,0,0,1-2.4.649A4.223,4.223,0,0,1,34.99-1.234a5.433,5.433,0,0,1-1.266-3.757Zm1.726.2a4.294,4.294,0,0,0,.775,2.681A2.479,2.479,0,0,0,38.3-1.215,2.464,2.464,0,0,0,40.375-2.24a4.7,4.7,0,0,0,.77-2.871,4.287,4.287,0,0,0-.784-2.677,2.492,2.492,0,0,0-2.083-1.025A2.465,2.465,0,0,0,36.228-7.8,4.661,4.661,0,0,0,35.449-4.908Zm15.41,2.245a1.264,1.264,0,0,0-.524-1.081,5.045,5.045,0,0,0-1.828-.663,8.641,8.641,0,0,1-2.069-.668A2.943,2.943,0,0,1,45.306-6a2.219,2.219,0,0,1-.366-1.28A2.6,2.6,0,0,1,45.983-9.37a4.076,4.076,0,0,1,2.667-.854,4.194,4.194,0,0,1,2.769.881,2.8,2.8,0,0,1,1.062,2.254H50.756a1.549,1.549,0,0,0-.6-1.215,2.242,2.242,0,0,0-1.508-.51,2.346,2.346,0,0,0-1.466.408,1.285,1.285,0,0,0-.529,1.067,1.041,1.041,0,0,0,.492.937,6.05,6.05,0,0,0,1.777.6,9.257,9.257,0,0,1,2.083.687,3.038,3.038,0,0,1,1.183.96,2.361,2.361,0,0,1,.385,1.368A2.569,2.569,0,0,1,51.5-.626a4.514,4.514,0,0,1-2.792.812,5.055,5.055,0,0,1-2.134-.427A3.47,3.47,0,0,1,45.12-1.433,2.873,2.873,0,0,1,44.6-3.089h1.716A1.777,1.777,0,0,0,47-1.721a2.681,2.681,0,0,0,1.7.506,2.768,2.768,0,0,0,1.563-.394A1.212,1.212,0,0,0,50.858-2.663ZM11.5,19.714a4.97,4.97,0,0,1-1.582,3.307,5.184,5.184,0,0,1-3.539,1.164,4.76,4.76,0,0,1-3.836-1.716A6.905,6.905,0,0,1,1.1,17.877v-1.3a7.7,7.7,0,0,1,.673-3.312,5.024,5.024,0,0,1,1.906-2.194,5.308,5.308,0,0,1,2.857-.765,4.881,4.881,0,0,1,3.451,1.2A5.029,5.029,0,0,1,11.5,14.834H9.713a3.881,3.881,0,0,0-1.007-2.345,3.046,3.046,0,0,0-2.166-.726,3.187,3.187,0,0,0-2.677,1.263,5.8,5.8,0,0,0-.969,3.593v1.309a5.959,5.959,0,0,0,.918,3.5,2.968,2.968,0,0,0,2.57,1.3,3.428,3.428,0,0,0,2.278-.673,3.733,3.733,0,0,0,1.053-2.343Zm1.707-.826a5.929,5.929,0,0,1,.58-2.653,4.325,4.325,0,0,1,1.614-1.818,4.394,4.394,0,0,1,2.361-.64A4.233,4.233,0,0,1,21.083,15.2a5.461,5.461,0,0,1,1.266,3.776v.121a5.981,5.981,0,0,1-.561,2.63,4.262,4.262,0,0,1-1.6,1.814,4.445,4.445,0,0,1-2.4.649,4.223,4.223,0,0,1-3.307-1.419,5.433,5.433,0,0,1-1.266-3.757Zm1.726.2a4.294,4.294,0,0,0,.775,2.681,2.625,2.625,0,0,0,4.152-.014,4.7,4.7,0,0,0,.77-2.871,4.287,4.287,0,0,0-.784-2.677,2.492,2.492,0,0,0-2.083-1.025,2.465,2.465,0,0,0-2.05,1.011A4.661,4.661,0,0,0,14.937,19.092Zm11.179-5.13.046,1.113a3.707,3.707,0,0,1,2.978-1.3,2.87,2.87,0,0,1,2.867,1.614,3.8,3.8,0,0,1,1.3-1.169,3.85,3.85,0,0,1,1.9-.445q3.3,0,3.358,3.5V24H36.85V17.376a2.3,2.3,0,0,0-.492-1.61,2.165,2.165,0,0,0-1.651-.533,2.276,2.276,0,0,0-1.586.571,2.315,2.315,0,0,0-.733,1.535V24H30.662V17.422a1.915,1.915,0,0,0-2.143-2.189,2.3,2.3,0,0,0-2.31,1.438V24H24.492V13.962ZM43.019,24H41.3V13.962h1.716ZM41.164,11.3a1.024,1.024,0,0,1,.255-.705.958.958,0,0,1,.756-.288.973.973,0,0,1,.761.288,1.014,1.014,0,0,1,.26.705.98.98,0,0,1-.26.7.99.99,0,0,1-.761.278A.975.975,0,0,1,41.419,12,.991.991,0,0,1,41.164,11.3ZM51.61,21.337a1.264,1.264,0,0,0-.524-1.081,5.045,5.045,0,0,0-1.828-.663,8.641,8.641,0,0,1-2.069-.668A2.943,2.943,0,0,1,46.057,18a2.219,2.219,0,0,1-.366-1.28,2.6,2.6,0,0,1,1.044-2.087,4.076,4.076,0,0,1,2.667-.854,4.194,4.194,0,0,1,2.769.881,2.8,2.8,0,0,1,1.062,2.254H51.508a1.549,1.549,0,0,0-.6-1.215,2.242,2.242,0,0,0-1.508-.51,2.346,2.346,0,0,0-1.466.408,1.285,1.285,0,0,0-.529,1.067,1.041,1.041,0,0,0,.492.937,6.05,6.05,0,0,0,1.777.6,9.257,9.257,0,0,1,2.083.687,3.038,3.038,0,0,1,1.183.96,2.361,2.361,0,0,1,.385,1.368,2.569,2.569,0,0,1-1.076,2.157,4.514,4.514,0,0,1-2.792.812,5.055,5.055,0,0,1-2.134-.427,3.47,3.47,0,0,1-1.452-1.192,2.873,2.873,0,0,1-.524-1.656h1.716a1.777,1.777,0,0,0,.691,1.368,2.681,2.681,0,0,0,1.7.506,2.768,2.768,0,0,0,1.563-.394A1.212,1.212,0,0,0,51.61,21.337ZM57.427,24H55.71V13.962h1.716ZM55.571,11.3a1.024,1.024,0,0,1,.255-.705.958.958,0,0,1,.756-.288.973.973,0,0,1,.761.288,1.014,1.014,0,0,1,.26.705.98.98,0,0,1-.26.7.99.99,0,0,1-.761.278A.975.975,0,0,1,55.826,12,.991.991,0,0,1,55.571,11.3Zm4.147,7.589a5.929,5.929,0,0,1,.58-2.653,4.325,4.325,0,0,1,1.614-1.818,4.394,4.394,0,0,1,2.361-.64A4.233,4.233,0,0,1,67.59,15.2a5.461,5.461,0,0,1,1.266,3.776v.121a5.981,5.981,0,0,1-.561,2.63,4.262,4.262,0,0,1-1.6,1.814,4.445,4.445,0,0,1-2.4.649,4.223,4.223,0,0,1-3.307-1.419,5.433,5.433,0,0,1-1.266-3.757Zm1.726.2a4.294,4.294,0,0,0,.775,2.681,2.625,2.625,0,0,0,4.152-.014,4.7,4.7,0,0,0,.77-2.871,4.287,4.287,0,0,0-.784-2.677,2.492,2.492,0,0,0-2.083-1.025,2.465,2.465,0,0,0-2.05,1.011A4.661,4.661,0,0,0,61.444,19.092Zm11.188-5.13.056,1.262a3.658,3.658,0,0,1,3.006-1.447q3.182,0,3.21,3.59V24H77.188V17.357a2.311,2.311,0,0,0-.5-1.6,1.989,1.989,0,0,0-1.517-.52,2.477,2.477,0,0,0-1.466.445,3.024,3.024,0,0,0-.983,1.169V24H71.009V13.962ZM85.658,24.186a4.386,4.386,0,0,1-3.321-1.341,4.976,4.976,0,0,1-1.28-3.586v-.315a6.024,6.024,0,0,1,.571-2.667,4.451,4.451,0,0,1,1.6-1.837,4.012,4.012,0,0,1,2.222-.663,3.759,3.759,0,0,1,3.043,1.29,5.583,5.583,0,0,1,1.085,3.692v.714h-6.8a3.568,3.568,0,0,0,.867,2.4,2.727,2.727,0,0,0,2.111.914,2.989,2.989,0,0,0,1.54-.371,3.87,3.87,0,0,0,1.1-.983l1.048.816A4.215,4.215,0,0,1,85.658,24.186Zm-.213-9a2.289,2.289,0,0,0-1.744.756,3.675,3.675,0,0,0-.872,2.12h5.028v-.13a3.269,3.269,0,0,0-.705-2.027A2.155,2.155,0,0,0,85.444,15.187ZM97.4,21.337a1.263,1.263,0,0,0-.524-1.081,5.045,5.045,0,0,0-1.828-.663,8.641,8.641,0,0,1-2.069-.668A2.943,2.943,0,0,1,91.85,18a2.219,2.219,0,0,1-.366-1.28,2.6,2.6,0,0,1,1.044-2.087,4.076,4.076,0,0,1,2.667-.854,4.194,4.194,0,0,1,2.769.881,2.8,2.8,0,0,1,1.062,2.254H97.3a1.549,1.549,0,0,0-.6-1.215,2.242,2.242,0,0,0-1.508-.51,2.347,2.347,0,0,0-1.466.408,1.285,1.285,0,0,0-.529,1.067,1.041,1.041,0,0,0,.492.937,6.05,6.05,0,0,0,1.777.6,9.257,9.257,0,0,1,2.083.687,3.038,3.038,0,0,1,1.183.96,2.361,2.361,0,0,1,.385,1.368,2.569,2.569,0,0,1-1.076,2.157,4.514,4.514,0,0,1-2.792.812,5.055,5.055,0,0,1-2.134-.427,3.47,3.47,0,0,1-1.452-1.192,2.873,2.873,0,0,1-.524-1.656h1.716a1.777,1.777,0,0,0,.691,1.368,2.681,2.681,0,0,0,1.7.506,2.768,2.768,0,0,0,1.563-.394A1.212,1.212,0,0,0,97.4,21.337ZM1.568,48V34.492H5.381a6.138,6.138,0,0,1,3.117.779,5.271,5.271,0,0,1,2.092,2.217,7.217,7.217,0,0,1,.747,3.3v.863A7.242,7.242,0,0,1,10.6,45a5.188,5.188,0,0,1-2.106,2.208A6.529,6.529,0,0,1,5.307,48ZM3.349,35.949V46.543H5.223a4.077,4.077,0,0,0,3.205-1.281,5.294,5.294,0,0,0,1.146-3.649v-.789a5.378,5.378,0,0,0-1.081-3.579,3.846,3.846,0,0,0-3.066-1.3ZM13.3,42.888a5.929,5.929,0,0,1,.58-2.653A4.325,4.325,0,0,1,15.5,38.417a4.394,4.394,0,0,1,2.361-.64A4.233,4.233,0,0,1,21.176,39.2a5.461,5.461,0,0,1,1.266,3.776v.121a5.981,5.981,0,0,1-.561,2.63,4.262,4.262,0,0,1-1.6,1.814,4.445,4.445,0,0,1-2.4.649,4.223,4.223,0,0,1-3.307-1.419A5.433,5.433,0,0,1,13.3,43.009Zm1.726.2a4.294,4.294,0,0,0,.775,2.681,2.625,2.625,0,0,0,4.152-.014,4.7,4.7,0,0,0,.77-2.871,4.287,4.287,0,0,0-.784-2.677,2.492,2.492,0,0,0-2.083-1.025,2.465,2.465,0,0,0-2.05,1.011A4.661,4.661,0,0,0,15.029,43.092Zm13.591,3.692a2.472,2.472,0,0,0,1.6-.557,1.958,1.958,0,0,0,.761-1.392H32.61a3.112,3.112,0,0,1-.594,1.642,3.911,3.911,0,0,1-1.461,1.243,4.216,4.216,0,0,1-1.934.464,4.135,4.135,0,0,1-3.261-1.368,5.45,5.45,0,0,1-1.211-3.743v-.288a6.043,6.043,0,0,1,.538-2.607,4.1,4.1,0,0,1,1.545-1.772,4.388,4.388,0,0,1,2.38-.631,4.026,4.026,0,0,1,2.806,1.011,3.614,3.614,0,0,1,1.192,2.625H30.986a2.365,2.365,0,0,0-.738-1.6,2.294,2.294,0,0,0-1.637-.626,2.4,2.4,0,0,0-2.027.942,4.422,4.422,0,0,0-.719,2.723v.325a4.334,4.334,0,0,0,.714,2.672A2.414,2.414,0,0,0,28.621,46.785Zm12.116.223A3.646,3.646,0,0,1,37.8,48.186a3.12,3.12,0,0,1-2.445-.932,4.036,4.036,0,0,1-.849-2.76V37.962h1.716v6.485q0,2.282,1.855,2.282a2.569,2.569,0,0,0,2.616-1.466v-7.3h1.716V48H40.774Zm5.891-9.045.046,1.113a3.707,3.707,0,0,1,2.978-1.3,2.87,2.87,0,0,1,2.867,1.614,3.8,3.8,0,0,1,1.3-1.169,3.85,3.85,0,0,1,1.9-.445q3.3,0,3.358,3.5V48H57.362V41.376a2.3,2.3,0,0,0-.492-1.61,2.165,2.165,0,0,0-1.651-.533,2.276,2.276,0,0,0-1.586.571,2.315,2.315,0,0,0-.733,1.535V48H51.174V41.422a1.915,1.915,0,0,0-2.143-2.189,2.3,2.3,0,0,0-2.31,1.438V48H45V37.962Zm19.2,10.224a4.386,4.386,0,0,1-3.321-1.341,4.976,4.976,0,0,1-1.28-3.586v-.315a6.024,6.024,0,0,1,.571-2.667,4.451,4.451,0,0,1,1.6-1.837,4.012,4.012,0,0,1,2.222-.663,3.759,3.759,0,0,1,3.043,1.29,5.583,5.583,0,0,1,1.085,3.692v.714h-6.8a3.568,3.568,0,0,0,.867,2.4,2.727,2.727,0,0,0,2.111.914,2.989,2.989,0,0,0,1.54-.371,3.87,3.87,0,0,0,1.1-.983l1.048.816A4.215,4.215,0,0,1,65.832,48.186Zm-.213-9a2.289,2.289,0,0,0-1.744.756A3.675,3.675,0,0,0,63,42.063h5.028v-.13a3.269,3.269,0,0,0-.705-2.027A2.155,2.155,0,0,0,65.619,39.187Zm7.737-1.225.056,1.262a3.658,3.658,0,0,1,3.006-1.447q3.182,0,3.21,3.59V48H77.911V41.357a2.311,2.311,0,0,0-.5-1.6,1.989,1.989,0,0,0-1.517-.52,2.477,2.477,0,0,0-1.466.445,3.024,3.024,0,0,0-.983,1.169V48H71.732V37.962Zm11.188-2.431v2.431h1.874v1.327H84.544v6.233a1.393,1.393,0,0,0,.25.906,1.054,1.054,0,0,0,.854.3,4.155,4.155,0,0,0,.816-.111V48a5.005,5.005,0,0,1-1.317.184,2.137,2.137,0,0,1-1.735-.7,2.989,2.989,0,0,1-.584-1.976V39.289H81V37.962h1.828V35.531Zm3.238,7.357a5.929,5.929,0,0,1,.58-2.653,4.326,4.326,0,0,1,1.614-1.818,4.394,4.394,0,0,1,2.361-.64A4.233,4.233,0,0,1,95.654,39.2a5.461,5.461,0,0,1,1.266,3.776v.121a5.981,5.981,0,0,1-.561,2.63,4.262,4.262,0,0,1-1.6,1.814,4.445,4.445,0,0,1-2.4.649,4.223,4.223,0,0,1-3.307-1.419,5.433,5.433,0,0,1-1.266-3.757Zm1.726.2a4.294,4.294,0,0,0,.775,2.681,2.625,2.625,0,0,0,4.152-.014,4.7,4.7,0,0,0,.77-2.871,4.287,4.287,0,0,0-.784-2.677,2.492,2.492,0,0,0-2.083-1.025,2.465,2.465,0,0,0-2.05,1.011A4.661,4.661,0,0,0,89.508,43.092Zm15.41,2.245a1.263,1.263,0,0,0-.524-1.081,5.045,5.045,0,0,0-1.828-.663,8.641,8.641,0,0,1-2.069-.668A2.943,2.943,0,0,1,99.365,42,2.219,2.219,0,0,1,99,40.717a2.6,2.6,0,0,1,1.044-2.087,4.076,4.076,0,0,1,2.667-.854,4.194,4.194,0,0,1,2.769.881,2.8,2.8,0,0,1,1.062,2.254h-1.726a1.549,1.549,0,0,0-.6-1.215,2.242,2.242,0,0,0-1.508-.51,2.346,2.346,0,0,0-1.466.408,1.285,1.285,0,0,0-.529,1.067,1.041,1.041,0,0,0,.492.937,6.05,6.05,0,0,0,1.777.6,9.257,9.257,0,0,1,2.083.687,3.038,3.038,0,0,1,1.183.96,2.361,2.361,0,0,1,.385,1.368,2.569,2.569,0,0,1-1.076,2.157,4.514,4.514,0,0,1-2.792.812,5.055,5.055,0,0,1-2.134-.427,3.47,3.47,0,0,1-1.452-1.192,2.873,2.873,0,0,1-.524-1.656h1.716a1.777,1.777,0,0,0,.691,1.368,2.681,2.681,0,0,0,1.7.506,2.768,2.768,0,0,0,1.563-.394A1.212,1.212,0,0,0,104.917,45.337ZM3.479,72H1.7V58.492H3.479ZM8.09,61.962l.056,1.262a3.658,3.658,0,0,1,3.006-1.447q3.182,0,3.21,3.59V72H12.645V65.357a2.311,2.311,0,0,0-.5-1.6,1.989,1.989,0,0,0-1.517-.52,2.477,2.477,0,0,0-1.466.445,3.024,3.024,0,0,0-.983,1.169V72H6.466V61.962Zm14.7,7.375a1.264,1.264,0,0,0-.524-1.081,5.045,5.045,0,0,0-1.828-.663,8.641,8.641,0,0,1-2.069-.668A2.943,2.943,0,0,1,17.242,66a2.219,2.219,0,0,1-.366-1.28,2.6,2.6,0,0,1,1.044-2.087,4.076,4.076,0,0,1,2.667-.854,4.194,4.194,0,0,1,2.769.881,2.8,2.8,0,0,1,1.062,2.254H22.692a1.549,1.549,0,0,0-.6-1.215,2.242,2.242,0,0,0-1.508-.51,2.346,2.346,0,0,0-1.466.408,1.285,1.285,0,0,0-.529,1.067,1.041,1.041,0,0,0,.492.937,6.05,6.05,0,0,0,1.777.6,9.257,9.257,0,0,1,2.083.687,3.038,3.038,0,0,1,1.183.96,2.361,2.361,0,0,1,.385,1.368,2.569,2.569,0,0,1-1.076,2.157,4.514,4.514,0,0,1-2.792.812,5.055,5.055,0,0,1-2.134-.427,3.47,3.47,0,0,1-1.452-1.192,2.873,2.873,0,0,1-.524-1.656h1.716a1.777,1.777,0,0,0,.691,1.368,2.681,2.681,0,0,0,1.7.506,2.768,2.768,0,0,0,1.563-.394A1.212,1.212,0,0,0,22.794,69.337Zm12.432-2.245a6.011,6.011,0,0,1-1.048,3.692,3.36,3.36,0,0,1-2.839,1.4,3.681,3.681,0,0,1-2.876-1.16v4.833H26.747v-13.9h1.568l.083,1.113a3.536,3.536,0,0,1,2.913-1.3,3.423,3.423,0,0,1,2.862,1.364,6.076,6.076,0,0,1,1.053,3.794ZM33.51,66.9a4.435,4.435,0,0,0-.724-2.681,2.331,2.331,0,0,0-1.985-.983,2.523,2.523,0,0,0-2.338,1.382v4.8a2.528,2.528,0,0,0,2.356,1.373,2.32,2.32,0,0,0,1.962-.979A4.841,4.841,0,0,0,33.51,66.9Zm8.062,5.288a4.386,4.386,0,0,1-3.321-1.341,4.976,4.976,0,0,1-1.28-3.586v-.315a6.024,6.024,0,0,1,.571-2.667,4.451,4.451,0,0,1,1.6-1.837,4.012,4.012,0,0,1,2.222-.663,3.759,3.759,0,0,1,3.043,1.29,5.583,5.583,0,0,1,1.085,3.692v.714h-6.8a3.568,3.568,0,0,0,.867,2.4,2.727,2.727,0,0,0,2.111.914,2.989,2.989,0,0,0,1.54-.371,3.87,3.87,0,0,0,1.1-.983l1.048.816A4.215,4.215,0,0,1,41.572,72.186Zm-.213-9a2.289,2.289,0,0,0-1.744.756,3.675,3.675,0,0,0-.872,2.12h5.028v-.13a3.269,3.269,0,0,0-.705-2.027A2.155,2.155,0,0,0,41.358,63.187Zm10.14,7.6a2.472,2.472,0,0,0,1.6-.557,1.958,1.958,0,0,0,.761-1.392h1.624a3.112,3.112,0,0,1-.594,1.642,3.911,3.911,0,0,1-1.461,1.243,4.216,4.216,0,0,1-1.934.464,4.135,4.135,0,0,1-3.261-1.368,5.45,5.45,0,0,1-1.211-3.743v-.288a6.043,6.043,0,0,1,.538-2.607,4.1,4.1,0,0,1,1.545-1.772,4.388,4.388,0,0,1,2.38-.631A4.026,4.026,0,0,1,54.3,62.788a3.614,3.614,0,0,1,1.192,2.625H53.864a2.365,2.365,0,0,0-.738-1.6,2.294,2.294,0,0,0-1.637-.626,2.4,2.4,0,0,0-2.027.942,4.422,4.422,0,0,0-.719,2.723v.325a4.334,4.334,0,0,0,.714,2.672A2.414,2.414,0,0,0,51.5,70.785Zm9.945,0a2.472,2.472,0,0,0,1.6-.557,1.958,1.958,0,0,0,.761-1.392h1.624a3.112,3.112,0,0,1-.594,1.642,3.911,3.911,0,0,1-1.461,1.243,4.216,4.216,0,0,1-1.934.464,4.135,4.135,0,0,1-3.261-1.368,5.45,5.45,0,0,1-1.211-3.743v-.288a6.043,6.043,0,0,1,.538-2.607,4.1,4.1,0,0,1,1.545-1.772,4.388,4.388,0,0,1,2.38-.631,4.026,4.026,0,0,1,2.806,1.011,3.614,3.614,0,0,1,1.192,2.625H63.81a2.365,2.365,0,0,0-.738-1.6,2.294,2.294,0,0,0-1.637-.626,2.4,2.4,0,0,0-2.027.942,4.422,4.422,0,0,0-.719,2.723v.325a4.334,4.334,0,0,0,.714,2.672A2.414,2.414,0,0,0,61.444,70.785ZM69.228,72H67.511V61.962h1.716ZM67.372,59.3a1.025,1.025,0,0,1,.255-.705.958.958,0,0,1,.756-.288.973.973,0,0,1,.761.288,1.014,1.014,0,0,1,.26.705.98.98,0,0,1-.26.7.99.99,0,0,1-.761.278A.975.975,0,0,1,67.627,60,.991.991,0,0,1,67.372,59.3Zm4.147,7.589a5.929,5.929,0,0,1,.58-2.653,4.326,4.326,0,0,1,1.614-1.818,4.394,4.394,0,0,1,2.361-.64A4.233,4.233,0,0,1,79.391,63.2a5.461,5.461,0,0,1,1.266,3.776v.121a5.981,5.981,0,0,1-.561,2.63,4.262,4.262,0,0,1-1.6,1.814,4.445,4.445,0,0,1-2.4.649,4.223,4.223,0,0,1-3.307-1.419,5.433,5.433,0,0,1-1.266-3.757Zm1.726.2a4.294,4.294,0,0,0,.775,2.681,2.625,2.625,0,0,0,4.152-.014,4.7,4.7,0,0,0,.77-2.871,4.287,4.287,0,0,0-.784-2.677,2.492,2.492,0,0,0-2.083-1.025,2.465,2.465,0,0,0-2.05,1.011A4.661,4.661,0,0,0,73.245,67.092Zm11.188-5.13.056,1.262a3.658,3.658,0,0,1,3.006-1.447q3.182,0,3.21,3.59V72H88.988V65.357a2.311,2.311,0,0,0-.5-1.6,1.989,1.989,0,0,0-1.517-.52,2.477,2.477,0,0,0-1.466.445,3.024,3.024,0,0,0-.983,1.169V72H82.81V61.962ZM97.458,72.186a4.386,4.386,0,0,1-3.321-1.341,4.976,4.976,0,0,1-1.28-3.586v-.315a6.024,6.024,0,0,1,.571-2.667,4.451,4.451,0,0,1,1.6-1.837,4.012,4.012,0,0,1,2.222-.663,3.759,3.759,0,0,1,3.043,1.29,5.583,5.583,0,0,1,1.085,3.692v.714h-6.8a3.568,3.568,0,0,0,.867,2.4,2.727,2.727,0,0,0,2.111.914,2.989,2.989,0,0,0,1.54-.371,3.87,3.87,0,0,0,1.1-.983l1.048.816A4.215,4.215,0,0,1,97.458,72.186Zm-.213-9a2.289,2.289,0,0,0-1.744.756,3.675,3.675,0,0,0-.872,2.12h5.028v-.13a3.269,3.269,0,0,0-.705-2.027A2.155,2.155,0,0,0,97.245,63.187ZM109.2,69.337a1.263,1.263,0,0,0-.524-1.081,5.045,5.045,0,0,0-1.828-.663,8.641,8.641,0,0,1-2.069-.668A2.943,2.943,0,0,1,103.651,66a2.219,2.219,0,0,1-.366-1.28,2.6,2.6,0,0,1,1.044-2.087A4.076,4.076,0,0,1,107,61.776a4.194,4.194,0,0,1,2.769.881,2.8,2.8,0,0,1,1.062,2.254H109.1a1.549,1.549,0,0,0-.6-1.215,2.242,2.242,0,0,0-1.508-.51,2.346,2.346,0,0,0-1.466.408A1.285,1.285,0,0,0,105,64.662a1.041,1.041,0,0,0,.492.937,6.05,6.05,0,0,0,1.777.6,9.257,9.257,0,0,1,2.083.687,3.038,3.038,0,0,1,1.183.96,2.361,2.361,0,0,1,.385,1.368,2.569,2.569,0,0,1-1.076,2.157,4.514,4.514,0,0,1-2.792.812,5.055,5.055,0,0,1-2.134-.427,3.47,3.47,0,0,1-1.452-1.192,2.873,2.873,0,0,1-.524-1.656h1.716a1.777,1.777,0,0,0,.691,1.368,2.681,2.681,0,0,0,1.7.506,2.768,2.768,0,0,0,1.563-.394A1.212,1.212,0,0,0,109.2,69.337Z" transform="translate(853.739 14701.023)" fill="#12263f"/>
    <path id="Trazado_186720" data-name="Trazado 186720" d="M-66.153-14.93l4.881,12.182,4.881-12.182h2.553V0h-1.969V-5.814l.185-6.275L-60.524,0h-1.507l-4.891-12.059.195,6.245V0H-68.7V-14.93ZM-43.81,0a3.985,3.985,0,0,1-.267-1.169A4.233,4.233,0,0,1-47.235.205a3.916,3.916,0,0,1-2.692-.928,3,3,0,0,1-1.051-2.353A3.136,3.136,0,0,1-49.66-5.768a6.212,6.212,0,0,1,3.707-.959h1.846V-7.6A2.131,2.131,0,0,0-44.7-9.182a2.39,2.39,0,0,0-1.753-.59,2.766,2.766,0,0,0-1.7.513,1.511,1.511,0,0,0-.687,1.241h-1.907a2.618,2.618,0,0,1,.59-1.6,4.024,4.024,0,0,1,1.6-1.225,5.381,5.381,0,0,1,2.22-.451,4.386,4.386,0,0,1,3,.959A3.458,3.458,0,0,1-42.21-7.7v5.106a6.243,6.243,0,0,0,.39,2.43V0Zm-3.148-1.446a3.334,3.334,0,0,0,1.692-.461,2.791,2.791,0,0,0,1.159-1.2V-5.383h-1.487q-3.486,0-3.486,2.041a1.727,1.727,0,0,0,.595,1.395A2.286,2.286,0,0,0-46.958-1.446Zm9.516-9.649.062,1.395a4.043,4.043,0,0,1,3.322-1.6q3.517,0,3.548,3.968V0h-1.9V-7.342a2.554,2.554,0,0,0-.549-1.774,2.2,2.2,0,0,0-1.677-.574,2.738,2.738,0,0,0-1.62.492A3.342,3.342,0,0,0-37.34-7.906V0h-1.9V-11.095Zm12.366-2.687v2.687H-23v1.466h-2.071v6.889a1.54,1.54,0,0,0,.277,1,1.165,1.165,0,0,0,.943.334,4.593,4.593,0,0,0,.9-.123V0a5.532,5.532,0,0,1-1.456.2,2.362,2.362,0,0,1-1.917-.769,3.3,3.3,0,0,1-.646-2.184v-6.88h-2.02v-1.466h2.02v-2.687ZM-16.186.205a4.848,4.848,0,0,1-3.671-1.482A5.5,5.5,0,0,1-21.272-5.24v-.349a6.658,6.658,0,0,1,.631-2.948,4.919,4.919,0,0,1,1.764-2.03,4.434,4.434,0,0,1,2.456-.733,4.155,4.155,0,0,1,3.363,1.425,6.171,6.171,0,0,1,1.2,4.081V-5h-7.516a3.944,3.944,0,0,0,.959,2.651,3.014,3.014,0,0,0,2.333,1.01,3.3,3.3,0,0,0,1.7-.41,4.277,4.277,0,0,0,1.22-1.087l1.159.9A4.659,4.659,0,0,1-16.186.205Zm-.236-9.946a2.53,2.53,0,0,0-1.928.836,4.062,4.062,0,0,0-.964,2.343h5.558v-.144a3.613,3.613,0,0,0-.779-2.24A2.382,2.382,0,0,0-16.422-9.741Zm8.552-1.354L-7.808-9.7a4.043,4.043,0,0,1,3.322-1.6q3.517,0,3.548,3.968V0h-1.9V-7.342a2.554,2.554,0,0,0-.549-1.774A2.2,2.2,0,0,0-5.06-9.69,2.738,2.738,0,0,0-6.68-9.2,3.342,3.342,0,0,0-7.767-7.906V0h-1.9V-11.095ZM3.984,0h-1.9V-11.095h1.9ZM1.933-14.038a1.132,1.132,0,0,1,.282-.779,1.059,1.059,0,0,1,.836-.318,1.075,1.075,0,0,1,.841.318,1.12,1.12,0,0,1,.287.779,1.084,1.084,0,0,1-.287.769,1.1,1.1,0,0,1-.841.308,1.078,1.078,0,0,1-.836-.308A1.1,1.1,0,0,1,1.933-14.038ZM8.8-11.095l.051,1.23A4.1,4.1,0,0,1,12.146-11.3a3.172,3.172,0,0,1,3.168,1.784,4.2,4.2,0,0,1,1.441-1.292,4.255,4.255,0,0,1,2.1-.492q3.65,0,3.712,3.866V0h-1.9V-7.321A2.548,2.548,0,0,0,20.123-9.1,2.393,2.393,0,0,0,18.3-9.69a2.515,2.515,0,0,0-1.753.631,2.558,2.558,0,0,0-.81,1.7V0H13.827V-7.27a2.117,2.117,0,0,0-2.369-2.42A2.538,2.538,0,0,0,8.906-8.1V0h-1.9V-11.095ZM27.486,0h-1.9V-11.095h1.9ZM25.435-14.038a1.132,1.132,0,0,1,.282-.779,1.059,1.059,0,0,1,.836-.318,1.075,1.075,0,0,1,.841.318,1.12,1.12,0,0,1,.287.779,1.084,1.084,0,0,1-.287.769,1.1,1.1,0,0,1-.841.308,1.078,1.078,0,0,1-.836-.308A1.1,1.1,0,0,1,25.435-14.038ZM35.125.205a4.848,4.848,0,0,1-3.671-1.482A5.5,5.5,0,0,1,30.039-5.24v-.349a6.658,6.658,0,0,1,.631-2.948,4.919,4.919,0,0,1,1.764-2.03,4.434,4.434,0,0,1,2.456-.733,4.155,4.155,0,0,1,3.363,1.425,6.171,6.171,0,0,1,1.2,4.081V-5H31.936a3.944,3.944,0,0,0,.959,2.651,3.014,3.014,0,0,0,2.333,1.01,3.3,3.3,0,0,0,1.7-.41A4.277,4.277,0,0,0,38.15-2.84l1.159.9A4.659,4.659,0,0,1,35.125.205Zm-.236-9.946a2.53,2.53,0,0,0-1.928.836A4.062,4.062,0,0,0,32-6.562h5.558v-.144a3.613,3.613,0,0,0-.779-2.24A2.382,2.382,0,0,0,34.889-9.741Zm8.552-1.354L43.5-9.7a4.043,4.043,0,0,1,3.322-1.6q3.517,0,3.548,3.968V0h-1.9V-7.342a2.554,2.554,0,0,0-.549-1.774A2.2,2.2,0,0,0,46.25-9.69a2.738,2.738,0,0,0-1.62.492,3.342,3.342,0,0,0-1.087,1.292V0h-1.9V-11.095Zm12.366-2.687v2.687h2.071v1.466H55.807v6.889a1.54,1.54,0,0,0,.277,1,1.165,1.165,0,0,0,.943.334,4.593,4.593,0,0,0,.9-.123V0a5.532,5.532,0,0,1-1.456.2,2.362,2.362,0,0,1-1.917-.769,3.3,3.3,0,0,1-.646-2.184v-6.88H51.89v-1.466h2.02v-2.687ZM59.385-5.65a6.553,6.553,0,0,1,.641-2.933,4.781,4.781,0,0,1,1.784-2.01,4.857,4.857,0,0,1,2.61-.708,4.679,4.679,0,0,1,3.666,1.569,6.036,6.036,0,0,1,1.4,4.173v.133a6.61,6.61,0,0,1-.62,2.907,4.71,4.71,0,0,1-1.774,2,4.913,4.913,0,0,1-2.651.718,4.667,4.667,0,0,1-3.656-1.569,6.005,6.005,0,0,1-1.4-4.153Zm1.907.226a4.746,4.746,0,0,0,.856,2.963,2.74,2.74,0,0,0,2.292,1.118,2.724,2.724,0,0,0,2.3-1.133,5.19,5.19,0,0,0,.851-3.174,4.738,4.738,0,0,0-.866-2.958,2.755,2.755,0,0,0-2.3-1.133,2.724,2.724,0,0,0-2.266,1.118A5.152,5.152,0,0,0,61.293-5.424Z" transform="translate(632.533 14615.738)" fill="#fff"/>
    <path id="Trazado_186722" data-name="Trazado 186722" d="M-57.729-3.721h-5.957L-65.024,0h-1.934l5.43-14.219h1.641L-54.448,0h-1.924ZM-63.12-5.254h4.834l-2.422-6.65Zm9.863-.117A6.19,6.19,0,0,1-52.1-9.282a3.644,3.644,0,0,1,3.018-1.479,3.665,3.665,0,0,1,2.939,1.27V-15h1.807V0H-46l-.088-1.133A3.679,3.679,0,0,1-49.106.2a3.609,3.609,0,0,1-2.993-1.5,6.26,6.26,0,0,1-1.157-3.926Zm1.807.205a4.687,4.687,0,0,0,.742,2.813,2.4,2.4,0,0,0,2.051,1.016,2.636,2.636,0,0,0,2.51-1.543V-7.734a2.656,2.656,0,0,0-2.49-1.494A2.411,2.411,0,0,0-50.708-8.2,5.16,5.16,0,0,0-51.45-5.166Zm11.611-5.4.049,1.172a3.9,3.9,0,0,1,3.135-1.367,3.021,3.021,0,0,1,3.018,1.7,4,4,0,0,1,1.372-1.23,4.052,4.052,0,0,1,2-.469q3.477,0,3.535,3.682V0H-28.54V-6.973a2.426,2.426,0,0,0-.518-1.694A2.279,2.279,0,0,0-30.8-9.229a2.4,2.4,0,0,0-1.67.6,2.436,2.436,0,0,0-.771,1.616V0h-1.816V-6.924a2.016,2.016,0,0,0-2.256-2.3,2.417,2.417,0,0,0-2.432,1.514V0h-1.807V-10.566ZM-22.046,0h-1.807V-10.566h1.807ZM-24-13.369a1.078,1.078,0,0,1,.269-.742,1.008,1.008,0,0,1,.8-.3,1.024,1.024,0,0,1,.8.3,1.067,1.067,0,0,1,.273.742,1.032,1.032,0,0,1-.273.732,1.043,1.043,0,0,1-.8.293,1.026,1.026,0,0,1-.8-.293A1.043,1.043,0,0,1-24-13.369Zm6.553,2.8.059,1.328a3.85,3.85,0,0,1,3.164-1.523q3.35,0,3.379,3.779V0h-1.807V-6.992a2.432,2.432,0,0,0-.522-1.689,2.094,2.094,0,0,0-1.6-.547,2.607,2.607,0,0,0-1.543.469,3.183,3.183,0,0,0-1.035,1.23V0h-1.807V-10.566ZM-6.157,0H-7.964V-10.566h1.807ZM-8.11-13.369a1.078,1.078,0,0,1,.269-.742,1.008,1.008,0,0,1,.8-.3,1.024,1.024,0,0,1,.8.3,1.067,1.067,0,0,1,.273.742,1.032,1.032,0,0,1-.273.732,1.043,1.043,0,0,1-.8.293,1.026,1.026,0,0,1-.8-.293A1.043,1.043,0,0,1-8.11-13.369ZM2.886-2.8A1.33,1.33,0,0,0,2.334-3.94a5.311,5.311,0,0,0-1.924-.7,9.1,9.1,0,0,1-2.178-.7,3.1,3.1,0,0,1-1.191-.977,2.336,2.336,0,0,1-.386-1.348,2.741,2.741,0,0,1,1.1-2.2,4.291,4.291,0,0,1,2.808-.9,4.415,4.415,0,0,1,2.915.928A2.947,2.947,0,0,1,4.595-7.461H2.778a1.631,1.631,0,0,0-.63-1.279A2.36,2.36,0,0,0,.562-9.277a2.47,2.47,0,0,0-1.543.43,1.353,1.353,0,0,0-.557,1.123,1.1,1.1,0,0,0,.518.986A6.368,6.368,0,0,0,.85-6.1a9.744,9.744,0,0,1,2.192.723A3.2,3.2,0,0,1,4.287-4.37a2.485,2.485,0,0,1,.405,1.44A2.7,2.7,0,0,1,3.56-.659,4.752,4.752,0,0,1,.62.2,5.321,5.321,0,0,1-1.626-.254,3.653,3.653,0,0,1-3.154-1.509a3.025,3.025,0,0,1-.552-1.743H-1.9a1.87,1.87,0,0,0,.728,1.44A2.822,2.822,0,0,0,.62-1.279a2.913,2.913,0,0,0,1.646-.415A1.275,1.275,0,0,0,2.886-2.8ZM9.5-13.125v2.559H11.47v1.4H9.5v6.561a1.467,1.467,0,0,0,.264.953,1.11,1.11,0,0,0,.9.318,4.374,4.374,0,0,0,.859-.117V0A5.268,5.268,0,0,1,10.132.2,2.25,2.25,0,0,1,8.306-.537a3.147,3.147,0,0,1-.615-2.08V-9.17H5.767v-1.4H7.69v-2.559Zm9.189,4.18a5.414,5.414,0,0,0-.889-.068A2.381,2.381,0,0,0,15.386-7.5V0H13.579V-10.566h1.758l.029,1.221a2.813,2.813,0,0,1,2.52-1.416,1.846,1.846,0,0,1,.8.137ZM26.479,0a3.8,3.8,0,0,1-.254-1.113A4.031,4.031,0,0,1,23.218.2a3.73,3.73,0,0,1-2.563-.884,2.859,2.859,0,0,1-1-2.241,2.987,2.987,0,0,1,1.255-2.563,5.916,5.916,0,0,1,3.53-.913H26.2v-.83a2.029,2.029,0,0,0-.566-1.509,2.276,2.276,0,0,0-1.67-.562,2.634,2.634,0,0,0-1.621.488,1.439,1.439,0,0,0-.654,1.182H19.868a2.493,2.493,0,0,1,.562-1.528,3.832,3.832,0,0,1,1.523-1.167,5.125,5.125,0,0,1,2.114-.43,4.177,4.177,0,0,1,2.861.913A3.294,3.294,0,0,1,28-7.334v4.863a5.946,5.946,0,0,0,.371,2.314V0Zm-3-1.377a3.175,3.175,0,0,0,1.611-.439,2.658,2.658,0,0,0,1.1-1.143V-5.127H24.78q-3.32,0-3.32,1.943a1.645,1.645,0,0,0,.566,1.328A2.177,2.177,0,0,0,23.481-1.377Zm11.592.1a2.6,2.6,0,0,0,1.689-.586,2.061,2.061,0,0,0,.8-1.465h1.709A3.276,3.276,0,0,1,38.647-1.6,4.116,4.116,0,0,1,37.109-.293,4.438,4.438,0,0,1,35.073.2a4.353,4.353,0,0,1-3.433-1.44,5.737,5.737,0,0,1-1.274-3.94v-.3a6.361,6.361,0,0,1,.566-2.744A4.314,4.314,0,0,1,32.559-10.1a4.619,4.619,0,0,1,2.5-.664A4.238,4.238,0,0,1,38.018-9.7a3.8,3.8,0,0,1,1.255,2.764H37.563a2.49,2.49,0,0,0-.776-1.685,2.415,2.415,0,0,0-1.724-.659,2.529,2.529,0,0,0-2.134.991,4.655,4.655,0,0,0-.757,2.866v.342a4.562,4.562,0,0,0,.752,2.813A2.541,2.541,0,0,0,35.073-1.279ZM43.267,0H41.46V-10.566h1.807ZM41.313-13.369a1.078,1.078,0,0,1,.269-.742,1.008,1.008,0,0,1,.8-.3,1.024,1.024,0,0,1,.8.3,1.067,1.067,0,0,1,.273.742,1.032,1.032,0,0,1-.273.732,1.043,1.043,0,0,1-.8.293,1.026,1.026,0,0,1-.8-.293A1.043,1.043,0,0,1,41.313-13.369Zm4.365,7.988a6.241,6.241,0,0,1,.61-2.793,4.553,4.553,0,0,1,1.7-1.914,4.626,4.626,0,0,1,2.485-.674,4.456,4.456,0,0,1,3.491,1.494A5.748,5.748,0,0,1,55.3-5.293v.127A6.3,6.3,0,0,1,54.707-2.4,4.486,4.486,0,0,1,53.018-.488,4.679,4.679,0,0,1,50.493.2,4.445,4.445,0,0,1,47.012-1.3a5.719,5.719,0,0,1-1.333-3.955Zm1.816.215a4.52,4.52,0,0,0,.815,2.822,2.61,2.61,0,0,0,2.183,1.064,2.594,2.594,0,0,0,2.188-1.079,4.943,4.943,0,0,0,.811-3.022A4.513,4.513,0,0,0,52.666-8.2a2.623,2.623,0,0,0-2.192-1.079,2.594,2.594,0,0,0-2.158,1.064A4.906,4.906,0,0,0,47.5-5.166Zm3.8-9.814h2.188l-2.617,2.871-1.455,0Zm7.979,4.414.059,1.328A3.851,3.851,0,0,1,62.5-10.762q3.35,0,3.379,3.779V0H64.067V-6.992a2.432,2.432,0,0,0-.522-1.689,2.094,2.094,0,0,0-1.6-.547,2.607,2.607,0,0,0-1.543.469,3.183,3.183,0,0,0-1.035,1.23V0H57.563V-10.566Z" transform="translate(918.246 14614.738)" fill="#fff"/>
    <path id="Trazado_186724" data-name="Trazado 186724" d="M-31.68-6.279h-5.967V0h-1.875V-14.219h8.809v1.533h-6.934v4.873h5.967ZM-22.559,0a3.8,3.8,0,0,1-.254-1.113A4.031,4.031,0,0,1-25.82.2a3.73,3.73,0,0,1-2.563-.884,2.859,2.859,0,0,1-1-2.241A2.987,2.987,0,0,1-28.13-5.493a5.916,5.916,0,0,1,3.53-.913h1.758v-.83a2.029,2.029,0,0,0-.566-1.509,2.276,2.276,0,0,0-1.67-.562,2.634,2.634,0,0,0-1.621.488,1.439,1.439,0,0,0-.654,1.182H-29.17a2.493,2.493,0,0,1,.562-1.528,3.832,3.832,0,0,1,1.523-1.167,5.125,5.125,0,0,1,2.114-.43,4.177,4.177,0,0,1,2.861.913,3.294,3.294,0,0,1,1.074,2.515v4.863a5.946,5.946,0,0,0,.371,2.314V0Zm-3-1.377a3.175,3.175,0,0,0,1.611-.439,2.658,2.658,0,0,0,1.1-1.143V-5.127h-1.416q-3.32,0-3.32,1.943a1.645,1.645,0,0,0,.566,1.328A2.177,2.177,0,0,0-25.557-1.377ZM-16.24,0h-1.807V-15h1.807ZM-10.9-13.125v2.559h1.973v1.4H-10.9v6.561a1.467,1.467,0,0,0,.264.953,1.11,1.11,0,0,0,.9.318,4.374,4.374,0,0,0,.859-.117V0A5.268,5.268,0,0,1-10.264.2,2.25,2.25,0,0,1-12.09-.537a3.147,3.147,0,0,1-.615-2.08V-9.17h-1.924v-1.4h1.924v-2.559ZM-.293,0A3.8,3.8,0,0,1-.547-1.113,4.031,4.031,0,0,1-3.555.2,3.73,3.73,0,0,1-6.118-.688a2.859,2.859,0,0,1-1-2.241A2.987,2.987,0,0,1-5.864-5.493a5.916,5.916,0,0,1,3.53-.913H-.576v-.83a2.029,2.029,0,0,0-.566-1.509,2.276,2.276,0,0,0-1.67-.562,2.634,2.634,0,0,0-1.621.488,1.439,1.439,0,0,0-.654,1.182H-6.9a2.493,2.493,0,0,1,.562-1.528,3.832,3.832,0,0,1,1.523-1.167,5.125,5.125,0,0,1,2.114-.43,4.177,4.177,0,0,1,2.861.913A3.294,3.294,0,0,1,1.23-7.334v4.863A5.946,5.946,0,0,0,1.6-.156V0Zm-3-1.377A3.175,3.175,0,0,0-1.68-1.816a2.658,2.658,0,0,0,1.1-1.143V-5.127H-1.992q-3.32,0-3.32,1.943a1.645,1.645,0,0,0,.566,1.328A2.177,2.177,0,0,0-3.291-1.377Zm9.063-9.189L5.83-9.238a3.85,3.85,0,0,1,3.164-1.523q3.35,0,3.379,3.779V0H10.566V-6.992a2.432,2.432,0,0,0-.522-1.689,2.094,2.094,0,0,0-1.6-.547A2.607,2.607,0,0,0,6.9-8.76a3.183,3.183,0,0,0-1.035,1.23V0H4.063V-10.566Zm11.777-2.559v2.559h1.973v1.4H17.549v6.561a1.467,1.467,0,0,0,.264.953,1.11,1.11,0,0,0,.9.318,4.374,4.374,0,0,0,.859-.117V0A5.268,5.268,0,0,1,18.184.2a2.25,2.25,0,0,1-1.826-.732,3.147,3.147,0,0,1-.615-2.08V-9.17H13.818v-1.4h1.924v-2.559ZM26.016.2a4.617,4.617,0,0,1-3.5-1.411A5.237,5.237,0,0,1,21.172-4.99v-.332a6.341,6.341,0,0,1,.6-2.808,4.685,4.685,0,0,1,1.68-1.934,4.223,4.223,0,0,1,2.339-.7,3.957,3.957,0,0,1,3.2,1.357,5.877,5.877,0,0,1,1.143,3.887v.752H22.979a3.756,3.756,0,0,0,.913,2.524,2.87,2.87,0,0,0,2.222.962,3.147,3.147,0,0,0,1.621-.391A4.073,4.073,0,0,0,28.9-2.705l1.1.859A4.437,4.437,0,0,1,26.016.2Zm-.225-9.473a2.41,2.41,0,0,0-1.836.8,3.868,3.868,0,0,0-.918,2.231H28.33v-.137a3.441,3.441,0,0,0-.742-2.134A2.269,2.269,0,0,0,25.791-9.277ZM38.379-2.8a1.33,1.33,0,0,0-.552-1.138,5.311,5.311,0,0,0-1.924-.7,9.1,9.1,0,0,1-2.178-.7,3.1,3.1,0,0,1-1.191-.977,2.336,2.336,0,0,1-.386-1.348,2.741,2.741,0,0,1,1.1-2.2,4.291,4.291,0,0,1,2.808-.9,4.415,4.415,0,0,1,2.915.928,2.947,2.947,0,0,1,1.118,2.373H38.271a1.631,1.631,0,0,0-.63-1.279,2.36,2.36,0,0,0-1.587-.537,2.47,2.47,0,0,0-1.543.43,1.353,1.353,0,0,0-.557,1.123,1.1,1.1,0,0,0,.518.986,6.368,6.368,0,0,0,1.87.635,9.744,9.744,0,0,1,2.192.723A3.2,3.2,0,0,1,39.78-4.37a2.485,2.485,0,0,1,.405,1.44A2.7,2.7,0,0,1,39.053-.659,4.752,4.752,0,0,1,36.113.2a5.321,5.321,0,0,1-2.246-.449,3.653,3.653,0,0,1-1.528-1.255,3.025,3.025,0,0,1-.552-1.743h1.807a1.87,1.87,0,0,0,.728,1.44,2.822,2.822,0,0,0,1.792.532,2.913,2.913,0,0,0,1.646-.415A1.275,1.275,0,0,0,38.379-2.8Z" transform="translate(1195.021 14614.738)" fill="#fff"/>
    <g id="Grupo_143301" data-name="Grupo 143301" transform="translate(1186.412 14508.229) rotate(90)">
      <path id="Unión_53-5" data-name="Unión 53" d="M0,0H847.827V13.557H0Z" transform="translate(39.661 -9.903) rotate(90)" fill="#bec1c7"/>
      <path id="Unión_56-5" data-name="Unión 56" d="M0,0H36.758V13.557H0Z" transform="translate(64.105 -1.28) rotate(180)" fill="#bec1c7"/>
      <path id="Unión_58" data-name="Unión 58" d="M0,0H32.882V13.557H0Z" transform="translate(32.882 421.429) rotate(180)" fill="#bec1c7"/>
      <path id="Unión_57" data-name="Unión 57" d="M0,0H36.758V13.557H0Z" transform="translate(64.105 575.316) rotate(180)" fill="#bec1c7"/>
      <path id="Unión_64" data-name="Unión 64" d="M0,0H36.758V13.557H0Z" transform="translate(64.105 281.517) rotate(180)" fill="#bec1c7"/>
      <path id="Unión_59" data-name="Unión 59" d="M0,0H36.758V13.557H0Z" transform="translate(64.105 837.924) rotate(180)" fill="#bec1c7"/>
    </g>
  </g>
</svg>
