<svg xmlns="http://www.w3.org/2000/svg" xmlns:xlink="http://www.w3.org/1999/xlink" width="893" height="501.712" viewBox="0 0 893 501.712">
  <defs>
    <linearGradient id="linear-gradient" x1="0.5" x2="0.5" y2="1" gradientUnits="objectBoundingBox">
      <stop offset="0" stop-color="#4090de"/>
      <stop offset="1" stop-color="#3c6d9d"/>
    </linearGradient>
  </defs>
  <g id="Grupo_144555" data-name="Grupo 144555" transform="translate(-327 -8107)">
    <path id="Unión_67" data-name="Unión 67" d="M0,0H194.391V33.662H0Z" transform="translate(762.172 8463.078) rotate(-90)" fill="#bec1c7"/>
    <path id="Unión_69" data-name="Unión 69" d="M60.444,43.16,0,86.326V0Z" transform="translate(822.163 8443.891) rotate(90)" fill="#bec1c7"/>
    <path id="Trazado_186707" data-name="Trazado 186707" d="M-22.563,0h-2.93V-6.094h-5.713V0h-2.93V-14.219h2.93v5.762h5.713v-5.762h2.93Zm5.352,0h-2.832V-10.566h2.832Zm-3-13.3a1.39,1.39,0,0,1,.425-1.045,1.6,1.6,0,0,1,1.157-.41,1.6,1.6,0,0,1,1.152.41,1.382,1.382,0,0,1,.43,1.045,1.386,1.386,0,0,1-.435,1.055,1.6,1.6,0,0,1-1.147.41,1.6,1.6,0,0,1-1.147-.41A1.386,1.386,0,0,1-20.21-13.3ZM-9.165-2.92a.909.909,0,0,0-.513-.815,5.824,5.824,0,0,0-1.646-.532q-3.77-.791-3.77-3.2a2.9,2.9,0,0,1,1.167-2.349,4.708,4.708,0,0,1,3.052-.942,5.067,5.067,0,0,1,3.218.947A2.985,2.985,0,0,1-6.45-7.354H-9.272a1.366,1.366,0,0,0-.391-1,1.653,1.653,0,0,0-1.221-.4,1.689,1.689,0,0,0-1.1.322,1.017,1.017,0,0,0-.391.82.87.87,0,0,0,.444.757,4.571,4.571,0,0,0,1.5.5,12.244,12.244,0,0,1,1.777.474A2.92,2.92,0,0,1-6.421-3.037,2.756,2.756,0,0,1-7.661-.7a5.35,5.35,0,0,1-3.2.894,5.588,5.588,0,0,1-2.358-.474,3.957,3.957,0,0,1-1.616-1.3,3.018,3.018,0,0,1-.586-1.782h2.676a1.473,1.473,0,0,0,.557,1.152,2.208,2.208,0,0,0,1.387.4A2.044,2.044,0,0,0-9.58-2.114.957.957,0,0,0-9.165-2.92Zm7.939-10.244v2.6H.581V-8.5H-1.226v5.273A1.259,1.259,0,0,0-1-2.383a1.128,1.128,0,0,0,.859.254A4.5,4.5,0,0,0,.688-2.2V-.059A5.81,5.81,0,0,1-1.021.2q-2.969,0-3.027-3V-8.5H-5.591v-2.07h1.543v-2.6ZM1.421-5.381a6.266,6.266,0,0,1,.605-2.8,4.432,4.432,0,0,1,1.743-1.9,5.086,5.086,0,0,1,2.642-.674A4.812,4.812,0,0,1,9.9-9.453,5.252,5.252,0,0,1,11.411-5.9l.02.723a5.523,5.523,0,0,1-1.357,3.9A4.718,4.718,0,0,1,6.431.2,4.742,4.742,0,0,1,2.783-1.27,5.62,5.62,0,0,1,1.421-5.254Zm2.822.2a3.95,3.95,0,0,0,.566,2.3,1.868,1.868,0,0,0,1.621.8,1.873,1.873,0,0,0,1.6-.787,4.322,4.322,0,0,0,.576-2.518,3.91,3.91,0,0,0-.576-2.289,1.873,1.873,0,0,0-1.621-.812,1.842,1.842,0,0,0-1.6.807A4.395,4.395,0,0,0,4.243-5.181ZM19.106-7.92A7.667,7.667,0,0,0,18.091-8a2.067,2.067,0,0,0-2.1,1.084V0H13.169V-10.566h2.666l.078,1.26a2.615,2.615,0,0,1,2.354-1.455,2.957,2.957,0,0,1,.879.127ZM23.442,0H20.61V-10.566h2.832Zm-3-13.3a1.39,1.39,0,0,1,.425-1.045,1.6,1.6,0,0,1,1.157-.41,1.6,1.6,0,0,1,1.152.41,1.382,1.382,0,0,1,.43,1.045,1.386,1.386,0,0,1-.435,1.055,1.6,1.6,0,0,1-1.147.41,1.6,1.6,0,0,1-1.147-.41A1.386,1.386,0,0,1,20.444-13.3ZM31.89,0a3.134,3.134,0,0,1-.283-.947A3.415,3.415,0,0,1,28.94.2a3.752,3.752,0,0,1-2.573-.9,2.89,2.89,0,0,1-1.021-2.266,2.986,2.986,0,0,1,1.245-2.578,6.144,6.144,0,0,1,3.6-.908h1.3v-.605a1.741,1.741,0,0,0-.376-1.172,1.479,1.479,0,0,0-1.187-.439,1.682,1.682,0,0,0-1.118.342,1.161,1.161,0,0,0-.405.938H25.581a2.835,2.835,0,0,1,.566-1.7,3.744,3.744,0,0,1,1.6-1.226,5.837,5.837,0,0,1,2.324-.444,4.611,4.611,0,0,1,3.1.981,3.433,3.433,0,0,1,1.147,2.759v4.58a5.052,5.052,0,0,0,.42,2.275V0ZM29.556-1.963a2.431,2.431,0,0,0,1.152-.278,1.828,1.828,0,0,0,.781-.747V-4.8H30.435q-2.119,0-2.256,1.465l-.01.166a1.13,1.13,0,0,0,.371.869A1.441,1.441,0,0,0,29.556-1.963Z" transform="translate(438.817 8547.835)" fill="#12263f"/>
    <path id="Trazado_186708" data-name="Trazado 186708" d="M-36.143-5.01V0h-2.93V-14.219h5.547a6.417,6.417,0,0,1,2.817.586,4.318,4.318,0,0,1,1.87,1.665,4.643,4.643,0,0,1,.654,2.456,4.083,4.083,0,0,1-1.431,3.3,5.959,5.959,0,0,1-3.96,1.206Zm0-2.373h2.617a2.573,2.573,0,0,0,1.772-.547,1.989,1.989,0,0,0,.61-1.562,2.345,2.345,0,0,0-.615-1.689,2.3,2.3,0,0,0-1.7-.664h-2.686ZM-20.42-7.92A7.667,7.667,0,0,0-21.436-8a2.067,2.067,0,0,0-2.1,1.084V0h-2.822V-10.566h2.666l.078,1.26a2.615,2.615,0,0,1,2.354-1.455,2.957,2.957,0,0,1,.879.127ZM-14.385.2A5.187,5.187,0,0,1-18.169-1.23a5.068,5.068,0,0,1-1.46-3.8V-5.3a6.383,6.383,0,0,1,.615-2.847,4.515,4.515,0,0,1,1.743-1.934,4.893,4.893,0,0,1,2.573-.679,4.385,4.385,0,0,1,3.413,1.367,5.555,5.555,0,0,1,1.245,3.877v1.152h-6.729a2.622,2.622,0,0,0,.825,1.66A2.5,2.5,0,0,0-14.2-2.08,3.046,3.046,0,0,0-11.65-3.262l1.387,1.553a4.237,4.237,0,0,1-1.719,1.4A5.639,5.639,0,0,1-14.385.2Zm-.322-8.682a1.764,1.764,0,0,0-1.362.569,2.946,2.946,0,0,0-.669,1.628h3.926v-.226a2.1,2.1,0,0,0-.508-1.457A1.819,1.819,0,0,0-14.707-8.486ZM-2.715-2.92a.909.909,0,0,0-.513-.815,5.824,5.824,0,0,0-1.646-.532q-3.77-.791-3.77-3.2A2.9,2.9,0,0,1-7.476-9.819a4.708,4.708,0,0,1,3.052-.942,5.067,5.067,0,0,1,3.218.947A2.985,2.985,0,0,1,0-7.354H-2.822a1.366,1.366,0,0,0-.391-1,1.653,1.653,0,0,0-1.221-.4,1.689,1.689,0,0,0-1.1.322,1.017,1.017,0,0,0-.391.82.87.87,0,0,0,.444.757,4.571,4.571,0,0,0,1.5.5,12.244,12.244,0,0,1,1.777.474A2.92,2.92,0,0,1,.029-3.037,2.756,2.756,0,0,1-1.211-.7,5.35,5.35,0,0,1-4.414.2,5.588,5.588,0,0,1-6.772-.278a3.957,3.957,0,0,1-1.616-1.3,3.018,3.018,0,0,1-.586-1.782H-6.3a1.473,1.473,0,0,0,.557,1.152,2.208,2.208,0,0,0,1.387.4A2.044,2.044,0,0,0-3.13-2.114.957.957,0,0,0-2.715-2.92ZM6.709.2A5.187,5.187,0,0,1,2.925-1.23a5.068,5.068,0,0,1-1.46-3.8V-5.3A6.383,6.383,0,0,1,2.08-8.149a4.515,4.515,0,0,1,1.743-1.934A4.893,4.893,0,0,1,6.4-10.762,4.385,4.385,0,0,1,9.81-9.395a5.555,5.555,0,0,1,1.245,3.877v1.152H4.326a2.622,2.622,0,0,0,.825,1.66,2.5,2.5,0,0,0,1.743.625A3.046,3.046,0,0,0,9.443-3.262L10.83-1.709a4.237,4.237,0,0,1-1.719,1.4A5.639,5.639,0,0,1,6.709.2ZM6.387-8.486a1.764,1.764,0,0,0-1.362.569,2.946,2.946,0,0,0-.669,1.628H8.281v-.226a2.1,2.1,0,0,0-.508-1.457A1.819,1.819,0,0,0,6.387-8.486Zm8.867-2.08.088,1.221a3.689,3.689,0,0,1,3.037-1.416,3.066,3.066,0,0,1,2.5.986,4.6,4.6,0,0,1,.84,2.949V0H18.9V-6.773a1.838,1.838,0,0,0-.391-1.307,1.746,1.746,0,0,0-1.3-.406A1.941,1.941,0,0,0,15.42-7.468V0H12.6V-10.566Zm11.982-2.6v2.6h1.807V-8.5H27.236v5.273a1.259,1.259,0,0,0,.225.84,1.128,1.128,0,0,0,.859.254,4.5,4.5,0,0,0,.83-.068V-.059A5.81,5.81,0,0,1,27.441.2q-2.969,0-3.027-3V-8.5H22.871v-2.07h1.543v-2.6ZM35.479.2A5.187,5.187,0,0,1,31.694-1.23a5.068,5.068,0,0,1-1.46-3.8V-5.3a6.383,6.383,0,0,1,.615-2.847,4.515,4.515,0,0,1,1.743-1.934,4.893,4.893,0,0,1,2.573-.679,4.385,4.385,0,0,1,3.413,1.367,5.555,5.555,0,0,1,1.245,3.877v1.152H33.1a2.622,2.622,0,0,0,.825,1.66,2.5,2.5,0,0,0,1.743.625,3.046,3.046,0,0,0,2.549-1.182L39.6-1.709a4.237,4.237,0,0,1-1.719,1.4A5.639,5.639,0,0,1,35.479.2Zm-.322-8.682a1.764,1.764,0,0,0-1.362.569,2.946,2.946,0,0,0-.669,1.628h3.926v-.226a2.1,2.1,0,0,0-.508-1.457A1.819,1.819,0,0,0,35.156-8.486Z" transform="translate(779.817 8547.835)" fill="#12263f"/>
    <path id="Trazado_186709" data-name="Trazado 186709" d="M-19.243-5.811h-5.625V0H-27.8V-14.219h9.258v2.373h-6.328v3.672h5.625Zm8.33,4.736A3.539,3.539,0,0,1-13.8.2,3.338,3.338,0,0,1-16.4-.781a4.169,4.169,0,0,1-.913-2.861v-6.924h2.822v6.834q0,1.652,1.5,1.652a2.038,2.038,0,0,0,1.973-1v-7.489h2.832V0h-2.656Zm8.242-12.09v2.6H-.864V-8.5H-2.671v5.273a1.259,1.259,0,0,0,.225.84,1.128,1.128,0,0,0,.859.254A4.5,4.5,0,0,0-.757-2.2V-.059A5.81,5.81,0,0,1-2.466.2q-2.969,0-3.027-3V-8.5H-7.036v-2.07h1.543v-2.6ZM7.036-1.074A3.539,3.539,0,0,1,4.146.2,3.338,3.338,0,0,1,1.553-.781,4.169,4.169,0,0,1,.64-3.643v-6.924H3.462v6.834q0,1.652,1.5,1.652a2.038,2.038,0,0,0,1.973-1v-7.489H9.771V0H7.114Zm10.8-6.846A7.667,7.667,0,0,0,16.821-8a2.067,2.067,0,0,0-2.1,1.084V0H11.9V-10.566h2.666l.078,1.26A2.615,2.615,0,0,1,17-10.762a2.957,2.957,0,0,1,.879.127ZM18.4-5.381a6.266,6.266,0,0,1,.605-2.8,4.432,4.432,0,0,1,1.743-1.9,5.086,5.086,0,0,1,2.642-.674,4.812,4.812,0,0,1,3.491,1.309A5.252,5.252,0,0,1,28.394-5.9l.02.723a5.523,5.523,0,0,1-1.357,3.9A4.718,4.718,0,0,1,23.413.2,4.742,4.742,0,0,1,19.766-1.27,5.62,5.62,0,0,1,18.4-5.254Zm2.822.2a3.95,3.95,0,0,0,.566,2.3,1.868,1.868,0,0,0,1.621.8,1.873,1.873,0,0,0,1.6-.787,4.322,4.322,0,0,0,.576-2.518,3.91,3.91,0,0,0-.576-2.289,1.873,1.873,0,0,0-1.621-.812,1.842,1.842,0,0,0-1.6.807A4.395,4.395,0,0,0,21.226-5.181Z" transform="translate(1110 8547.835)" fill="#12263f"/>
    <path id="Trazado_186705" data-name="Trazado 186705" d="M7.22,0H3.558V-7.617H-3.583V0H-7.245V-17.773h3.662v7.2H3.558v-7.2H7.22ZM-6.262,16.274a7.833,7.833,0,0,1,.757-3.5,5.54,5.54,0,0,1,2.179-2.38,6.357,6.357,0,0,1,3.3-.842A6.014,6.014,0,0,1,4.34,11.184a6.565,6.565,0,0,1,1.886,4.443l.024.9a6.9,6.9,0,0,1-1.7,4.877A5.9,5.9,0,0,1,0,23.244a5.927,5.927,0,0,1-4.559-1.831,7.025,7.025,0,0,1-1.7-4.98Zm3.528.25A4.937,4.937,0,0,0-2.026,19.4,2.336,2.336,0,0,0,0,20.4a2.341,2.341,0,0,0,2-.984,5.4,5.4,0,0,0,.72-3.148A4.888,4.888,0,0,0,2,13.407,2.341,2.341,0,0,0-.024,12.392a2.3,2.3,0,0,0-2,1.009A5.493,5.493,0,0,0-2.734,16.524ZM.012,41.007l2.441-8.215H6.238L.928,48.051l-.293.7a4.026,4.026,0,0,1-3.906,2.588A5.551,5.551,0,0,1-4.834,51.1V48.429l.537.012a2.9,2.9,0,0,0,1.5-.305,2,2,0,0,0,.775-1.013l.415-1.086L-6.238,32.792h3.8Z" transform="translate(779 8335)" fill="#fff"/>
    <path id="Unión_72" data-name="Unión 72" d="M0,0H194.391V33.662H0Z" transform="translate(1044.567 8371.99) rotate(180)" fill="#bec1c7"/>
    <path id="Unión_74" data-name="Unión 74" d="M0,0H194.391V33.662H0Z" transform="translate(515.604 8338.336)" fill="#bec1c7"/>
    <path id="Unión_73" data-name="Unión 73" d="M60.444,43.16,0,86.326V0Z" transform="translate(1025.38 8312)" fill="#bec1c7"/>
    <path id="Unión_75" data-name="Unión 75" d="M60.444,43.16,0,86.326V0Z" transform="translate(534.792 8398.326) rotate(180)" fill="#bec1c7"/>
    <path id="Trazado_186704" data-name="Trazado 186704" d="M-14-3.662h-6.421L-21.637,0h-3.894l6.616-17.773h3.394L-8.868,0h-3.894Zm-5.432-2.966h4.443l-2.234-6.653ZM-3.119-4.993l2.441-8.215H3.107L-2.2,2.051l-.293.7A4.026,4.026,0,0,1-6.4,5.334,5.551,5.551,0,0,1-7.965,5.1V2.429l.537.012a2.9,2.9,0,0,0,1.5-.305,2,2,0,0,0,.775-1.013L-4.742.037-9.369-13.208h3.8ZM10.419.244a6.484,6.484,0,0,1-4.73-1.782A6.335,6.335,0,0,1,3.864-6.287v-.342a7.979,7.979,0,0,1,.769-3.558A5.644,5.644,0,0,1,6.812-12.6a6.116,6.116,0,0,1,3.217-.848,5.482,5.482,0,0,1,4.266,1.709A6.944,6.944,0,0,1,15.851-6.9v1.44H7.44A3.277,3.277,0,0,0,8.472-3.381a3.118,3.118,0,0,0,2.179.781,3.808,3.808,0,0,0,3.186-1.477L15.57-2.136A5.3,5.3,0,0,1,13.422-.385,7.049,7.049,0,0,1,10.419.244Zm-.4-10.852a2.2,2.2,0,0,0-1.7.711,3.682,3.682,0,0,0-.836,2.035h4.907v-.282a2.626,2.626,0,0,0-.635-1.821A2.274,2.274,0,0,0,10.016-10.608ZM25.275-9.9a9.584,9.584,0,0,0-1.27-.1,2.584,2.584,0,0,0-2.625,1.355V0H17.853V-13.208h3.333l.1,1.575a3.269,3.269,0,0,1,2.942-1.819,3.7,3.7,0,0,1,1.1.159Z" transform="translate(602 8362)" fill="#fff"/>
    <path id="Trazado_186706" data-name="Trazado 186706" d="M-38.684-17.773l4.565,12.891,4.541-12.891h4.81V0h-3.674V-4.858l.366-8.386L-32.874,0h-2.515l-4.785-13.232.366,8.374V0h-3.662V-17.773ZM-14.148,0A3.918,3.918,0,0,1-14.5-1.184,4.269,4.269,0,0,1-17.834.244,4.69,4.69,0,0,1-21.051-.879a3.612,3.612,0,0,1-1.276-2.832A3.733,3.733,0,0,1-20.77-6.934a7.68,7.68,0,0,1,4.5-1.135h1.624v-.757a2.177,2.177,0,0,0-.47-1.465A1.849,1.849,0,0,0-16.6-10.84a2.1,2.1,0,0,0-1.4.427,1.451,1.451,0,0,0-.507,1.172h-3.528a3.544,3.544,0,0,1,.708-2.124,4.68,4.68,0,0,1,2-1.532,7.3,7.3,0,0,1,2.905-.555,5.764,5.764,0,0,1,3.876,1.227,4.292,4.292,0,0,1,1.434,3.448v5.725a6.314,6.314,0,0,0,.525,2.844V0Zm-2.917-2.454a3.038,3.038,0,0,0,1.44-.348,2.285,2.285,0,0,0,.977-.934V-6.006h-1.318q-2.649,0-2.82,1.831l-.012.208a1.412,1.412,0,0,0,.464,1.086A1.8,1.8,0,0,0-17.065-2.454ZM-5.151-13.208l.11,1.526a4.611,4.611,0,0,1,3.8-1.77A3.832,3.832,0,0,1,1.88-12.219,5.752,5.752,0,0,1,2.93-8.533V0H-.6V-8.467A2.3,2.3,0,0,0-1.086-10.1a2.183,2.183,0,0,0-1.624-.508A2.426,2.426,0,0,0-4.944-9.336V0H-8.472V-13.208Zm7.007-5.383a3.417,3.417,0,0,1-.806,2.313,2.5,2.5,0,0,1-1.965.934,2.981,2.981,0,0,1-.824-.1,5.529,5.529,0,0,1-.995-.446,5.366,5.366,0,0,0-.916-.421,2.238,2.238,0,0,0-.61-.079.979.979,0,0,0-.726.305,1.187,1.187,0,0,0-.3.867l-2.051-.122a3.468,3.468,0,0,1,.8-2.307A2.466,2.466,0,0,1-4.578-18.6a2.522,2.522,0,0,1,.69.092,7.6,7.6,0,0,1,1.056.446,6.863,6.863,0,0,0,1.013.427,2.312,2.312,0,0,0,.586.073,1.03,1.03,0,0,0,.739-.3,1.138,1.138,0,0,0,.311-.861ZM13.257,0A3.918,3.918,0,0,1,12.9-1.184,4.269,4.269,0,0,1,9.57.244,4.69,4.69,0,0,1,6.354-.879,3.612,3.612,0,0,1,5.078-3.711,3.733,3.733,0,0,1,6.635-6.934a7.68,7.68,0,0,1,4.5-1.135h1.624v-.757a2.177,2.177,0,0,0-.47-1.465A1.849,1.849,0,0,0,10.8-10.84a2.1,2.1,0,0,0-1.4.427A1.451,1.451,0,0,0,8.9-9.241H5.371a3.544,3.544,0,0,1,.708-2.124,4.68,4.68,0,0,1,2-1.532,7.3,7.3,0,0,1,2.905-.555,5.764,5.764,0,0,1,3.876,1.227A4.292,4.292,0,0,1,16.3-8.777v5.725a6.314,6.314,0,0,0,.525,2.844V0ZM10.339-2.454A3.038,3.038,0,0,0,11.78-2.8a2.285,2.285,0,0,0,.977-.934V-6.006H11.438q-2.649,0-2.82,1.831l-.012.208A1.412,1.412,0,0,0,9.07-2.881,1.8,1.8,0,0,0,10.339-2.454ZM22.253-13.208l.11,1.526a4.611,4.611,0,0,1,3.8-1.77,3.832,3.832,0,0,1,3.125,1.233,5.752,5.752,0,0,1,1.05,3.687V0H26.807V-8.467a2.3,2.3,0,0,0-.488-1.633,2.183,2.183,0,0,0-1.624-.508,2.426,2.426,0,0,0-2.234,1.272V0H18.933V-13.208ZM40.662,0a3.918,3.918,0,0,1-.354-1.184A4.269,4.269,0,0,1,36.975.244,4.69,4.69,0,0,1,33.759-.879a3.612,3.612,0,0,1-1.276-2.832,3.733,3.733,0,0,1,1.556-3.223,7.68,7.68,0,0,1,4.5-1.135h1.624v-.757a2.177,2.177,0,0,0-.47-1.465,1.849,1.849,0,0,0-1.483-.549,2.1,2.1,0,0,0-1.4.427A1.451,1.451,0,0,0,36.3-9.241H32.776a3.544,3.544,0,0,1,.708-2.124,4.68,4.68,0,0,1,2-1.532,7.3,7.3,0,0,1,2.905-.555,5.764,5.764,0,0,1,3.876,1.227A4.292,4.292,0,0,1,43.7-8.777v5.725a6.314,6.314,0,0,0,.525,2.844V0ZM37.744-2.454a3.038,3.038,0,0,0,1.44-.348,2.285,2.285,0,0,0,.977-.934V-6.006H38.843q-2.649,0-2.82,1.831l-.012.208a1.412,1.412,0,0,0,.464,1.086A1.8,1.8,0,0,0,37.744-2.454Z" transform="translate(948 8362)" fill="#fff"/>
    <g id="Grupo_142410" data-name="Grupo 142410" transform="translate(431 8608.712) rotate(-90)">
      <path id="Unión_53" data-name="Unión 53" d="M0,0H685V13.557H0Z" transform="translate(13.557) rotate(90)" fill="#bec1c7"/>
      <path id="Unión_56" data-name="Unión 56" d="M0,0H36.758V13.557H0Z" transform="translate(38.001 356.056) rotate(180)" fill="#bec1c7"/>
      <path id="Unión_55" data-name="Unión 55" d="M0,0H36.758V13.557H0Z" transform="translate(36.758 13.557) rotate(180)" fill="#bec1c7"/>
      <path id="Unión_57" data-name="Unión 57" d="M0,0H36.758V13.557H0Z" transform="translate(38.001 685) rotate(180)" fill="#bec1c7"/>
    </g>
    <path id="Unión_76" data-name="Unión 76" d="M0,0H685V13.557H0Z" transform="translate(431 8595.155)" fill="#bec1c7"/>
    <path id="Unión_77" data-name="Unión 77" d="M0,0H685V13.557H0Z" transform="translate(431 8160.222)" fill="#bec1c7"/>
    <ellipse id="Elipse_4738" data-name="Elipse 4738" cx="104" cy="60" rx="104" ry="60" transform="translate(327 8107)" fill="url(#linear-gradient)"/>
    <ellipse id="Elipse_4739" data-name="Elipse 4739" cx="104" cy="60" rx="104" ry="60" transform="translate(674 8107)" fill="url(#linear-gradient)"/>
    <ellipse id="Elipse_4740" data-name="Elipse 4740" cx="104" cy="60" rx="104" ry="60" transform="translate(1012 8107)" fill="url(#linear-gradient)"/>
    <path id="Trazado_186701" data-name="Trazado 186701" d="M-50.156,0h-2.93V-14.219h2.93Zm5.127-10.566.088,1.221A3.689,3.689,0,0,1-41.9-10.762a3.066,3.066,0,0,1,2.5.986,4.6,4.6,0,0,1,.84,2.949V0h-2.822V-6.773a1.838,1.838,0,0,0-.391-1.307,1.746,1.746,0,0,0-1.3-.406,1.941,1.941,0,0,0-1.787,1.018V0h-2.822V-10.566ZM-35.654,0V-8.5h-1.572v-2.07h1.572v-.9a3.648,3.648,0,0,1,1.021-2.759,3.952,3.952,0,0,1,2.856-.981,6.652,6.652,0,0,1,1.436.194l-.029,2.17a3.6,3.6,0,0,0-.859-.088q-1.592,0-1.592,1.507v.857h2.1V-8.5h-2.1V0ZM-29.7-5.381a6.266,6.266,0,0,1,.605-2.8,4.432,4.432,0,0,1,1.743-1.9,5.086,5.086,0,0,1,2.642-.674,4.812,4.812,0,0,1,3.491,1.309A5.252,5.252,0,0,1-19.707-5.9l.02.723a5.523,5.523,0,0,1-1.357,3.9A4.718,4.718,0,0,1-24.687.2,4.742,4.742,0,0,1-28.335-1.27,5.62,5.62,0,0,1-29.7-5.254Zm2.822.2a3.95,3.95,0,0,0,.566,2.3,1.868,1.868,0,0,0,1.621.8,1.873,1.873,0,0,0,1.6-.787,4.322,4.322,0,0,0,.576-2.518,3.91,3.91,0,0,0-.576-2.289,1.873,1.873,0,0,0-1.621-.812,1.842,1.842,0,0,0-1.6.807A4.395,4.395,0,0,0-26.875-5.181ZM-12.012-7.92A7.667,7.667,0,0,0-13.027-8a2.067,2.067,0,0,0-2.1,1.084V0h-2.822V-10.566h2.666l.078,1.26a2.615,2.615,0,0,1,2.354-1.455,2.957,2.957,0,0,1,.879.127Zm4-2.646.088,1.182a3.713,3.713,0,0,1,3.037-1.377A2.818,2.818,0,0,1-2.08-9.15a3.628,3.628,0,0,1,3.174-1.611,3.152,3.152,0,0,1,2.559,1,4.6,4.6,0,0,1,.84,3.013V0H1.66V-6.754A2.02,2.02,0,0,0,1.309-8.07a1.556,1.556,0,0,0-1.24-.416A1.762,1.762,0,0,0-1.689-7.273L-1.68,0H-4.5V-6.744a2,2,0,0,0-.361-1.331,1.571,1.571,0,0,0-1.23-.411,1.828,1.828,0,0,0-1.738,1V0h-2.822V-10.566ZM12.783,0A3.134,3.134,0,0,1,12.5-.947,3.415,3.415,0,0,1,9.834.2,3.752,3.752,0,0,1,7.261-.7,2.89,2.89,0,0,1,6.24-2.969,2.986,2.986,0,0,1,7.485-5.547a6.144,6.144,0,0,1,3.6-.908h1.3v-.605a1.741,1.741,0,0,0-.376-1.172,1.479,1.479,0,0,0-1.187-.439A1.682,1.682,0,0,0,9.7-8.33a1.161,1.161,0,0,0-.405.938H6.475a2.835,2.835,0,0,1,.566-1.7,3.744,3.744,0,0,1,1.6-1.226,5.837,5.837,0,0,1,2.324-.444,4.611,4.611,0,0,1,3.1.981,3.433,3.433,0,0,1,1.147,2.759v4.58a5.052,5.052,0,0,0,.42,2.275V0ZM10.449-1.963A2.431,2.431,0,0,0,11.6-2.241a1.828,1.828,0,0,0,.781-.747V-4.8H11.328Q9.209-4.8,9.072-3.34l-.01.166a1.13,1.13,0,0,0,.371.869A1.441,1.441,0,0,0,10.449-1.963ZM21.777-2.08a1.851,1.851,0,0,0,1.27-.43,1.506,1.506,0,0,0,.508-1.143H26.2a3.62,3.62,0,0,1-.586,1.968A3.866,3.866,0,0,1,24.038-.3,4.936,4.936,0,0,1,21.826.2a4.587,4.587,0,0,1-3.574-1.44,5.7,5.7,0,0,1-1.309-3.979V-5.41a5.635,5.635,0,0,1,1.3-3.9,4.534,4.534,0,0,1,3.564-1.455,4.444,4.444,0,0,1,3.179,1.128,3.994,3.994,0,0,1,1.216,3H23.555a1.939,1.939,0,0,0-.508-1.34,1.693,1.693,0,0,0-1.289-.515,1.7,1.7,0,0,0-1.489.719,4.166,4.166,0,0,0-.5,2.333v.293a4.219,4.219,0,0,0,.5,2.347A1.721,1.721,0,0,0,21.777-2.08ZM30.791,0H27.959V-10.566h2.832Zm-3-13.3a1.39,1.39,0,0,1,.425-1.045,1.6,1.6,0,0,1,1.157-.41,1.6,1.6,0,0,1,1.152.41,1.382,1.382,0,0,1,.43,1.045,1.386,1.386,0,0,1-.435,1.055,1.6,1.6,0,0,1-1.147.41,1.6,1.6,0,0,1-1.147-.41A1.386,1.386,0,0,1,27.793-13.3Zm4.883,7.92a6.267,6.267,0,0,1,.605-2.8,4.432,4.432,0,0,1,1.743-1.9,5.086,5.086,0,0,1,2.642-.674,4.812,4.812,0,0,1,3.491,1.309A5.252,5.252,0,0,1,42.666-5.9l.02.723a5.523,5.523,0,0,1-1.357,3.9A4.718,4.718,0,0,1,37.686.2,4.742,4.742,0,0,1,34.038-1.27a5.62,5.62,0,0,1-1.362-3.984Zm2.822.2a3.95,3.95,0,0,0,.566,2.3,1.868,1.868,0,0,0,1.621.8,1.873,1.873,0,0,0,1.6-.787,4.322,4.322,0,0,0,.576-2.518,3.91,3.91,0,0,0-.576-2.289,1.873,1.873,0,0,0-1.621-.812,1.842,1.842,0,0,0-1.6.807A4.395,4.395,0,0,0,35.5-5.181ZM38.223-15H41.3l-2.705,3.027H36.3Zm8.8,4.434.088,1.221a3.689,3.689,0,0,1,3.037-1.416,3.066,3.066,0,0,1,2.5.986,4.6,4.6,0,0,1,.84,2.949V0H50.664V-6.773a1.838,1.838,0,0,0-.391-1.307,1.746,1.746,0,0,0-1.3-.406,1.941,1.941,0,0,0-1.787,1.018V0H44.365V-10.566ZM-35.312,19.586a3.522,3.522,0,0,1,2.822-1.348q3.437,0,3.486,3.994V29h-2.822V22.3a1.971,1.971,0,0,0-.391-1.346,1.672,1.672,0,0,0-1.3-.436,1.92,1.92,0,0,0-1.8.959V29h-2.822V14h2.822ZM-23.9,29h-2.832V18.434H-23.9Zm-3-13.3a1.39,1.39,0,0,1,.425-1.045,1.6,1.6,0,0,1,1.157-.41,1.6,1.6,0,0,1,1.152.41,1.382,1.382,0,0,1,.43,1.045,1.386,1.386,0,0,1-.435,1.055,1.6,1.6,0,0,1-1.147.41,1.6,1.6,0,0,1-1.147-.41A1.386,1.386,0,0,1-26.895,15.7ZM-15.85,26.08a.909.909,0,0,0-.513-.815,5.824,5.824,0,0,0-1.646-.532q-3.77-.791-3.77-3.2a2.9,2.9,0,0,1,1.167-2.349,4.707,4.707,0,0,1,3.052-.942,5.067,5.067,0,0,1,3.218.947,2.985,2.985,0,0,1,1.206,2.461h-2.822a1.366,1.366,0,0,0-.391-1,1.653,1.653,0,0,0-1.221-.4,1.689,1.689,0,0,0-1.1.322,1.017,1.017,0,0,0-.391.82.87.87,0,0,0,.444.757,4.571,4.571,0,0,0,1.5.5,12.244,12.244,0,0,1,1.777.474,2.92,2.92,0,0,1,2.236,2.842,2.756,2.756,0,0,1-1.24,2.339,5.35,5.35,0,0,1-3.2.894,5.588,5.588,0,0,1-2.358-.474,3.957,3.957,0,0,1-1.616-1.3,3.018,3.018,0,0,1-.586-1.782h2.676a1.473,1.473,0,0,0,.557,1.152,2.208,2.208,0,0,0,1.387.4,2.044,2.044,0,0,0,1.226-.308A.957.957,0,0,0-15.85,26.08ZM-7.91,15.836v2.6H-6.1V20.5H-7.91v5.273a1.259,1.259,0,0,0,.225.84,1.128,1.128,0,0,0,.859.254A4.5,4.5,0,0,0-6,26.8v2.139a5.81,5.81,0,0,1-1.709.254q-2.969,0-3.027-3V20.5h-1.543v-2.07h1.543v-2.6Zm2.646,7.783a6.266,6.266,0,0,1,.605-2.8,4.432,4.432,0,0,1,1.743-1.9,5.086,5.086,0,0,1,2.642-.674,4.812,4.812,0,0,1,3.491,1.309A5.252,5.252,0,0,1,4.727,23.1l.02.723a5.523,5.523,0,0,1-1.357,3.9A4.718,4.718,0,0,1-.254,29.2,4.742,4.742,0,0,1-3.9,27.73a5.62,5.62,0,0,1-1.362-3.984Zm2.822.2a3.95,3.95,0,0,0,.566,2.3,1.868,1.868,0,0,0,1.621.8,1.873,1.873,0,0,0,1.6-.787,4.322,4.322,0,0,0,.576-2.518,3.91,3.91,0,0,0-.576-2.289,1.873,1.873,0,0,0-1.621-.812,1.842,1.842,0,0,0-1.6.807A4.395,4.395,0,0,0-2.441,23.819ZM.283,14H3.359L.654,17.027H-1.641Zm12.139,7.08A7.667,7.667,0,0,0,11.406,21a2.067,2.067,0,0,0-2.1,1.084V29H6.484V18.434H9.15l.078,1.26a2.615,2.615,0,0,1,2.354-1.455,2.957,2.957,0,0,1,.879.127ZM16.758,29H13.926V18.434h2.832Zm-3-13.3a1.39,1.39,0,0,1,.425-1.045,1.6,1.6,0,0,1,1.157-.41,1.6,1.6,0,0,1,1.152.41,1.491,1.491,0,0,1,0,2.1,1.81,1.81,0,0,1-2.295,0A1.386,1.386,0,0,1,13.76,15.7ZM23.477,26.92a1.851,1.851,0,0,0,1.27-.43,1.506,1.506,0,0,0,.508-1.143H27.9a3.62,3.62,0,0,1-.586,1.968A3.866,3.866,0,0,1,25.737,28.7a4.936,4.936,0,0,1-2.212.493,4.587,4.587,0,0,1-3.574-1.44,5.7,5.7,0,0,1-1.309-3.979V23.59a5.635,5.635,0,0,1,1.3-3.9,4.534,4.534,0,0,1,3.564-1.455,4.444,4.444,0,0,1,3.179,1.128,3.994,3.994,0,0,1,1.216,3H25.254a1.939,1.939,0,0,0-.508-1.34,1.887,1.887,0,0,0-2.778.2,4.166,4.166,0,0,0-.5,2.333v.293a4.219,4.219,0,0,0,.5,2.347A1.721,1.721,0,0,0,23.477,26.92ZM35.635,29a3.134,3.134,0,0,1-.283-.947A3.415,3.415,0,0,1,32.686,29.2a3.752,3.752,0,0,1-2.573-.9,2.89,2.89,0,0,1-1.021-2.266,2.986,2.986,0,0,1,1.245-2.578,6.144,6.144,0,0,1,3.6-.908h1.3v-.605a1.741,1.741,0,0,0-.376-1.172,1.479,1.479,0,0,0-1.187-.439,1.682,1.682,0,0,0-1.118.342,1.161,1.161,0,0,0-.405.938H29.326a2.835,2.835,0,0,1,.566-1.7,3.744,3.744,0,0,1,1.6-1.226,5.837,5.837,0,0,1,2.324-.444,4.611,4.611,0,0,1,3.1.981,3.433,3.433,0,0,1,1.147,2.759v4.58a5.052,5.052,0,0,0,.42,2.275V29ZM33.3,27.037a2.431,2.431,0,0,0,1.152-.278,1.828,1.828,0,0,0,.781-.747V24.2H34.18q-2.119,0-2.256,1.465l-.01.166a1.13,1.13,0,0,0,.371.869A1.441,1.441,0,0,0,33.3,27.037Z" transform="translate(432.817 8161.5)" fill="#fff"/>
    <path id="Trazado_186702" data-name="Trazado 186702" d="M-50.156,0h-2.93V-14.219h2.93Zm5.127-10.566.088,1.221A3.689,3.689,0,0,1-41.9-10.762a3.066,3.066,0,0,1,2.5.986,4.6,4.6,0,0,1,.84,2.949V0h-2.822V-6.773a1.838,1.838,0,0,0-.391-1.307,1.746,1.746,0,0,0-1.3-.406,1.941,1.941,0,0,0-1.787,1.018V0h-2.822V-10.566ZM-35.654,0V-8.5h-1.572v-2.07h1.572v-.9a3.648,3.648,0,0,1,1.021-2.759,3.952,3.952,0,0,1,2.856-.981,6.652,6.652,0,0,1,1.436.194l-.029,2.17a3.6,3.6,0,0,0-.859-.088q-1.592,0-1.592,1.507v.857h2.1V-8.5h-2.1V0ZM-29.7-5.381a6.266,6.266,0,0,1,.605-2.8,4.432,4.432,0,0,1,1.743-1.9,5.086,5.086,0,0,1,2.642-.674,4.812,4.812,0,0,1,3.491,1.309A5.252,5.252,0,0,1-19.707-5.9l.02.723a5.523,5.523,0,0,1-1.357,3.9A4.718,4.718,0,0,1-24.687.2,4.742,4.742,0,0,1-28.335-1.27,5.62,5.62,0,0,1-29.7-5.254Zm2.822.2a3.95,3.95,0,0,0,.566,2.3,1.868,1.868,0,0,0,1.621.8,1.873,1.873,0,0,0,1.6-.787,4.322,4.322,0,0,0,.576-2.518,3.91,3.91,0,0,0-.576-2.289,1.873,1.873,0,0,0-1.621-.812,1.842,1.842,0,0,0-1.6.807A4.395,4.395,0,0,0-26.875-5.181ZM-12.012-7.92A7.667,7.667,0,0,0-13.027-8a2.067,2.067,0,0,0-2.1,1.084V0h-2.822V-10.566h2.666l.078,1.26a2.615,2.615,0,0,1,2.354-1.455,2.957,2.957,0,0,1,.879.127Zm4-2.646.088,1.182a3.713,3.713,0,0,1,3.037-1.377A2.818,2.818,0,0,1-2.08-9.15a3.628,3.628,0,0,1,3.174-1.611,3.152,3.152,0,0,1,2.559,1,4.6,4.6,0,0,1,.84,3.013V0H1.66V-6.754A2.02,2.02,0,0,0,1.309-8.07a1.556,1.556,0,0,0-1.24-.416A1.762,1.762,0,0,0-1.689-7.273L-1.68,0H-4.5V-6.744a2,2,0,0,0-.361-1.331,1.571,1.571,0,0,0-1.23-.411,1.828,1.828,0,0,0-1.738,1V0h-2.822V-10.566ZM12.783,0A3.134,3.134,0,0,1,12.5-.947,3.415,3.415,0,0,1,9.834.2,3.752,3.752,0,0,1,7.261-.7,2.89,2.89,0,0,1,6.24-2.969,2.986,2.986,0,0,1,7.485-5.547a6.144,6.144,0,0,1,3.6-.908h1.3v-.605a1.741,1.741,0,0,0-.376-1.172,1.479,1.479,0,0,0-1.187-.439A1.682,1.682,0,0,0,9.7-8.33a1.161,1.161,0,0,0-.405.938H6.475a2.835,2.835,0,0,1,.566-1.7,3.744,3.744,0,0,1,1.6-1.226,5.837,5.837,0,0,1,2.324-.444,4.611,4.611,0,0,1,3.1.981,3.433,3.433,0,0,1,1.147,2.759v4.58a5.052,5.052,0,0,0,.42,2.275V0ZM10.449-1.963A2.431,2.431,0,0,0,11.6-2.241a1.828,1.828,0,0,0,.781-.747V-4.8H11.328Q9.209-4.8,9.072-3.34l-.01.166a1.13,1.13,0,0,0,.371.869A1.441,1.441,0,0,0,10.449-1.963ZM21.777-2.08a1.851,1.851,0,0,0,1.27-.43,1.506,1.506,0,0,0,.508-1.143H26.2a3.62,3.62,0,0,1-.586,1.968A3.866,3.866,0,0,1,24.038-.3,4.936,4.936,0,0,1,21.826.2a4.587,4.587,0,0,1-3.574-1.44,5.7,5.7,0,0,1-1.309-3.979V-5.41a5.635,5.635,0,0,1,1.3-3.9,4.534,4.534,0,0,1,3.564-1.455,4.444,4.444,0,0,1,3.179,1.128,3.994,3.994,0,0,1,1.216,3H23.555a1.939,1.939,0,0,0-.508-1.34,1.693,1.693,0,0,0-1.289-.515,1.7,1.7,0,0,0-1.489.719,4.166,4.166,0,0,0-.5,2.333v.293a4.219,4.219,0,0,0,.5,2.347A1.721,1.721,0,0,0,21.777-2.08ZM30.791,0H27.959V-10.566h2.832Zm-3-13.3a1.39,1.39,0,0,1,.425-1.045,1.6,1.6,0,0,1,1.157-.41,1.6,1.6,0,0,1,1.152.41,1.382,1.382,0,0,1,.43,1.045,1.386,1.386,0,0,1-.435,1.055,1.6,1.6,0,0,1-1.147.41,1.6,1.6,0,0,1-1.147-.41A1.386,1.386,0,0,1,27.793-13.3Zm4.883,7.92a6.267,6.267,0,0,1,.605-2.8,4.432,4.432,0,0,1,1.743-1.9,5.086,5.086,0,0,1,2.642-.674,4.812,4.812,0,0,1,3.491,1.309A5.252,5.252,0,0,1,42.666-5.9l.02.723a5.523,5.523,0,0,1-1.357,3.9A4.718,4.718,0,0,1,37.686.2,4.742,4.742,0,0,1,34.038-1.27a5.62,5.62,0,0,1-1.362-3.984Zm2.822.2a3.95,3.95,0,0,0,.566,2.3,1.868,1.868,0,0,0,1.621.8,1.873,1.873,0,0,0,1.6-.787,4.322,4.322,0,0,0,.576-2.518,3.91,3.91,0,0,0-.576-2.289,1.873,1.873,0,0,0-1.621-.812,1.842,1.842,0,0,0-1.6.807A4.395,4.395,0,0,0,35.5-5.181ZM38.223-15H41.3l-2.705,3.027H36.3Zm8.8,4.434.088,1.221a3.689,3.689,0,0,1,3.037-1.416,3.066,3.066,0,0,1,2.5.986,4.6,4.6,0,0,1,.84,2.949V0H50.664V-6.773a1.838,1.838,0,0,0-.391-1.307,1.746,1.746,0,0,0-1.3-.406,1.941,1.941,0,0,0-1.787,1.018V0H44.365V-10.566ZM-20.356,29a3.134,3.134,0,0,1-.283-.947A3.415,3.415,0,0,1-23.306,29.2a3.752,3.752,0,0,1-2.573-.9A2.89,2.89,0,0,1-26.9,26.031a2.986,2.986,0,0,1,1.245-2.578,6.144,6.144,0,0,1,3.6-.908h1.3v-.605a1.741,1.741,0,0,0-.376-1.172,1.479,1.479,0,0,0-1.187-.439,1.682,1.682,0,0,0-1.118.342,1.161,1.161,0,0,0-.405.938h-2.822a2.835,2.835,0,0,1,.566-1.7,3.744,3.744,0,0,1,1.6-1.226,5.837,5.837,0,0,1,2.324-.444,4.611,4.611,0,0,1,3.1.981,3.433,3.433,0,0,1,1.147,2.759v4.58a5.052,5.052,0,0,0,.42,2.275V29Zm-2.334-1.963a2.431,2.431,0,0,0,1.152-.278,1.828,1.828,0,0,0,.781-.747V24.2h-1.055q-2.119,0-2.256,1.465l-.01.166a1.13,1.13,0,0,0,.371.869A1.441,1.441,0,0,0-22.69,27.037Zm11.328-.117a1.851,1.851,0,0,0,1.27-.43,1.506,1.506,0,0,0,.508-1.143h2.646a3.62,3.62,0,0,1-.586,1.968A3.866,3.866,0,0,1-9.1,28.7a4.936,4.936,0,0,1-2.212.493,4.587,4.587,0,0,1-3.574-1.44A5.7,5.7,0,0,1-16.2,23.775V23.59a5.635,5.635,0,0,1,1.3-3.9,4.534,4.534,0,0,1,3.564-1.455,4.444,4.444,0,0,1,3.179,1.128,3.994,3.994,0,0,1,1.216,3H-9.585a1.939,1.939,0,0,0-.508-1.34,1.693,1.693,0,0,0-1.289-.515,1.7,1.7,0,0,0-1.489.719,4.166,4.166,0,0,0-.5,2.333v.293a4.219,4.219,0,0,0,.5,2.347A1.721,1.721,0,0,0-11.362,26.92Zm9.414-11.084v2.6H-.142V20.5H-1.948v5.273a1.259,1.259,0,0,0,.225.84,1.128,1.128,0,0,0,.859.254,4.5,4.5,0,0,0,.83-.068v2.139a5.81,5.81,0,0,1-1.709.254q-2.969,0-3.027-3V20.5H-6.313v-2.07h1.543v-2.6Zm9.707,12.09A3.539,3.539,0,0,1,4.868,29.2a3.338,3.338,0,0,1-2.593-.977,4.169,4.169,0,0,1-.913-2.861V18.434H4.185v6.834q0,1.652,1.5,1.652a2.038,2.038,0,0,0,1.973-1V18.434h2.832V29H7.837ZM18.745,29a3.134,3.134,0,0,1-.283-.947A3.415,3.415,0,0,1,15.8,29.2a3.752,3.752,0,0,1-2.573-.9A2.89,2.89,0,0,1,12.2,26.031a2.986,2.986,0,0,1,1.245-2.578,6.144,6.144,0,0,1,3.6-.908h1.3v-.605a1.741,1.741,0,0,0-.376-1.172,1.479,1.479,0,0,0-1.187-.439,1.682,1.682,0,0,0-1.118.342,1.161,1.161,0,0,0-.405.938H12.437a2.835,2.835,0,0,1,.566-1.7,3.744,3.744,0,0,1,1.6-1.226,5.837,5.837,0,0,1,2.324-.444,4.611,4.611,0,0,1,3.1.981,3.433,3.433,0,0,1,1.147,2.759v4.58a5.052,5.052,0,0,0,.42,2.275V29Zm-2.334-1.963a2.431,2.431,0,0,0,1.152-.278,1.828,1.828,0,0,0,.781-.747V24.2H17.29q-2.119,0-2.256,1.465l-.01.166a1.13,1.13,0,0,0,.371.869A1.441,1.441,0,0,0,16.411,27.037ZM26.323,29H23.491V14h2.832Z" transform="translate(779.817 8161.5)" fill="#fff"/>
    <path id="Trazado_186703" data-name="Trazado 186703" d="M-50.156,0h-2.93V-14.219h2.93Zm5.127-10.566.088,1.221A3.689,3.689,0,0,1-41.9-10.762a3.066,3.066,0,0,1,2.5.986,4.6,4.6,0,0,1,.84,2.949V0h-2.822V-6.773a1.838,1.838,0,0,0-.391-1.307,1.746,1.746,0,0,0-1.3-.406,1.941,1.941,0,0,0-1.787,1.018V0h-2.822V-10.566ZM-35.654,0V-8.5h-1.572v-2.07h1.572v-.9a3.648,3.648,0,0,1,1.021-2.759,3.952,3.952,0,0,1,2.856-.981,6.652,6.652,0,0,1,1.436.194l-.029,2.17a3.6,3.6,0,0,0-.859-.088q-1.592,0-1.592,1.507v.857h2.1V-8.5h-2.1V0ZM-29.7-5.381a6.266,6.266,0,0,1,.605-2.8,4.432,4.432,0,0,1,1.743-1.9,5.086,5.086,0,0,1,2.642-.674,4.812,4.812,0,0,1,3.491,1.309A5.252,5.252,0,0,1-19.707-5.9l.02.723a5.523,5.523,0,0,1-1.357,3.9A4.718,4.718,0,0,1-24.687.2,4.742,4.742,0,0,1-28.335-1.27,5.62,5.62,0,0,1-29.7-5.254Zm2.822.2a3.95,3.95,0,0,0,.566,2.3,1.868,1.868,0,0,0,1.621.8,1.873,1.873,0,0,0,1.6-.787,4.322,4.322,0,0,0,.576-2.518,3.91,3.91,0,0,0-.576-2.289,1.873,1.873,0,0,0-1.621-.812,1.842,1.842,0,0,0-1.6.807A4.395,4.395,0,0,0-26.875-5.181ZM-12.012-7.92A7.667,7.667,0,0,0-13.027-8a2.067,2.067,0,0,0-2.1,1.084V0h-2.822V-10.566h2.666l.078,1.26a2.615,2.615,0,0,1,2.354-1.455,2.957,2.957,0,0,1,.879.127Zm4-2.646.088,1.182a3.713,3.713,0,0,1,3.037-1.377A2.818,2.818,0,0,1-2.08-9.15a3.628,3.628,0,0,1,3.174-1.611,3.152,3.152,0,0,1,2.559,1,4.6,4.6,0,0,1,.84,3.013V0H1.66V-6.754A2.02,2.02,0,0,0,1.309-8.07a1.556,1.556,0,0,0-1.24-.416A1.762,1.762,0,0,0-1.689-7.273L-1.68,0H-4.5V-6.744a2,2,0,0,0-.361-1.331,1.571,1.571,0,0,0-1.23-.411,1.828,1.828,0,0,0-1.738,1V0h-2.822V-10.566ZM12.783,0A3.134,3.134,0,0,1,12.5-.947,3.415,3.415,0,0,1,9.834.2,3.752,3.752,0,0,1,7.261-.7,2.89,2.89,0,0,1,6.24-2.969,2.986,2.986,0,0,1,7.485-5.547a6.144,6.144,0,0,1,3.6-.908h1.3v-.605a1.741,1.741,0,0,0-.376-1.172,1.479,1.479,0,0,0-1.187-.439A1.682,1.682,0,0,0,9.7-8.33a1.161,1.161,0,0,0-.405.938H6.475a2.835,2.835,0,0,1,.566-1.7,3.744,3.744,0,0,1,1.6-1.226,5.837,5.837,0,0,1,2.324-.444,4.611,4.611,0,0,1,3.1.981,3.433,3.433,0,0,1,1.147,2.759v4.58a5.052,5.052,0,0,0,.42,2.275V0ZM10.449-1.963A2.431,2.431,0,0,0,11.6-2.241a1.828,1.828,0,0,0,.781-.747V-4.8H11.328Q9.209-4.8,9.072-3.34l-.01.166a1.13,1.13,0,0,0,.371.869A1.441,1.441,0,0,0,10.449-1.963ZM21.777-2.08a1.851,1.851,0,0,0,1.27-.43,1.506,1.506,0,0,0,.508-1.143H26.2a3.62,3.62,0,0,1-.586,1.968A3.866,3.866,0,0,1,24.038-.3,4.936,4.936,0,0,1,21.826.2a4.587,4.587,0,0,1-3.574-1.44,5.7,5.7,0,0,1-1.309-3.979V-5.41a5.635,5.635,0,0,1,1.3-3.9,4.534,4.534,0,0,1,3.564-1.455,4.444,4.444,0,0,1,3.179,1.128,3.994,3.994,0,0,1,1.216,3H23.555a1.939,1.939,0,0,0-.508-1.34,1.693,1.693,0,0,0-1.289-.515,1.7,1.7,0,0,0-1.489.719,4.166,4.166,0,0,0-.5,2.333v.293a4.219,4.219,0,0,0,.5,2.347A1.721,1.721,0,0,0,21.777-2.08ZM30.791,0H27.959V-10.566h2.832Zm-3-13.3a1.39,1.39,0,0,1,.425-1.045,1.6,1.6,0,0,1,1.157-.41,1.6,1.6,0,0,1,1.152.41,1.382,1.382,0,0,1,.43,1.045,1.386,1.386,0,0,1-.435,1.055,1.6,1.6,0,0,1-1.147.41,1.6,1.6,0,0,1-1.147-.41A1.386,1.386,0,0,1,27.793-13.3Zm4.883,7.92a6.267,6.267,0,0,1,.605-2.8,4.432,4.432,0,0,1,1.743-1.9,5.086,5.086,0,0,1,2.642-.674,4.812,4.812,0,0,1,3.491,1.309A5.252,5.252,0,0,1,42.666-5.9l.02.723a5.523,5.523,0,0,1-1.357,3.9A4.718,4.718,0,0,1,37.686.2,4.742,4.742,0,0,1,34.038-1.27a5.62,5.62,0,0,1-1.362-3.984Zm2.822.2a3.95,3.95,0,0,0,.566,2.3,1.868,1.868,0,0,0,1.621.8,1.873,1.873,0,0,0,1.6-.787,4.322,4.322,0,0,0,.576-2.518,3.91,3.91,0,0,0-.576-2.289,1.873,1.873,0,0,0-1.621-.812,1.842,1.842,0,0,0-1.6.807A4.395,4.395,0,0,0,35.5-5.181ZM38.223-15H41.3l-2.705,3.027H36.3Zm8.8,4.434.088,1.221a3.689,3.689,0,0,1,3.037-1.416,3.066,3.066,0,0,1,2.5.986,4.6,4.6,0,0,1,.84,2.949V0H50.664V-6.773a1.838,1.838,0,0,0-.391-1.307,1.746,1.746,0,0,0-1.3-.406,1.941,1.941,0,0,0-1.787,1.018V0H44.365V-10.566ZM-39.4,23.814a6.337,6.337,0,0,1-1.108,3.911A3.554,3.554,0,0,1-43.5,29.2a3.292,3.292,0,0,1-2.588-1.113v4.98h-2.822V18.434h2.617l.1,1.035a3.317,3.317,0,0,1,2.676-1.23,3.578,3.578,0,0,1,3.037,1.445A6.509,6.509,0,0,1-39.4,23.668Zm-2.822-.215a4.182,4.182,0,0,0-.522-2.282,1.7,1.7,0,0,0-1.519-.8,1.847,1.847,0,0,0-1.826,1.019v4.339a1.879,1.879,0,0,0,1.846,1.048Q-42.222,26.92-42.222,23.6Zm10.508-2.519A7.667,7.667,0,0,0-32.729,21a2.067,2.067,0,0,0-2.1,1.084V29h-2.822V18.434h2.666l.078,1.26a2.615,2.615,0,0,1,2.354-1.455,2.957,2.957,0,0,1,.879.127Zm.566,2.539a6.266,6.266,0,0,1,.605-2.8,4.432,4.432,0,0,1,1.743-1.9,5.086,5.086,0,0,1,2.642-.674,4.812,4.812,0,0,1,3.491,1.309A5.252,5.252,0,0,1-21.157,23.1l.02.723a5.523,5.523,0,0,1-1.357,3.9,4.718,4.718,0,0,1-3.643,1.47,4.742,4.742,0,0,1-3.647-1.465,5.62,5.62,0,0,1-1.362-3.984Zm2.822.2a3.95,3.95,0,0,0,.566,2.3,1.868,1.868,0,0,0,1.621.8,1.873,1.873,0,0,0,1.6-.787,4.322,4.322,0,0,0,.576-2.518,3.91,3.91,0,0,0-.576-2.289,1.873,1.873,0,0,0-1.621-.812,1.842,1.842,0,0,0-1.6.807A4.395,4.395,0,0,0-28.325,23.819ZM-15.6,25.006l1.953-6.572h3.027l-4.248,12.207-.234.557a3.221,3.221,0,0,1-3.125,2.07,4.441,4.441,0,0,1-1.25-.186V30.943l.43.01a2.322,2.322,0,0,0,1.2-.244,1.6,1.6,0,0,0,.62-.811l.332-.869-3.7-10.6h3.037ZM-4.771,29.2A5.187,5.187,0,0,1-8.555,27.77a5.068,5.068,0,0,1-1.46-3.8V23.7A6.383,6.383,0,0,1-9.4,20.851a4.515,4.515,0,0,1,1.743-1.934,4.893,4.893,0,0,1,2.573-.679A4.385,4.385,0,0,1-1.67,19.605,5.555,5.555,0,0,1-.425,23.482v1.152H-7.153a2.622,2.622,0,0,0,.825,1.66,2.5,2.5,0,0,0,1.743.625,3.046,3.046,0,0,0,2.549-1.182l1.387,1.553a4.237,4.237,0,0,1-1.719,1.4A5.639,5.639,0,0,1-4.771,29.2Zm-.322-8.682a1.764,1.764,0,0,0-1.362.569,2.946,2.946,0,0,0-.669,1.628H-3.2v-.226a2.1,2.1,0,0,0-.508-1.457A1.819,1.819,0,0,0-5.093,20.514ZM5.571,26.92a1.851,1.851,0,0,0,1.27-.43,1.506,1.506,0,0,0,.508-1.143H10a3.62,3.62,0,0,1-.586,1.968A3.866,3.866,0,0,1,7.832,28.7,4.936,4.936,0,0,1,5.62,29.2a4.587,4.587,0,0,1-3.574-1.44A5.7,5.7,0,0,1,.737,23.775V23.59a5.635,5.635,0,0,1,1.3-3.9A4.534,4.534,0,0,1,5.6,18.238a4.444,4.444,0,0,1,3.179,1.128,3.994,3.994,0,0,1,1.216,3H7.349a1.939,1.939,0,0,0-.508-1.34,1.693,1.693,0,0,0-1.289-.515,1.7,1.7,0,0,0-1.489.719,4.166,4.166,0,0,0-.5,2.333v.293a4.219,4.219,0,0,0,.5,2.347A1.721,1.721,0,0,0,5.571,26.92Zm9.414-11.084v2.6h1.807V20.5H14.985v5.273a1.259,1.259,0,0,0,.225.84,1.128,1.128,0,0,0,.859.254,4.5,4.5,0,0,0,.83-.068v2.139a5.81,5.81,0,0,1-1.709.254q-2.969,0-3.027-3V20.5H10.62v-2.07h1.543v-2.6ZM24.487,29a3.134,3.134,0,0,1-.283-.947A3.415,3.415,0,0,1,21.538,29.2a3.752,3.752,0,0,1-2.573-.9,2.89,2.89,0,0,1-1.021-2.266,2.986,2.986,0,0,1,1.245-2.578,6.144,6.144,0,0,1,3.6-.908h1.3v-.605a1.741,1.741,0,0,0-.376-1.172,1.479,1.479,0,0,0-1.187-.439,1.682,1.682,0,0,0-1.118.342,1.161,1.161,0,0,0-.405.938H18.179a2.835,2.835,0,0,1,.566-1.7,3.744,3.744,0,0,1,1.6-1.226,5.837,5.837,0,0,1,2.324-.444,4.611,4.611,0,0,1,3.1.981,3.433,3.433,0,0,1,1.147,2.759v4.58a5.052,5.052,0,0,0,.42,2.275V29Zm-2.334-1.963a2.431,2.431,0,0,0,1.152-.278,1.828,1.828,0,0,0,.781-.747V24.2H23.032q-2.119,0-2.256,1.465l-.01.166a1.13,1.13,0,0,0,.371.869A1.441,1.441,0,0,0,22.153,27.037Zm6.494-3.4A6.368,6.368,0,0,1,29.756,19.7a3.6,3.6,0,0,1,3.032-1.465,3.236,3.236,0,0,1,2.549,1.152V14h2.832V29H35.62l-.137-1.123A3.321,3.321,0,0,1,32.769,29.2a3.587,3.587,0,0,1-2.993-1.47A6.573,6.573,0,0,1,28.647,23.639Zm2.822.2a4.194,4.194,0,0,0,.518,2.286,1.685,1.685,0,0,0,1.5.795,1.888,1.888,0,0,0,1.846-1.109V21.622a1.861,1.861,0,0,0-1.826-1.109Q31.47,20.514,31.47,23.839ZM46.479,29a3.134,3.134,0,0,1-.283-.947A3.415,3.415,0,0,1,43.53,29.2a3.752,3.752,0,0,1-2.573-.9,2.89,2.89,0,0,1-1.021-2.266,2.986,2.986,0,0,1,1.245-2.578,6.144,6.144,0,0,1,3.6-.908h1.3v-.605a1.741,1.741,0,0,0-.376-1.172,1.479,1.479,0,0,0-1.187-.439,1.682,1.682,0,0,0-1.118.342,1.161,1.161,0,0,0-.405.938H40.171a2.835,2.835,0,0,1,.566-1.7,3.744,3.744,0,0,1,1.6-1.226,5.837,5.837,0,0,1,2.324-.444,4.611,4.611,0,0,1,3.1.981,3.433,3.433,0,0,1,1.147,2.759v4.58a5.052,5.052,0,0,0,.42,2.275V29Zm-2.334-1.963a2.431,2.431,0,0,0,1.152-.278,1.828,1.828,0,0,0,.781-.747V24.2H45.024q-2.119,0-2.256,1.465l-.01.166a1.13,1.13,0,0,0,.371.869A1.441,1.441,0,0,0,44.146,27.037Z" transform="translate(1117.817 8161.5)" fill="#fff"/>
  </g>
</svg>
